G04 #@! TF.GenerationSoftware,KiCad,Pcbnew,(6.0.5)*
G04 #@! TF.CreationDate,2022-06-24T16:52:39-05:00*
G04 #@! TF.ProjectId,robo_car,726f626f-5f63-4617-922e-6b696361645f,1.0P*
G04 #@! TF.SameCoordinates,Original*
G04 #@! TF.FileFunction,Legend,Bot*
G04 #@! TF.FilePolarity,Positive*
%FSLAX46Y46*%
G04 Gerber Fmt 4.6, Leading zero omitted, Abs format (unit mm)*
G04 Created by KiCad (PCBNEW (6.0.5)) date 2022-06-24 16:52:39*
%MOMM*%
%LPD*%
G01*
G04 APERTURE LIST*
%ADD10C,0.150000*%
%ADD11C,0.300000*%
G04 APERTURE END LIST*
D10*
X199019047Y-149457380D02*
X199019047Y-148457380D01*
X198685714Y-149171666D01*
X198352380Y-148457380D01*
X198352380Y-149457380D01*
X197447619Y-149457380D02*
X197447619Y-148933571D01*
X197495238Y-148838333D01*
X197590476Y-148790714D01*
X197780952Y-148790714D01*
X197876190Y-148838333D01*
X197447619Y-149409761D02*
X197542857Y-149457380D01*
X197780952Y-149457380D01*
X197876190Y-149409761D01*
X197923809Y-149314523D01*
X197923809Y-149219285D01*
X197876190Y-149124047D01*
X197780952Y-149076428D01*
X197542857Y-149076428D01*
X197447619Y-149028809D01*
X196542857Y-149457380D02*
X196542857Y-148457380D01*
X196542857Y-149409761D02*
X196638095Y-149457380D01*
X196828571Y-149457380D01*
X196923809Y-149409761D01*
X196971428Y-149362142D01*
X197019047Y-149266904D01*
X197019047Y-148981190D01*
X196971428Y-148885952D01*
X196923809Y-148838333D01*
X196828571Y-148790714D01*
X196638095Y-148790714D01*
X196542857Y-148838333D01*
X195685714Y-149409761D02*
X195780952Y-149457380D01*
X195971428Y-149457380D01*
X196066666Y-149409761D01*
X196114285Y-149314523D01*
X196114285Y-148933571D01*
X196066666Y-148838333D01*
X195971428Y-148790714D01*
X195780952Y-148790714D01*
X195685714Y-148838333D01*
X195638095Y-148933571D01*
X195638095Y-149028809D01*
X196114285Y-149124047D01*
X194447619Y-149457380D02*
X194447619Y-148457380D01*
X194447619Y-148838333D02*
X194352380Y-148790714D01*
X194161904Y-148790714D01*
X194066666Y-148838333D01*
X194019047Y-148885952D01*
X193971428Y-148981190D01*
X193971428Y-149266904D01*
X194019047Y-149362142D01*
X194066666Y-149409761D01*
X194161904Y-149457380D01*
X194352380Y-149457380D01*
X194447619Y-149409761D01*
X193638095Y-148790714D02*
X193400000Y-149457380D01*
X193161904Y-148790714D02*
X193400000Y-149457380D01*
X193495238Y-149695476D01*
X193542857Y-149743095D01*
X193638095Y-149790714D01*
X191828571Y-148457380D02*
X191638095Y-148457380D01*
X191542857Y-148505000D01*
X191447619Y-148600238D01*
X191400000Y-148790714D01*
X191400000Y-149124047D01*
X191447619Y-149314523D01*
X191542857Y-149409761D01*
X191638095Y-149457380D01*
X191828571Y-149457380D01*
X191923809Y-149409761D01*
X192019047Y-149314523D01*
X192066666Y-149124047D01*
X192066666Y-148790714D01*
X192019047Y-148600238D01*
X191923809Y-148505000D01*
X191828571Y-148457380D01*
X190828571Y-149457380D02*
X190923809Y-149409761D01*
X190971428Y-149314523D01*
X190971428Y-148457380D01*
X190447619Y-149457380D02*
X190447619Y-148790714D01*
X190447619Y-148457380D02*
X190495238Y-148505000D01*
X190447619Y-148552619D01*
X190400000Y-148505000D01*
X190447619Y-148457380D01*
X190447619Y-148552619D01*
X190066666Y-148790714D02*
X189828571Y-149457380D01*
X189590476Y-148790714D01*
X189209523Y-149457380D02*
X189209523Y-148790714D01*
X189209523Y-148457380D02*
X189257142Y-148505000D01*
X189209523Y-148552619D01*
X189161904Y-148505000D01*
X189209523Y-148457380D01*
X189209523Y-148552619D01*
X188304761Y-149457380D02*
X188304761Y-148933571D01*
X188352380Y-148838333D01*
X188447619Y-148790714D01*
X188638095Y-148790714D01*
X188733333Y-148838333D01*
X188304761Y-149409761D02*
X188400000Y-149457380D01*
X188638095Y-149457380D01*
X188733333Y-149409761D01*
X188780952Y-149314523D01*
X188780952Y-149219285D01*
X188733333Y-149124047D01*
X188638095Y-149076428D01*
X188400000Y-149076428D01*
X188304761Y-149028809D01*
X186257142Y-149457380D02*
X186304761Y-149457380D01*
X186400000Y-149409761D01*
X186542857Y-149266904D01*
X186780952Y-148981190D01*
X186876190Y-148838333D01*
X186923809Y-148695476D01*
X186923809Y-148600238D01*
X186876190Y-148505000D01*
X186780952Y-148457380D01*
X186733333Y-148457380D01*
X186638095Y-148505000D01*
X186590476Y-148600238D01*
X186590476Y-148647857D01*
X186638095Y-148743095D01*
X186685714Y-148790714D01*
X186971428Y-148981190D01*
X187019047Y-149028809D01*
X187066666Y-149124047D01*
X187066666Y-149266904D01*
X187019047Y-149362142D01*
X186971428Y-149409761D01*
X186876190Y-149457380D01*
X186733333Y-149457380D01*
X186638095Y-149409761D01*
X186590476Y-149362142D01*
X186447619Y-149171666D01*
X186400000Y-149028809D01*
X186400000Y-148933571D01*
X185114285Y-149171666D02*
X184638095Y-149171666D01*
X185209523Y-149457380D02*
X184876190Y-148457380D01*
X184542857Y-149457380D01*
X184209523Y-148790714D02*
X184209523Y-149457380D01*
X184209523Y-148885952D02*
X184161904Y-148838333D01*
X184066666Y-148790714D01*
X183923809Y-148790714D01*
X183828571Y-148838333D01*
X183780952Y-148933571D01*
X183780952Y-149457380D01*
X182876190Y-149457380D02*
X182876190Y-148457380D01*
X182876190Y-149409761D02*
X182971428Y-149457380D01*
X183161904Y-149457380D01*
X183257142Y-149409761D01*
X183304761Y-149362142D01*
X183352380Y-149266904D01*
X183352380Y-148981190D01*
X183304761Y-148885952D01*
X183257142Y-148838333D01*
X183161904Y-148790714D01*
X182971428Y-148790714D01*
X182876190Y-148838333D01*
X182400000Y-149457380D02*
X182400000Y-148790714D01*
X182400000Y-148981190D02*
X182352380Y-148885952D01*
X182304761Y-148838333D01*
X182209523Y-148790714D01*
X182114285Y-148790714D01*
X181400000Y-149409761D02*
X181495238Y-149457380D01*
X181685714Y-149457380D01*
X181780952Y-149409761D01*
X181828571Y-149314523D01*
X181828571Y-148933571D01*
X181780952Y-148838333D01*
X181685714Y-148790714D01*
X181495238Y-148790714D01*
X181400000Y-148838333D01*
X181352380Y-148933571D01*
X181352380Y-149028809D01*
X181828571Y-149124047D01*
X181019047Y-148790714D02*
X180828571Y-149457380D01*
X180638095Y-148981190D01*
X180447619Y-149457380D01*
X180257142Y-148790714D01*
X179161904Y-148552619D02*
X179114285Y-148505000D01*
X179019047Y-148457380D01*
X178780952Y-148457380D01*
X178685714Y-148505000D01*
X178638095Y-148552619D01*
X178590476Y-148647857D01*
X178590476Y-148743095D01*
X178638095Y-148885952D01*
X179209523Y-149457380D01*
X178590476Y-149457380D01*
X177971428Y-148457380D02*
X177876190Y-148457380D01*
X177780952Y-148505000D01*
X177733333Y-148552619D01*
X177685714Y-148647857D01*
X177638095Y-148838333D01*
X177638095Y-149076428D01*
X177685714Y-149266904D01*
X177733333Y-149362142D01*
X177780952Y-149409761D01*
X177876190Y-149457380D01*
X177971428Y-149457380D01*
X178066666Y-149409761D01*
X178114285Y-149362142D01*
X178161904Y-149266904D01*
X178209523Y-149076428D01*
X178209523Y-148838333D01*
X178161904Y-148647857D01*
X178114285Y-148552619D01*
X178066666Y-148505000D01*
X177971428Y-148457380D01*
X177257142Y-148552619D02*
X177209523Y-148505000D01*
X177114285Y-148457380D01*
X176876190Y-148457380D01*
X176780952Y-148505000D01*
X176733333Y-148552619D01*
X176685714Y-148647857D01*
X176685714Y-148743095D01*
X176733333Y-148885952D01*
X177304761Y-149457380D01*
X176685714Y-149457380D01*
X176304761Y-148552619D02*
X176257142Y-148505000D01*
X176161904Y-148457380D01*
X175923809Y-148457380D01*
X175828571Y-148505000D01*
X175780952Y-148552619D01*
X175733333Y-148647857D01*
X175733333Y-148743095D01*
X175780952Y-148885952D01*
X176352380Y-149457380D01*
X175733333Y-149457380D01*
D11*
X152603904Y-108835578D02*
X152749047Y-108763006D01*
X152966761Y-108763006D01*
X153184475Y-108835578D01*
X153329618Y-108980720D01*
X153402190Y-109125863D01*
X153474761Y-109416149D01*
X153474761Y-109633863D01*
X153402190Y-109924149D01*
X153329618Y-110069292D01*
X153184475Y-110214435D01*
X152966761Y-110287006D01*
X152821618Y-110287006D01*
X152603904Y-110214435D01*
X152531333Y-110141863D01*
X152531333Y-109633863D01*
X152821618Y-109633863D01*
X151660475Y-108763006D02*
X151660475Y-109125863D01*
X152023333Y-108980720D02*
X151660475Y-109125863D01*
X151297618Y-108980720D01*
X151878190Y-109416149D02*
X151660475Y-109125863D01*
X151442761Y-109416149D01*
X150499333Y-108763006D02*
X150499333Y-109125863D01*
X150862190Y-108980720D02*
X150499333Y-109125863D01*
X150136475Y-108980720D01*
X150717047Y-109416149D02*
X150499333Y-109125863D01*
X150281618Y-109416149D01*
X149338190Y-108763006D02*
X149338190Y-109125863D01*
X149701047Y-108980720D02*
X149338190Y-109125863D01*
X148975333Y-108980720D01*
X149555904Y-109416149D02*
X149338190Y-109125863D01*
X149120475Y-109416149D01*
G36*
X144059134Y-92181626D02*
G01*
X144124818Y-92215438D01*
X144334693Y-92411961D01*
X144405924Y-92657731D01*
X144324391Y-92913777D01*
X144255368Y-92993698D01*
X144019295Y-93113990D01*
X143737802Y-93125107D01*
X143476585Y-93018903D01*
X143389013Y-92916676D01*
X143351618Y-92699879D01*
X143429557Y-92461649D01*
X143613387Y-92254747D01*
X143721099Y-92181329D01*
X143881635Y-92130261D01*
X144059134Y-92181626D01*
G37*
G36*
X141050089Y-76900159D02*
G01*
X140894936Y-77365757D01*
X140808026Y-77521524D01*
X140567095Y-77854795D01*
X140255239Y-78162522D01*
X139856549Y-78454222D01*
X139355121Y-78739412D01*
X138735047Y-79027609D01*
X137980420Y-79328332D01*
X137075333Y-79651097D01*
X136582615Y-79821149D01*
X135535676Y-80196460D01*
X134632369Y-80544124D01*
X133857864Y-80872121D01*
X133197327Y-81188430D01*
X132635927Y-81501032D01*
X132158834Y-81817905D01*
X131751213Y-82147031D01*
X131398235Y-82496387D01*
X131085068Y-82873955D01*
X130898276Y-83142117D01*
X130591275Y-83720800D01*
X130398129Y-84305006D01*
X130320869Y-84870567D01*
X130361522Y-85393315D01*
X130522117Y-85849083D01*
X130804684Y-86213704D01*
X130957455Y-86345343D01*
X131455057Y-86721135D01*
X132100023Y-87148907D01*
X132884333Y-87623225D01*
X133646333Y-88066992D01*
X133237662Y-88016347D01*
X132791824Y-87928716D01*
X132244934Y-87767812D01*
X131670710Y-87557012D01*
X131127623Y-87317858D01*
X130674146Y-87071893D01*
X130037936Y-86607973D01*
X129508655Y-86054250D01*
X129134190Y-85439074D01*
X129132878Y-85436220D01*
X128958783Y-84875071D01*
X128914772Y-84371214D01*
X129724443Y-84371214D01*
X129728946Y-84425433D01*
X129745116Y-84567198D01*
X129765932Y-84583058D01*
X129801053Y-84459660D01*
X129860139Y-84183653D01*
X129929964Y-83900493D01*
X130235322Y-83136184D01*
X130697739Y-82424259D01*
X131312768Y-81769747D01*
X132075961Y-81177675D01*
X132982870Y-80653073D01*
X133055993Y-80616685D01*
X133498672Y-80405734D01*
X133975664Y-80195535D01*
X134512463Y-79975943D01*
X135134566Y-79736812D01*
X135867469Y-79467996D01*
X136736666Y-79159352D01*
X136997709Y-79067388D01*
X137705232Y-78812953D01*
X138278376Y-78596473D01*
X138737789Y-78408660D01*
X139104119Y-78240225D01*
X139398013Y-78081879D01*
X139640119Y-77924333D01*
X139851087Y-77758299D01*
X139988805Y-77632432D01*
X140332634Y-77202570D01*
X140509948Y-76749258D01*
X140520035Y-76275247D01*
X140362183Y-75783282D01*
X140198811Y-75514196D01*
X139902892Y-75136577D01*
X139520791Y-74716679D01*
X139081496Y-74282930D01*
X138613995Y-73863756D01*
X138147278Y-73487583D01*
X137710333Y-73182840D01*
X137456333Y-73022977D01*
X137729917Y-73340421D01*
X137992737Y-73686844D01*
X138242735Y-74194371D01*
X138329737Y-74706313D01*
X138257088Y-75234692D01*
X138160580Y-75475328D01*
X137949778Y-75802509D01*
X137628478Y-76173547D01*
X137187311Y-76598057D01*
X136616907Y-77085657D01*
X135907897Y-77645964D01*
X135308668Y-78107858D01*
X134290810Y-78903658D01*
X133400764Y-79617022D01*
X132630362Y-80255974D01*
X131971437Y-80828537D01*
X131415820Y-81342734D01*
X130955344Y-81806589D01*
X130581841Y-82228125D01*
X130287143Y-82615365D01*
X130063082Y-82976334D01*
X129901491Y-83319053D01*
X129794202Y-83651548D01*
X129775063Y-83737013D01*
X129729323Y-84071562D01*
X129724443Y-84371214D01*
X128914772Y-84371214D01*
X128903631Y-84243671D01*
X128967124Y-83591718D01*
X129148966Y-82968912D01*
X129179267Y-82896465D01*
X129371788Y-82505234D01*
X129620909Y-82104921D01*
X129936115Y-81686275D01*
X130326885Y-81240043D01*
X130802701Y-80756974D01*
X131373046Y-80227816D01*
X132047400Y-79643318D01*
X132835244Y-78994227D01*
X133746062Y-78271292D01*
X134789333Y-77465261D01*
X135102777Y-77225261D01*
X135682077Y-76778596D01*
X136147244Y-76413845D01*
X136513191Y-76118072D01*
X136794832Y-75878342D01*
X137007079Y-75681720D01*
X137164845Y-75515270D01*
X137283045Y-75366058D01*
X137376590Y-75221149D01*
X137444391Y-75098511D01*
X137559863Y-74781471D01*
X137551485Y-74478209D01*
X137422046Y-74121245D01*
X137262415Y-73844256D01*
X136990202Y-73519597D01*
X136614107Y-73187958D01*
X136119752Y-72838272D01*
X135492760Y-72459472D01*
X134718754Y-72040492D01*
X134613191Y-71985221D01*
X134186000Y-71747558D01*
X133905053Y-71560181D01*
X133760710Y-71413927D01*
X133743331Y-71299630D01*
X133843276Y-71208125D01*
X133969689Y-71176965D01*
X134246462Y-71194423D01*
X134653353Y-71281011D01*
X135197740Y-71438389D01*
X135887002Y-71668220D01*
X136415163Y-71858725D01*
X136849394Y-72034022D01*
X137218971Y-72210899D01*
X137573937Y-72413378D01*
X137964333Y-72665482D01*
X138515076Y-73059467D01*
X139146082Y-73571773D01*
X139725263Y-74106635D01*
X140227806Y-74639290D01*
X140628899Y-75144978D01*
X140903731Y-75598936D01*
X141005004Y-75865263D01*
X141070442Y-76275247D01*
X141086887Y-76378282D01*
X141050089Y-76900159D01*
G37*
G36*
X188167670Y-65861471D02*
G01*
X188150873Y-66244342D01*
X188115378Y-66551327D01*
X188055389Y-66831013D01*
X187965112Y-67131989D01*
X187941489Y-67200558D01*
X187793702Y-67552683D01*
X187597595Y-67940155D01*
X187376197Y-68324785D01*
X187152537Y-68668388D01*
X186949642Y-68932775D01*
X186790542Y-69079758D01*
X186719800Y-69115960D01*
X186456487Y-69155971D01*
X186230381Y-69035197D01*
X186193117Y-68987398D01*
X186136342Y-68829012D01*
X186105462Y-68566393D01*
X186095474Y-68167364D01*
X186095454Y-68161254D01*
X186044352Y-67548287D01*
X185885989Y-67016549D01*
X185605204Y-66540254D01*
X185186835Y-66093616D01*
X184615718Y-65650851D01*
X184430848Y-65527941D01*
X184211792Y-65411064D01*
X184026288Y-65368726D01*
X183814913Y-65380893D01*
X183773229Y-65387083D01*
X183358351Y-65510903D01*
X182977414Y-65726109D01*
X182663824Y-66003760D01*
X182450989Y-66314915D01*
X182372316Y-66630633D01*
X182373855Y-66655952D01*
X182423044Y-66856443D01*
X182527513Y-67143213D01*
X182668333Y-67463033D01*
X182764808Y-67670668D01*
X182902710Y-68022046D01*
X182952340Y-68276259D01*
X182917148Y-68463299D01*
X182800583Y-68613161D01*
X182778187Y-68632870D01*
X182704808Y-68681766D01*
X182608617Y-68705789D01*
X182461064Y-68702810D01*
X182233597Y-68670701D01*
X181897665Y-68607332D01*
X181424718Y-68510574D01*
X180788478Y-68364683D01*
X179674644Y-68026484D01*
X178702853Y-67609887D01*
X177865823Y-67110902D01*
X177156272Y-66525541D01*
X176566920Y-65849815D01*
X176414844Y-65624548D01*
X176110235Y-65010148D01*
X175917957Y-64352005D01*
X175843445Y-63686911D01*
X175845522Y-63659811D01*
X176741666Y-63659811D01*
X176747380Y-63949957D01*
X176782772Y-64254020D01*
X176867258Y-64532772D01*
X177019771Y-64868493D01*
X177347029Y-65397911D01*
X177875186Y-65970307D01*
X178549524Y-66481091D01*
X179361624Y-66924047D01*
X180303067Y-67292956D01*
X180450847Y-67340632D01*
X180826428Y-67454639D01*
X181158391Y-67546206D01*
X181388514Y-67598923D01*
X181405597Y-67601877D01*
X181604344Y-67626914D01*
X181677210Y-67599932D01*
X181660812Y-67508811D01*
X181524408Y-67028991D01*
X181497801Y-66455274D01*
X181630858Y-65927110D01*
X181919723Y-65452898D01*
X182360545Y-65041039D01*
X182949469Y-64699931D01*
X183000959Y-64677288D01*
X183444187Y-64541830D01*
X183913250Y-64484659D01*
X184351012Y-64508509D01*
X184700333Y-64616117D01*
X184991202Y-64795341D01*
X185382859Y-65099808D01*
X185778115Y-65464310D01*
X186148219Y-65857835D01*
X186464418Y-66249373D01*
X186697961Y-66607911D01*
X186820096Y-66902441D01*
X186822686Y-66913782D01*
X186892880Y-67118685D01*
X186972086Y-67158260D01*
X187062583Y-67031419D01*
X187166649Y-66737075D01*
X187245765Y-66371874D01*
X187301663Y-65809391D01*
X187306664Y-65199735D01*
X187260827Y-64607074D01*
X187164211Y-64095576D01*
X187110092Y-63908980D01*
X186743018Y-63002560D01*
X186221771Y-62149431D01*
X185553938Y-61356598D01*
X184747108Y-60631070D01*
X183808869Y-59979853D01*
X182746810Y-59409956D01*
X181568520Y-58928385D01*
X181266932Y-58828455D01*
X180880952Y-58709991D01*
X180447316Y-58583252D01*
X180000958Y-58457860D01*
X179576811Y-58343437D01*
X179209811Y-58249608D01*
X178934892Y-58185993D01*
X178786987Y-58162216D01*
X178783717Y-58162818D01*
X178810269Y-58230033D01*
X178927267Y-58386835D01*
X179111852Y-58602260D01*
X179363242Y-58901613D01*
X179679742Y-59386404D01*
X179859696Y-59856517D01*
X179916666Y-60341258D01*
X179880787Y-60741065D01*
X179757066Y-61047874D01*
X179525675Y-61270607D01*
X179166803Y-61428163D01*
X178660637Y-61539441D01*
X178536430Y-61561969D01*
X177941787Y-61757091D01*
X177450360Y-62083754D01*
X177051838Y-62548428D01*
X176993603Y-62637075D01*
X176855666Y-62870675D01*
X176780016Y-63074863D01*
X176748174Y-63315841D01*
X176741666Y-63659811D01*
X175845522Y-63659811D01*
X175892136Y-63051659D01*
X176069467Y-62483043D01*
X176090618Y-62438378D01*
X176480813Y-61808786D01*
X176980382Y-61304928D01*
X177579814Y-60934489D01*
X178269599Y-60705154D01*
X178406694Y-60675761D01*
X178683892Y-60615642D01*
X178879500Y-60572320D01*
X178952147Y-60547177D01*
X179066639Y-60408244D01*
X179053166Y-60174604D01*
X178914846Y-59854445D01*
X178654795Y-59455951D01*
X178276130Y-58987309D01*
X178225675Y-58929079D01*
X177937068Y-58570154D01*
X177770803Y-58296571D01*
X177721091Y-58086908D01*
X177782142Y-57919740D01*
X177948166Y-57773643D01*
X178050395Y-57721223D01*
X178375334Y-57634524D01*
X178807548Y-57586825D01*
X179307296Y-57579489D01*
X179834838Y-57613877D01*
X180350433Y-57691349D01*
X181203591Y-57894032D01*
X182395033Y-58288128D01*
X183516979Y-58791044D01*
X184553816Y-59392188D01*
X185489933Y-60080970D01*
X186309718Y-60846798D01*
X186997558Y-61679082D01*
X187537840Y-62567229D01*
X187666517Y-62832318D01*
X187906371Y-63427524D01*
X188062088Y-64016356D01*
X188146287Y-64655234D01*
X188164770Y-65199735D01*
X188171588Y-65400578D01*
X188167670Y-65861471D01*
G37*
G36*
X142977713Y-111594761D02*
G01*
X142836592Y-112088760D01*
X142618597Y-112607652D01*
X142316620Y-113161312D01*
X141923555Y-113759610D01*
X141432294Y-114412420D01*
X140835731Y-115129614D01*
X140126757Y-115921065D01*
X139298267Y-116796645D01*
X138343154Y-117766226D01*
X137770897Y-118334525D01*
X137252628Y-118839163D01*
X136807179Y-119258251D01*
X136412109Y-119611149D01*
X136044977Y-119917217D01*
X135683340Y-120195815D01*
X135304759Y-120466303D01*
X134886793Y-120748042D01*
X134661729Y-120894446D01*
X134382689Y-121069233D01*
X134177718Y-121189380D01*
X134079982Y-121234875D01*
X134060492Y-121227767D01*
X134069735Y-121187746D01*
X134126754Y-121100799D01*
X134242419Y-120953731D01*
X134427605Y-120733343D01*
X134693182Y-120426439D01*
X135050023Y-120019822D01*
X135509000Y-119500295D01*
X135653852Y-119336219D01*
X136212715Y-118692872D01*
X136668217Y-118148123D01*
X137033573Y-117684705D01*
X137321999Y-117285346D01*
X137546711Y-116932776D01*
X137720923Y-116609724D01*
X137845734Y-116328972D01*
X137919167Y-116076493D01*
X137953595Y-115787670D01*
X137962191Y-115396245D01*
X137960161Y-115234147D01*
X137913797Y-114746189D01*
X137789438Y-114353022D01*
X137564871Y-114002287D01*
X137217886Y-113641621D01*
X137062237Y-113504747D01*
X136808657Y-113313439D01*
X136524775Y-113143822D01*
X136187939Y-112986892D01*
X135775496Y-112833643D01*
X135264793Y-112675070D01*
X134633178Y-112502169D01*
X133858000Y-112305933D01*
X133563138Y-112232103D01*
X132713222Y-112003389D01*
X132008706Y-111783929D01*
X131432196Y-111565652D01*
X130966300Y-111340487D01*
X130593623Y-111100365D01*
X130296774Y-110837215D01*
X130058359Y-110542967D01*
X129945144Y-110356313D01*
X129735902Y-109871384D01*
X129593178Y-109338330D01*
X129565361Y-109069145D01*
X130400167Y-109069145D01*
X130473028Y-109533707D01*
X130643919Y-109919652D01*
X130924934Y-110266302D01*
X131017466Y-110353401D01*
X131293107Y-110561832D01*
X131639817Y-110755380D01*
X132076926Y-110941703D01*
X132623759Y-111128459D01*
X133299646Y-111323307D01*
X134123912Y-111533905D01*
X134834669Y-111712829D01*
X135569193Y-111915635D01*
X136175705Y-112109908D01*
X136675823Y-112305343D01*
X137091161Y-112511637D01*
X137443336Y-112738486D01*
X137753964Y-112995587D01*
X138044660Y-113292635D01*
X138144567Y-113410760D01*
X138495641Y-113975302D01*
X138727037Y-114616703D01*
X138826040Y-115289070D01*
X138779936Y-115946512D01*
X138751817Y-116102387D01*
X138723422Y-116304954D01*
X138723022Y-116394822D01*
X138740754Y-116385633D01*
X138849706Y-116282030D01*
X139039759Y-116082578D01*
X139291239Y-115809331D01*
X139584474Y-115484343D01*
X139899791Y-115129668D01*
X140217518Y-114767360D01*
X140517982Y-114419472D01*
X140781510Y-114108061D01*
X140988430Y-113855178D01*
X141525787Y-113120553D01*
X141946066Y-112397567D01*
X142212644Y-111728683D01*
X142327042Y-111108645D01*
X142290779Y-110532201D01*
X142105374Y-109994097D01*
X141996295Y-109798350D01*
X141726758Y-109440979D01*
X141369064Y-109105447D01*
X140909978Y-108784049D01*
X140336264Y-108469086D01*
X139634687Y-108152853D01*
X138792010Y-107827650D01*
X137795000Y-107485774D01*
X137611570Y-107425344D01*
X136805314Y-107145624D01*
X136148171Y-106887948D01*
X135626132Y-106642736D01*
X135225186Y-106400407D01*
X134931323Y-106151382D01*
X134730533Y-105886080D01*
X134608806Y-105594922D01*
X134552131Y-105268327D01*
X134551632Y-105262270D01*
X134542263Y-105001285D01*
X134573179Y-104777086D01*
X134659372Y-104528646D01*
X134815835Y-104194935D01*
X135017526Y-103837445D01*
X135286939Y-103434905D01*
X135553102Y-103098412D01*
X135609255Y-103034623D01*
X135784496Y-102819209D01*
X135884345Y-102668389D01*
X135888534Y-102611578D01*
X135759878Y-102644283D01*
X135504666Y-102757528D01*
X135166952Y-102934798D01*
X134777382Y-103158404D01*
X134366602Y-103410655D01*
X133965259Y-103673859D01*
X133604000Y-103930327D01*
X133270470Y-104188637D01*
X132474741Y-104891301D01*
X131793003Y-105625134D01*
X131235279Y-106375557D01*
X130811594Y-107127991D01*
X130531973Y-107867857D01*
X130406440Y-108580578D01*
X130400167Y-109069145D01*
X129565361Y-109069145D01*
X129541470Y-108837956D01*
X129553403Y-108563963D01*
X129689684Y-107791685D01*
X129968578Y-106989248D01*
X130378366Y-106177808D01*
X130907332Y-105378522D01*
X131543757Y-104612544D01*
X132275923Y-103901032D01*
X133086644Y-103247279D01*
X134088099Y-102577994D01*
X135100277Y-102046494D01*
X136108969Y-101659066D01*
X137099970Y-101421998D01*
X138059072Y-101341578D01*
X138437944Y-101350163D01*
X138767004Y-101389767D01*
X138972166Y-101471376D01*
X139077564Y-101605617D01*
X139107333Y-101803116D01*
X139099119Y-101892097D01*
X139042165Y-101966481D01*
X138895961Y-102007582D01*
X138620500Y-102034408D01*
X138080537Y-102135827D01*
X137459912Y-102394688D01*
X136859186Y-102790357D01*
X136302566Y-103306507D01*
X135814261Y-103926814D01*
X135743902Y-104034391D01*
X135543094Y-104367360D01*
X135381226Y-104672490D01*
X135288140Y-104894876D01*
X135257447Y-105022102D01*
X135251304Y-105261412D01*
X135329593Y-105483194D01*
X135503848Y-105695281D01*
X135785604Y-105905504D01*
X136186396Y-106121695D01*
X136717758Y-106351687D01*
X137391225Y-106603310D01*
X138218333Y-106884396D01*
X138935872Y-107127143D01*
X139707970Y-107410584D01*
X140352349Y-107677917D01*
X140890350Y-107938832D01*
X141343314Y-108203019D01*
X141732581Y-108480169D01*
X142123072Y-108834220D01*
X142558963Y-109387059D01*
X142864585Y-109990959D01*
X143027651Y-110619830D01*
X143034053Y-111108645D01*
X143035873Y-111247578D01*
X142977713Y-111594761D01*
G37*
G36*
X152499166Y-92591700D02*
G01*
X152531350Y-92625110D01*
X152633555Y-92840836D01*
X152642661Y-93086640D01*
X152552400Y-93281312D01*
X152444823Y-93349700D01*
X152203284Y-93386023D01*
X151952406Y-93331508D01*
X151769801Y-93194739D01*
X151665096Y-93006965D01*
X151663462Y-92816864D01*
X151807333Y-92620912D01*
X151987089Y-92496698D01*
X152250300Y-92465097D01*
X152499166Y-92591700D01*
G37*
G36*
X124246960Y-64618154D02*
G01*
X124009097Y-65263215D01*
X123661080Y-65849815D01*
X123369873Y-66211914D01*
X122719069Y-66840259D01*
X121944290Y-67380310D01*
X121038254Y-67836054D01*
X119993678Y-68211479D01*
X118803281Y-68510574D01*
X118641528Y-68544014D01*
X118213759Y-68630276D01*
X117914224Y-68683805D01*
X117714374Y-68706730D01*
X117585657Y-68701178D01*
X117499521Y-68669278D01*
X117427417Y-68613161D01*
X117362617Y-68545329D01*
X117283935Y-68381699D01*
X117288250Y-68166769D01*
X117379010Y-67870545D01*
X117559666Y-67463033D01*
X117590177Y-67398230D01*
X117725170Y-67080801D01*
X117819982Y-66807193D01*
X117855683Y-66630633D01*
X117854821Y-66599965D01*
X117761364Y-66283407D01*
X117537054Y-65974280D01*
X117215300Y-65701524D01*
X116829508Y-65494082D01*
X116413086Y-65380893D01*
X116271957Y-65367881D01*
X116083965Y-65388223D01*
X115883881Y-65475869D01*
X115612282Y-65650851D01*
X115606272Y-65654994D01*
X115036633Y-66097677D01*
X114619601Y-66544470D01*
X114340014Y-67021159D01*
X114182710Y-67553528D01*
X114132526Y-68167364D01*
X114130093Y-68374927D01*
X114110858Y-68705499D01*
X114068367Y-68914863D01*
X113997619Y-69035197D01*
X113839606Y-69149329D01*
X113645392Y-69166770D01*
X113430153Y-69049802D01*
X113180528Y-68790588D01*
X112883157Y-68381288D01*
X112575639Y-67877088D01*
X112329135Y-67339292D01*
X112169006Y-66778199D01*
X112082387Y-66147422D01*
X112066054Y-65677800D01*
X112920894Y-65677800D01*
X112965651Y-66256088D01*
X113061351Y-66737075D01*
X113065698Y-66751726D01*
X113169191Y-67039508D01*
X113259204Y-67159830D01*
X113338016Y-67113778D01*
X113407904Y-66902441D01*
X113495527Y-66673432D01*
X113708927Y-66325300D01*
X114010778Y-65937919D01*
X114372330Y-65542299D01*
X114764830Y-65169451D01*
X115159526Y-64850387D01*
X115527666Y-64616117D01*
X115565111Y-64597731D01*
X115928818Y-64500901D01*
X116373715Y-64487481D01*
X116842665Y-64554736D01*
X117278531Y-64699931D01*
X117753218Y-64961625D01*
X118225904Y-65359093D01*
X118547903Y-65820699D01*
X118715185Y-66337693D01*
X118723720Y-66901325D01*
X118569477Y-67502845D01*
X118567928Y-67506919D01*
X118550980Y-67589554D01*
X118595428Y-67628665D01*
X118726593Y-67623389D01*
X118969800Y-67572863D01*
X119350371Y-67476223D01*
X120009976Y-67277462D01*
X120906143Y-66911982D01*
X121692962Y-66470305D01*
X122356507Y-65962025D01*
X122882850Y-65396739D01*
X123258063Y-64784041D01*
X123297261Y-64697589D01*
X123411747Y-64383655D01*
X123468882Y-64064078D01*
X123484975Y-63657921D01*
X123484813Y-63536381D01*
X123473084Y-63232267D01*
X123430036Y-63010442D01*
X123337214Y-62804599D01*
X123176162Y-62548428D01*
X123107829Y-62450201D01*
X122692622Y-62011977D01*
X122182570Y-61710546D01*
X121567363Y-61539441D01*
X121070416Y-61430962D01*
X120708599Y-61274594D01*
X120474688Y-61053454D01*
X120348870Y-60748642D01*
X120311333Y-60341258D01*
X120330166Y-60056728D01*
X120456792Y-59584038D01*
X120714265Y-59108985D01*
X121116148Y-58602260D01*
X121137380Y-58578530D01*
X121316127Y-58367661D01*
X121424957Y-58218568D01*
X121441012Y-58162216D01*
X121294665Y-58185669D01*
X121020533Y-58249032D01*
X120654070Y-58342679D01*
X120230209Y-58456987D01*
X119783886Y-58582335D01*
X119350034Y-58709099D01*
X118963587Y-58827656D01*
X118659480Y-58928385D01*
X118415489Y-59017072D01*
X117259781Y-59516823D01*
X116221819Y-60103504D01*
X115309191Y-60770105D01*
X114529485Y-61509620D01*
X113890291Y-62315042D01*
X113399196Y-63179363D01*
X113063788Y-64095576D01*
X112983975Y-64485991D01*
X112927022Y-65066378D01*
X112920894Y-65677800D01*
X112066054Y-65677800D01*
X112056412Y-65400578D01*
X112060663Y-65071377D01*
X112109130Y-64377557D01*
X112221789Y-63766539D01*
X112411259Y-63181903D01*
X112690159Y-62567229D01*
X113045856Y-61949834D01*
X113689474Y-61099040D01*
X114469892Y-60311408D01*
X115371499Y-59597527D01*
X116378682Y-58967990D01*
X117475829Y-58433387D01*
X118647328Y-58004310D01*
X119877567Y-57691349D01*
X120109955Y-57650392D01*
X120635960Y-57592843D01*
X121155692Y-57577756D01*
X121629409Y-57603767D01*
X122017370Y-57669517D01*
X122279833Y-57773643D01*
X122309157Y-57793611D01*
X122460846Y-57941367D01*
X122506751Y-58113191D01*
X122441083Y-58330506D01*
X122258052Y-58614738D01*
X121951870Y-58987309D01*
X121802945Y-59162542D01*
X121466363Y-59607024D01*
X121249512Y-59978429D01*
X121155507Y-60268571D01*
X121187464Y-60469263D01*
X121348500Y-60572320D01*
X121426712Y-60589820D01*
X121671898Y-60643474D01*
X121958401Y-60705154D01*
X122005351Y-60715521D01*
X122689604Y-60954172D01*
X123282893Y-61333433D01*
X123775706Y-61845618D01*
X124158533Y-62483043D01*
X124245249Y-62700136D01*
X124370472Y-63299821D01*
X124369789Y-63657921D01*
X124369230Y-63951425D01*
X124246960Y-64618154D01*
G37*
G36*
X148779803Y-83714056D02*
G01*
X149486056Y-83768453D01*
X150155284Y-83887409D01*
X150829173Y-84081997D01*
X151549405Y-84363290D01*
X152357666Y-84742361D01*
X153049686Y-85109673D01*
X154098362Y-85769229D01*
X155088037Y-86532429D01*
X156062335Y-87430932D01*
X156939394Y-88373944D01*
X157790399Y-89471145D01*
X158478634Y-90585770D01*
X159003170Y-91714776D01*
X159363073Y-92855125D01*
X159557412Y-94003776D01*
X159585257Y-95157688D01*
X159445675Y-96313821D01*
X159137735Y-97469135D01*
X159013665Y-97813155D01*
X158684002Y-98556063D01*
X158280244Y-99237292D01*
X157775113Y-99899413D01*
X157141333Y-100584998D01*
X156471506Y-101204204D01*
X155601010Y-101852930D01*
X154669698Y-102375781D01*
X153656416Y-102782540D01*
X152540013Y-103082991D01*
X151299333Y-103286916D01*
X151260333Y-103291396D01*
X150844094Y-103320687D01*
X150304275Y-103335040D01*
X149681124Y-103335511D01*
X149014887Y-103323160D01*
X148345811Y-103299043D01*
X147714142Y-103264219D01*
X147160128Y-103219744D01*
X146724016Y-103166677D01*
X146723336Y-103166570D01*
X145249419Y-102885218D01*
X143917153Y-102521997D01*
X142716407Y-102070110D01*
X141637051Y-101522760D01*
X140668957Y-100873151D01*
X139801995Y-100114486D01*
X139026036Y-99239969D01*
X138330949Y-98242802D01*
X137706605Y-97116189D01*
X137366873Y-96387154D01*
X136950630Y-95287794D01*
X136684729Y-94241943D01*
X136570271Y-93233269D01*
X136608353Y-92245440D01*
X136800074Y-91262121D01*
X137146534Y-90266982D01*
X137648830Y-89243690D01*
X138308062Y-88175912D01*
X138520916Y-87868320D01*
X139357739Y-86808318D01*
X140248240Y-85907516D01*
X141194267Y-85164207D01*
X142197666Y-84576680D01*
X142240749Y-84555565D01*
X142631045Y-84377257D01*
X143031482Y-84213822D01*
X143409282Y-84076474D01*
X143731665Y-83976425D01*
X143965850Y-83924889D01*
X144079058Y-83933081D01*
X144079105Y-83933128D01*
X144027381Y-83986766D01*
X143862365Y-84096955D01*
X143619687Y-84239897D01*
X143202376Y-84501376D01*
X142623660Y-84928337D01*
X141998007Y-85447375D01*
X141352733Y-86032526D01*
X140715152Y-86657829D01*
X140112582Y-87297320D01*
X139572337Y-87925038D01*
X139121733Y-88515020D01*
X138911006Y-88825792D01*
X138471309Y-89555847D01*
X138086347Y-90307058D01*
X137778644Y-91033335D01*
X137570725Y-91688591D01*
X137508298Y-91980106D01*
X137428213Y-92867055D01*
X137493329Y-93813000D01*
X137700018Y-94803530D01*
X138044655Y-95824234D01*
X138523614Y-96860701D01*
X139133268Y-97898519D01*
X139505001Y-98430203D01*
X140262743Y-99316988D01*
X141120999Y-100087225D01*
X142086436Y-100744588D01*
X143165717Y-101292748D01*
X144365510Y-101735382D01*
X145692478Y-102076161D01*
X147153289Y-102318760D01*
X147481827Y-102355067D01*
X148189270Y-102405406D01*
X148959488Y-102430262D01*
X149754000Y-102430491D01*
X150534327Y-102406945D01*
X151261990Y-102360479D01*
X151898507Y-102291947D01*
X152405399Y-102202203D01*
X153193838Y-101982366D01*
X154279271Y-101548813D01*
X155268178Y-100992561D01*
X156151527Y-100323114D01*
X156920286Y-99549978D01*
X157565424Y-98682657D01*
X158077909Y-97730656D01*
X158448710Y-96703480D01*
X158668796Y-95610633D01*
X158715169Y-94599304D01*
X158602218Y-93550486D01*
X158332804Y-92492209D01*
X157911996Y-91435226D01*
X157344861Y-90390291D01*
X156636466Y-89368157D01*
X155791880Y-88379579D01*
X154816169Y-87435311D01*
X154459715Y-87129251D01*
X153316511Y-86262045D01*
X152148178Y-85543927D01*
X150963596Y-84978726D01*
X149771647Y-84570271D01*
X148581215Y-84322389D01*
X147401180Y-84238912D01*
X146993733Y-84232252D01*
X146668708Y-84206210D01*
X146507819Y-84158509D01*
X146508763Y-84087069D01*
X146669240Y-83989811D01*
X146986949Y-83864656D01*
X147019001Y-83853541D01*
X147282751Y-83780224D01*
X147581632Y-83734652D01*
X147960197Y-83712090D01*
X148463000Y-83707803D01*
X148779803Y-83714056D01*
G37*
G36*
X147467451Y-93313443D02*
G01*
X147651071Y-93448492D01*
X147779596Y-93696965D01*
X147828000Y-94040955D01*
X147842342Y-94274539D01*
X147933682Y-94611465D01*
X148098716Y-94829452D01*
X148325052Y-94906912D01*
X148349833Y-94906460D01*
X148605833Y-94827058D01*
X148779697Y-94606750D01*
X148876553Y-94239329D01*
X148884343Y-94186559D01*
X148977868Y-93852647D01*
X149122761Y-93669488D01*
X149311318Y-93642482D01*
X149535833Y-93777034D01*
X149581839Y-93833333D01*
X149664838Y-94066858D01*
X149692047Y-94375992D01*
X149661620Y-94699117D01*
X149571711Y-94974616D01*
X149460059Y-95152342D01*
X149171915Y-95456347D01*
X148843956Y-95658459D01*
X148825470Y-95665638D01*
X148421982Y-95746710D01*
X148008052Y-95710615D01*
X147655040Y-95563078D01*
X147516830Y-95449100D01*
X147286083Y-95157698D01*
X147098544Y-94796478D01*
X146966432Y-94406084D01*
X146901961Y-94027163D01*
X146917349Y-93700357D01*
X147024813Y-93466311D01*
X147035035Y-93455237D01*
X147253763Y-93309723D01*
X147467451Y-93313443D01*
G37*
G36*
X170401490Y-110107998D02*
G01*
X170169641Y-110542967D01*
X170101133Y-110637734D01*
X169846512Y-110921506D01*
X169528080Y-111176676D01*
X169128444Y-111411313D01*
X168630211Y-111633487D01*
X168015988Y-111851268D01*
X167268382Y-112072727D01*
X166370000Y-112305933D01*
X165859844Y-112433744D01*
X165178470Y-112614116D01*
X164626273Y-112776874D01*
X164180601Y-112931021D01*
X163818801Y-113085565D01*
X163518222Y-113249509D01*
X163256210Y-113431859D01*
X163010113Y-113641621D01*
X162898482Y-113747468D01*
X162588302Y-114100027D01*
X162394270Y-114457435D01*
X162294177Y-114872054D01*
X162265809Y-115396245D01*
X162274306Y-115785980D01*
X162308568Y-116075161D01*
X162381767Y-116327656D01*
X162507077Y-116609724D01*
X162543441Y-116682464D01*
X162728120Y-117010787D01*
X162966344Y-117372610D01*
X163271328Y-117785201D01*
X163656289Y-118265833D01*
X164134441Y-118831774D01*
X164719000Y-119500295D01*
X164731635Y-119514572D01*
X165085905Y-119915913D01*
X165413398Y-120288760D01*
X165692695Y-120608587D01*
X165902375Y-120850868D01*
X166021017Y-120991077D01*
X166060183Y-121040689D01*
X166153844Y-121181609D01*
X166161000Y-121238245D01*
X166121818Y-121225644D01*
X165956945Y-121136209D01*
X165700210Y-120977799D01*
X165381572Y-120770439D01*
X165030989Y-120534154D01*
X164678421Y-120288970D01*
X164353826Y-120054912D01*
X164087162Y-119852007D01*
X163935967Y-119726214D01*
X163605382Y-119430425D01*
X163192650Y-119043490D01*
X162718305Y-118586033D01*
X162202880Y-118078679D01*
X161666909Y-117542052D01*
X161130925Y-116996776D01*
X160615461Y-116463474D01*
X160141051Y-115962772D01*
X159728228Y-115515292D01*
X159397526Y-115141660D01*
X158947132Y-114600439D01*
X158312029Y-113759772D01*
X157819666Y-112988555D01*
X157467400Y-112277624D01*
X157252588Y-111617814D01*
X157172589Y-110999961D01*
X157194425Y-110755075D01*
X157907399Y-110755075D01*
X157920894Y-111106208D01*
X157938084Y-111293905D01*
X158028455Y-111755952D01*
X158195466Y-112225950D01*
X158450080Y-112723657D01*
X158803262Y-113268827D01*
X159265976Y-113881217D01*
X159849188Y-114580583D01*
X160161834Y-114939376D01*
X160504358Y-115326470D01*
X160820053Y-115677712D01*
X161067428Y-115946578D01*
X161214715Y-116102216D01*
X161388062Y-116276148D01*
X161477758Y-116342800D01*
X161502691Y-116313750D01*
X161481748Y-116200578D01*
X161480433Y-116195138D01*
X161450660Y-115978516D01*
X161431963Y-115661814D01*
X161428338Y-115311578D01*
X161432130Y-115186324D01*
X161536978Y-114476792D01*
X161785765Y-113849883D01*
X162183339Y-113292635D01*
X162420165Y-113046502D01*
X162725546Y-112782838D01*
X163068531Y-112551194D01*
X163470737Y-112341874D01*
X163953780Y-112145181D01*
X164539275Y-111951420D01*
X165248839Y-111750893D01*
X166104088Y-111533905D01*
X166444888Y-111449295D01*
X167208906Y-111245760D01*
X167832092Y-111054983D01*
X168333773Y-110869308D01*
X168733278Y-110681075D01*
X169049933Y-110482626D01*
X169303066Y-110266302D01*
X169550198Y-109971788D01*
X169736417Y-109594033D01*
X169822839Y-109143403D01*
X169821559Y-108580578D01*
X169792242Y-108311196D01*
X169606389Y-107586333D01*
X169270296Y-106839920D01*
X168793986Y-106086534D01*
X168187483Y-105340754D01*
X167460813Y-104617159D01*
X166624000Y-103930327D01*
X166322257Y-103714584D01*
X165925130Y-103451266D01*
X165513806Y-103196153D01*
X165118931Y-102966938D01*
X164771152Y-102781310D01*
X164501115Y-102656959D01*
X164339466Y-102611578D01*
X164330152Y-102615769D01*
X164361501Y-102700194D01*
X164483172Y-102870880D01*
X164674898Y-103098412D01*
X164924295Y-103411816D01*
X165195240Y-103812940D01*
X165412164Y-104194935D01*
X165416107Y-104202895D01*
X165571007Y-104534287D01*
X165655939Y-104781637D01*
X165685895Y-105005974D01*
X165675868Y-105268327D01*
X165668934Y-105338066D01*
X165600168Y-105656680D01*
X165463501Y-105941805D01*
X165244921Y-106203022D01*
X164930421Y-106449909D01*
X164505988Y-106692049D01*
X163957614Y-106939019D01*
X163271288Y-107200401D01*
X162433000Y-107485774D01*
X161776594Y-107706725D01*
X160885868Y-108034200D01*
X160140151Y-108349518D01*
X159525802Y-108660687D01*
X159029181Y-108975716D01*
X158636646Y-109302611D01*
X158334558Y-109649380D01*
X158109275Y-110024032D01*
X158000434Y-110263612D01*
X157929669Y-110498583D01*
X157907399Y-110755075D01*
X157194425Y-110755075D01*
X157224759Y-110414899D01*
X157406456Y-109853465D01*
X157715037Y-109306493D01*
X157811916Y-109171172D01*
X158129305Y-108802469D01*
X158512698Y-108463616D01*
X158978951Y-108145108D01*
X159544919Y-107837438D01*
X160227457Y-107531100D01*
X161043421Y-107216588D01*
X162009666Y-106884396D01*
X162438611Y-106741220D01*
X163188300Y-106475683D01*
X163790052Y-106235736D01*
X164255403Y-106013548D01*
X164595888Y-105801287D01*
X164823041Y-105591121D01*
X164948398Y-105375219D01*
X164983492Y-105145747D01*
X164939860Y-104894876D01*
X164918343Y-104833401D01*
X164799039Y-104577365D01*
X164620891Y-104256867D01*
X164413739Y-103926814D01*
X163991022Y-103379043D01*
X163441654Y-102848913D01*
X162845139Y-102437214D01*
X162225685Y-102160270D01*
X161607500Y-102034408D01*
X161387362Y-102014900D01*
X161212525Y-101979161D01*
X161136963Y-101914902D01*
X161120666Y-101803116D01*
X161140164Y-101636303D01*
X161230114Y-101491421D01*
X161415468Y-101401091D01*
X161720361Y-101354685D01*
X162168928Y-101341578D01*
X162960162Y-101396804D01*
X163946681Y-101607339D01*
X164953340Y-101969316D01*
X165965930Y-102476450D01*
X166970244Y-103122451D01*
X167952076Y-103901032D01*
X168233527Y-104156729D01*
X168931618Y-104890870D01*
X169529630Y-105671644D01*
X170015845Y-106477895D01*
X170378545Y-107288468D01*
X170606012Y-108082207D01*
X170686530Y-108837956D01*
X170675343Y-109061654D01*
X170660239Y-109143403D01*
X170578223Y-109587292D01*
X170401490Y-110107998D01*
G37*
G36*
X171210333Y-85155516D02*
G01*
X171093810Y-85439074D01*
X170748922Y-86015414D01*
X170229978Y-86573127D01*
X169553854Y-87071893D01*
X169295817Y-87217195D01*
X168821948Y-87441976D01*
X168284342Y-87661670D01*
X167743269Y-87852183D01*
X167259000Y-87989416D01*
X167085269Y-88018088D01*
X166839219Y-88039090D01*
X166776846Y-88037601D01*
X166743875Y-88008727D01*
X166818564Y-87936381D01*
X167014987Y-87808792D01*
X167347219Y-87614184D01*
X167665603Y-87428742D01*
X168388040Y-86981186D01*
X168978469Y-86573121D01*
X169423315Y-86213704D01*
X169574014Y-86051951D01*
X169797903Y-85640655D01*
X169900793Y-85149788D01*
X169884711Y-84603516D01*
X169751688Y-84026009D01*
X169503752Y-83441432D01*
X169142932Y-82873955D01*
X169013581Y-82709324D01*
X168685285Y-82344737D01*
X168310867Y-82004965D01*
X167875496Y-81682029D01*
X167364340Y-81367948D01*
X166762566Y-81054744D01*
X166055344Y-80734437D01*
X165227841Y-80399046D01*
X164265226Y-80040593D01*
X163152666Y-79651097D01*
X162738418Y-79507011D01*
X161900906Y-79195030D01*
X161206916Y-78900940D01*
X160640542Y-78615225D01*
X160185877Y-78328366D01*
X159827013Y-78030846D01*
X159548044Y-77713149D01*
X159333064Y-77365757D01*
X159229182Y-77107963D01*
X159142227Y-76601966D01*
X159153080Y-76421669D01*
X159693283Y-76421669D01*
X159754386Y-76889666D01*
X159982500Y-77336126D01*
X160376913Y-77758299D01*
X160443008Y-77813502D01*
X160661789Y-77975774D01*
X160918387Y-78132562D01*
X161233452Y-78293155D01*
X161627631Y-78466842D01*
X162121572Y-78662911D01*
X162735924Y-78890651D01*
X163491333Y-79159352D01*
X163648632Y-79214653D01*
X164493046Y-79515866D01*
X165205467Y-79778962D01*
X165811390Y-80014085D01*
X166336311Y-80231381D01*
X166805725Y-80440996D01*
X167245129Y-80653073D01*
X167414012Y-80739961D01*
X168232796Y-81235719D01*
X168941291Y-81794444D01*
X169519940Y-82398931D01*
X169949192Y-83031980D01*
X170082615Y-83316558D01*
X170231117Y-83703048D01*
X170350899Y-84084758D01*
X170517746Y-84704578D01*
X170485074Y-84126250D01*
X170448938Y-83777865D01*
X170350558Y-83397710D01*
X170168208Y-82983250D01*
X170038456Y-82753050D01*
X169793960Y-82402989D01*
X169469553Y-82014833D01*
X169057603Y-81581615D01*
X168550478Y-81096371D01*
X167940545Y-80552135D01*
X167220173Y-79941941D01*
X166381730Y-79258825D01*
X165417584Y-78495821D01*
X164320102Y-77645964D01*
X163732129Y-77184029D01*
X163136667Y-76683641D01*
X162672184Y-76248130D01*
X162329309Y-75867879D01*
X162098675Y-75533272D01*
X161970912Y-75234692D01*
X161904499Y-74875368D01*
X161939334Y-74359410D01*
X162136081Y-73851767D01*
X162498083Y-73340421D01*
X162771666Y-73022977D01*
X162517666Y-73182840D01*
X162144639Y-73439754D01*
X161680358Y-73807598D01*
X161211215Y-74222443D01*
X160766202Y-74655860D01*
X160374305Y-75079423D01*
X160064513Y-75464706D01*
X159865817Y-75783282D01*
X159799902Y-75934883D01*
X159693283Y-76421669D01*
X159153080Y-76421669D01*
X159173814Y-76077245D01*
X159324268Y-75598936D01*
X159545415Y-75222593D01*
X159927760Y-74723597D01*
X160415569Y-74193626D01*
X160984031Y-73657442D01*
X161608334Y-73139807D01*
X162263666Y-72665482D01*
X162641845Y-72420881D01*
X162997187Y-72217130D01*
X163365466Y-72039785D01*
X163796722Y-71864823D01*
X164340997Y-71668220D01*
X164870689Y-71489355D01*
X165450850Y-71313894D01*
X165891658Y-71209643D01*
X166200489Y-71174940D01*
X166384724Y-71208125D01*
X166414067Y-71225320D01*
X166490949Y-71320715D01*
X166448548Y-71440765D01*
X166277223Y-71594634D01*
X165967336Y-71791488D01*
X165509246Y-72040492D01*
X164845408Y-72397336D01*
X164196533Y-72781649D01*
X163682528Y-73135129D01*
X163289015Y-73468844D01*
X163001616Y-73793861D01*
X162805954Y-74121245D01*
X162748647Y-74252549D01*
X162659965Y-74583732D01*
X162693289Y-74884105D01*
X162851410Y-75221149D01*
X162892925Y-75289030D01*
X162996114Y-75434336D01*
X163130914Y-75589979D01*
X163312237Y-75768893D01*
X163554998Y-75984013D01*
X163874107Y-76248275D01*
X164284480Y-76574613D01*
X164801029Y-76975964D01*
X165438666Y-77465261D01*
X165894176Y-77814932D01*
X166917796Y-78614123D01*
X167810541Y-79334408D01*
X168580452Y-79985067D01*
X169235573Y-80575378D01*
X169783944Y-81114622D01*
X170233609Y-81612077D01*
X170592609Y-82077024D01*
X170868987Y-82518742D01*
X171070785Y-82946510D01*
X171206044Y-83369608D01*
X171282808Y-83797315D01*
X171309118Y-84238912D01*
X171305631Y-84582271D01*
X171294313Y-84704578D01*
X171276962Y-84892086D01*
X171210333Y-85155516D01*
G37*
M02*
