G04 #@! TF.GenerationSoftware,KiCad,Pcbnew,(6.0.5)*
G04 #@! TF.CreationDate,2022-06-24T16:52:39-05:00*
G04 #@! TF.ProjectId,robo_car,726f626f-5f63-4617-922e-6b696361645f,1.0P*
G04 #@! TF.SameCoordinates,Original*
G04 #@! TF.FileFunction,Legend,Top*
G04 #@! TF.FilePolarity,Positive*
%FSLAX46Y46*%
G04 Gerber Fmt 4.6, Leading zero omitted, Abs format (unit mm)*
G04 Created by KiCad (PCBNEW (6.0.5)) date 2022-06-24 16:52:39*
%MOMM*%
%LPD*%
G01*
G04 APERTURE LIST*
%ADD10C,0.250000*%
%ADD11C,0.300000*%
%ADD12C,0.150000*%
%ADD13C,0.120000*%
G04 APERTURE END LIST*
D10*
X133660952Y-134862380D02*
X134232380Y-134862380D01*
X133946666Y-135862380D02*
X133946666Y-134862380D01*
X134470476Y-134862380D02*
X135137142Y-135862380D01*
X135137142Y-134862380D02*
X134470476Y-135862380D01*
X136708571Y-135195714D02*
X136708571Y-135862380D01*
X136470476Y-134814761D02*
X136232380Y-135529047D01*
X136851428Y-135529047D01*
X133820000Y-129332380D02*
X133486666Y-128856190D01*
X133248571Y-129332380D02*
X133248571Y-128332380D01*
X133629523Y-128332380D01*
X133724761Y-128380000D01*
X133772380Y-128427619D01*
X133820000Y-128522857D01*
X133820000Y-128665714D01*
X133772380Y-128760952D01*
X133724761Y-128808571D01*
X133629523Y-128856190D01*
X133248571Y-128856190D01*
X134153333Y-128332380D02*
X134820000Y-129332380D01*
X134820000Y-128332380D02*
X134153333Y-129332380D01*
X136486666Y-129332380D02*
X135915238Y-129332380D01*
X136200952Y-129332380D02*
X136200952Y-128332380D01*
X136105714Y-128475238D01*
X136010476Y-128570476D01*
X135915238Y-128618095D01*
X137343809Y-128332380D02*
X137153333Y-128332380D01*
X137058095Y-128380000D01*
X137010476Y-128427619D01*
X136915238Y-128570476D01*
X136867619Y-128760952D01*
X136867619Y-129141904D01*
X136915238Y-129237142D01*
X136962857Y-129284761D01*
X137058095Y-129332380D01*
X137248571Y-129332380D01*
X137343809Y-129284761D01*
X137391428Y-129237142D01*
X137439047Y-129141904D01*
X137439047Y-128903809D01*
X137391428Y-128808571D01*
X137343809Y-128760952D01*
X137248571Y-128713333D01*
X137058095Y-128713333D01*
X136962857Y-128760952D01*
X136915238Y-128808571D01*
X136867619Y-128903809D01*
D11*
X175834285Y-70368571D02*
X175834285Y-68868571D01*
X176548571Y-70368571D02*
X176548571Y-68868571D01*
X177405714Y-70368571D01*
X177405714Y-68868571D01*
X178120000Y-70368571D02*
X178120000Y-68868571D01*
X178691428Y-68868571D01*
X178834285Y-68940000D01*
X178905714Y-69011428D01*
X178977142Y-69154285D01*
X178977142Y-69368571D01*
X178905714Y-69511428D01*
X178834285Y-69582857D01*
X178691428Y-69654285D01*
X178120000Y-69654285D01*
X179620000Y-68868571D02*
X179620000Y-70082857D01*
X179691428Y-70225714D01*
X179762857Y-70297142D01*
X179905714Y-70368571D01*
X180191428Y-70368571D01*
X180334285Y-70297142D01*
X180405714Y-70225714D01*
X180477142Y-70082857D01*
X180477142Y-68868571D01*
X180977142Y-68868571D02*
X181834285Y-68868571D01*
X181405714Y-70368571D02*
X181405714Y-68868571D01*
X183762857Y-68868571D02*
X184048571Y-68868571D01*
X184191428Y-68940000D01*
X184334285Y-69082857D01*
X184405714Y-69368571D01*
X184405714Y-69868571D01*
X184334285Y-70154285D01*
X184191428Y-70297142D01*
X184048571Y-70368571D01*
X183762857Y-70368571D01*
X183620000Y-70297142D01*
X183477142Y-70154285D01*
X183405714Y-69868571D01*
X183405714Y-69368571D01*
X183477142Y-69082857D01*
X183620000Y-68940000D01*
X183762857Y-68868571D01*
X185048571Y-70368571D02*
X185048571Y-68868571D01*
X185905714Y-70368571D01*
X185905714Y-68868571D01*
X187334285Y-70368571D02*
X186620000Y-70368571D01*
X186620000Y-68868571D01*
X188120000Y-69654285D02*
X188120000Y-70368571D01*
X187620000Y-68868571D02*
X188120000Y-69654285D01*
X188620000Y-68868571D01*
D10*
X135289523Y-82912380D02*
X134718095Y-82912380D01*
X135003809Y-82912380D02*
X135003809Y-81912380D01*
X134908571Y-82055238D01*
X134813333Y-82150476D01*
X134718095Y-82198095D01*
X136194285Y-81912380D02*
X135718095Y-81912380D01*
X135670476Y-82388571D01*
X135718095Y-82340952D01*
X135813333Y-82293333D01*
X136051428Y-82293333D01*
X136146666Y-82340952D01*
X136194285Y-82388571D01*
X136241904Y-82483809D01*
X136241904Y-82721904D01*
X136194285Y-82817142D01*
X136146666Y-82864761D01*
X136051428Y-82912380D01*
X135813333Y-82912380D01*
X135718095Y-82864761D01*
X135670476Y-82817142D01*
X165710476Y-116922380D02*
X166329523Y-116922380D01*
X165996190Y-117303333D01*
X166139047Y-117303333D01*
X166234285Y-117350952D01*
X166281904Y-117398571D01*
X166329523Y-117493809D01*
X166329523Y-117731904D01*
X166281904Y-117827142D01*
X166234285Y-117874761D01*
X166139047Y-117922380D01*
X165853333Y-117922380D01*
X165758095Y-117874761D01*
X165710476Y-117827142D01*
X166662857Y-116922380D02*
X167281904Y-116922380D01*
X166948571Y-117303333D01*
X167091428Y-117303333D01*
X167186666Y-117350952D01*
X167234285Y-117398571D01*
X167281904Y-117493809D01*
X167281904Y-117731904D01*
X167234285Y-117827142D01*
X167186666Y-117874761D01*
X167091428Y-117922380D01*
X166805714Y-117922380D01*
X166710476Y-117874761D01*
X166662857Y-117827142D01*
X162898095Y-117017619D02*
X162945714Y-116970000D01*
X163040952Y-116922380D01*
X163279047Y-116922380D01*
X163374285Y-116970000D01*
X163421904Y-117017619D01*
X163469523Y-117112857D01*
X163469523Y-117208095D01*
X163421904Y-117350952D01*
X162850476Y-117922380D01*
X163469523Y-117922380D01*
X164374285Y-116922380D02*
X163898095Y-116922380D01*
X163850476Y-117398571D01*
X163898095Y-117350952D01*
X163993333Y-117303333D01*
X164231428Y-117303333D01*
X164326666Y-117350952D01*
X164374285Y-117398571D01*
X164421904Y-117493809D01*
X164421904Y-117731904D01*
X164374285Y-117827142D01*
X164326666Y-117874761D01*
X164231428Y-117922380D01*
X163993333Y-117922380D01*
X163898095Y-117874761D01*
X163850476Y-117827142D01*
X159838095Y-117067619D02*
X159885714Y-117020000D01*
X159980952Y-116972380D01*
X160219047Y-116972380D01*
X160314285Y-117020000D01*
X160361904Y-117067619D01*
X160409523Y-117162857D01*
X160409523Y-117258095D01*
X160361904Y-117400952D01*
X159790476Y-117972380D01*
X160409523Y-117972380D01*
X161266666Y-116972380D02*
X161076190Y-116972380D01*
X160980952Y-117020000D01*
X160933333Y-117067619D01*
X160838095Y-117210476D01*
X160790476Y-117400952D01*
X160790476Y-117781904D01*
X160838095Y-117877142D01*
X160885714Y-117924761D01*
X160980952Y-117972380D01*
X161171428Y-117972380D01*
X161266666Y-117924761D01*
X161314285Y-117877142D01*
X161361904Y-117781904D01*
X161361904Y-117543809D01*
X161314285Y-117448571D01*
X161266666Y-117400952D01*
X161171428Y-117353333D01*
X160980952Y-117353333D01*
X160885714Y-117400952D01*
X160838095Y-117448571D01*
X160790476Y-117543809D01*
X157499523Y-117982380D02*
X156928095Y-117982380D01*
X157213809Y-117982380D02*
X157213809Y-116982380D01*
X157118571Y-117125238D01*
X157023333Y-117220476D01*
X156928095Y-117268095D01*
X157880476Y-117077619D02*
X157928095Y-117030000D01*
X158023333Y-116982380D01*
X158261428Y-116982380D01*
X158356666Y-117030000D01*
X158404285Y-117077619D01*
X158451904Y-117172857D01*
X158451904Y-117268095D01*
X158404285Y-117410952D01*
X157832857Y-117982380D01*
X158451904Y-117982380D01*
D12*
X156438095Y-73152380D02*
X156438095Y-72152380D01*
X156676190Y-72152380D01*
X156819047Y-72200000D01*
X156914285Y-72295238D01*
X156961904Y-72390476D01*
X157009523Y-72580952D01*
X157009523Y-72723809D01*
X156961904Y-72914285D01*
X156914285Y-73009523D01*
X156819047Y-73104761D01*
X156676190Y-73152380D01*
X156438095Y-73152380D01*
X149191904Y-72866666D02*
X149668095Y-72866666D01*
X149096666Y-73152380D02*
X149430000Y-72152380D01*
X149763333Y-73152380D01*
X151851428Y-72598571D02*
X151994285Y-72646190D01*
X152041904Y-72693809D01*
X152089523Y-72789047D01*
X152089523Y-72931904D01*
X152041904Y-73027142D01*
X151994285Y-73074761D01*
X151899047Y-73122380D01*
X151518095Y-73122380D01*
X151518095Y-72122380D01*
X151851428Y-72122380D01*
X151946666Y-72170000D01*
X151994285Y-72217619D01*
X152041904Y-72312857D01*
X152041904Y-72408095D01*
X151994285Y-72503333D01*
X151946666Y-72550952D01*
X151851428Y-72598571D01*
X151518095Y-72598571D01*
X154609523Y-73027142D02*
X154561904Y-73074761D01*
X154419047Y-73122380D01*
X154323809Y-73122380D01*
X154180952Y-73074761D01*
X154085714Y-72979523D01*
X154038095Y-72884285D01*
X153990476Y-72693809D01*
X153990476Y-72550952D01*
X154038095Y-72360476D01*
X154085714Y-72265238D01*
X154180952Y-72170000D01*
X154323809Y-72122380D01*
X154419047Y-72122380D01*
X154561904Y-72170000D01*
X154609523Y-72217619D01*
D13*
X158020000Y-73900000D02*
X147980000Y-73900000D01*
X147980000Y-73900000D02*
X147980000Y-71440000D01*
X147980000Y-71440000D02*
X158020000Y-71440000D01*
X158020000Y-71440000D02*
X158020000Y-73900000D01*
X155530000Y-73900000D02*
X155530000Y-71400000D01*
X153010000Y-73900000D02*
X153010000Y-71400000D01*
X150530000Y-71390000D02*
X150530000Y-73890000D01*
X125680000Y-84490000D02*
X115640000Y-84490000D01*
X115640000Y-84490000D02*
X115640000Y-82030000D01*
X115640000Y-82030000D02*
X125680000Y-82030000D01*
X125680000Y-82030000D02*
X125680000Y-84490000D01*
X120670000Y-84490000D02*
X120670000Y-81990000D01*
X123190000Y-84490000D02*
X123190000Y-81990000D01*
D12*
X124098095Y-83742380D02*
X124098095Y-82742380D01*
X124336190Y-82742380D01*
X124479047Y-82790000D01*
X124574285Y-82885238D01*
X124621904Y-82980476D01*
X124669523Y-83170952D01*
X124669523Y-83313809D01*
X124621904Y-83504285D01*
X124574285Y-83599523D01*
X124479047Y-83694761D01*
X124336190Y-83742380D01*
X124098095Y-83742380D01*
X119511428Y-83188571D02*
X119654285Y-83236190D01*
X119701904Y-83283809D01*
X119749523Y-83379047D01*
X119749523Y-83521904D01*
X119701904Y-83617142D01*
X119654285Y-83664761D01*
X119559047Y-83712380D01*
X119178095Y-83712380D01*
X119178095Y-82712380D01*
X119511428Y-82712380D01*
X119606666Y-82760000D01*
X119654285Y-82807619D01*
X119701904Y-82902857D01*
X119701904Y-82998095D01*
X119654285Y-83093333D01*
X119606666Y-83140952D01*
X119511428Y-83188571D01*
X119178095Y-83188571D01*
X116851904Y-83456666D02*
X117328095Y-83456666D01*
X116756666Y-83742380D02*
X117090000Y-82742380D01*
X117423333Y-83742380D01*
X122269523Y-83617142D02*
X122221904Y-83664761D01*
X122079047Y-83712380D01*
X121983809Y-83712380D01*
X121840952Y-83664761D01*
X121745714Y-83569523D01*
X121698095Y-83474285D01*
X121650476Y-83283809D01*
X121650476Y-83140952D01*
X121698095Y-82950476D01*
X121745714Y-82855238D01*
X121840952Y-82760000D01*
X121983809Y-82712380D01*
X122079047Y-82712380D01*
X122221904Y-82760000D01*
X122269523Y-82807619D01*
D13*
X118190000Y-81980000D02*
X118190000Y-84480000D01*
X189925000Y-82905000D02*
X174925000Y-82905000D01*
X174925000Y-82905000D02*
X174925000Y-80405000D01*
X174925000Y-80405000D02*
X189925000Y-80405000D01*
X189925000Y-80405000D02*
X189925000Y-82905000D01*
X182440000Y-82850000D02*
X182440000Y-85350000D01*
X120675000Y-79555000D02*
X118175000Y-79555000D01*
X179925000Y-82905000D02*
X179925000Y-80405000D01*
X184925000Y-80405000D02*
X182425000Y-80405000D01*
X150460000Y-71560000D02*
X150460000Y-69060000D01*
X123175000Y-79555000D02*
X123175000Y-82055000D01*
X177425000Y-80405000D02*
X177425000Y-82905000D01*
X187440000Y-85360000D02*
X187440000Y-82860000D01*
X184920000Y-85360000D02*
X184920000Y-82860000D01*
X187425000Y-80405000D02*
X187425000Y-82905000D01*
X125675000Y-82055000D02*
X110675000Y-82055000D01*
X110675000Y-82055000D02*
X110675000Y-79555000D01*
X110675000Y-79555000D02*
X125675000Y-79555000D01*
X125675000Y-79555000D02*
X125675000Y-82055000D01*
X145460000Y-69060000D02*
X145460000Y-71560000D01*
X157960000Y-71560000D02*
X142960000Y-71560000D01*
X142960000Y-71560000D02*
X142960000Y-69060000D01*
X142960000Y-69060000D02*
X157960000Y-69060000D01*
X157960000Y-69060000D02*
X157960000Y-71560000D01*
X118175000Y-82055000D02*
X118175000Y-79555000D01*
X115675000Y-79555000D02*
X113175000Y-79555000D01*
X187425000Y-82905000D02*
X184925000Y-82905000D01*
X152960000Y-71560000D02*
X152960000Y-69060000D01*
X120675000Y-82055000D02*
X120675000Y-79555000D01*
X115675000Y-82055000D02*
X115675000Y-79555000D01*
X113175000Y-79555000D02*
X113175000Y-82055000D01*
X189930000Y-85360000D02*
X179890000Y-85360000D01*
X179890000Y-85360000D02*
X179890000Y-82900000D01*
X179890000Y-82900000D02*
X189930000Y-82900000D01*
X189930000Y-82900000D02*
X189930000Y-85360000D01*
X179925000Y-80405000D02*
X177425000Y-80405000D01*
X155460000Y-69060000D02*
X155460000Y-71560000D01*
X182425000Y-82905000D02*
X182425000Y-80405000D01*
X123175000Y-82055000D02*
X120675000Y-82055000D01*
X147960000Y-71560000D02*
X147960000Y-69060000D01*
X184925000Y-82905000D02*
X184925000Y-80405000D01*
D12*
X183761428Y-84058571D02*
X183904285Y-84106190D01*
X183951904Y-84153809D01*
X183999523Y-84249047D01*
X183999523Y-84391904D01*
X183951904Y-84487142D01*
X183904285Y-84534761D01*
X183809047Y-84582380D01*
X183428095Y-84582380D01*
X183428095Y-83582380D01*
X183761428Y-83582380D01*
X183856666Y-83630000D01*
X183904285Y-83677619D01*
X183951904Y-83772857D01*
X183951904Y-83868095D01*
X183904285Y-83963333D01*
X183856666Y-84010952D01*
X183761428Y-84058571D01*
X183428095Y-84058571D01*
D10*
X145560714Y-88732380D02*
X144989285Y-88732380D01*
X145275000Y-88732380D02*
X145275000Y-87732380D01*
X145179761Y-87875238D01*
X145084523Y-87970476D01*
X144989285Y-88018095D01*
X158416666Y-87757380D02*
X159035714Y-87757380D01*
X158702380Y-88138333D01*
X158845238Y-88138333D01*
X158940476Y-88185952D01*
X158988095Y-88233571D01*
X159035714Y-88328809D01*
X159035714Y-88566904D01*
X158988095Y-88662142D01*
X158940476Y-88709761D01*
X158845238Y-88757380D01*
X158559523Y-88757380D01*
X158464285Y-88709761D01*
X158416666Y-88662142D01*
D12*
X154169523Y-70787380D02*
X153598095Y-70787380D01*
X153883809Y-70787380D02*
X153883809Y-69787380D01*
X153788571Y-69930238D01*
X153693333Y-70025476D01*
X153598095Y-70073095D01*
X154740952Y-70215952D02*
X154645714Y-70168333D01*
X154598095Y-70120714D01*
X154550476Y-70025476D01*
X154550476Y-69977857D01*
X154598095Y-69882619D01*
X154645714Y-69835000D01*
X154740952Y-69787380D01*
X154931428Y-69787380D01*
X155026666Y-69835000D01*
X155074285Y-69882619D01*
X155121904Y-69977857D01*
X155121904Y-70025476D01*
X155074285Y-70120714D01*
X155026666Y-70168333D01*
X154931428Y-70215952D01*
X154740952Y-70215952D01*
X154645714Y-70263571D01*
X154598095Y-70311190D01*
X154550476Y-70406428D01*
X154550476Y-70596904D01*
X154598095Y-70692142D01*
X154645714Y-70739761D01*
X154740952Y-70787380D01*
X154931428Y-70787380D01*
X155026666Y-70739761D01*
X155074285Y-70692142D01*
X155121904Y-70596904D01*
X155121904Y-70406428D01*
X155074285Y-70311190D01*
X155026666Y-70263571D01*
X154931428Y-70215952D01*
X182940476Y-81157380D02*
X183559523Y-81157380D01*
X183226190Y-81538333D01*
X183369047Y-81538333D01*
X183464285Y-81585952D01*
X183511904Y-81633571D01*
X183559523Y-81728809D01*
X183559523Y-81966904D01*
X183511904Y-82062142D01*
X183464285Y-82109761D01*
X183369047Y-82157380D01*
X183083333Y-82157380D01*
X182988095Y-82109761D01*
X182940476Y-82062142D01*
X184464285Y-81157380D02*
X183988095Y-81157380D01*
X183940476Y-81633571D01*
X183988095Y-81585952D01*
X184083333Y-81538333D01*
X184321428Y-81538333D01*
X184416666Y-81585952D01*
X184464285Y-81633571D01*
X184511904Y-81728809D01*
X184511904Y-81966904D01*
X184464285Y-82062142D01*
X184416666Y-82109761D01*
X184321428Y-82157380D01*
X184083333Y-82157380D01*
X183988095Y-82109761D01*
X183940476Y-82062142D01*
D11*
X181022857Y-144696571D02*
X180522857Y-143982285D01*
X180165714Y-144696571D02*
X180165714Y-143196571D01*
X180737142Y-143196571D01*
X180880000Y-143268000D01*
X180951428Y-143339428D01*
X181022857Y-143482285D01*
X181022857Y-143696571D01*
X180951428Y-143839428D01*
X180880000Y-143910857D01*
X180737142Y-143982285D01*
X180165714Y-143982285D01*
X182237142Y-144625142D02*
X182094285Y-144696571D01*
X181808571Y-144696571D01*
X181665714Y-144625142D01*
X181594285Y-144482285D01*
X181594285Y-143910857D01*
X181665714Y-143768000D01*
X181808571Y-143696571D01*
X182094285Y-143696571D01*
X182237142Y-143768000D01*
X182308571Y-143910857D01*
X182308571Y-144053714D01*
X181594285Y-144196571D01*
X182880000Y-144625142D02*
X183022857Y-144696571D01*
X183308571Y-144696571D01*
X183451428Y-144625142D01*
X183522857Y-144482285D01*
X183522857Y-144410857D01*
X183451428Y-144268000D01*
X183308571Y-144196571D01*
X183094285Y-144196571D01*
X182951428Y-144125142D01*
X182880000Y-143982285D01*
X182880000Y-143910857D01*
X182951428Y-143768000D01*
X183094285Y-143696571D01*
X183308571Y-143696571D01*
X183451428Y-143768000D01*
X184737142Y-144625142D02*
X184594285Y-144696571D01*
X184308571Y-144696571D01*
X184165714Y-144625142D01*
X184094285Y-144482285D01*
X184094285Y-143910857D01*
X184165714Y-143768000D01*
X184308571Y-143696571D01*
X184594285Y-143696571D01*
X184737142Y-143768000D01*
X184808571Y-143910857D01*
X184808571Y-144053714D01*
X184094285Y-144196571D01*
X185237142Y-143696571D02*
X185808571Y-143696571D01*
X185451428Y-143196571D02*
X185451428Y-144482285D01*
X185522857Y-144625142D01*
X185665714Y-144696571D01*
X185808571Y-144696571D01*
D12*
X149119523Y-70837380D02*
X148548095Y-70837380D01*
X148833809Y-70837380D02*
X148833809Y-69837380D01*
X148738571Y-69980238D01*
X148643333Y-70075476D01*
X148548095Y-70123095D01*
X149452857Y-69837380D02*
X150119523Y-69837380D01*
X149690952Y-70837380D01*
X191994857Y-106376571D02*
X192137714Y-106424190D01*
X192185333Y-106471809D01*
X192232952Y-106567047D01*
X192232952Y-106709904D01*
X192185333Y-106805142D01*
X192137714Y-106852761D01*
X192042476Y-106900380D01*
X191661523Y-106900380D01*
X191661523Y-105900380D01*
X191994857Y-105900380D01*
X192090095Y-105948000D01*
X192137714Y-105995619D01*
X192185333Y-106090857D01*
X192185333Y-106186095D01*
X192137714Y-106281333D01*
X192090095Y-106328952D01*
X191994857Y-106376571D01*
X191661523Y-106376571D01*
X193090095Y-106233714D02*
X193090095Y-106900380D01*
X192661523Y-106233714D02*
X192661523Y-106757523D01*
X192709142Y-106852761D01*
X192804380Y-106900380D01*
X192947238Y-106900380D01*
X193042476Y-106852761D01*
X193090095Y-106805142D01*
X193423428Y-106233714D02*
X193804380Y-106233714D01*
X193566285Y-105900380D02*
X193566285Y-106757523D01*
X193613904Y-106852761D01*
X193709142Y-106900380D01*
X193804380Y-106900380D01*
X193994857Y-106233714D02*
X194375809Y-106233714D01*
X194137714Y-105900380D02*
X194137714Y-106757523D01*
X194185333Y-106852761D01*
X194280571Y-106900380D01*
X194375809Y-106900380D01*
X194852000Y-106900380D02*
X194756761Y-106852761D01*
X194709142Y-106805142D01*
X194661523Y-106709904D01*
X194661523Y-106424190D01*
X194709142Y-106328952D01*
X194756761Y-106281333D01*
X194852000Y-106233714D01*
X194994857Y-106233714D01*
X195090095Y-106281333D01*
X195137714Y-106328952D01*
X195185333Y-106424190D01*
X195185333Y-106709904D01*
X195137714Y-106805142D01*
X195090095Y-106852761D01*
X194994857Y-106900380D01*
X194852000Y-106900380D01*
X195613904Y-106233714D02*
X195613904Y-106900380D01*
X195613904Y-106328952D02*
X195661523Y-106281333D01*
X195756761Y-106233714D01*
X195899619Y-106233714D01*
X195994857Y-106281333D01*
X196042476Y-106376571D01*
X196042476Y-106900380D01*
X145998095Y-69837380D02*
X146617142Y-69837380D01*
X146283809Y-70218333D01*
X146426666Y-70218333D01*
X146521904Y-70265952D01*
X146569523Y-70313571D01*
X146617142Y-70408809D01*
X146617142Y-70646904D01*
X146569523Y-70742142D01*
X146521904Y-70789761D01*
X146426666Y-70837380D01*
X146140952Y-70837380D01*
X146045714Y-70789761D01*
X145998095Y-70742142D01*
X146902857Y-69837380D02*
X147236190Y-70837380D01*
X147569523Y-69837380D01*
D10*
X138382380Y-87682380D02*
X138477619Y-87682380D01*
X138572857Y-87730000D01*
X138620476Y-87777619D01*
X138668095Y-87872857D01*
X138715714Y-88063333D01*
X138715714Y-88301428D01*
X138668095Y-88491904D01*
X138620476Y-88587142D01*
X138572857Y-88634761D01*
X138477619Y-88682380D01*
X138382380Y-88682380D01*
X138287142Y-88634761D01*
X138239523Y-88587142D01*
X138191904Y-88491904D01*
X138144285Y-88301428D01*
X138144285Y-88063333D01*
X138191904Y-87872857D01*
X138239523Y-87777619D01*
X138287142Y-87730000D01*
X138382380Y-87682380D01*
D12*
X112186904Y-80355000D02*
X112091666Y-80307380D01*
X111948809Y-80307380D01*
X111805952Y-80355000D01*
X111710714Y-80450238D01*
X111663095Y-80545476D01*
X111615476Y-80735952D01*
X111615476Y-80878809D01*
X111663095Y-81069285D01*
X111710714Y-81164523D01*
X111805952Y-81259761D01*
X111948809Y-81307380D01*
X112044047Y-81307380D01*
X112186904Y-81259761D01*
X112234523Y-81212142D01*
X112234523Y-80878809D01*
X112044047Y-80878809D01*
D10*
X165798476Y-88115714D02*
X165798476Y-88782380D01*
X165560380Y-87734761D02*
X165322285Y-88449047D01*
X165941333Y-88449047D01*
D12*
X176809523Y-108656380D02*
X176238095Y-108656380D01*
X176523809Y-108656380D02*
X176523809Y-107656380D01*
X176428571Y-107799238D01*
X176333333Y-107894476D01*
X176238095Y-107942095D01*
X177190476Y-107751619D02*
X177238095Y-107704000D01*
X177333333Y-107656380D01*
X177571428Y-107656380D01*
X177666666Y-107704000D01*
X177714285Y-107751619D01*
X177761904Y-107846857D01*
X177761904Y-107942095D01*
X177714285Y-108084952D01*
X177142857Y-108656380D01*
X177761904Y-108656380D01*
X184413095Y-109177619D02*
X184460714Y-109130000D01*
X184555952Y-109082380D01*
X184794047Y-109082380D01*
X184889285Y-109130000D01*
X184936904Y-109177619D01*
X184984523Y-109272857D01*
X184984523Y-109368095D01*
X184936904Y-109510952D01*
X184365476Y-110082380D01*
X184984523Y-110082380D01*
X185317857Y-109082380D02*
X185984523Y-109082380D01*
X185555952Y-110082380D01*
X191182952Y-104576571D02*
X190849619Y-104576571D01*
X190849619Y-105100380D02*
X190849619Y-104100380D01*
X191325809Y-104100380D01*
X192135333Y-104433714D02*
X192135333Y-105100380D01*
X191706761Y-104433714D02*
X191706761Y-104957523D01*
X191754380Y-105052761D01*
X191849619Y-105100380D01*
X191992476Y-105100380D01*
X192087714Y-105052761D01*
X192135333Y-105005142D01*
X192611523Y-104433714D02*
X192611523Y-105100380D01*
X192611523Y-104528952D02*
X192659142Y-104481333D01*
X192754380Y-104433714D01*
X192897238Y-104433714D01*
X192992476Y-104481333D01*
X193040095Y-104576571D01*
X193040095Y-105100380D01*
X193944857Y-105052761D02*
X193849619Y-105100380D01*
X193659142Y-105100380D01*
X193563904Y-105052761D01*
X193516285Y-105005142D01*
X193468666Y-104909904D01*
X193468666Y-104624190D01*
X193516285Y-104528952D01*
X193563904Y-104481333D01*
X193659142Y-104433714D01*
X193849619Y-104433714D01*
X193944857Y-104481333D01*
X194230571Y-104433714D02*
X194611523Y-104433714D01*
X194373428Y-104100380D02*
X194373428Y-104957523D01*
X194421047Y-105052761D01*
X194516285Y-105100380D01*
X194611523Y-105100380D01*
X194944857Y-105100380D02*
X194944857Y-104433714D01*
X194944857Y-104100380D02*
X194897238Y-104148000D01*
X194944857Y-104195619D01*
X194992476Y-104148000D01*
X194944857Y-104100380D01*
X194944857Y-104195619D01*
X195563904Y-105100380D02*
X195468666Y-105052761D01*
X195421047Y-105005142D01*
X195373428Y-104909904D01*
X195373428Y-104624190D01*
X195421047Y-104528952D01*
X195468666Y-104481333D01*
X195563904Y-104433714D01*
X195706761Y-104433714D01*
X195802000Y-104481333D01*
X195849619Y-104528952D01*
X195897238Y-104624190D01*
X195897238Y-104909904D01*
X195849619Y-105005142D01*
X195802000Y-105052761D01*
X195706761Y-105100380D01*
X195563904Y-105100380D01*
X196325809Y-104433714D02*
X196325809Y-105100380D01*
X196325809Y-104528952D02*
X196373428Y-104481333D01*
X196468666Y-104433714D01*
X196611523Y-104433714D01*
X196706761Y-104481333D01*
X196754380Y-104576571D01*
X196754380Y-105100380D01*
X144471904Y-69860000D02*
X144376666Y-69812380D01*
X144233809Y-69812380D01*
X144090952Y-69860000D01*
X143995714Y-69955238D01*
X143948095Y-70050476D01*
X143900476Y-70240952D01*
X143900476Y-70383809D01*
X143948095Y-70574285D01*
X143995714Y-70669523D01*
X144090952Y-70764761D01*
X144233809Y-70812380D01*
X144329047Y-70812380D01*
X144471904Y-70764761D01*
X144519523Y-70717142D01*
X144519523Y-70383809D01*
X144329047Y-70383809D01*
X177963095Y-81182380D02*
X178582142Y-81182380D01*
X178248809Y-81563333D01*
X178391666Y-81563333D01*
X178486904Y-81610952D01*
X178534523Y-81658571D01*
X178582142Y-81753809D01*
X178582142Y-81991904D01*
X178534523Y-82087142D01*
X178486904Y-82134761D01*
X178391666Y-82182380D01*
X178105952Y-82182380D01*
X178010714Y-82134761D01*
X177963095Y-82087142D01*
X178867857Y-81182380D02*
X179201190Y-82182380D01*
X179534523Y-81182380D01*
X184157904Y-95512000D02*
X184062666Y-95464380D01*
X183919809Y-95464380D01*
X183776952Y-95512000D01*
X183681714Y-95607238D01*
X183634095Y-95702476D01*
X183586476Y-95892952D01*
X183586476Y-96035809D01*
X183634095Y-96226285D01*
X183681714Y-96321523D01*
X183776952Y-96416761D01*
X183919809Y-96464380D01*
X184015047Y-96464380D01*
X184157904Y-96416761D01*
X184205523Y-96369142D01*
X184205523Y-96035809D01*
X184015047Y-96035809D01*
X152023095Y-69812380D02*
X151546904Y-69812380D01*
X151499285Y-70288571D01*
X151546904Y-70240952D01*
X151642142Y-70193333D01*
X151880238Y-70193333D01*
X151975476Y-70240952D01*
X152023095Y-70288571D01*
X152070714Y-70383809D01*
X152070714Y-70621904D01*
X152023095Y-70717142D01*
X151975476Y-70764761D01*
X151880238Y-70812380D01*
X151642142Y-70812380D01*
X151546904Y-70764761D01*
X151499285Y-70717142D01*
X188348095Y-84612380D02*
X188348095Y-83612380D01*
X188586190Y-83612380D01*
X188729047Y-83660000D01*
X188824285Y-83755238D01*
X188871904Y-83850476D01*
X188919523Y-84040952D01*
X188919523Y-84183809D01*
X188871904Y-84374285D01*
X188824285Y-84469523D01*
X188729047Y-84564761D01*
X188586190Y-84612380D01*
X188348095Y-84612380D01*
D10*
X151606285Y-87902619D02*
X151653904Y-87855000D01*
X151749142Y-87807380D01*
X151987238Y-87807380D01*
X152082476Y-87855000D01*
X152130095Y-87902619D01*
X152177714Y-87997857D01*
X152177714Y-88093095D01*
X152130095Y-88235952D01*
X151558666Y-88807380D01*
X152177714Y-88807380D01*
D12*
X176436904Y-81205000D02*
X176341666Y-81157380D01*
X176198809Y-81157380D01*
X176055952Y-81205000D01*
X175960714Y-81300238D01*
X175913095Y-81395476D01*
X175865476Y-81585952D01*
X175865476Y-81728809D01*
X175913095Y-81919285D01*
X175960714Y-82014523D01*
X176055952Y-82109761D01*
X176198809Y-82157380D01*
X176294047Y-82157380D01*
X176436904Y-82109761D01*
X176484523Y-82062142D01*
X176484523Y-81728809D01*
X176294047Y-81728809D01*
X118738095Y-80402619D02*
X118785714Y-80355000D01*
X118880952Y-80307380D01*
X119119047Y-80307380D01*
X119214285Y-80355000D01*
X119261904Y-80402619D01*
X119309523Y-80497857D01*
X119309523Y-80593095D01*
X119261904Y-80735952D01*
X118690476Y-81307380D01*
X119309523Y-81307380D01*
X119690476Y-80402619D02*
X119738095Y-80355000D01*
X119833333Y-80307380D01*
X120071428Y-80307380D01*
X120166666Y-80355000D01*
X120214285Y-80402619D01*
X120261904Y-80497857D01*
X120261904Y-80593095D01*
X120214285Y-80735952D01*
X119642857Y-81307380D01*
X120261904Y-81307380D01*
X182435523Y-87844380D02*
X181959333Y-87844380D01*
X181911714Y-88320571D01*
X181959333Y-88272952D01*
X182054571Y-88225333D01*
X182292666Y-88225333D01*
X182387904Y-88272952D01*
X182435523Y-88320571D01*
X182483142Y-88415809D01*
X182483142Y-88653904D01*
X182435523Y-88749142D01*
X182387904Y-88796761D01*
X182292666Y-88844380D01*
X182054571Y-88844380D01*
X181959333Y-88796761D01*
X181911714Y-88749142D01*
X182768857Y-87844380D02*
X183102190Y-88844380D01*
X183435523Y-87844380D01*
X128407523Y-106760095D02*
X127788476Y-106760095D01*
X127788476Y-105460095D01*
X129026571Y-106760095D02*
X128902761Y-106698190D01*
X128840857Y-106636285D01*
X128778952Y-106512476D01*
X128778952Y-106141047D01*
X128840857Y-106017238D01*
X128902761Y-105955333D01*
X129026571Y-105893428D01*
X129212285Y-105893428D01*
X129336095Y-105955333D01*
X129398000Y-106017238D01*
X129459904Y-106141047D01*
X129459904Y-106512476D01*
X129398000Y-106636285D01*
X129336095Y-106698190D01*
X129212285Y-106760095D01*
X129026571Y-106760095D01*
X130574190Y-105893428D02*
X130574190Y-106760095D01*
X130017047Y-105893428D02*
X130017047Y-106574380D01*
X130078952Y-106698190D01*
X130202761Y-106760095D01*
X130388476Y-106760095D01*
X130512285Y-106698190D01*
X130574190Y-106636285D01*
X131193238Y-106760095D02*
X131193238Y-105893428D01*
X131193238Y-105460095D02*
X131131333Y-105522000D01*
X131193238Y-105583904D01*
X131255142Y-105522000D01*
X131193238Y-105460095D01*
X131193238Y-105583904D01*
X132307523Y-106698190D02*
X132183714Y-106760095D01*
X131936095Y-106760095D01*
X131812285Y-106698190D01*
X131750380Y-106574380D01*
X131750380Y-106079142D01*
X131812285Y-105955333D01*
X131936095Y-105893428D01*
X132183714Y-105893428D01*
X132307523Y-105955333D01*
X132369428Y-106079142D01*
X132369428Y-106202952D01*
X131750380Y-106326761D01*
X181101904Y-84326666D02*
X181578095Y-84326666D01*
X181006666Y-84612380D02*
X181340000Y-83612380D01*
X181673333Y-84612380D01*
X169970666Y-106506095D02*
X169537333Y-105887047D01*
X169227809Y-106506095D02*
X169227809Y-105206095D01*
X169723047Y-105206095D01*
X169846857Y-105268000D01*
X169908761Y-105329904D01*
X169970666Y-105453714D01*
X169970666Y-105639428D01*
X169908761Y-105763238D01*
X169846857Y-105825142D01*
X169723047Y-105887047D01*
X169227809Y-105887047D01*
X170713523Y-106506095D02*
X170589714Y-106444190D01*
X170527809Y-106382285D01*
X170465904Y-106258476D01*
X170465904Y-105887047D01*
X170527809Y-105763238D01*
X170589714Y-105701333D01*
X170713523Y-105639428D01*
X170899238Y-105639428D01*
X171023047Y-105701333D01*
X171084952Y-105763238D01*
X171146857Y-105887047D01*
X171146857Y-106258476D01*
X171084952Y-106382285D01*
X171023047Y-106444190D01*
X170899238Y-106506095D01*
X170713523Y-106506095D01*
X172261142Y-105639428D02*
X172261142Y-106691809D01*
X172199238Y-106815619D01*
X172137333Y-106877523D01*
X172013523Y-106939428D01*
X171827809Y-106939428D01*
X171704000Y-106877523D01*
X172261142Y-106444190D02*
X172137333Y-106506095D01*
X171889714Y-106506095D01*
X171765904Y-106444190D01*
X171704000Y-106382285D01*
X171642095Y-106258476D01*
X171642095Y-105887047D01*
X171704000Y-105763238D01*
X171765904Y-105701333D01*
X171889714Y-105639428D01*
X172137333Y-105639428D01*
X172261142Y-105701333D01*
X173375428Y-106444190D02*
X173251619Y-106506095D01*
X173004000Y-106506095D01*
X172880190Y-106444190D01*
X172818285Y-106320380D01*
X172818285Y-105825142D01*
X172880190Y-105701333D01*
X173004000Y-105639428D01*
X173251619Y-105639428D01*
X173375428Y-105701333D01*
X173437333Y-105825142D01*
X173437333Y-105948952D01*
X172818285Y-106072761D01*
X173994476Y-106506095D02*
X173994476Y-105639428D01*
X173994476Y-105887047D02*
X174056380Y-105763238D01*
X174118285Y-105701333D01*
X174242095Y-105639428D01*
X174365904Y-105639428D01*
X186519523Y-84487142D02*
X186471904Y-84534761D01*
X186329047Y-84582380D01*
X186233809Y-84582380D01*
X186090952Y-84534761D01*
X185995714Y-84439523D01*
X185948095Y-84344285D01*
X185900476Y-84153809D01*
X185900476Y-84010952D01*
X185948095Y-83820476D01*
X185995714Y-83725238D01*
X186090952Y-83630000D01*
X186233809Y-83582380D01*
X186329047Y-83582380D01*
X186471904Y-83630000D01*
X186519523Y-83677619D01*
X180465476Y-81182380D02*
X181084523Y-81182380D01*
X180751190Y-81563333D01*
X180894047Y-81563333D01*
X180989285Y-81610952D01*
X181036904Y-81658571D01*
X181084523Y-81753809D01*
X181084523Y-81991904D01*
X181036904Y-82087142D01*
X180989285Y-82134761D01*
X180894047Y-82182380D01*
X180608333Y-82182380D01*
X180513095Y-82134761D01*
X180465476Y-82087142D01*
X181465476Y-81277619D02*
X181513095Y-81230000D01*
X181608333Y-81182380D01*
X181846428Y-81182380D01*
X181941666Y-81230000D01*
X181989285Y-81277619D01*
X182036904Y-81372857D01*
X182036904Y-81468095D01*
X181989285Y-81610952D01*
X181417857Y-82182380D01*
X182036904Y-82182380D01*
X121313095Y-80377619D02*
X121360714Y-80330000D01*
X121455952Y-80282380D01*
X121694047Y-80282380D01*
X121789285Y-80330000D01*
X121836904Y-80377619D01*
X121884523Y-80472857D01*
X121884523Y-80568095D01*
X121836904Y-80710952D01*
X121265476Y-81282380D01*
X121884523Y-81282380D01*
X122836904Y-81282380D02*
X122265476Y-81282380D01*
X122551190Y-81282380D02*
X122551190Y-80282380D01*
X122455952Y-80425238D01*
X122360714Y-80520476D01*
X122265476Y-80568095D01*
X113713095Y-80332380D02*
X114332142Y-80332380D01*
X113998809Y-80713333D01*
X114141666Y-80713333D01*
X114236904Y-80760952D01*
X114284523Y-80808571D01*
X114332142Y-80903809D01*
X114332142Y-81141904D01*
X114284523Y-81237142D01*
X114236904Y-81284761D01*
X114141666Y-81332380D01*
X113855952Y-81332380D01*
X113760714Y-81284761D01*
X113713095Y-81237142D01*
X114617857Y-80332380D02*
X114951190Y-81332380D01*
X115284523Y-80332380D01*
X187890476Y-81157380D02*
X188509523Y-81157380D01*
X188176190Y-81538333D01*
X188319047Y-81538333D01*
X188414285Y-81585952D01*
X188461904Y-81633571D01*
X188509523Y-81728809D01*
X188509523Y-81966904D01*
X188461904Y-82062142D01*
X188414285Y-82109761D01*
X188319047Y-82157380D01*
X188033333Y-82157380D01*
X187938095Y-82109761D01*
X187890476Y-82062142D01*
X188985714Y-82157380D02*
X189176190Y-82157380D01*
X189271428Y-82109761D01*
X189319047Y-82062142D01*
X189414285Y-81919285D01*
X189461904Y-81728809D01*
X189461904Y-81347857D01*
X189414285Y-81252619D01*
X189366666Y-81205000D01*
X189271428Y-81157380D01*
X189080952Y-81157380D01*
X188985714Y-81205000D01*
X188938095Y-81252619D01*
X188890476Y-81347857D01*
X188890476Y-81585952D01*
X188938095Y-81681190D01*
X188985714Y-81728809D01*
X189080952Y-81776428D01*
X189271428Y-81776428D01*
X189366666Y-81728809D01*
X189414285Y-81681190D01*
X189461904Y-81585952D01*
X188928476Y-110704380D02*
X189547523Y-110704380D01*
X189214190Y-111085333D01*
X189357047Y-111085333D01*
X189452285Y-111132952D01*
X189499904Y-111180571D01*
X189547523Y-111275809D01*
X189547523Y-111513904D01*
X189499904Y-111609142D01*
X189452285Y-111656761D01*
X189357047Y-111704380D01*
X189071333Y-111704380D01*
X188976095Y-111656761D01*
X188928476Y-111609142D01*
X190404666Y-110704380D02*
X190214190Y-110704380D01*
X190118952Y-110752000D01*
X190071333Y-110799619D01*
X189976095Y-110942476D01*
X189928476Y-111132952D01*
X189928476Y-111513904D01*
X189976095Y-111609142D01*
X190023714Y-111656761D01*
X190118952Y-111704380D01*
X190309428Y-111704380D01*
X190404666Y-111656761D01*
X190452285Y-111609142D01*
X190499904Y-111513904D01*
X190499904Y-111275809D01*
X190452285Y-111180571D01*
X190404666Y-111132952D01*
X190309428Y-111085333D01*
X190118952Y-111085333D01*
X190023714Y-111132952D01*
X189976095Y-111180571D01*
X189928476Y-111275809D01*
X116263095Y-80427619D02*
X116310714Y-80380000D01*
X116405952Y-80332380D01*
X116644047Y-80332380D01*
X116739285Y-80380000D01*
X116786904Y-80427619D01*
X116834523Y-80522857D01*
X116834523Y-80618095D01*
X116786904Y-80760952D01*
X116215476Y-81332380D01*
X116834523Y-81332380D01*
X117167857Y-80332380D02*
X117786904Y-80332380D01*
X117453571Y-80713333D01*
X117596428Y-80713333D01*
X117691666Y-80760952D01*
X117739285Y-80808571D01*
X117786904Y-80903809D01*
X117786904Y-81141904D01*
X117739285Y-81237142D01*
X117691666Y-81284761D01*
X117596428Y-81332380D01*
X117310714Y-81332380D01*
X117215476Y-81284761D01*
X117167857Y-81237142D01*
X185515476Y-81132380D02*
X186134523Y-81132380D01*
X185801190Y-81513333D01*
X185944047Y-81513333D01*
X186039285Y-81560952D01*
X186086904Y-81608571D01*
X186134523Y-81703809D01*
X186134523Y-81941904D01*
X186086904Y-82037142D01*
X186039285Y-82084761D01*
X185944047Y-82132380D01*
X185658333Y-82132380D01*
X185563095Y-82084761D01*
X185515476Y-82037142D01*
X186991666Y-81465714D02*
X186991666Y-82132380D01*
X186753571Y-81084761D02*
X186515476Y-81799047D01*
X187134523Y-81799047D01*
X156544523Y-70812380D02*
X155973095Y-70812380D01*
X156258809Y-70812380D02*
X156258809Y-69812380D01*
X156163571Y-69955238D01*
X156068333Y-70050476D01*
X155973095Y-70098095D01*
X156877857Y-69812380D02*
X157496904Y-69812380D01*
X157163571Y-70193333D01*
X157306428Y-70193333D01*
X157401666Y-70240952D01*
X157449285Y-70288571D01*
X157496904Y-70383809D01*
X157496904Y-70621904D01*
X157449285Y-70717142D01*
X157401666Y-70764761D01*
X157306428Y-70812380D01*
X157020714Y-70812380D01*
X156925476Y-70764761D01*
X156877857Y-70717142D01*
X124259523Y-81307380D02*
X123688095Y-81307380D01*
X123973809Y-81307380D02*
X123973809Y-80307380D01*
X123878571Y-80450238D01*
X123783333Y-80545476D01*
X123688095Y-80593095D01*
X124735714Y-81307380D02*
X124926190Y-81307380D01*
X125021428Y-81259761D01*
X125069047Y-81212142D01*
X125164285Y-81069285D01*
X125211904Y-80878809D01*
X125211904Y-80497857D01*
X125164285Y-80402619D01*
X125116666Y-80355000D01*
X125021428Y-80307380D01*
X124830952Y-80307380D01*
X124735714Y-80355000D01*
X124688095Y-80402619D01*
X124640476Y-80497857D01*
X124640476Y-80735952D01*
X124688095Y-80831190D01*
X124735714Y-80878809D01*
X124830952Y-80926428D01*
X125021428Y-80926428D01*
X125116666Y-80878809D01*
X125164285Y-80831190D01*
X125211904Y-80735952D01*
D13*
X115522500Y-120412258D02*
X115522500Y-119937742D01*
X114477500Y-120412258D02*
X114477500Y-119937742D01*
X157874648Y-79724068D02*
X157874648Y-80005228D01*
X156854648Y-79724068D02*
X156854648Y-80005228D01*
X129286248Y-121630000D02*
X129808752Y-121630000D01*
X129286248Y-120160000D02*
X129808752Y-120160000D01*
X163175000Y-121186000D02*
X164645000Y-121186000D01*
X164645000Y-121186000D02*
X164645000Y-118901000D01*
X163175000Y-118901000D02*
X163175000Y-121186000D01*
X122738748Y-96265000D02*
X123261252Y-96265000D01*
X122738748Y-97735000D02*
X123261252Y-97735000D01*
X164432500Y-123613758D02*
X164432500Y-123139242D01*
X163387500Y-123613758D02*
X163387500Y-123139242D01*
X117265000Y-118727500D02*
X117265000Y-121012500D01*
X118735000Y-118727500D02*
X117265000Y-118727500D01*
X118735000Y-121012500D02*
X118735000Y-118727500D01*
X184788748Y-128735000D02*
X185311252Y-128735000D01*
X184788748Y-127265000D02*
X185311252Y-127265000D01*
X156814648Y-87564648D02*
X156814648Y-81664648D01*
X160714648Y-87564648D02*
X160714648Y-81664648D01*
X160714648Y-81664648D02*
X159639648Y-81664648D01*
X184990580Y-130660000D02*
X184709420Y-130660000D01*
X184990580Y-129640000D02*
X184709420Y-129640000D01*
X178314000Y-111073000D02*
X178314000Y-105173000D01*
X182214000Y-105173000D02*
X181139000Y-105173000D01*
X182214000Y-111073000D02*
X182214000Y-105173000D01*
X120160000Y-89704437D02*
X119095563Y-88640000D01*
X121650000Y-96760000D02*
X120400000Y-96760000D01*
X119095563Y-99360000D02*
X109440000Y-99360000D01*
X120160000Y-98295563D02*
X120160000Y-95510000D01*
X121025000Y-97385000D02*
X121025000Y-96135000D01*
X120160000Y-98295563D02*
X119095563Y-99360000D01*
X119095563Y-88640000D02*
X109440000Y-88640000D01*
X109440000Y-88640000D02*
X109440000Y-92490000D01*
X120160000Y-89704437D02*
X120160000Y-92490000D01*
X109440000Y-99360000D02*
X109440000Y-95510000D01*
X133983000Y-133536000D02*
X133183000Y-134336000D01*
X131133000Y-134336000D02*
X131133000Y-129726000D01*
X131133000Y-129726000D02*
X133983000Y-129726000D01*
X133983000Y-129726000D02*
X133983000Y-133536000D01*
X133183000Y-134336000D02*
X131133000Y-134336000D01*
X160175000Y-121186000D02*
X161645000Y-121186000D01*
X161645000Y-121186000D02*
X161645000Y-118901000D01*
X160175000Y-118901000D02*
X160175000Y-121186000D01*
X123400000Y-117650000D02*
X118000000Y-117650000D01*
X123400000Y-117650000D02*
X123400000Y-114350000D01*
X123400000Y-114350000D02*
X118000000Y-114350000D01*
X185562500Y-102990242D02*
X185562500Y-103464758D01*
X184517500Y-102990242D02*
X184517500Y-103464758D01*
G36*
X124062587Y-57423683D02*
G01*
X124104779Y-57479568D01*
X124063102Y-57561901D01*
X123914279Y-57585401D01*
X123749436Y-57553000D01*
X123723779Y-57479568D01*
X123826959Y-57389801D01*
X123914279Y-57373735D01*
X124062587Y-57423683D01*
G37*
G36*
X175491381Y-59467541D02*
G01*
X175510614Y-59093312D01*
X175542024Y-58783293D01*
X175588393Y-58502457D01*
X175652502Y-58215777D01*
X175668816Y-58150216D01*
X175753117Y-57798742D01*
X175817946Y-57495886D01*
X175853467Y-57289075D01*
X175857279Y-57241767D01*
X175808030Y-57094112D01*
X175679505Y-56867548D01*
X175516797Y-56634619D01*
X175290658Y-56295731D01*
X175201264Y-56035968D01*
X175226838Y-55928252D01*
X175970204Y-55928252D01*
X176037714Y-56047887D01*
X176170080Y-56246514D01*
X176340070Y-56487030D01*
X176520456Y-56732331D01*
X176684006Y-56945313D01*
X176803492Y-57088872D01*
X176850776Y-57128126D01*
X176833925Y-57042972D01*
X176765761Y-56839035D01*
X176659302Y-56554169D01*
X176611741Y-56433140D01*
X176488004Y-56126371D01*
X176388177Y-55886427D01*
X176328333Y-55751658D01*
X176319583Y-55736171D01*
X176217473Y-55724482D01*
X176077458Y-55786193D01*
X175978148Y-55878086D01*
X175970204Y-55928252D01*
X175226838Y-55928252D01*
X175249297Y-55833654D01*
X175435439Y-55667116D01*
X175549168Y-55605443D01*
X175859141Y-55488987D01*
X176194743Y-55410828D01*
X176242278Y-55404539D01*
X176608500Y-55363261D01*
X176751827Y-55860498D01*
X176961289Y-56473143D01*
X177258776Y-57183013D01*
X177625770Y-57955719D01*
X178043755Y-58756870D01*
X178494211Y-59552076D01*
X178958623Y-60306949D01*
X179418473Y-60987098D01*
X179749798Y-61428203D01*
X180501337Y-62247034D01*
X181389803Y-62992226D01*
X182392722Y-63647287D01*
X183487622Y-64195722D01*
X183566671Y-64229500D01*
X184452304Y-64569613D01*
X185326121Y-64829752D01*
X186246201Y-65024510D01*
X187270622Y-65168477D01*
X187330681Y-65175160D01*
X188601749Y-65314912D01*
X189002847Y-65032191D01*
X189219302Y-64868736D01*
X189364935Y-64737925D01*
X189403946Y-64681103D01*
X189467815Y-64613810D01*
X189621473Y-64618821D01*
X189807994Y-64683890D01*
X189970454Y-64796769D01*
X189978022Y-64804612D01*
X190158282Y-64996490D01*
X189802280Y-65379693D01*
X189284865Y-65843101D01*
X188624970Y-66286200D01*
X187849023Y-66700654D01*
X186983454Y-67078131D01*
X186054693Y-67410295D01*
X185089167Y-67688813D01*
X184113306Y-67905351D01*
X183153539Y-68051574D01*
X182236295Y-68119148D01*
X181388004Y-68099740D01*
X181225479Y-68084311D01*
X180219808Y-67896237D01*
X179294506Y-67559341D01*
X178449397Y-67073487D01*
X177684304Y-66438540D01*
X176999051Y-65654366D01*
X176393461Y-64720830D01*
X176112323Y-64181170D01*
X175905629Y-63724521D01*
X175747502Y-63295431D01*
X175632040Y-62860083D01*
X175553340Y-62384659D01*
X175505499Y-61835342D01*
X175482616Y-61178316D01*
X175478316Y-60548735D01*
X175478922Y-60434488D01*
X175774563Y-60434488D01*
X175805813Y-61403877D01*
X175911440Y-62313493D01*
X176089462Y-63125551D01*
X176206444Y-63487122D01*
X176575718Y-64303462D01*
X177060979Y-65084389D01*
X177638196Y-65803666D01*
X178283338Y-66435056D01*
X178972373Y-66952323D01*
X179681272Y-67329230D01*
X179751946Y-67358039D01*
X180448333Y-67567253D01*
X181256061Y-67696002D01*
X182136102Y-67741684D01*
X183049426Y-67701695D01*
X183691471Y-67620718D01*
X184705822Y-67409468D01*
X185780326Y-67100051D01*
X186682386Y-66777611D01*
X187199112Y-66571397D01*
X187627025Y-66392013D01*
X187948683Y-66247315D01*
X188146639Y-66145157D01*
X188203450Y-66093394D01*
X188203024Y-66092924D01*
X188112358Y-66092212D01*
X187890289Y-66113431D01*
X187572762Y-66152671D01*
X187285821Y-66192707D01*
X186788408Y-66249396D01*
X186200375Y-66291150D01*
X185560804Y-66317618D01*
X184908778Y-66328448D01*
X184283380Y-66323287D01*
X183723691Y-66301783D01*
X183268794Y-66263584D01*
X183053946Y-66230855D01*
X181962213Y-65935251D01*
X180962880Y-65498282D01*
X180057865Y-64921714D01*
X179249084Y-64207313D01*
X178538457Y-63356847D01*
X177927899Y-62372080D01*
X177419329Y-61254781D01*
X177299439Y-60929735D01*
X177112943Y-60364147D01*
X176933994Y-59756837D01*
X176774532Y-59153867D01*
X176646495Y-58601303D01*
X176561822Y-58145208D01*
X176544727Y-58017657D01*
X176507887Y-57832975D01*
X176677020Y-57832975D01*
X176686301Y-57976186D01*
X176732697Y-58246097D01*
X176749150Y-58333078D01*
X176933864Y-59154858D01*
X177179529Y-60028663D01*
X177467518Y-60897837D01*
X177779198Y-61705721D01*
X178064512Y-62333467D01*
X178589679Y-63199803D01*
X179249928Y-63983477D01*
X180025663Y-64670738D01*
X180897287Y-65247832D01*
X181845205Y-65701009D01*
X182849821Y-66016518D01*
X183482408Y-66135543D01*
X183892106Y-66171281D01*
X184428175Y-66185779D01*
X185049169Y-66180422D01*
X185713643Y-66156593D01*
X186380154Y-66115677D01*
X187007256Y-66059058D01*
X187456613Y-66002818D01*
X187859488Y-65940730D01*
X188212876Y-65880217D01*
X188475722Y-65828686D01*
X188599613Y-65796617D01*
X188662996Y-65763768D01*
X188657634Y-65732923D01*
X188566830Y-65700920D01*
X188373884Y-65664600D01*
X188062098Y-65620802D01*
X187614775Y-65566365D01*
X187033279Y-65500149D01*
X185592693Y-65263566D01*
X184240555Y-64887046D01*
X182980702Y-64372342D01*
X181816970Y-63721206D01*
X180753197Y-62935392D01*
X180094849Y-62330971D01*
X179585106Y-61766944D01*
X179063101Y-61079521D01*
X178520233Y-60256249D01*
X177947897Y-59284672D01*
X177773839Y-58970952D01*
X177558185Y-58593176D01*
X177358281Y-58271516D01*
X177193188Y-58034665D01*
X177081964Y-57911317D01*
X177063177Y-57901058D01*
X176850134Y-57829745D01*
X176776196Y-57800973D01*
X176706453Y-57785043D01*
X176677020Y-57832975D01*
X176507887Y-57832975D01*
X176477791Y-57682104D01*
X176373671Y-57490269D01*
X176348173Y-57470319D01*
X176211235Y-57415528D01*
X176158848Y-57424943D01*
X176127769Y-57521467D01*
X176076639Y-57750758D01*
X176012569Y-58078443D01*
X175943121Y-58467529D01*
X175819671Y-59443110D01*
X175774563Y-60434488D01*
X175478922Y-60434488D01*
X175481542Y-59941006D01*
X175491381Y-59467541D01*
G37*
G36*
X156722613Y-95688058D02*
G01*
X156653996Y-95760829D01*
X156595613Y-95770068D01*
X156482650Y-95751953D01*
X156468613Y-95736793D01*
X156534818Y-95682199D01*
X156595613Y-95654783D01*
X156704634Y-95653024D01*
X156722613Y-95688058D01*
G37*
G36*
X177467555Y-123582248D02*
G01*
X177399638Y-123840825D01*
X177298981Y-123953812D01*
X177191554Y-123916351D01*
X177103327Y-123723588D01*
X177087816Y-123653257D01*
X177067080Y-123410909D01*
X177117802Y-123304058D01*
X177119931Y-123303295D01*
X177205956Y-123203834D01*
X177211946Y-123163046D01*
X177271475Y-123023323D01*
X177348643Y-122940020D01*
X177458769Y-122880874D01*
X177566495Y-122931572D01*
X177672061Y-123043646D01*
X177858781Y-123260721D01*
X177997109Y-123019699D01*
X178142866Y-122835744D01*
X178323603Y-122695202D01*
X178494612Y-122622485D01*
X178611185Y-122642003D01*
X178630444Y-122673897D01*
X178733474Y-122763946D01*
X178814546Y-122778735D01*
X179015074Y-122857575D01*
X179202549Y-123072417D01*
X179333005Y-123347609D01*
X179374984Y-123687994D01*
X179300320Y-124048486D01*
X179128883Y-124358255D01*
X179018820Y-124467528D01*
X178831988Y-124601171D01*
X178714274Y-124630485D01*
X178609300Y-124564830D01*
X178583546Y-124539801D01*
X178489099Y-124399822D01*
X178553040Y-124316162D01*
X178672446Y-124287456D01*
X178844030Y-124186339D01*
X178974023Y-123972701D01*
X179043941Y-123701770D01*
X179035297Y-123428775D01*
X178998222Y-123314107D01*
X178888996Y-123075068D01*
X178723949Y-123396139D01*
X178540272Y-123661139D01*
X178331639Y-123820466D01*
X178131701Y-123854271D01*
X178029518Y-123805722D01*
X177858583Y-123746941D01*
X177772727Y-123760107D01*
X177666824Y-123755665D01*
X177596319Y-123621911D01*
X177573106Y-123528735D01*
X177549211Y-123418456D01*
X178143279Y-123418456D01*
X178180785Y-123531132D01*
X178274205Y-123509517D01*
X178394895Y-123366029D01*
X178437438Y-123290939D01*
X178526649Y-123085688D01*
X178563960Y-122934432D01*
X178563937Y-122931106D01*
X178521514Y-122908282D01*
X178422431Y-122985579D01*
X178302633Y-123121351D01*
X178198067Y-123273950D01*
X178144681Y-123401733D01*
X178143279Y-123418456D01*
X177549211Y-123418456D01*
X177511498Y-123244401D01*
X177467555Y-123582248D01*
G37*
G36*
X136137779Y-98514230D02*
G01*
X136141335Y-98669901D01*
X136136351Y-98947110D01*
X136109167Y-99062121D01*
X136060847Y-99012539D01*
X136028659Y-98923901D01*
X136018486Y-98738498D01*
X136058010Y-98521735D01*
X136103436Y-98384202D01*
X136127177Y-98376636D01*
X136137779Y-98514230D01*
G37*
G36*
X140427137Y-71672668D02*
G01*
X140456998Y-71802171D01*
X140451070Y-71872177D01*
X140381616Y-72049657D01*
X140257919Y-72136038D01*
X140132247Y-72109683D01*
X140076298Y-72027325D01*
X140060241Y-71816376D01*
X140168341Y-71673339D01*
X140300246Y-71640068D01*
X140427137Y-71672668D01*
G37*
G36*
X137964850Y-71015212D02*
G01*
X138108617Y-71143751D01*
X138138687Y-71328060D01*
X138087040Y-71439133D01*
X137926095Y-71537496D01*
X137736941Y-71546568D01*
X137644390Y-71498957D01*
X137594872Y-71350749D01*
X137653481Y-71179535D01*
X137780625Y-71045083D01*
X137936709Y-71007163D01*
X137964850Y-71015212D01*
G37*
G36*
X118804788Y-59497882D02*
G01*
X118837761Y-59538367D01*
X118871483Y-59624670D01*
X118808948Y-59682329D01*
X118643779Y-59739589D01*
X118499095Y-59756954D01*
X118454338Y-59660881D01*
X118453279Y-59623107D01*
X118517843Y-59489870D01*
X118660519Y-59442507D01*
X118804788Y-59497882D01*
G37*
G36*
X145184324Y-96567037D02*
G01*
X145219188Y-96594110D01*
X145272905Y-96733348D01*
X145235694Y-96881747D01*
X145129882Y-96955204D01*
X145123279Y-96955401D01*
X145018734Y-96887448D01*
X144982380Y-96822710D01*
X144978805Y-96666204D01*
X145063007Y-96564677D01*
X145184324Y-96567037D01*
G37*
G36*
X183849734Y-123737407D02*
G01*
X183956561Y-123852159D01*
X183981695Y-124025236D01*
X183914596Y-124165829D01*
X183900613Y-124175735D01*
X183822708Y-124298237D01*
X183815946Y-124350065D01*
X183881928Y-124442868D01*
X184025184Y-124470240D01*
X184163675Y-124424141D01*
X184196946Y-124387401D01*
X184306687Y-124312184D01*
X184434071Y-124318208D01*
X184493279Y-124399234D01*
X184418546Y-124535934D01*
X184233929Y-124649274D01*
X183998805Y-124720903D01*
X183772550Y-124732471D01*
X183618390Y-124669623D01*
X183577771Y-124543115D01*
X183564444Y-124320221D01*
X183576703Y-124071390D01*
X183612842Y-123867068D01*
X183639364Y-123803564D01*
X183770501Y-123727471D01*
X183849734Y-123737407D01*
G37*
G36*
X154467458Y-94519325D02*
G01*
X154481639Y-94537417D01*
X154578179Y-94690520D01*
X154605946Y-94770250D01*
X154560786Y-94838740D01*
X154468720Y-94801281D01*
X154403338Y-94704810D01*
X154354643Y-94521993D01*
X154379547Y-94452617D01*
X154467458Y-94519325D01*
G37*
G36*
X161533367Y-73224118D02*
G01*
X161517354Y-72793657D01*
X161625152Y-72350942D01*
X161858124Y-71923188D01*
X162180177Y-71569775D01*
X162534926Y-71317917D01*
X162862643Y-71225252D01*
X163191452Y-71291438D01*
X163549474Y-71516128D01*
X163594177Y-71552434D01*
X163906843Y-71899296D01*
X164128459Y-72323325D01*
X164248528Y-72781313D01*
X164256548Y-73230051D01*
X164142022Y-73626329D01*
X164111629Y-73681970D01*
X163868575Y-73941822D01*
X163514739Y-74132526D01*
X163099196Y-74240787D01*
X162671018Y-74253312D01*
X162310613Y-74169846D01*
X161931361Y-73939427D01*
X161920670Y-73926068D01*
X162564613Y-73926068D01*
X162863665Y-73926068D01*
X163159146Y-73890861D01*
X163449517Y-73806236D01*
X163713701Y-73645605D01*
X163862522Y-73413507D01*
X163917379Y-73072239D01*
X163918963Y-72979134D01*
X163873313Y-72636863D01*
X163752714Y-72343166D01*
X163580775Y-72138526D01*
X163384949Y-72063401D01*
X163142923Y-72142513D01*
X162920855Y-72357635D01*
X162737772Y-72675446D01*
X162612699Y-73062625D01*
X162564665Y-73485852D01*
X162564613Y-73500015D01*
X162564613Y-73926068D01*
X161920670Y-73926068D01*
X161671824Y-73615113D01*
X161533367Y-73224118D01*
G37*
G36*
X180275865Y-122676547D02*
G01*
X180327636Y-122824085D01*
X180271188Y-122970692D01*
X180202061Y-123104717D01*
X180176973Y-123278060D01*
X180199398Y-123417588D01*
X180248131Y-123456068D01*
X180357253Y-123412094D01*
X180546204Y-123301396D01*
X180632891Y-123244401D01*
X180853959Y-123099307D01*
X180970421Y-123044376D01*
X181015328Y-123071161D01*
X181021946Y-123144976D01*
X180953288Y-123298238D01*
X180780391Y-123476735D01*
X180552869Y-123634973D01*
X180418384Y-123698427D01*
X180193863Y-123735609D01*
X180016217Y-123656933D01*
X179877631Y-123488829D01*
X179836613Y-123336901D01*
X179868327Y-123081815D01*
X179948075Y-122839414D01*
X180052762Y-122664377D01*
X180143886Y-122609401D01*
X180275865Y-122676547D01*
G37*
G36*
X143529939Y-75413124D02*
G01*
X143767083Y-75525235D01*
X144031046Y-75675734D01*
X144274994Y-75836240D01*
X144452094Y-75978372D01*
X144515158Y-76063901D01*
X144489227Y-76184140D01*
X144359444Y-76190752D01*
X144147699Y-76083527D01*
X144124476Y-76067664D01*
X143954986Y-75983260D01*
X143838799Y-76023555D01*
X143832376Y-76029771D01*
X143690164Y-76121855D01*
X143611403Y-76060122D01*
X143599279Y-75961047D01*
X143531001Y-75791243D01*
X143429946Y-75704068D01*
X143303777Y-75589016D01*
X143262321Y-75459767D01*
X143316771Y-75375593D01*
X143366446Y-75367782D01*
X143529939Y-75413124D01*
G37*
G36*
X162294053Y-98744697D02*
G01*
X162320928Y-98727881D01*
X162476760Y-98679980D01*
X162616858Y-98751500D01*
X162675421Y-98806580D01*
X162792080Y-98939069D01*
X162790248Y-99035374D01*
X162694317Y-99153746D01*
X162500440Y-99293157D01*
X162303616Y-99322251D01*
X162197724Y-99269623D01*
X162137136Y-99106212D01*
X162152460Y-99025335D01*
X162323693Y-99025335D01*
X162342058Y-99137070D01*
X162408360Y-99138303D01*
X162520759Y-99031441D01*
X162551532Y-98949468D01*
X162533167Y-98837733D01*
X162466865Y-98836500D01*
X162354466Y-98943361D01*
X162323693Y-99025335D01*
X162152460Y-99025335D01*
X162175507Y-98903704D01*
X162294053Y-98744697D01*
G37*
G36*
X179319060Y-122254644D02*
G01*
X179328613Y-122313068D01*
X179282895Y-122425740D01*
X179243946Y-122440068D01*
X179168831Y-122371491D01*
X179159279Y-122313068D01*
X179204997Y-122200396D01*
X179243946Y-122186068D01*
X179319060Y-122254644D01*
G37*
G36*
X134682227Y-72011886D02*
G01*
X134936888Y-71332952D01*
X135314058Y-70702417D01*
X135798199Y-70139240D01*
X136373774Y-69662382D01*
X137025246Y-69290801D01*
X137737077Y-69043457D01*
X138279127Y-68952859D01*
X138642545Y-68943461D01*
X138939264Y-69003668D01*
X139125794Y-69079825D01*
X139427902Y-69197799D01*
X139734095Y-69283322D01*
X139813436Y-69297750D01*
X140365023Y-69447557D01*
X140899295Y-69718112D01*
X141372467Y-70079346D01*
X141740755Y-70501194D01*
X141861180Y-70703935D01*
X142067563Y-71245346D01*
X142195913Y-71870451D01*
X142244756Y-72530462D01*
X142212617Y-73176589D01*
X142098023Y-73760045D01*
X141964192Y-74112790D01*
X141635801Y-74614835D01*
X141177624Y-75077768D01*
X140628927Y-75472242D01*
X140028977Y-75768910D01*
X139556446Y-75912305D01*
X139347015Y-75995427D01*
X139285449Y-76142204D01*
X139332671Y-76332143D01*
X139420135Y-76437170D01*
X139586609Y-76455026D01*
X139859254Y-76385587D01*
X140015610Y-76328968D01*
X140241866Y-76252794D01*
X140428961Y-76227609D01*
X140597669Y-76268825D01*
X140768765Y-76391854D01*
X140963025Y-76612109D01*
X141201222Y-76945001D01*
X141504132Y-77405945D01*
X141537917Y-77458333D01*
X142286946Y-78620820D01*
X142337114Y-77860944D01*
X142366859Y-77483463D01*
X142402409Y-77139593D01*
X142437515Y-76887154D01*
X142448339Y-76831982D01*
X142469846Y-76650747D01*
X142416898Y-76504550D01*
X142262677Y-76331302D01*
X142210645Y-76281648D01*
X141960240Y-75987153D01*
X141852491Y-75717822D01*
X141892771Y-75491292D01*
X141948203Y-75419906D01*
X142143620Y-75307551D01*
X142289157Y-75280735D01*
X142428941Y-75251749D01*
X142504218Y-75133900D01*
X142539745Y-74963235D01*
X142663544Y-74388503D01*
X142837984Y-73911734D01*
X143052493Y-73550895D01*
X143296499Y-73323952D01*
X143548582Y-73248735D01*
X143813442Y-73325079D01*
X144012906Y-73524143D01*
X144105236Y-73800977D01*
X144107279Y-73850460D01*
X144123300Y-74027671D01*
X144188420Y-74071975D01*
X144255446Y-74051875D01*
X144428709Y-74005198D01*
X144687359Y-73961383D01*
X144790434Y-73948852D01*
X145133683Y-73961972D01*
X145360611Y-74081312D01*
X145458831Y-74299349D01*
X145461946Y-74356642D01*
X145521889Y-74513632D01*
X145671460Y-74704383D01*
X145729641Y-74760307D01*
X145997336Y-74999493D01*
X145894609Y-75542280D01*
X145828312Y-75825631D01*
X145717653Y-76226312D01*
X145574148Y-76708696D01*
X145409315Y-77237154D01*
X145234671Y-77776060D01*
X145061734Y-78289785D01*
X144902020Y-78742702D01*
X144767048Y-79099182D01*
X144679079Y-79302401D01*
X144498883Y-79604560D01*
X144281524Y-79877321D01*
X144062157Y-80083585D01*
X143875937Y-80186253D01*
X143836670Y-80191401D01*
X143706575Y-80143471D01*
X143706831Y-80015338D01*
X143833915Y-79830493D01*
X143900896Y-79763104D01*
X144105748Y-79537533D01*
X144276850Y-79302017D01*
X144361569Y-79125856D01*
X144484366Y-78819487D01*
X144634393Y-78414815D01*
X144800804Y-77943744D01*
X144972751Y-77438177D01*
X145139387Y-76930018D01*
X145289865Y-76451171D01*
X145413339Y-76033540D01*
X145498960Y-75709030D01*
X145500127Y-75704068D01*
X145629247Y-75153735D01*
X145381649Y-74942068D01*
X145210228Y-74747383D01*
X145112470Y-74545663D01*
X145107498Y-74518735D01*
X145023482Y-74334514D01*
X144844293Y-74278252D01*
X144585828Y-74350093D01*
X144316304Y-74511540D01*
X144094970Y-74659312D01*
X143923256Y-74753996D01*
X143864473Y-74772735D01*
X143815572Y-74694693D01*
X143775065Y-74487066D01*
X143751314Y-74201235D01*
X143732447Y-73895662D01*
X143701222Y-73722903D01*
X143645219Y-73646441D01*
X143556946Y-73629735D01*
X143398656Y-73707641D01*
X143238567Y-73916353D01*
X143093405Y-74218357D01*
X142979893Y-74576142D01*
X142914758Y-74952197D01*
X142906248Y-75089155D01*
X142886868Y-75452799D01*
X142844459Y-75670247D01*
X142765872Y-75764348D01*
X142637961Y-75757950D01*
X142543025Y-75720421D01*
X142350325Y-75639108D01*
X142265636Y-75635303D01*
X142244946Y-75711932D01*
X142244613Y-75740256D01*
X142307267Y-75869497D01*
X142459871Y-76022149D01*
X142477446Y-76035668D01*
X142666023Y-76179260D01*
X142802967Y-76287288D01*
X142806882Y-76290528D01*
X142851661Y-76386038D01*
X142847019Y-76577993D01*
X142791765Y-76896833D01*
X142781136Y-76947616D01*
X142720568Y-77317035D01*
X142671911Y-77768274D01*
X142644244Y-78213845D01*
X142642200Y-78286401D01*
X142638481Y-78661137D01*
X142652643Y-78913130D01*
X142693183Y-79088712D01*
X142768595Y-79234211D01*
X142832465Y-79324149D01*
X142958495Y-79516512D01*
X142977791Y-79636078D01*
X142931156Y-79705149D01*
X142850643Y-79730767D01*
X142735020Y-79674211D01*
X142577045Y-79526208D01*
X142369479Y-79277485D01*
X142105081Y-78918770D01*
X141776610Y-78440790D01*
X141376825Y-77834272D01*
X140940314Y-77155563D01*
X140746716Y-76855423D01*
X140599279Y-76670900D01*
X140452844Y-76585913D01*
X140262255Y-76584384D01*
X139982353Y-76650234D01*
X139725716Y-76723092D01*
X139421496Y-76774414D01*
X139224475Y-76708236D01*
X139105623Y-76507640D01*
X139063678Y-76337210D01*
X139016725Y-76153988D01*
X138931897Y-76086313D01*
X138750511Y-76096339D01*
X138701604Y-76103701D01*
X138493083Y-76140220D01*
X138373046Y-76169542D01*
X138365206Y-76173514D01*
X138383978Y-76254416D01*
X138462262Y-76434926D01*
X138519281Y-76550738D01*
X138618113Y-76787457D01*
X138659055Y-76976434D01*
X138653235Y-77028806D01*
X138555061Y-77126322D01*
X138347929Y-77254947D01*
X138127467Y-77363441D01*
X137626259Y-77625552D01*
X137163886Y-77942562D01*
X136769745Y-78288221D01*
X136473230Y-78636277D01*
X136303738Y-78960480D01*
X136291758Y-79002718D01*
X136280028Y-79271779D01*
X136340094Y-79591994D01*
X136451544Y-79887797D01*
X136580684Y-80072309D01*
X136705210Y-80242854D01*
X136741279Y-80373857D01*
X136687151Y-80503340D01*
X136554292Y-80523396D01*
X136386990Y-80440962D01*
X136251994Y-80297235D01*
X136009970Y-79829018D01*
X135905694Y-79338225D01*
X135944211Y-78863602D01*
X136032764Y-78613527D01*
X136211026Y-78348377D01*
X136500368Y-78038204D01*
X136862001Y-77716809D01*
X137257137Y-77417994D01*
X137646988Y-77175558D01*
X137736113Y-77129192D01*
X137997840Y-76995425D01*
X138187026Y-76891739D01*
X138264983Y-76839398D01*
X138265279Y-76838318D01*
X138232481Y-76751576D01*
X138151242Y-76571766D01*
X138127216Y-76520958D01*
X138036262Y-76357479D01*
X137926530Y-76262977D01*
X137746255Y-76209664D01*
X137480661Y-76173907D01*
X136799199Y-76042423D01*
X136224884Y-75805639D01*
X135720242Y-75446337D01*
X135552827Y-75288132D01*
X135098995Y-74742821D01*
X134791958Y-74154031D01*
X134609178Y-73477907D01*
X134602580Y-73439117D01*
X134580744Y-73014511D01*
X134907516Y-73014511D01*
X135000383Y-73663899D01*
X135229923Y-74269465D01*
X135581451Y-74808318D01*
X136040283Y-75257564D01*
X136591734Y-75594312D01*
X137173986Y-75786284D01*
X137576849Y-75828630D01*
X138078758Y-75819631D01*
X138618743Y-75763340D01*
X139135836Y-75663810D01*
X139178493Y-75653043D01*
X139932600Y-75399875D01*
X140585031Y-75061046D01*
X141118116Y-74648998D01*
X141514187Y-74176175D01*
X141663522Y-73902958D01*
X141757565Y-73670460D01*
X141816324Y-73444393D01*
X141847015Y-73174863D01*
X141856857Y-72811975D01*
X141856145Y-72571401D01*
X141819488Y-71869569D01*
X141710668Y-71298942D01*
X141511841Y-70832900D01*
X141205168Y-70444819D01*
X140772805Y-70108080D01*
X140196911Y-69796061D01*
X139909342Y-69666584D01*
X139328381Y-69438303D01*
X138843511Y-69305377D01*
X138413508Y-69264068D01*
X137997151Y-69310643D01*
X137553215Y-69441366D01*
X137527622Y-69450759D01*
X136784569Y-69808838D01*
X136143877Y-70288032D01*
X135619643Y-70872418D01*
X135225964Y-71546073D01*
X134976936Y-72293074D01*
X134966007Y-72344195D01*
X134907516Y-73014511D01*
X134580744Y-73014511D01*
X134565611Y-72720261D01*
X134682227Y-72011886D01*
G37*
G36*
X138058136Y-72452208D02*
G01*
X138341106Y-72522917D01*
X138726793Y-72643445D01*
X139240089Y-72817326D01*
X139401994Y-72873260D01*
X139930416Y-73065625D01*
X140320431Y-73228315D01*
X140562686Y-73357133D01*
X140642272Y-73429888D01*
X140660670Y-73612931D01*
X140596537Y-73876149D01*
X140472122Y-74166693D01*
X140309672Y-74431715D01*
X140146837Y-74606714D01*
X139898822Y-74748636D01*
X139543534Y-74888342D01*
X139142240Y-75007249D01*
X138756208Y-75086772D01*
X138489194Y-75109542D01*
X138177696Y-75070460D01*
X137853384Y-74976230D01*
X137793190Y-74950949D01*
X137501721Y-74767235D01*
X137308294Y-74511573D01*
X137202178Y-74158378D01*
X137175975Y-73735859D01*
X137400573Y-73735859D01*
X137461703Y-74021464D01*
X137613414Y-74402873D01*
X137878351Y-74658419D01*
X138256537Y-74788109D01*
X138747994Y-74791953D01*
X139281279Y-74689379D01*
X139447606Y-74613608D01*
X139469892Y-74505305D01*
X139343747Y-74355545D01*
X139064784Y-74155404D01*
X138997973Y-74113321D01*
X138664899Y-73927493D01*
X138370360Y-73824761D01*
X138025920Y-73776184D01*
X137951787Y-73770958D01*
X137400573Y-73735859D01*
X137175975Y-73735859D01*
X137172639Y-73682064D01*
X137178250Y-73484942D01*
X137198801Y-73139891D01*
X137231904Y-72917238D01*
X137292213Y-72770060D01*
X137394381Y-72651433D01*
X137455586Y-72596869D01*
X137576608Y-72503648D01*
X137700779Y-72446108D01*
X137852991Y-72427783D01*
X138058136Y-72452208D01*
G37*
G36*
X132485297Y-65422714D02*
G01*
X132627312Y-65294300D01*
X132790186Y-65243940D01*
X133004627Y-65181232D01*
X133306627Y-65071699D01*
X133622827Y-64942423D01*
X133918387Y-64828353D01*
X134165755Y-64758400D01*
X134314581Y-64746568D01*
X134320408Y-64748430D01*
X134423234Y-64856682D01*
X134520277Y-65066135D01*
X134545925Y-65150607D01*
X134604529Y-65353842D01*
X134704409Y-65680002D01*
X134833729Y-66091226D01*
X134980648Y-66549653D01*
X135054845Y-66778108D01*
X135197455Y-67223324D01*
X135319029Y-67618340D01*
X135410453Y-67932299D01*
X135462611Y-68134342D01*
X135471279Y-68187993D01*
X135398048Y-68297086D01*
X135218664Y-68406325D01*
X134993589Y-68485639D01*
X134829064Y-68507401D01*
X134743795Y-68443589D01*
X134575114Y-68266637D01*
X134342004Y-67998274D01*
X134063445Y-67660228D01*
X133812057Y-67343235D01*
X133495147Y-66937427D01*
X133196368Y-66555717D01*
X132938888Y-66227639D01*
X132745876Y-65982725D01*
X132660857Y-65875740D01*
X132522149Y-65654418D01*
X133017392Y-65654418D01*
X133066430Y-65747202D01*
X133198482Y-65936013D01*
X133388833Y-66186227D01*
X133470678Y-66289418D01*
X133734112Y-66627883D01*
X134000926Y-66987822D01*
X134251160Y-67340225D01*
X134464853Y-67656088D01*
X134622045Y-67906402D01*
X134702777Y-68062160D01*
X134709279Y-68089419D01*
X134764311Y-68163474D01*
X134916659Y-68114185D01*
X134949465Y-68094397D01*
X134981477Y-68036878D01*
X134977840Y-67912176D01*
X134933835Y-67700301D01*
X134844742Y-67381263D01*
X134705842Y-66935070D01*
X134594948Y-66592860D01*
X134440920Y-66134212D01*
X134300444Y-65738705D01*
X134183118Y-65431579D01*
X134098538Y-65238075D01*
X134058429Y-65181904D01*
X133849606Y-65251906D01*
X133594058Y-65354655D01*
X133339506Y-65468490D01*
X133133670Y-65571753D01*
X133024271Y-65642783D01*
X133017392Y-65654418D01*
X132522149Y-65654418D01*
X132496952Y-65614213D01*
X132485297Y-65422714D01*
G37*
G36*
X182810971Y-117701487D02*
G01*
X182868437Y-117882680D01*
X182946091Y-118097535D01*
X183099371Y-118313360D01*
X183112816Y-118327180D01*
X183265438Y-118453526D01*
X183439191Y-118520264D01*
X183694503Y-118545547D01*
X183848658Y-118548218D01*
X184366279Y-118551035D01*
X184166399Y-118717551D01*
X183875940Y-118854524D01*
X183513475Y-118862139D01*
X183166170Y-118760528D01*
X182850447Y-118536681D01*
X182654019Y-118209252D01*
X182600973Y-117933498D01*
X182631301Y-117728597D01*
X182716370Y-117648396D01*
X182810971Y-117701487D01*
G37*
G36*
X165117807Y-71155387D02*
G01*
X165159959Y-71324206D01*
X165119935Y-71499756D01*
X165001430Y-71613548D01*
X164959438Y-71624398D01*
X164805322Y-71601301D01*
X164721704Y-71449803D01*
X164715871Y-71427699D01*
X164711089Y-71197409D01*
X164822900Y-71071180D01*
X164989786Y-71061787D01*
X165117807Y-71155387D01*
G37*
G36*
X177012900Y-117093658D02*
G01*
X177101673Y-117011496D01*
X177297377Y-116802866D01*
X177442846Y-116577158D01*
X177446082Y-116570057D01*
X177632015Y-116342158D01*
X177895267Y-116189057D01*
X178237314Y-116047735D01*
X178169130Y-115666735D01*
X178115496Y-115223580D01*
X178101454Y-114756315D01*
X178124745Y-114314675D01*
X178183109Y-113948394D01*
X178256793Y-113736824D01*
X178462152Y-113468455D01*
X178735318Y-113261428D01*
X179020809Y-113152186D01*
X179156036Y-113146157D01*
X179343362Y-113247375D01*
X179470832Y-113494047D01*
X179535005Y-113871970D01*
X179532438Y-114366938D01*
X179510392Y-114608401D01*
X179464682Y-115101667D01*
X179463393Y-115468967D01*
X179516269Y-115750082D01*
X179633054Y-115984789D01*
X179823490Y-116212869D01*
X179928991Y-116317415D01*
X180226036Y-116631580D01*
X180400446Y-116911792D01*
X180464887Y-117207090D01*
X180432024Y-117566511D01*
X180345273Y-117929201D01*
X180233703Y-118299020D01*
X180108885Y-118655496D01*
X179996374Y-118926084D01*
X179988276Y-118942640D01*
X179811520Y-119297545D01*
X179996025Y-119726439D01*
X180120300Y-119987379D01*
X180303176Y-120337391D01*
X180515130Y-120720955D01*
X180638907Y-120935475D01*
X180821897Y-121257615D01*
X180961289Y-121523807D01*
X181041176Y-121702266D01*
X181051727Y-121760343D01*
X180967135Y-121736452D01*
X180820415Y-121586882D01*
X180628753Y-121335563D01*
X180409334Y-121006427D01*
X180179342Y-120623403D01*
X180000288Y-120296184D01*
X179803388Y-119913667D01*
X179678971Y-119628369D01*
X179623802Y-119390829D01*
X179634647Y-119151586D01*
X179708272Y-118861179D01*
X179841443Y-118470148D01*
X179874743Y-118376068D01*
X179991631Y-118017633D01*
X180088546Y-117669449D01*
X180145879Y-117402483D01*
X180148233Y-117386288D01*
X180165631Y-117207045D01*
X180145507Y-117065789D01*
X180066661Y-116921128D01*
X179907892Y-116731670D01*
X179699261Y-116509734D01*
X179201613Y-115987959D01*
X179201613Y-114776221D01*
X179197381Y-114338570D01*
X179185755Y-113962072D01*
X179168335Y-113678825D01*
X179146722Y-113520927D01*
X179137985Y-113500703D01*
X179013655Y-113480731D01*
X178839425Y-113568202D01*
X178659883Y-113730040D01*
X178519614Y-113933166D01*
X178501384Y-113972977D01*
X178435118Y-114239758D01*
X178416376Y-114620304D01*
X178445409Y-115130350D01*
X178522466Y-115785629D01*
X178531207Y-115848310D01*
X178558850Y-116087834D01*
X178537572Y-116211210D01*
X178444096Y-116269669D01*
X178326594Y-116298664D01*
X178103159Y-116379919D01*
X177877705Y-116509584D01*
X177703870Y-116651281D01*
X177635279Y-116767499D01*
X177689121Y-116878826D01*
X177772342Y-116977036D01*
X177888360Y-117067494D01*
X177991150Y-117035929D01*
X178065709Y-116972646D01*
X178178390Y-116894975D01*
X178315645Y-116871952D01*
X178523529Y-116904319D01*
X178820613Y-116984776D01*
X179032279Y-117046489D01*
X178827334Y-116822612D01*
X178706908Y-116661988D01*
X178672752Y-116553000D01*
X178678810Y-116542315D01*
X178804741Y-116520665D01*
X178978951Y-116606238D01*
X179154972Y-116765909D01*
X179286334Y-116966559D01*
X179291815Y-116979257D01*
X179391650Y-117170574D01*
X179482873Y-117270988D01*
X179499082Y-117275401D01*
X179573195Y-117343995D01*
X179582613Y-117402401D01*
X179571091Y-117515008D01*
X179561446Y-117528754D01*
X179476231Y-117505650D01*
X179272873Y-117445643D01*
X178995072Y-117361633D01*
X178989946Y-117360068D01*
X178641669Y-117257483D01*
X178420300Y-117208180D01*
X178291960Y-117212333D01*
X178222768Y-117270116D01*
X178184297Y-117364213D01*
X178190610Y-117598302D01*
X178336089Y-117817598D01*
X178591810Y-117986797D01*
X178735719Y-118037340D01*
X178975655Y-118133606D01*
X179073568Y-118248509D01*
X179074613Y-118261754D01*
X179039786Y-118347068D01*
X178907902Y-118359575D01*
X178784882Y-118340559D01*
X178566484Y-118325785D01*
X178443841Y-118369655D01*
X178441218Y-118373470D01*
X178306163Y-118453129D01*
X178112486Y-118435008D01*
X177943708Y-118333735D01*
X177802730Y-118220872D01*
X177735095Y-118255871D01*
X177719946Y-118409208D01*
X177759945Y-118560703D01*
X177905559Y-118677865D01*
X178060326Y-118747875D01*
X178296454Y-118832673D01*
X178476025Y-118880299D01*
X178511234Y-118884068D01*
X178708741Y-118963789D01*
X178883183Y-119183366D01*
X179017271Y-119513421D01*
X179087059Y-119862627D01*
X179176758Y-120302415D01*
X179336204Y-120796427D01*
X179452869Y-121079324D01*
X179588337Y-121385126D01*
X179691812Y-121629687D01*
X179747013Y-121774076D01*
X179751946Y-121794557D01*
X179704969Y-121852293D01*
X179595802Y-121803785D01*
X179472095Y-121671669D01*
X179462170Y-121656901D01*
X179201815Y-121172464D01*
X178984655Y-120608619D01*
X178844180Y-120055015D01*
X178829692Y-119963856D01*
X178781501Y-119663826D01*
X178733284Y-119428693D01*
X178696774Y-119312516D01*
X178591105Y-119241855D01*
X178377284Y-119153074D01*
X178210232Y-119098318D01*
X177834108Y-118959186D01*
X177601741Y-118796620D01*
X177487561Y-118586143D01*
X177464113Y-118384112D01*
X177437680Y-118161756D01*
X177356087Y-118061670D01*
X178072260Y-118061670D01*
X178092861Y-118108986D01*
X178178111Y-118199880D01*
X178227122Y-118181234D01*
X178227946Y-118169398D01*
X178167809Y-118097785D01*
X178130197Y-118071650D01*
X178072260Y-118061670D01*
X177356087Y-118061670D01*
X177329303Y-118028816D01*
X177188947Y-117952735D01*
X176992827Y-117827396D01*
X176907538Y-117650421D01*
X176890006Y-117519496D01*
X176891250Y-117493135D01*
X177127279Y-117493135D01*
X177167190Y-117633074D01*
X177311964Y-117740886D01*
X177487113Y-117811995D01*
X177811935Y-117915329D01*
X177995099Y-117946022D01*
X178032304Y-117903740D01*
X177990879Y-117851135D01*
X177900141Y-117690581D01*
X177889279Y-117622934D01*
X177834251Y-117483069D01*
X177698314Y-117298605D01*
X177662395Y-117259517D01*
X177508423Y-117111914D01*
X177408598Y-117077157D01*
X177305621Y-117140608D01*
X177281395Y-117162173D01*
X177158978Y-117348461D01*
X177127279Y-117493135D01*
X176891250Y-117493135D01*
X176901536Y-117275147D01*
X177012900Y-117093658D01*
G37*
G36*
X181226536Y-124597986D02*
G01*
X181367626Y-124425634D01*
X181493199Y-124331208D01*
X181673747Y-124340496D01*
X181864334Y-124455451D01*
X182003690Y-124628157D01*
X182037946Y-124757231D01*
X181972765Y-124985365D01*
X181809296Y-125147113D01*
X181595650Y-125227454D01*
X181379937Y-125211369D01*
X181210268Y-125083837D01*
X181177454Y-125025869D01*
X181128528Y-124835353D01*
X181131205Y-124827768D01*
X181411264Y-124827768D01*
X181413552Y-124912562D01*
X181526954Y-124965689D01*
X181675255Y-124934638D01*
X181754387Y-124853068D01*
X181735420Y-124717066D01*
X181696294Y-124641401D01*
X181617792Y-124564618D01*
X181531688Y-124621387D01*
X181488716Y-124675041D01*
X181411264Y-124827768D01*
X181131205Y-124827768D01*
X181193855Y-124650279D01*
X181226536Y-124597986D01*
G37*
G36*
X119160266Y-59920584D02*
G01*
X119311135Y-60047552D01*
X119314655Y-60239026D01*
X119246424Y-60369681D01*
X119085745Y-60501619D01*
X118891482Y-60544872D01*
X118729069Y-60493463D01*
X118676661Y-60421735D01*
X118671397Y-60210905D01*
X118783570Y-60025611D01*
X118966344Y-59914387D01*
X119160266Y-59920584D01*
G37*
G36*
X115616651Y-64813289D02*
G01*
X115453717Y-64269067D01*
X115413719Y-63687201D01*
X115437049Y-63262485D01*
X115494144Y-62982221D01*
X115592759Y-62823536D01*
X115726250Y-62765346D01*
X115831110Y-62763305D01*
X115887172Y-62821187D01*
X115909610Y-62976707D01*
X115913596Y-63231013D01*
X115966007Y-63691859D01*
X116112776Y-64055515D01*
X116339174Y-64303802D01*
X116630474Y-64418541D01*
X116868053Y-64409080D01*
X117143087Y-64330322D01*
X117270287Y-64212051D01*
X117271128Y-64017602D01*
X117210778Y-63823960D01*
X117114699Y-63442239D01*
X117054597Y-62951780D01*
X117032336Y-62411401D01*
X117399073Y-62411401D01*
X117415219Y-62861668D01*
X117459360Y-63260968D01*
X117525380Y-63578988D01*
X117607161Y-63785415D01*
X117689482Y-63850735D01*
X117773483Y-63784643D01*
X117892978Y-63621171D01*
X117920706Y-63575568D01*
X118019712Y-63379733D01*
X118156493Y-63073574D01*
X118309935Y-62705531D01*
X118408016Y-62457589D01*
X118589862Y-62016739D01*
X118756312Y-61691215D01*
X118935568Y-61432719D01*
X119133492Y-61215124D01*
X119578647Y-60871119D01*
X120086628Y-60646931D01*
X120618687Y-60551835D01*
X121136074Y-60595104D01*
X121387338Y-60675735D01*
X121588494Y-60756848D01*
X121710134Y-60800381D01*
X121721565Y-60802735D01*
X121774862Y-60735026D01*
X121872529Y-60565093D01*
X121914391Y-60485235D01*
X122125497Y-60162265D01*
X122427886Y-59808588D01*
X122771825Y-59474614D01*
X123107583Y-59210757D01*
X123263908Y-59117243D01*
X123744265Y-58927260D01*
X124257689Y-58815578D01*
X124732729Y-58796176D01*
X124843132Y-58808270D01*
X125098210Y-58880420D01*
X125425179Y-59018597D01*
X125755810Y-59193746D01*
X125774395Y-59204868D01*
X126044691Y-59361739D01*
X126254093Y-59471717D01*
X126365705Y-59515753D01*
X126373898Y-59514338D01*
X126354441Y-59423769D01*
X126250576Y-59233956D01*
X126084936Y-58976862D01*
X125880157Y-58684452D01*
X125658871Y-58388690D01*
X125443712Y-58121541D01*
X125257316Y-57914968D01*
X125207116Y-57866583D01*
X124868889Y-57585970D01*
X124526218Y-57371896D01*
X124138934Y-57207702D01*
X123666864Y-57076728D01*
X123069839Y-56962312D01*
X122998631Y-56950639D01*
X122498784Y-56944083D01*
X121927969Y-57061952D01*
X121310918Y-57288974D01*
X120672361Y-57609876D01*
X120037030Y-58009386D01*
X119429655Y-58472231D01*
X118874967Y-58983138D01*
X118397696Y-59526835D01*
X118080630Y-59987791D01*
X117725081Y-60678201D01*
X117506376Y-61354141D01*
X117408248Y-62073459D01*
X117399073Y-62411401D01*
X117032336Y-62411401D01*
X117032266Y-62409692D01*
X117049500Y-61873082D01*
X117108093Y-61399060D01*
X117131154Y-61289567D01*
X117406945Y-60471044D01*
X117833500Y-59680822D01*
X118392541Y-58937243D01*
X119065791Y-58258652D01*
X119834974Y-57663392D01*
X120681811Y-57169807D01*
X121588027Y-56796240D01*
X121617920Y-56786435D01*
X122153501Y-56640690D01*
X122641006Y-56580373D01*
X123147825Y-56602629D01*
X123709416Y-56697832D01*
X124379622Y-56899813D01*
X124977636Y-57215582D01*
X125521116Y-57659320D01*
X126027724Y-58245211D01*
X126473875Y-58917701D01*
X126669568Y-59241372D01*
X126840395Y-59516317D01*
X126963286Y-59705806D01*
X127006379Y-59765568D01*
X127172425Y-59849786D01*
X127421101Y-59865171D01*
X127681338Y-59813959D01*
X127832440Y-59739600D01*
X127986119Y-59539494D01*
X128028263Y-59267465D01*
X127970784Y-58967493D01*
X127825598Y-58683561D01*
X127604619Y-58459649D01*
X127464656Y-58381928D01*
X127234106Y-58238888D01*
X127168794Y-58085101D01*
X127267422Y-57940476D01*
X127500432Y-57833047D01*
X127755946Y-57779889D01*
X127971273Y-57812733D01*
X128137735Y-57882722D01*
X128432428Y-58065410D01*
X128656735Y-58316723D01*
X128837847Y-58674066D01*
X128952151Y-59002999D01*
X129094128Y-59678308D01*
X129103802Y-60330467D01*
X129027686Y-60760401D01*
X128872641Y-61080181D01*
X128592333Y-61424340D01*
X128220685Y-61759527D01*
X127791622Y-62052386D01*
X127616877Y-62147508D01*
X127368909Y-62281093D01*
X127194877Y-62409967D01*
X127055536Y-62577625D01*
X126911639Y-62827562D01*
X126795624Y-63057676D01*
X126590769Y-63431289D01*
X126352952Y-63772239D01*
X126045050Y-64129255D01*
X125742105Y-64440545D01*
X125198735Y-64944865D01*
X124687651Y-65333949D01*
X124158176Y-65640177D01*
X123559629Y-65895927D01*
X123343729Y-65972910D01*
X122440820Y-66232316D01*
X121611189Y-66360670D01*
X120824366Y-66360750D01*
X120167821Y-66262330D01*
X119794833Y-66157761D01*
X119381498Y-66007136D01*
X119108578Y-65886410D01*
X118815504Y-65749035D01*
X118605826Y-65680320D01*
X118413857Y-65668621D01*
X118173913Y-65702293D01*
X118123314Y-65711751D01*
X117413798Y-65788091D01*
X116803149Y-65732511D01*
X116296592Y-65548915D01*
X116295984Y-65548444D01*
X119260317Y-65548444D01*
X119378711Y-65627519D01*
X119622928Y-65722384D01*
X119951614Y-65821901D01*
X120323415Y-65914928D01*
X120696977Y-65990327D01*
X121030945Y-66036958D01*
X121092986Y-66042109D01*
X121241930Y-66035653D01*
X121505767Y-66009478D01*
X121831921Y-65968936D01*
X121889192Y-65961082D01*
X122786417Y-65764415D01*
X123665300Y-65435900D01*
X124488333Y-64994779D01*
X125218009Y-64460293D01*
X125671555Y-64020690D01*
X125893277Y-63755862D01*
X126113950Y-63459109D01*
X126312356Y-63163698D01*
X126467279Y-62902899D01*
X126557501Y-62709981D01*
X126564557Y-62620457D01*
X126472124Y-62624952D01*
X126271469Y-62672764D01*
X126111662Y-62720356D01*
X125787791Y-62791410D01*
X125356789Y-62840914D01*
X124887946Y-62861685D01*
X124233847Y-62834815D01*
X123666907Y-62728287D01*
X123116743Y-62524522D01*
X122709062Y-62317458D01*
X122466446Y-62187216D01*
X122288211Y-62098452D01*
X122222228Y-62072735D01*
X122189911Y-62145972D01*
X122176603Y-62305568D01*
X122120473Y-62623421D01*
X121970561Y-63021433D01*
X121747771Y-63455182D01*
X121473012Y-63880245D01*
X121373144Y-64012766D01*
X120906821Y-64506475D01*
X120346881Y-64941282D01*
X119754906Y-65271250D01*
X119599947Y-65335501D01*
X119387488Y-65432023D01*
X119269381Y-65516352D01*
X119260317Y-65548444D01*
X116295984Y-65548444D01*
X115899351Y-65241206D01*
X115616651Y-64813289D01*
G37*
G36*
X161131253Y-76729575D02*
G01*
X161180185Y-77003076D01*
X161218597Y-77440333D01*
X161221178Y-77482068D01*
X161258878Y-77933160D01*
X161314931Y-78395812D01*
X161379876Y-78797226D01*
X161411678Y-78947822D01*
X161488847Y-79273358D01*
X161529675Y-79467446D01*
X161534849Y-79563871D01*
X161505053Y-79596420D01*
X161440974Y-79598880D01*
X161424893Y-79598735D01*
X161323649Y-79520246D01*
X161218600Y-79306336D01*
X161178160Y-79184505D01*
X161088874Y-78819885D01*
X161011796Y-78387880D01*
X160951994Y-77934699D01*
X160914535Y-77506547D01*
X160904487Y-77149630D01*
X160926916Y-76910155D01*
X160928187Y-76905102D01*
X161004568Y-76679239D01*
X161072486Y-76621179D01*
X161131253Y-76729575D01*
G37*
G36*
X183120035Y-123990620D02*
G01*
X183306554Y-124145616D01*
X183348105Y-124213863D01*
X183437570Y-124411784D01*
X183477172Y-124548690D01*
X183477279Y-124552530D01*
X183419333Y-124634728D01*
X183290422Y-124633528D01*
X183157933Y-124563160D01*
X183096279Y-124472068D01*
X183013916Y-124323762D01*
X182922938Y-124338285D01*
X182837190Y-124510627D01*
X182819644Y-124572142D01*
X182727336Y-124801166D01*
X182615123Y-124863246D01*
X182487364Y-124757514D01*
X182423913Y-124651006D01*
X182311383Y-124379930D01*
X182302057Y-124211768D01*
X182395195Y-124160499D01*
X182449326Y-124171941D01*
X182635031Y-124154379D01*
X182713693Y-124092979D01*
X182905801Y-123969909D01*
X183120035Y-123990620D01*
G37*
G36*
X164155993Y-77232589D02*
G01*
X164353123Y-77404527D01*
X164574412Y-77694509D01*
X164792857Y-78059160D01*
X164981456Y-78455106D01*
X165075579Y-78709735D01*
X165175361Y-78971480D01*
X165300026Y-79137792D01*
X165505220Y-79271242D01*
X165629922Y-79333079D01*
X165933605Y-79507064D01*
X166096598Y-79667283D01*
X166108294Y-79802164D01*
X166086087Y-79830815D01*
X165988688Y-79822879D01*
X165790702Y-79746710D01*
X165572338Y-79638344D01*
X165345045Y-79506621D01*
X165184335Y-79377376D01*
X165055116Y-79207631D01*
X164922293Y-78954409D01*
X164806687Y-78700667D01*
X164555172Y-78186382D01*
X164321922Y-77809398D01*
X164113294Y-77577923D01*
X163935646Y-77500163D01*
X163884220Y-77509894D01*
X163791076Y-77578677D01*
X163768756Y-77717778D01*
X163792311Y-77905588D01*
X163820148Y-78121541D01*
X163792422Y-78219267D01*
X163689674Y-78245977D01*
X163651555Y-78247068D01*
X163422379Y-78291189D01*
X163250986Y-78362370D01*
X163048359Y-78474673D01*
X163342110Y-78529781D01*
X163572711Y-78596398D01*
X163775487Y-78692560D01*
X163905115Y-78791844D01*
X163918448Y-78865788D01*
X163819722Y-78870914D01*
X163607029Y-78840644D01*
X163381333Y-78793802D01*
X162995081Y-78726072D01*
X162750117Y-78734358D01*
X162651226Y-78818368D01*
X162649279Y-78838868D01*
X162621706Y-78971533D01*
X162597887Y-79041476D01*
X162598832Y-79137646D01*
X162724499Y-79173385D01*
X162800496Y-79175401D01*
X163015837Y-79216478D01*
X163110321Y-79354699D01*
X163098738Y-79612551D01*
X163096355Y-79625267D01*
X163017220Y-79803715D01*
X162902839Y-79843704D01*
X162797240Y-79737240D01*
X162776279Y-79683401D01*
X162683032Y-79546127D01*
X162603192Y-79514068D01*
X162473609Y-79449253D01*
X162350412Y-79310417D01*
X162269436Y-79154847D01*
X162270300Y-79006929D01*
X162341947Y-78807666D01*
X162472974Y-78602684D01*
X162682844Y-78378046D01*
X162924393Y-78174355D01*
X163150461Y-78032215D01*
X163291618Y-77990068D01*
X163374331Y-77915928D01*
X163425740Y-77735609D01*
X163427081Y-77723272D01*
X163537733Y-77433381D01*
X163690326Y-77280511D01*
X163864581Y-77168184D01*
X163996661Y-77158173D01*
X164155993Y-77232589D01*
G37*
G36*
X137587946Y-95981735D02*
G01*
X137545613Y-96024068D01*
X137503279Y-95981735D01*
X137545613Y-95939401D01*
X137587946Y-95981735D01*
G37*
G36*
X155261994Y-91761944D02*
G01*
X155379756Y-91811871D01*
X155389113Y-91829580D01*
X155328686Y-91883890D01*
X155152215Y-91918147D01*
X155090237Y-91921872D01*
X154876325Y-91908283D01*
X154798861Y-91853267D01*
X154800960Y-91840693D01*
X154895701Y-91777808D01*
X155075010Y-91751073D01*
X155261994Y-91761944D01*
G37*
G36*
X179568202Y-122824848D02*
G01*
X179658724Y-123003742D01*
X179691624Y-123156690D01*
X179675512Y-123363005D01*
X179603964Y-123425589D01*
X179505355Y-123347846D01*
X179408057Y-123133185D01*
X179404726Y-123122240D01*
X179353439Y-122897170D01*
X179348285Y-122744808D01*
X179359396Y-122719728D01*
X179456621Y-122714650D01*
X179568202Y-122824848D01*
G37*
G36*
X159765834Y-97933347D02*
G01*
X159834200Y-97998703D01*
X159929982Y-98118046D01*
X159897574Y-98215461D01*
X159834200Y-98282766D01*
X159722895Y-98378212D01*
X159665755Y-98348122D01*
X159637665Y-98282766D01*
X159618682Y-98080560D01*
X159637665Y-97998703D01*
X159690150Y-97903257D01*
X159765834Y-97933347D01*
G37*
G36*
X162413083Y-70448239D02*
G01*
X162465771Y-70571651D01*
X162440625Y-70744310D01*
X162338546Y-70900821D01*
X162218558Y-70962735D01*
X162126392Y-70897106D01*
X162059759Y-70799281D01*
X162022825Y-70630557D01*
X162108941Y-70499168D01*
X162280169Y-70397939D01*
X162413083Y-70448239D01*
G37*
G36*
X181264369Y-117856112D02*
G01*
X181522265Y-117258798D01*
X181888536Y-116714652D01*
X182091197Y-116491343D01*
X182557329Y-116094454D01*
X183036658Y-115840771D01*
X183578329Y-115708022D01*
X183880709Y-115680411D01*
X184238367Y-115671759D01*
X184502324Y-115699650D01*
X184746589Y-115777219D01*
X184949586Y-115870113D01*
X185478249Y-116213428D01*
X185935672Y-116675017D01*
X186304575Y-117222124D01*
X186567678Y-117821995D01*
X186707699Y-118441874D01*
X186707358Y-119049005D01*
X186688790Y-119166748D01*
X186563215Y-119640853D01*
X186363492Y-120033404D01*
X186055460Y-120403758D01*
X185880080Y-120571991D01*
X185312278Y-120987495D01*
X184695246Y-121244518D01*
X184039027Y-121338982D01*
X183991282Y-121339401D01*
X183711480Y-121345144D01*
X183555751Y-121374592D01*
X183478920Y-121446076D01*
X183439438Y-121563314D01*
X183413332Y-121697690D01*
X183432540Y-121796771D01*
X183523485Y-121882046D01*
X183712594Y-121975002D01*
X184026293Y-122097130D01*
X184154613Y-122144883D01*
X184796583Y-122401593D01*
X185272762Y-122634189D01*
X185584802Y-122843789D01*
X185734354Y-123031510D01*
X185723070Y-123198469D01*
X185719864Y-123203818D01*
X185602699Y-123283569D01*
X185485183Y-123215716D01*
X185453723Y-123155807D01*
X185342184Y-123032786D01*
X185085287Y-122873815D01*
X184677593Y-122676067D01*
X184113667Y-122436713D01*
X183928175Y-122362307D01*
X183610749Y-122224245D01*
X183357275Y-122091477D01*
X183207522Y-121985761D01*
X183185637Y-121956097D01*
X183165074Y-121783460D01*
X183186289Y-121552363D01*
X183186458Y-121551464D01*
X183204100Y-121355628D01*
X183142230Y-121262035D01*
X183060906Y-121232022D01*
X182941953Y-121225974D01*
X182874745Y-121314750D01*
X182831457Y-121514996D01*
X182767395Y-121760367D01*
X182678665Y-121924123D01*
X182587716Y-121977801D01*
X182522057Y-121907270D01*
X182509091Y-121756861D01*
X182529967Y-121520124D01*
X182543154Y-121439334D01*
X182574304Y-121209684D01*
X182539064Y-121074551D01*
X182409200Y-120963471D01*
X182333197Y-120915399D01*
X181971834Y-120632617D01*
X181627288Y-120260733D01*
X181351383Y-119860877D01*
X181235615Y-119620761D01*
X181111576Y-119071725D01*
X181122507Y-118557158D01*
X181469810Y-118557158D01*
X181480833Y-119099786D01*
X181572476Y-119446700D01*
X181857004Y-119968293D01*
X182259386Y-120393221D01*
X182751920Y-120711344D01*
X183306903Y-120912524D01*
X183896633Y-120986621D01*
X184493407Y-120923496D01*
X185054056Y-120720931D01*
X185429107Y-120476653D01*
X185786325Y-120150333D01*
X186080892Y-119789798D01*
X186267990Y-119442875D01*
X186277588Y-119415286D01*
X186326955Y-119152782D01*
X186344954Y-118800623D01*
X186336420Y-118547161D01*
X186207109Y-117888524D01*
X185925966Y-117281345D01*
X185507805Y-116747048D01*
X184967439Y-116307053D01*
X184668467Y-116135368D01*
X184276043Y-115976588D01*
X183919065Y-115934964D01*
X183544076Y-116011973D01*
X183160834Y-116176996D01*
X182635190Y-116515217D01*
X182189652Y-116950368D01*
X181837834Y-117454425D01*
X181593348Y-117999363D01*
X181469810Y-118557158D01*
X181122507Y-118557158D01*
X181124317Y-118471965D01*
X181264369Y-117856112D01*
G37*
G36*
X184492805Y-117580292D02*
G01*
X184501746Y-117588668D01*
X184548943Y-117731031D01*
X184481136Y-117876060D01*
X184335290Y-117951734D01*
X184314887Y-117952735D01*
X184180312Y-117888876D01*
X184154613Y-117780744D01*
X184214279Y-117620173D01*
X184349099Y-117541134D01*
X184492805Y-117580292D01*
G37*
G36*
X162892533Y-97265839D02*
G01*
X163358567Y-97265839D01*
X163396042Y-97433932D01*
X163424343Y-97500595D01*
X163632186Y-97770564D01*
X163932050Y-97926037D01*
X164278759Y-97951771D01*
X164540993Y-97877382D01*
X164742970Y-97728364D01*
X164853439Y-97585120D01*
X164913123Y-97352931D01*
X164921618Y-97022522D01*
X164884148Y-96655329D01*
X164805934Y-96312793D01*
X164728776Y-96118719D01*
X164528190Y-95854306D01*
X164255921Y-95649388D01*
X163969129Y-95541250D01*
X163834613Y-95535491D01*
X163690190Y-95578498D01*
X163621026Y-95699838D01*
X163596668Y-95875901D01*
X163589566Y-96083379D01*
X163639602Y-96172531D01*
X163783469Y-96193128D01*
X163830746Y-96193401D01*
X164040892Y-96233004D01*
X164200379Y-96379902D01*
X164258874Y-96468568D01*
X164394661Y-96743616D01*
X164407206Y-96961505D01*
X164295962Y-97181775D01*
X164251801Y-97240316D01*
X164027044Y-97423879D01*
X163783100Y-97445195D01*
X163565593Y-97322809D01*
X163418043Y-97225075D01*
X163358567Y-97265839D01*
X162892533Y-97265839D01*
X162990355Y-97191631D01*
X163237234Y-96818433D01*
X163269090Y-96686695D01*
X163666217Y-96686695D01*
X163695379Y-96894610D01*
X163764052Y-97080302D01*
X163805401Y-97139234D01*
X163950506Y-97270752D01*
X164062508Y-97269921D01*
X164156346Y-97192468D01*
X164250251Y-96989675D01*
X164216489Y-96736777D01*
X164089071Y-96520281D01*
X163920195Y-96320401D01*
X164043158Y-96626614D01*
X164116022Y-96846381D01*
X164108842Y-96989362D01*
X164050702Y-97090671D01*
X163970847Y-97188306D01*
X163957236Y-97146342D01*
X163977671Y-97026779D01*
X163975613Y-96809403D01*
X163909667Y-96601498D01*
X163805317Y-96467065D01*
X163746967Y-96447401D01*
X163681701Y-96517358D01*
X163666217Y-96686695D01*
X163269090Y-96686695D01*
X163350298Y-96350871D01*
X163359912Y-96097746D01*
X163287348Y-95570849D01*
X163167227Y-95299087D01*
X163495946Y-95299087D01*
X163551052Y-95386938D01*
X163623583Y-95377108D01*
X163880139Y-95355213D01*
X164185004Y-95436733D01*
X164471982Y-95600333D01*
X164562799Y-95679809D01*
X164747000Y-95844998D01*
X164835169Y-95882741D01*
X164819494Y-95795152D01*
X164726458Y-95635529D01*
X164572423Y-95462101D01*
X164418656Y-95369012D01*
X164285987Y-95297593D01*
X164257946Y-95243014D01*
X164188944Y-95197354D01*
X164053286Y-95210410D01*
X163877452Y-95215714D01*
X163815375Y-95162023D01*
X163731338Y-95101481D01*
X163605851Y-95136619D01*
X163510260Y-95236823D01*
X163495946Y-95299087D01*
X163167227Y-95299087D01*
X163099531Y-95145933D01*
X162819083Y-94832906D01*
X162468631Y-94641678D01*
X162070799Y-94582159D01*
X161648210Y-94664257D01*
X161223489Y-94897883D01*
X161019446Y-95072625D01*
X160823186Y-95286295D01*
X160728967Y-95473626D01*
X160702263Y-95708399D01*
X160701946Y-95751126D01*
X160690589Y-95982705D01*
X160645548Y-96083807D01*
X160553779Y-96093072D01*
X160426453Y-95992951D01*
X160372017Y-95779639D01*
X160383553Y-95489292D01*
X160454142Y-95158065D01*
X160493472Y-95050401D01*
X160680401Y-95050401D01*
X160902840Y-94845143D01*
X161052156Y-94676831D01*
X161124112Y-94535733D01*
X161125279Y-94522646D01*
X161090813Y-94443679D01*
X161001789Y-94497894D01*
X160879770Y-94667217D01*
X160817571Y-94780603D01*
X160680401Y-95050401D01*
X160493472Y-95050401D01*
X160576867Y-94822113D01*
X160744809Y-94517592D01*
X160827348Y-94415401D01*
X161252279Y-94415401D01*
X161258992Y-94493420D01*
X161289616Y-94500068D01*
X161375834Y-94438607D01*
X161379279Y-94415401D01*
X161350392Y-94332936D01*
X161341943Y-94330735D01*
X161269657Y-94390063D01*
X161252279Y-94415401D01*
X160827348Y-94415401D01*
X160889519Y-94338427D01*
X161034366Y-94212416D01*
X161431593Y-94212416D01*
X161460998Y-94284849D01*
X161621588Y-94359689D01*
X161911758Y-94352918D01*
X162135295Y-94321612D01*
X162271801Y-94297195D01*
X162288571Y-94291738D01*
X162262132Y-94221287D01*
X162199378Y-94126310D01*
X162159426Y-94086988D01*
X162393556Y-94086988D01*
X162465866Y-94166273D01*
X162522279Y-94192019D01*
X162634785Y-94297575D01*
X162649279Y-94356820D01*
X162718483Y-94474749D01*
X162856468Y-94567289D01*
X163059911Y-94710917D01*
X163202378Y-94873406D01*
X163321105Y-95014571D01*
X163432826Y-95022247D01*
X163491974Y-94990899D01*
X163703257Y-94942034D01*
X163802230Y-94965385D01*
X164005208Y-95015759D01*
X164102279Y-95017029D01*
X164254213Y-95048287D01*
X164297775Y-95088683D01*
X164381984Y-95172652D01*
X164400270Y-95177401D01*
X164395392Y-95117830D01*
X164321872Y-94986901D01*
X164164701Y-94845078D01*
X163900382Y-94764375D01*
X163789114Y-94748575D01*
X163490340Y-94686085D01*
X163270916Y-94554544D01*
X163121682Y-94401947D01*
X162919595Y-94213329D01*
X163179971Y-94213329D01*
X163180920Y-94281845D01*
X163283809Y-94414882D01*
X163481363Y-94544417D01*
X163657235Y-94582092D01*
X163778424Y-94573679D01*
X163785497Y-94537496D01*
X163665904Y-94450842D01*
X163542040Y-94373721D01*
X163303100Y-94243515D01*
X163179971Y-94213329D01*
X162919595Y-94213329D01*
X162911751Y-94206008D01*
X162695425Y-94070158D01*
X162628113Y-94045994D01*
X162456071Y-94035259D01*
X162393556Y-94086988D01*
X162159426Y-94086988D01*
X162109104Y-94037459D01*
X161983733Y-94018956D01*
X161764606Y-94064279D01*
X161728326Y-94073939D01*
X161509083Y-94145388D01*
X161431593Y-94212416D01*
X161034366Y-94212416D01*
X161214051Y-94056098D01*
X161546778Y-93889228D01*
X161947164Y-93813932D01*
X162222763Y-93802864D01*
X162889915Y-93862779D01*
X163483864Y-94061184D01*
X164046742Y-94412584D01*
X164088613Y-94445299D01*
X164585856Y-94938098D01*
X164962789Y-95518007D01*
X165214582Y-96157532D01*
X165336403Y-96829181D01*
X165323422Y-97505459D01*
X165170808Y-98158873D01*
X164873731Y-98761929D01*
X164852636Y-98793786D01*
X164317126Y-99439010D01*
X163646482Y-99983245D01*
X162841848Y-100426004D01*
X161904373Y-100766801D01*
X160835200Y-101005153D01*
X159635478Y-101140573D01*
X159262613Y-101160551D01*
X158067723Y-101167406D01*
X156872487Y-101093630D01*
X155700546Y-100944620D01*
X154575546Y-100725768D01*
X153521130Y-100442472D01*
X152560942Y-100100125D01*
X151718626Y-99704122D01*
X151177081Y-99364157D01*
X151653456Y-99364157D01*
X151694922Y-99412244D01*
X151798134Y-99475192D01*
X152013794Y-99585044D01*
X152300245Y-99722624D01*
X152615836Y-99868755D01*
X152918910Y-100004261D01*
X153167815Y-100109965D01*
X153320896Y-100166692D01*
X153343990Y-100171424D01*
X153356280Y-100163676D01*
X153589946Y-100163676D01*
X153657509Y-100255626D01*
X153721343Y-100289706D01*
X153808743Y-100295624D01*
X153801013Y-100256431D01*
X153788375Y-100180240D01*
X153864838Y-100185888D01*
X153977962Y-100262259D01*
X154014977Y-100301781D01*
X154119968Y-100389004D01*
X154164409Y-100388493D01*
X154153363Y-100298835D01*
X154099644Y-100217114D01*
X153967556Y-100131180D01*
X153793127Y-100090529D01*
X153644732Y-100102329D01*
X153589946Y-100163676D01*
X153356280Y-100163676D01*
X153432156Y-100115841D01*
X153521640Y-100024568D01*
X153558564Y-99963335D01*
X154155711Y-99963335D01*
X154194073Y-100052817D01*
X154287248Y-100166510D01*
X154351751Y-100299223D01*
X154417130Y-100405045D01*
X154543227Y-100484416D01*
X154766909Y-100553468D01*
X155087362Y-100621132D01*
X155459614Y-100684830D01*
X155818818Y-100733164D01*
X156091684Y-100756384D01*
X156107712Y-100756868D01*
X156466477Y-100765401D01*
X156251638Y-100278568D01*
X156003839Y-99834684D01*
X155684160Y-99431573D01*
X155335811Y-99119730D01*
X155173278Y-99018427D01*
X155002631Y-98946227D01*
X154861096Y-98957389D01*
X154668183Y-99059798D01*
X154652512Y-99069452D01*
X154452641Y-99219763D01*
X154321632Y-99366834D01*
X154309195Y-99391281D01*
X154189486Y-99735703D01*
X154155711Y-99963335D01*
X153558564Y-99963335D01*
X153614609Y-99870391D01*
X153887433Y-99870391D01*
X153926999Y-99918735D01*
X154010593Y-99862968D01*
X154013279Y-99844651D01*
X154026284Y-99716592D01*
X154057926Y-99504788D01*
X154061249Y-99484818D01*
X154079725Y-99312284D01*
X154049687Y-99298541D01*
X154030341Y-99326068D01*
X153942727Y-99516192D01*
X153891662Y-99717298D01*
X153887433Y-99870391D01*
X153614609Y-99870391D01*
X153623035Y-99856418D01*
X153732806Y-99601884D01*
X153776492Y-99476252D01*
X153847583Y-99230685D01*
X153858869Y-99089278D01*
X153809474Y-98997443D01*
X153768175Y-98958575D01*
X153557121Y-98878478D01*
X153306169Y-98882159D01*
X153072376Y-98937008D01*
X152935410Y-99059529D01*
X152860532Y-99209336D01*
X152775124Y-99382207D01*
X152674088Y-99468324D01*
X152515376Y-99476707D01*
X152256939Y-99416377D01*
X152104519Y-99371506D01*
X151808119Y-99297058D01*
X151656545Y-99294729D01*
X151653456Y-99364157D01*
X151177081Y-99364157D01*
X151055697Y-99287956D01*
X150650626Y-98990607D01*
X149893576Y-99412773D01*
X149419495Y-99654024D01*
X148826310Y-99920555D01*
X148158802Y-100195042D01*
X147461754Y-100460163D01*
X146779949Y-100698596D01*
X146158167Y-100893017D01*
X145849870Y-100976974D01*
X144877615Y-101176824D01*
X143860384Y-101302402D01*
X142852150Y-101350177D01*
X141906886Y-101316614D01*
X141451684Y-101264902D01*
X140592695Y-101099502D01*
X139756746Y-100862993D01*
X138970550Y-100567458D01*
X138534998Y-100357283D01*
X139200261Y-100357283D01*
X139238946Y-100406632D01*
X139351204Y-100470429D01*
X139565438Y-100556696D01*
X139831933Y-100649349D01*
X140100974Y-100732306D01*
X140322847Y-100789484D01*
X140447838Y-100804799D01*
X140457511Y-100800848D01*
X140439091Y-100720298D01*
X140383644Y-100640447D01*
X140222942Y-100543476D01*
X140041971Y-100511401D01*
X139847754Y-100467838D01*
X139757260Y-100380750D01*
X139685603Y-100296107D01*
X139548197Y-100335268D01*
X139534786Y-100342332D01*
X139357109Y-100392449D01*
X139258363Y-100375896D01*
X139200261Y-100357283D01*
X138534998Y-100357283D01*
X138260824Y-100224981D01*
X137870147Y-99981937D01*
X138455878Y-99981937D01*
X138499841Y-100083189D01*
X138649688Y-100199286D01*
X138662207Y-100206229D01*
X138910747Y-100315222D01*
X139068197Y-100330000D01*
X139111946Y-100269142D01*
X139183138Y-100229897D01*
X139344779Y-100239125D01*
X139504571Y-100261883D01*
X139507584Y-100251911D01*
X139830038Y-100251911D01*
X139837096Y-100266273D01*
X139950327Y-100328370D01*
X140069443Y-100344885D01*
X140307067Y-100417490D01*
X140531221Y-100591038D01*
X140656298Y-100780640D01*
X140788938Y-100895625D01*
X141079617Y-100971158D01*
X141117847Y-100976521D01*
X141385640Y-101012016D01*
X141595045Y-101040136D01*
X141651946Y-101047949D01*
X141763521Y-100985813D01*
X141788803Y-100913568D01*
X141991909Y-100913568D01*
X142001394Y-101008595D01*
X142054487Y-101065297D01*
X142185746Y-101093527D01*
X142429726Y-101103137D01*
X142660019Y-101104068D01*
X142992840Y-101101278D01*
X143188387Y-101086943D01*
X143278699Y-101052116D01*
X143295816Y-100987848D01*
X143283865Y-100929843D01*
X143295311Y-100850613D01*
X143474659Y-100850613D01*
X143538140Y-101008063D01*
X143711392Y-101092025D01*
X143966483Y-101083344D01*
X144125841Y-101034423D01*
X144207089Y-100983605D01*
X144197011Y-100900249D01*
X144086452Y-100740604D01*
X144056205Y-100701707D01*
X143880050Y-100501511D01*
X143752523Y-100442271D01*
X143635855Y-100519306D01*
X143548882Y-100638825D01*
X143474659Y-100850613D01*
X143295311Y-100850613D01*
X143312260Y-100733287D01*
X143464111Y-100514390D01*
X143696111Y-100308105D01*
X143985349Y-100308105D01*
X144088010Y-100476259D01*
X144200937Y-100638261D01*
X144356272Y-100839652D01*
X144471705Y-100961893D01*
X144512738Y-100980832D01*
X144486790Y-100899238D01*
X144378824Y-100731503D01*
X144279705Y-100599972D01*
X144086241Y-100367510D01*
X143986441Y-100271038D01*
X143985349Y-100308105D01*
X143696111Y-100308105D01*
X143701802Y-100303045D01*
X143803985Y-100240894D01*
X144208301Y-100240894D01*
X144280990Y-100366965D01*
X144459291Y-100590696D01*
X144467113Y-100600120D01*
X144677851Y-100821505D01*
X144822496Y-100892898D01*
X144909729Y-100816235D01*
X144937388Y-100705039D01*
X144889107Y-100531343D01*
X144734498Y-100352311D01*
X144527617Y-100216922D01*
X144349861Y-100172735D01*
X144233750Y-100185233D01*
X144208301Y-100240894D01*
X143803985Y-100240894D01*
X143987712Y-100129145D01*
X144284224Y-100022583D01*
X144449739Y-100003401D01*
X144650219Y-100072594D01*
X144863666Y-100244126D01*
X145038159Y-100463928D01*
X145121779Y-100677933D01*
X145123279Y-100704814D01*
X145149368Y-100853043D01*
X145261914Y-100882046D01*
X145334946Y-100870790D01*
X145503658Y-100788363D01*
X145546613Y-100634236D01*
X145614805Y-100447460D01*
X145715946Y-100384401D01*
X145862452Y-100300949D01*
X145862896Y-100221704D01*
X145722414Y-100192664D01*
X145694779Y-100194899D01*
X145558820Y-100179699D01*
X145495611Y-100065299D01*
X145477748Y-99939901D01*
X145477704Y-99927793D01*
X145631279Y-99927793D01*
X145692762Y-99984680D01*
X145756988Y-99973279D01*
X145884640Y-99998963D01*
X145991056Y-100129857D01*
X146036296Y-100302873D01*
X146021456Y-100391017D01*
X145906854Y-100499254D01*
X145845603Y-100511401D01*
X145732423Y-100579562D01*
X145715946Y-100644107D01*
X145773196Y-100740328D01*
X145864113Y-100735491D01*
X146063712Y-100681426D01*
X146223946Y-100639246D01*
X146406746Y-100584367D01*
X146690391Y-100491155D01*
X147016480Y-100378850D01*
X147046943Y-100368100D01*
X147353408Y-100256675D01*
X147525936Y-100178557D01*
X147590871Y-100112429D01*
X147574555Y-100036972D01*
X147533776Y-99974134D01*
X147413479Y-99679652D01*
X147418214Y-99599902D01*
X147578613Y-99599902D01*
X147627669Y-99837421D01*
X147780105Y-99956776D01*
X148043821Y-99960161D01*
X148426714Y-99849770D01*
X148448615Y-99841499D01*
X148677449Y-99695851D01*
X148748240Y-99490447D01*
X148691097Y-99275862D01*
X148518337Y-99057792D01*
X148286376Y-98964688D01*
X148035819Y-98984723D01*
X147807273Y-99106069D01*
X147641342Y-99316899D01*
X147578613Y-99599902D01*
X147418214Y-99599902D01*
X147431098Y-99382898D01*
X147559801Y-99115001D01*
X147772756Y-98907091D01*
X148043131Y-98790298D01*
X148344093Y-98795752D01*
X148498751Y-98854612D01*
X148699216Y-99021733D01*
X148848712Y-99252204D01*
X148851299Y-99258575D01*
X148930693Y-99451539D01*
X148980593Y-99561241D01*
X148984001Y-99566788D01*
X149067195Y-99549973D01*
X149253849Y-99465234D01*
X149504110Y-99334838D01*
X149778120Y-99181051D01*
X150036024Y-99026139D01*
X150217107Y-98906183D01*
X150922946Y-98906183D01*
X151172017Y-99111087D01*
X151350775Y-99231741D01*
X151480898Y-99273351D01*
X151498556Y-99268112D01*
X151509553Y-99192760D01*
X151462318Y-99149960D01*
X151394916Y-99069665D01*
X151410484Y-98926636D01*
X151452580Y-98804245D01*
X151506713Y-98582913D01*
X151479957Y-98452213D01*
X151361984Y-98409746D01*
X151279541Y-98491834D01*
X151276387Y-98637159D01*
X151255437Y-98778809D01*
X151120272Y-98850466D01*
X150922946Y-98906183D01*
X150217107Y-98906183D01*
X150237965Y-98892366D01*
X150336477Y-98811219D01*
X150431636Y-98692553D01*
X150408645Y-98652215D01*
X150346380Y-98648735D01*
X150203098Y-98593094D01*
X150107501Y-98467221D01*
X150102305Y-98428726D01*
X150335552Y-98428726D01*
X150437989Y-98482734D01*
X150608145Y-98592916D01*
X150679881Y-98689034D01*
X150736489Y-98797047D01*
X150820989Y-98796820D01*
X150955036Y-98720149D01*
X151070169Y-98571081D01*
X151071012Y-98466149D01*
X151085706Y-98335267D01*
X151167071Y-98310068D01*
X151288817Y-98259638D01*
X151278922Y-98152678D01*
X151216172Y-98096481D01*
X151065242Y-98066361D01*
X150851170Y-98087194D01*
X150637826Y-98143940D01*
X150489079Y-98221561D01*
X150457279Y-98275177D01*
X150396906Y-98386133D01*
X150351446Y-98400101D01*
X150335552Y-98428726D01*
X150102305Y-98428726D01*
X150089343Y-98332691D01*
X150157295Y-98257420D01*
X150271550Y-98175648D01*
X150287946Y-98133850D01*
X150218267Y-98044666D01*
X150055185Y-97941819D01*
X149867632Y-97859822D01*
X149724542Y-97833187D01*
X149701787Y-97840379D01*
X149579210Y-97841270D01*
X149385787Y-97781743D01*
X149186545Y-97689903D01*
X149046513Y-97593853D01*
X149017946Y-97544836D01*
X148947881Y-97454691D01*
X148806279Y-97378735D01*
X148649274Y-97290313D01*
X148594613Y-97211497D01*
X148542476Y-97152957D01*
X148792168Y-97152957D01*
X148803790Y-97203291D01*
X148848613Y-97209401D01*
X148918303Y-97178423D01*
X148905057Y-97152957D01*
X148804577Y-97142824D01*
X148792168Y-97152957D01*
X148542476Y-97152957D01*
X148526069Y-97134535D01*
X148467613Y-97124735D01*
X148355329Y-97190982D01*
X148340613Y-97248756D01*
X148273232Y-97381550D01*
X148161402Y-97468688D01*
X147992554Y-97518808D01*
X147853369Y-97435776D01*
X147852928Y-97435336D01*
X147741701Y-97353000D01*
X147624534Y-97376040D01*
X147522659Y-97437778D01*
X147389423Y-97555470D01*
X147398589Y-97660099D01*
X147415088Y-97682067D01*
X147468895Y-97815048D01*
X147388076Y-97942928D01*
X147159488Y-98081091D01*
X147020347Y-98144135D01*
X146797650Y-98249421D01*
X146698090Y-98342430D01*
X146686019Y-98469722D01*
X146701591Y-98560461D01*
X146724009Y-98732366D01*
X146668048Y-98803388D01*
X146491190Y-98817994D01*
X146455254Y-98818068D01*
X146216008Y-98854527D01*
X146108661Y-98945068D01*
X145993813Y-99049653D01*
X145887936Y-99072068D01*
X145742003Y-99117429D01*
X145737293Y-99238548D01*
X145842946Y-99380496D01*
X145954272Y-99558733D01*
X145958960Y-99724796D01*
X145862051Y-99824689D01*
X145800613Y-99834068D01*
X145663095Y-99873269D01*
X145631279Y-99927793D01*
X145477704Y-99927793D01*
X145477049Y-99748552D01*
X145543304Y-99673655D01*
X145625915Y-99664735D01*
X145780087Y-99645125D01*
X145776975Y-99589689D01*
X145623609Y-99503518D01*
X145327021Y-99391700D01*
X145185260Y-99345745D01*
X144764511Y-99223423D01*
X145429568Y-99223423D01*
X145464603Y-99241401D01*
X145537374Y-99172784D01*
X145546613Y-99114401D01*
X145528498Y-99001438D01*
X145513338Y-98987401D01*
X145458744Y-99053607D01*
X145431328Y-99114401D01*
X145429568Y-99223423D01*
X144764511Y-99223423D01*
X144754319Y-99220460D01*
X144462893Y-99164795D01*
X144294353Y-99182841D01*
X144232074Y-99278689D01*
X144259427Y-99456433D01*
X144296626Y-99564429D01*
X144348151Y-99760264D01*
X144339891Y-99882772D01*
X144335887Y-99887683D01*
X144226489Y-99933056D01*
X144001368Y-99991393D01*
X143747044Y-100042922D01*
X143218279Y-100138083D01*
X143191455Y-100472909D01*
X143157472Y-100705035D01*
X143106768Y-100861608D01*
X143093335Y-100880454D01*
X142986938Y-100881660D01*
X142784433Y-100809278D01*
X142588785Y-100711121D01*
X142300060Y-100573599D01*
X142117837Y-100555252D01*
X142021892Y-100662939D01*
X141992001Y-100903519D01*
X141991909Y-100913568D01*
X141788803Y-100913568D01*
X141826145Y-100806859D01*
X141879741Y-100588686D01*
X141936975Y-100445025D01*
X141972717Y-100350194D01*
X141900397Y-100366184D01*
X141733577Y-100485998D01*
X141548246Y-100645524D01*
X141212357Y-100948980D01*
X141015626Y-100764161D01*
X140834880Y-100544067D01*
X140717148Y-100333705D01*
X140608748Y-100156703D01*
X140441186Y-100092650D01*
X140336265Y-100088068D01*
X140051816Y-100109744D01*
X139873348Y-100167831D01*
X139830038Y-100251911D01*
X139507584Y-100251911D01*
X139517065Y-100220532D01*
X139422894Y-100107645D01*
X139315208Y-99906010D01*
X139295894Y-99735495D01*
X139289791Y-99591352D01*
X139182304Y-99555198D01*
X139111946Y-99560267D01*
X138888066Y-99628784D01*
X138658305Y-99762578D01*
X138491805Y-99917210D01*
X138455878Y-99981937D01*
X137870147Y-99981937D01*
X137654282Y-99847645D01*
X137177639Y-99447533D01*
X137004996Y-99253669D01*
X136965977Y-99199068D01*
X137220149Y-99199068D01*
X137615714Y-99522236D01*
X137856807Y-99701447D01*
X137986462Y-99753973D01*
X138011279Y-99718442D01*
X137940694Y-99593060D01*
X137841946Y-99537735D01*
X137705115Y-99461722D01*
X137672613Y-99405029D01*
X137686973Y-99340771D01*
X137760511Y-99338516D01*
X137938912Y-99399365D01*
X137973009Y-99412279D01*
X138135561Y-99508300D01*
X138167851Y-99654388D01*
X138159595Y-99708613D01*
X138143806Y-99862362D01*
X138189872Y-99900657D01*
X138317154Y-99820913D01*
X138498113Y-99663446D01*
X138702556Y-99449939D01*
X138764548Y-99303160D01*
X138689183Y-99206744D01*
X138646279Y-99187352D01*
X138533755Y-99080749D01*
X138519279Y-99020676D01*
X138448976Y-98924095D01*
X138354943Y-98902735D01*
X138195479Y-98867687D01*
X138143533Y-98826288D01*
X138593173Y-98826288D01*
X138674273Y-98989394D01*
X138734917Y-99080817D01*
X138900299Y-99278053D01*
X139045736Y-99351337D01*
X139158829Y-99345920D01*
X139315632Y-99290251D01*
X139365946Y-99232593D01*
X139298844Y-99144499D01*
X139134221Y-99017449D01*
X138927099Y-98885997D01*
X138732502Y-98784699D01*
X138605451Y-98748111D01*
X138597154Y-98749776D01*
X138593173Y-98826288D01*
X138143533Y-98826288D01*
X138143192Y-98826016D01*
X138031080Y-98775042D01*
X137877662Y-98820922D01*
X137755303Y-98935003D01*
X137732414Y-98988675D01*
X137618407Y-99120872D01*
X137456021Y-99171347D01*
X137220149Y-99199068D01*
X136965977Y-99199068D01*
X136740421Y-98883433D01*
X136563920Y-98531414D01*
X136459794Y-98146872D01*
X136412345Y-97679064D01*
X136406985Y-97429505D01*
X136531803Y-97429505D01*
X136543543Y-97526901D01*
X136630387Y-97999915D01*
X136743377Y-98344605D01*
X136898594Y-98601680D01*
X137019263Y-98731350D01*
X137273612Y-98925036D01*
X137466964Y-98977936D01*
X137588006Y-98888159D01*
X137609344Y-98830052D01*
X137721176Y-98694571D01*
X137924316Y-98624775D01*
X138147444Y-98639173D01*
X138223034Y-98670792D01*
X138388470Y-98712501D01*
X138468786Y-98628140D01*
X138456883Y-98509352D01*
X138749211Y-98509352D01*
X138838334Y-98628728D01*
X139005585Y-98740133D01*
X139300777Y-98924217D01*
X139473465Y-99064574D01*
X139549350Y-99199386D01*
X139554132Y-99366835D01*
X139529852Y-99518999D01*
X139501115Y-99751711D01*
X139508307Y-99909261D01*
X139520498Y-99935537D01*
X139628469Y-99955633D01*
X139850965Y-99947886D01*
X140085613Y-99921196D01*
X140387078Y-99887734D01*
X140589223Y-99911417D01*
X140740797Y-100018943D01*
X140890548Y-100237007D01*
X140991841Y-100417462D01*
X141106231Y-100592464D01*
X141198987Y-100678809D01*
X141208834Y-100680735D01*
X141308048Y-100624646D01*
X141467738Y-100484456D01*
X141524946Y-100426735D01*
X141708576Y-100259578D01*
X141874306Y-100192273D01*
X142068331Y-100224818D01*
X142336842Y-100357214D01*
X142456279Y-100426735D01*
X142694347Y-100562632D01*
X142872265Y-100654408D01*
X142938244Y-100679291D01*
X142979526Y-100604784D01*
X143013998Y-100415720D01*
X143022911Y-100321274D01*
X143048946Y-99961813D01*
X143514613Y-99893193D01*
X143855687Y-99840659D01*
X144055224Y-99793914D01*
X144139108Y-99733367D01*
X144133220Y-99639424D01*
X144063444Y-99492493D01*
X144057960Y-99481893D01*
X143982028Y-99304778D01*
X143992013Y-99177421D01*
X144109691Y-99058185D01*
X144356840Y-98905433D01*
X144360574Y-98903288D01*
X144436025Y-98811240D01*
X144420013Y-98763913D01*
X144307375Y-98752341D01*
X144209052Y-98800510D01*
X144018184Y-98916494D01*
X143853279Y-98999449D01*
X143675918Y-99082205D01*
X143401096Y-99213438D01*
X143083385Y-99367058D01*
X143031474Y-99392334D01*
X142712425Y-99541884D01*
X142476585Y-99626173D01*
X142257199Y-99658586D01*
X141987512Y-99652504D01*
X141803807Y-99638453D01*
X141443376Y-99597721D01*
X141102863Y-99541196D01*
X140866665Y-99484099D01*
X140517163Y-99316043D01*
X140185057Y-99062379D01*
X139921433Y-98768785D01*
X139788817Y-98520335D01*
X139673993Y-98323536D01*
X139930472Y-98323536D01*
X139958485Y-98436880D01*
X139969351Y-98466133D01*
X140199452Y-98847757D01*
X140567493Y-99137976D01*
X141076437Y-99338703D01*
X141440279Y-99415338D01*
X142081329Y-99453367D01*
X142641734Y-99353182D01*
X142946813Y-99220292D01*
X143234879Y-99034627D01*
X143378425Y-98865945D01*
X143395054Y-98682344D01*
X143335199Y-98516440D01*
X143192646Y-98325704D01*
X142964503Y-98230777D01*
X142902767Y-98219322D01*
X142671120Y-98205865D01*
X142560199Y-98253699D01*
X142557830Y-98259417D01*
X142462398Y-98312146D01*
X142264576Y-98326722D01*
X142212300Y-98323488D01*
X141906841Y-98345630D01*
X141692874Y-98430203D01*
X141518171Y-98535040D01*
X141415437Y-98535043D01*
X141324639Y-98411925D01*
X141265807Y-98300130D01*
X141176713Y-98147039D01*
X141079838Y-98076207D01*
X140919005Y-98067371D01*
X140692133Y-98093197D01*
X140316763Y-98145135D01*
X140082662Y-98191568D01*
X139962881Y-98246400D01*
X139930472Y-98323536D01*
X139673993Y-98323536D01*
X139641398Y-98267671D01*
X139420097Y-98166156D01*
X139132202Y-98218327D01*
X139041767Y-98260243D01*
X138816269Y-98396510D01*
X138749211Y-98509352D01*
X138456883Y-98509352D01*
X138450444Y-98445099D01*
X138396914Y-98319032D01*
X138314756Y-98095596D01*
X138472267Y-98095596D01*
X138519058Y-98248810D01*
X138596822Y-98310068D01*
X138705618Y-98265291D01*
X138808493Y-98198744D01*
X138903045Y-98112747D01*
X138876000Y-98039773D01*
X138747846Y-97947927D01*
X138592353Y-97860954D01*
X138516226Y-97876728D01*
X138487440Y-97932251D01*
X138472267Y-98095596D01*
X138314756Y-98095596D01*
X138311018Y-98085430D01*
X138339915Y-97906182D01*
X138347580Y-97891155D01*
X138362684Y-97691350D01*
X138252231Y-97403444D01*
X138023791Y-97043980D01*
X137868089Y-96843072D01*
X137737439Y-96652049D01*
X137673809Y-96498033D01*
X137672613Y-96483238D01*
X137662120Y-96390509D01*
X137599664Y-96372487D01*
X137438778Y-96423811D01*
X137372932Y-96448674D01*
X137212163Y-96543180D01*
X137185354Y-96680706D01*
X137194514Y-96724344D01*
X137192033Y-96880230D01*
X137069805Y-97008995D01*
X136984845Y-97061738D01*
X136778483Y-97162387D01*
X136621794Y-97209010D01*
X136612741Y-97209401D01*
X136540060Y-97259531D01*
X136531803Y-97429505D01*
X136406985Y-97429505D01*
X136404472Y-97312515D01*
X136415103Y-96827684D01*
X136574221Y-96827684D01*
X136611482Y-96940525D01*
X136649688Y-96955401D01*
X136791577Y-96927473D01*
X136861354Y-96904009D01*
X136964414Y-96784569D01*
X136995279Y-96615959D01*
X137031350Y-96433035D01*
X137171106Y-96322058D01*
X137261913Y-96286350D01*
X137526901Y-96210254D01*
X137687490Y-96226337D01*
X137791574Y-96352751D01*
X137854483Y-96510901D01*
X137964819Y-96828401D01*
X138011292Y-96489735D01*
X138005032Y-96133596D01*
X137934676Y-95952262D01*
X137864002Y-95786851D01*
X138015707Y-95786851D01*
X138072036Y-95854472D01*
X138077691Y-95854735D01*
X138160940Y-95789051D01*
X138277546Y-95628176D01*
X138294144Y-95600735D01*
X138415509Y-95430408D01*
X138514910Y-95348119D01*
X138524066Y-95346735D01*
X138584123Y-95274250D01*
X138603946Y-95135068D01*
X138594314Y-95088458D01*
X138688613Y-95088458D01*
X138762157Y-95119279D01*
X138942220Y-95127667D01*
X139167944Y-95116868D01*
X139378474Y-95090132D01*
X139512954Y-95050707D01*
X139522764Y-95043933D01*
X139469710Y-95014275D01*
X139300767Y-94972213D01*
X139248235Y-94961891D01*
X138952233Y-94937142D01*
X138755548Y-94984129D01*
X138688613Y-95088458D01*
X138594314Y-95088458D01*
X138569305Y-94967437D01*
X138452385Y-94933149D01*
X138258950Y-95011455D01*
X138138665Y-95138761D01*
X138144377Y-95298552D01*
X138149584Y-95472238D01*
X138102806Y-95554161D01*
X138028335Y-95658361D01*
X138015707Y-95786851D01*
X137864002Y-95786851D01*
X137857437Y-95771486D01*
X137899036Y-95614637D01*
X137915458Y-95587133D01*
X137977883Y-95385444D01*
X137967285Y-95256836D01*
X137900365Y-95144796D01*
X137777223Y-95167447D01*
X137745027Y-95183958D01*
X137627285Y-95302389D01*
X137621055Y-95395561D01*
X137619462Y-95500555D01*
X137585289Y-95516068D01*
X137507274Y-95450272D01*
X137503279Y-95421034D01*
X137470995Y-95359415D01*
X137395714Y-95409822D01*
X137309795Y-95532643D01*
X137245597Y-95688261D01*
X137233138Y-95751749D01*
X137151112Y-95947133D01*
X136995279Y-96024537D01*
X136820467Y-96124543D01*
X136783613Y-96239552D01*
X136731581Y-96436934D01*
X136677779Y-96516949D01*
X136597837Y-96662812D01*
X136574221Y-96827684D01*
X136415103Y-96827684D01*
X136415765Y-96797508D01*
X136462478Y-96406460D01*
X136560074Y-96095177D01*
X136703042Y-95854735D01*
X136995279Y-95854735D01*
X137024166Y-95937200D01*
X137032616Y-95939401D01*
X137104902Y-95880072D01*
X137122279Y-95854735D01*
X137115566Y-95776716D01*
X137084943Y-95770068D01*
X136998725Y-95831528D01*
X136995279Y-95854735D01*
X136703042Y-95854735D01*
X136724014Y-95819465D01*
X136969759Y-95535129D01*
X137057595Y-95445689D01*
X137475794Y-95116840D01*
X137975860Y-94861508D01*
X138496296Y-94706216D01*
X138853219Y-94671261D01*
X139221528Y-94733796D01*
X139645678Y-94902176D01*
X140071475Y-95153536D01*
X140174722Y-95228863D01*
X140363783Y-95405102D01*
X140405847Y-95516791D01*
X140315429Y-95550254D01*
X140107042Y-95491813D01*
X139966141Y-95425418D01*
X139668719Y-95302954D01*
X139383689Y-95277503D01*
X139219471Y-95293943D01*
X138803404Y-95421582D01*
X138501978Y-95672963D01*
X138317501Y-96045116D01*
X138252282Y-96535070D01*
X138252261Y-96537646D01*
X138319560Y-97034407D01*
X138522551Y-97436288D01*
X138850310Y-97733130D01*
X139291912Y-97914770D01*
X139793763Y-97971401D01*
X140247719Y-97937656D01*
X140456987Y-97886524D01*
X141283235Y-97886524D01*
X141290369Y-97998828D01*
X141363946Y-98156850D01*
X141459268Y-98322152D01*
X141535586Y-98354007D01*
X141648093Y-98271183D01*
X141662351Y-98258318D01*
X141896623Y-98142825D01*
X142100747Y-98124749D01*
X142288567Y-98120444D01*
X142364075Y-98041972D01*
X142379520Y-97898988D01*
X142755693Y-97898988D01*
X142822563Y-98014780D01*
X143027779Y-98071870D01*
X143210855Y-98113889D01*
X143343404Y-98225631D01*
X143474690Y-98450641D01*
X143488843Y-98479401D01*
X143626224Y-98721679D01*
X143753504Y-98814560D01*
X143913027Y-98769656D01*
X144089921Y-98644215D01*
X144260564Y-98525099D01*
X144392155Y-98499178D01*
X144530990Y-98578422D01*
X144723361Y-98774798D01*
X144762363Y-98818068D01*
X144939000Y-99006583D01*
X145068408Y-99129536D01*
X145109836Y-99156735D01*
X145185960Y-99097899D01*
X145324120Y-98950624D01*
X145378486Y-98886974D01*
X145382732Y-98882492D01*
X145668001Y-98882492D01*
X145751224Y-98896050D01*
X145861038Y-98880484D01*
X145862349Y-98851582D01*
X145749032Y-98831370D01*
X145700071Y-98844898D01*
X145668001Y-98882492D01*
X145382732Y-98882492D01*
X145531727Y-98725203D01*
X145681577Y-98649237D01*
X145898128Y-98632368D01*
X146034818Y-98636886D01*
X146289232Y-98642583D01*
X146420666Y-98614935D01*
X146475081Y-98532174D01*
X146493111Y-98419813D01*
X146600006Y-98201956D01*
X146856273Y-98004858D01*
X147181527Y-97864013D01*
X147194109Y-97783208D01*
X147133424Y-97616680D01*
X147122682Y-97595398D01*
X147048115Y-97422890D01*
X147061946Y-97297577D01*
X147325596Y-97297577D01*
X147334085Y-97372615D01*
X147441110Y-97320358D01*
X147581247Y-97188235D01*
X147711969Y-97063870D01*
X147792936Y-97059592D01*
X147869046Y-97145901D01*
X148013034Y-97275347D01*
X148126164Y-97266559D01*
X148171279Y-97124735D01*
X148217310Y-96995061D01*
X148380971Y-96955536D01*
X148397057Y-96955401D01*
X148539718Y-96935993D01*
X148559243Y-96891901D01*
X148444360Y-96855808D01*
X148219841Y-96832803D01*
X148054421Y-96828401D01*
X147785161Y-96838672D01*
X147621409Y-96888139D01*
X147499712Y-97004787D01*
X147430466Y-97103568D01*
X147325596Y-97297577D01*
X147061946Y-97297577D01*
X147062232Y-97294984D01*
X147177761Y-97133049D01*
X147202267Y-97103762D01*
X147350891Y-96914866D01*
X147389201Y-96786098D01*
X147367902Y-96745913D01*
X148727558Y-96745913D01*
X148764498Y-96823860D01*
X148923815Y-96948662D01*
X149096259Y-97110579D01*
X149184342Y-97269797D01*
X149187279Y-97295626D01*
X149248417Y-97463150D01*
X149393807Y-97578610D01*
X149566413Y-97620686D01*
X149633710Y-97595880D01*
X149957912Y-97595880D01*
X149976204Y-97667255D01*
X150086905Y-97749905D01*
X150223372Y-97796995D01*
X150245613Y-97798079D01*
X150254317Y-97756064D01*
X150167127Y-97673250D01*
X150026011Y-97595359D01*
X149957912Y-97595880D01*
X149633710Y-97595880D01*
X149709198Y-97568055D01*
X149749328Y-97505735D01*
X149863123Y-97405241D01*
X149990796Y-97378735D01*
X150156921Y-97318896D01*
X150472906Y-97318896D01*
X150473018Y-97525303D01*
X150473817Y-97534995D01*
X150499613Y-97844401D01*
X150895656Y-97824487D01*
X151144596Y-97824072D01*
X151307992Y-97877407D01*
X151458594Y-98018698D01*
X151551823Y-98133004D01*
X151751113Y-98432492D01*
X151806466Y-98647402D01*
X151722810Y-98778497D01*
X151654624Y-98880787D01*
X151742002Y-98993219D01*
X151972839Y-99102256D01*
X152028586Y-99120445D01*
X152340545Y-99205842D01*
X152531900Y-99221066D01*
X152638347Y-99161091D01*
X152694132Y-99026740D01*
X152822641Y-98827824D01*
X153059240Y-98697636D01*
X153354592Y-98642535D01*
X153659357Y-98668879D01*
X153924199Y-98783027D01*
X154010204Y-98857127D01*
X154150869Y-98981045D01*
X154282579Y-99005620D01*
X154454596Y-98926015D01*
X154639245Y-98795370D01*
X154730582Y-98715213D01*
X154756885Y-98624765D01*
X154745246Y-98577424D01*
X155060530Y-98577424D01*
X155125038Y-98693782D01*
X155260068Y-98849144D01*
X155449230Y-99016581D01*
X155507389Y-99060316D01*
X155901494Y-99406330D01*
X156212765Y-99828278D01*
X156471909Y-100363235D01*
X156587387Y-100631425D01*
X156681406Y-100777377D01*
X156790449Y-100837967D01*
X156950997Y-100850067D01*
X156953571Y-100850068D01*
X157149446Y-100830598D01*
X157162092Y-100816834D01*
X157484613Y-100816834D01*
X157496942Y-100868495D01*
X157549373Y-100904265D01*
X157665071Y-100925527D01*
X157867202Y-100933665D01*
X158178932Y-100930060D01*
X158623425Y-100916098D01*
X158945113Y-100904033D01*
X159478283Y-100878327D01*
X160001420Y-100843948D01*
X160470331Y-100804442D01*
X160840826Y-100763355D01*
X160998279Y-100739276D01*
X161338693Y-100664028D01*
X161522491Y-100573302D01*
X161561808Y-100437577D01*
X161498956Y-100295536D01*
X161737120Y-100295536D01*
X161742592Y-100381378D01*
X161764855Y-100450461D01*
X161812141Y-100525102D01*
X161903690Y-100535854D01*
X162086477Y-100482041D01*
X162190181Y-100444317D01*
X162410521Y-100347999D01*
X162545100Y-100260924D01*
X162564613Y-100229525D01*
X162491248Y-100205706D01*
X162311893Y-100204445D01*
X162087651Y-100220868D01*
X161879629Y-100250102D01*
X161748929Y-100287270D01*
X161737120Y-100295536D01*
X161498956Y-100295536D01*
X161468777Y-100227333D01*
X161307748Y-99986397D01*
X161136777Y-99770749D01*
X160989893Y-99681758D01*
X160809328Y-99697845D01*
X160666391Y-99746824D01*
X160537046Y-99810872D01*
X160483555Y-99907244D01*
X160487637Y-100090027D01*
X160504767Y-100224988D01*
X160559055Y-100621062D01*
X160324289Y-100562139D01*
X159979897Y-100481681D01*
X159746202Y-100451910D01*
X159571305Y-100476221D01*
X159403308Y-100558008D01*
X159293854Y-100629530D01*
X159035323Y-100788312D01*
X158862768Y-100834726D01*
X158734072Y-100767159D01*
X158618622Y-100603647D01*
X158461508Y-100419206D01*
X158236378Y-100337153D01*
X158151931Y-100326602D01*
X157940143Y-100318700D01*
X157842569Y-100368126D01*
X157806693Y-100502641D01*
X157805875Y-100509523D01*
X157745912Y-100672341D01*
X157632779Y-100698190D01*
X157506761Y-100736194D01*
X157484613Y-100816834D01*
X157162092Y-100816834D01*
X157215681Y-100758510D01*
X157213157Y-100704646D01*
X157252849Y-100582735D01*
X157437872Y-100511486D01*
X157442279Y-100510634D01*
X157611385Y-100472421D01*
X157628427Y-100432148D01*
X157511345Y-100359723D01*
X157315393Y-100279129D01*
X157196020Y-100257401D01*
X157074290Y-100187644D01*
X156948912Y-100023250D01*
X156912649Y-99946019D01*
X157152326Y-99946019D01*
X157202390Y-100031623D01*
X157341953Y-100095091D01*
X157448115Y-100014186D01*
X157484613Y-99840993D01*
X157485301Y-99831118D01*
X157653946Y-99831118D01*
X157696495Y-100011487D01*
X157841036Y-100118627D01*
X158112912Y-100166062D01*
X158291858Y-100171578D01*
X158511131Y-100218541D01*
X158672980Y-100384882D01*
X158698811Y-100426735D01*
X158808920Y-100596061D01*
X158882668Y-100679039D01*
X158888214Y-100680735D01*
X158975837Y-100638069D01*
X159153660Y-100529755D01*
X159262410Y-100459152D01*
X159507719Y-100319680D01*
X159722074Y-100273189D01*
X159972750Y-100293880D01*
X160348255Y-100350190D01*
X160303010Y-100012858D01*
X160257764Y-99675526D01*
X160407702Y-99631938D01*
X161239050Y-99631938D01*
X161252279Y-99664735D01*
X161328361Y-99745505D01*
X161341943Y-99749401D01*
X161378308Y-99683895D01*
X161379279Y-99664735D01*
X161314191Y-99583321D01*
X161289616Y-99580068D01*
X161239050Y-99631938D01*
X160407702Y-99631938D01*
X160736561Y-99536336D01*
X161215358Y-99397145D01*
X161030742Y-99098431D01*
X160887702Y-98866986D01*
X161125279Y-98866986D01*
X161166816Y-98960379D01*
X161260551Y-99115143D01*
X161371702Y-99329953D01*
X161480462Y-99608266D01*
X161504539Y-99683665D01*
X161613255Y-100045735D01*
X162124554Y-100021791D01*
X162410727Y-100022358D01*
X162616715Y-100049358D01*
X162689896Y-100085291D01*
X162745505Y-100155617D01*
X162824591Y-100158580D01*
X162987193Y-100092253D01*
X163026295Y-100074478D01*
X163177809Y-99967908D01*
X163219345Y-99845598D01*
X163411279Y-99845598D01*
X163656040Y-99671313D01*
X163834670Y-99521939D01*
X164074839Y-99292554D01*
X164326834Y-99030804D01*
X164345079Y-99010917D01*
X164789357Y-98524806D01*
X164509786Y-98467628D01*
X164260607Y-98448227D01*
X164053762Y-98481818D01*
X164053580Y-98481892D01*
X163942705Y-98536127D01*
X163986566Y-98556615D01*
X164025113Y-98558701D01*
X164155217Y-98608490D01*
X164146910Y-98734586D01*
X164005615Y-98923939D01*
X163792279Y-99118932D01*
X163532393Y-99368303D01*
X163418777Y-99575111D01*
X163411279Y-99638366D01*
X163411279Y-99845598D01*
X163219345Y-99845598D01*
X163236475Y-99795154D01*
X163241946Y-99667753D01*
X163276726Y-99426054D01*
X163404306Y-99213439D01*
X163534985Y-99075261D01*
X163698247Y-98898512D01*
X163785715Y-98766619D01*
X163789920Y-98729584D01*
X163688458Y-98673837D01*
X163490935Y-98619240D01*
X163463055Y-98613759D01*
X163243550Y-98552987D01*
X163118074Y-98459159D01*
X163617334Y-98459159D01*
X163700557Y-98472717D01*
X163810371Y-98457150D01*
X163811682Y-98428248D01*
X163698365Y-98408037D01*
X163649404Y-98421564D01*
X163617334Y-98459159D01*
X163118074Y-98459159D01*
X163096017Y-98442665D01*
X162975381Y-98238535D01*
X162900740Y-98061644D01*
X162892665Y-98036328D01*
X163125287Y-98036328D01*
X163172685Y-98183068D01*
X163265816Y-98338429D01*
X163338388Y-98394735D01*
X163358605Y-98329808D01*
X163311207Y-98183068D01*
X163218076Y-98027707D01*
X163145504Y-97971401D01*
X163125287Y-98036328D01*
X162892665Y-98036328D01*
X162834850Y-97855070D01*
X162853231Y-97756087D01*
X162886550Y-97737089D01*
X162981686Y-97661505D01*
X162987946Y-97636301D01*
X162924922Y-97616905D01*
X162755209Y-97682203D01*
X162507841Y-97815633D01*
X162211853Y-98000637D01*
X161896282Y-98220653D01*
X161696779Y-98372719D01*
X161439077Y-98581299D01*
X161241752Y-98749594D01*
X161135450Y-98851102D01*
X161125279Y-98866986D01*
X160887702Y-98866986D01*
X160846127Y-98799716D01*
X161112703Y-98591089D01*
X161306815Y-98424445D01*
X161364620Y-98316072D01*
X161292282Y-98232723D01*
X161188779Y-98180806D01*
X161036595Y-98043528D01*
X161022443Y-97963463D01*
X161205128Y-97963463D01*
X161245627Y-98036746D01*
X161358113Y-98082372D01*
X161575865Y-98125079D01*
X161719391Y-98102081D01*
X161802613Y-98056068D01*
X161865899Y-97988688D01*
X161834363Y-97972698D01*
X161688655Y-97956130D01*
X161474529Y-97918485D01*
X161289499Y-97912681D01*
X161205128Y-97963463D01*
X161022443Y-97963463D01*
X161015427Y-97923774D01*
X160968000Y-97768872D01*
X160775302Y-97654382D01*
X160604995Y-97598237D01*
X160556057Y-97618166D01*
X160584550Y-97700836D01*
X160623951Y-97857496D01*
X160660213Y-98122302D01*
X160682701Y-98396612D01*
X160674752Y-98803600D01*
X160579779Y-99111559D01*
X160372258Y-99368167D01*
X160027515Y-99620569D01*
X159509717Y-99877904D01*
X159027961Y-99970977D01*
X158576661Y-99899661D01*
X158150226Y-99663830D01*
X158042835Y-99575637D01*
X157847542Y-99430794D01*
X157728212Y-99422126D01*
X157668986Y-99560051D01*
X157653946Y-99831118D01*
X157485301Y-99831118D01*
X157500235Y-99616919D01*
X157531734Y-99471120D01*
X157504838Y-99352162D01*
X157404734Y-99302788D01*
X157260594Y-99303740D01*
X157237246Y-99377768D01*
X157315279Y-99453068D01*
X157394712Y-99568871D01*
X157373286Y-99695307D01*
X157272946Y-99749401D01*
X157166337Y-99812296D01*
X157152326Y-99946019D01*
X156912649Y-99946019D01*
X156858894Y-99831536D01*
X156843243Y-99679818D01*
X156851149Y-99662248D01*
X156972193Y-99586371D01*
X157022127Y-99580068D01*
X157096683Y-99551814D01*
X157075940Y-99438522D01*
X157044383Y-99365130D01*
X156927269Y-99209309D01*
X156813365Y-99203919D01*
X156642390Y-99273424D01*
X156589860Y-99295000D01*
X156468104Y-99272767D01*
X156291839Y-99168677D01*
X156272578Y-99153904D01*
X156124164Y-99012495D01*
X156100758Y-98892159D01*
X156136912Y-98805051D01*
X156179362Y-98638764D01*
X156086704Y-98478443D01*
X156081239Y-98472358D01*
X155919108Y-98336311D01*
X155768727Y-98338600D01*
X155578273Y-98480680D01*
X155571891Y-98486655D01*
X155410102Y-98603554D01*
X155266892Y-98596947D01*
X155208629Y-98569428D01*
X155082930Y-98526997D01*
X155060530Y-98577424D01*
X154745246Y-98577424D01*
X154719026Y-98470773D01*
X154647741Y-98278108D01*
X154561157Y-98023407D01*
X154554203Y-97957171D01*
X154798560Y-97957171D01*
X154870880Y-98185182D01*
X154873500Y-98191409D01*
X154977281Y-98437068D01*
X155010060Y-98192255D01*
X154998040Y-97981433D01*
X154930226Y-97877468D01*
X154819021Y-97850840D01*
X154798560Y-97957171D01*
X154554203Y-97957171D01*
X154543411Y-97854369D01*
X154590888Y-97703605D01*
X154614442Y-97657249D01*
X154621358Y-97648522D01*
X154951530Y-97648522D01*
X155051157Y-97739658D01*
X155071613Y-97748019D01*
X155167668Y-97870513D01*
X155198613Y-98095744D01*
X155211955Y-98292758D01*
X155244796Y-98391924D01*
X155252119Y-98394735D01*
X155351536Y-98354486D01*
X155536365Y-98253643D01*
X155611952Y-98208704D01*
X155740105Y-98123670D01*
X156081538Y-98123670D01*
X156141252Y-98262002D01*
X156256946Y-98394735D01*
X156400973Y-98570531D01*
X156430015Y-98703147D01*
X156392211Y-98802625D01*
X156344273Y-98950046D01*
X156405789Y-99016220D01*
X156556591Y-99057127D01*
X156682821Y-99015350D01*
X156849591Y-98868090D01*
X156860827Y-98856884D01*
X157076011Y-98641699D01*
X156849510Y-98344741D01*
X156695837Y-98086744D01*
X156694544Y-98040686D01*
X156906726Y-98040686D01*
X156973141Y-98181785D01*
X157071816Y-98324866D01*
X157186969Y-98521796D01*
X157195846Y-98678986D01*
X157156483Y-98786420D01*
X157086106Y-98952676D01*
X157061279Y-99031298D01*
X157135036Y-99074929D01*
X157322919Y-99142440D01*
X157574845Y-99216362D01*
X157641838Y-99233765D01*
X157641800Y-99175456D01*
X157614817Y-99093235D01*
X157484149Y-98600465D01*
X157472558Y-98329747D01*
X157640218Y-98329747D01*
X157707300Y-98746420D01*
X157847724Y-99123194D01*
X158051143Y-99411726D01*
X158183389Y-99513737D01*
X158584418Y-99715012D01*
X158916348Y-99803767D01*
X159232590Y-99784380D01*
X159586556Y-99661228D01*
X159647072Y-99633673D01*
X160075187Y-99385810D01*
X160352891Y-99099580D01*
X160498632Y-98749304D01*
X160532613Y-98400942D01*
X160515445Y-98076931D01*
X160447016Y-97836032D01*
X160301935Y-97594012D01*
X160280282Y-97563809D01*
X160070977Y-97323268D01*
X159838228Y-97123989D01*
X159751115Y-97069511D01*
X159362302Y-96944022D01*
X158931115Y-96931488D01*
X158503224Y-97020383D01*
X158124303Y-97199183D01*
X157840024Y-97456363D01*
X157767453Y-97570065D01*
X157656820Y-97921514D01*
X157640218Y-98329747D01*
X157472558Y-98329747D01*
X157463434Y-98116639D01*
X157549264Y-97683174D01*
X157738228Y-97341484D01*
X157761173Y-97315568D01*
X157878986Y-97173894D01*
X157879334Y-97094453D01*
X157742990Y-97043060D01*
X157590446Y-97012013D01*
X157315279Y-96959635D01*
X157315279Y-97382947D01*
X157304943Y-97642529D01*
X157259255Y-97785703D01*
X157156202Y-97864870D01*
X157103613Y-97886735D01*
X156949097Y-97957757D01*
X156906726Y-98040686D01*
X156694544Y-98040686D01*
X156690674Y-97902897D01*
X156835330Y-97783646D01*
X156930654Y-97753079D01*
X157073039Y-97692036D01*
X157134215Y-97568390D01*
X157145946Y-97367900D01*
X157145751Y-97199773D01*
X157122463Y-97104486D01*
X157042022Y-97071862D01*
X156870371Y-97091726D01*
X156573452Y-97153904D01*
X156489779Y-97171858D01*
X156301689Y-97232532D01*
X156226710Y-97345394D01*
X156214613Y-97521884D01*
X156187807Y-97776780D01*
X156123251Y-97983897D01*
X156122357Y-97985580D01*
X156081538Y-98123670D01*
X155740105Y-98123670D01*
X155856538Y-98046412D01*
X155985924Y-97903698D01*
X156036299Y-97724275D01*
X156043983Y-97536776D01*
X156012318Y-97294607D01*
X155906631Y-97180505D01*
X155897113Y-97176888D01*
X155710492Y-97104709D01*
X155643113Y-97075291D01*
X155552196Y-97095427D01*
X155537279Y-97158876D01*
X155465991Y-97274899D01*
X155289702Y-97393428D01*
X155240946Y-97415611D01*
X155015831Y-97538469D01*
X154951530Y-97648522D01*
X154621358Y-97648522D01*
X154768987Y-97462248D01*
X154988843Y-97282991D01*
X155014773Y-97267014D01*
X155203362Y-97127750D01*
X155259519Y-96994309D01*
X155248762Y-96921942D01*
X155207837Y-96699407D01*
X155199769Y-96588947D01*
X155168435Y-96487781D01*
X155047094Y-96454445D01*
X154884791Y-96461947D01*
X154699615Y-96469408D01*
X154586816Y-96425087D01*
X154501773Y-96291682D01*
X154413246Y-96067707D01*
X154324906Y-95821090D01*
X154298188Y-95679556D01*
X154335165Y-95589668D01*
X154435268Y-95500131D01*
X154537118Y-95408534D01*
X154545635Y-95337906D01*
X154442890Y-95248223D01*
X154273495Y-95138992D01*
X154018880Y-94989128D01*
X153856424Y-94938016D01*
X153740927Y-94985384D01*
X153627191Y-95130958D01*
X153624493Y-95135068D01*
X153508365Y-95267847D01*
X153349294Y-95330534D01*
X153085899Y-95346720D01*
X153073821Y-95346735D01*
X152821818Y-95337100D01*
X152688825Y-95293050D01*
X152624924Y-95191868D01*
X152608714Y-95135068D01*
X152573464Y-95003902D01*
X152525015Y-94944511D01*
X152422938Y-94954511D01*
X152226801Y-95031516D01*
X152061381Y-95102771D01*
X151818129Y-95218574D01*
X151702717Y-95314089D01*
X151682175Y-95422082D01*
X151691635Y-95470244D01*
X151660024Y-95651619D01*
X151508300Y-95815418D01*
X151284097Y-95920935D01*
X151142588Y-95939401D01*
X150963956Y-95989688D01*
X150902231Y-96111545D01*
X150946628Y-96218277D01*
X151028825Y-96397777D01*
X151082099Y-96644059D01*
X151089534Y-96864797D01*
X151076072Y-96924773D01*
X150974287Y-97020474D01*
X150777870Y-97116021D01*
X150741497Y-97128733D01*
X150547516Y-97209294D01*
X150472906Y-97318896D01*
X150156921Y-97318896D01*
X150168551Y-97314707D01*
X150225137Y-97219627D01*
X150217226Y-97104318D01*
X150098089Y-97018338D01*
X149930645Y-96959821D01*
X149660822Y-96830517D01*
X149360294Y-96612527D01*
X149213585Y-96478163D01*
X149008276Y-96275446D01*
X148899162Y-96183520D01*
X148862944Y-96193201D01*
X148876320Y-96295304D01*
X148888120Y-96349870D01*
X148901659Y-96558376D01*
X148813617Y-96674973D01*
X148801983Y-96681797D01*
X148727558Y-96745913D01*
X147367902Y-96745913D01*
X147316399Y-96648744D01*
X147195326Y-96506633D01*
X147012859Y-96346135D01*
X146989018Y-96331690D01*
X147324613Y-96331690D01*
X147366356Y-96455835D01*
X147450006Y-96504191D01*
X147481246Y-96488323D01*
X147469561Y-96401340D01*
X147424801Y-96344390D01*
X147339560Y-96296660D01*
X147324613Y-96331690D01*
X146989018Y-96331690D01*
X146791123Y-96211789D01*
X146582852Y-96129013D01*
X146440781Y-96123228D01*
X146423748Y-96134710D01*
X146415830Y-96235608D01*
X146443153Y-96448183D01*
X146481853Y-96643454D01*
X146531293Y-96941791D01*
X146545410Y-97203201D01*
X146533568Y-97313599D01*
X146361224Y-97673478D01*
X146060222Y-97974810D01*
X145667938Y-98192313D01*
X145221747Y-98300707D01*
X145063152Y-98308208D01*
X144698658Y-98265761D01*
X144342188Y-98156131D01*
X144047832Y-98001756D01*
X144361279Y-98001756D01*
X144436966Y-98053873D01*
X144628578Y-98094054D01*
X144882940Y-98119263D01*
X145146878Y-98126463D01*
X145367216Y-98112619D01*
X145490781Y-98074694D01*
X145497745Y-98066640D01*
X145499225Y-97949315D01*
X145451519Y-97734187D01*
X145410117Y-97600973D01*
X145315690Y-97361801D01*
X145236055Y-97264752D01*
X145474024Y-97264752D01*
X145527849Y-97444855D01*
X145613511Y-97651853D01*
X145706964Y-97830250D01*
X145784157Y-97924553D01*
X145805108Y-97926289D01*
X145814671Y-97830997D01*
X145756452Y-97638833D01*
X145697264Y-97504272D01*
X145585949Y-97296467D01*
X145502048Y-97178244D01*
X145476087Y-97167038D01*
X145474024Y-97264752D01*
X145236055Y-97264752D01*
X145220323Y-97245580D01*
X145084291Y-97210429D01*
X145038699Y-97209401D01*
X144871900Y-97240410D01*
X144731507Y-97357838D01*
X144580991Y-97584311D01*
X144455993Y-97805210D01*
X144376408Y-97960470D01*
X144361279Y-98001756D01*
X144047832Y-98001756D01*
X144046507Y-98001061D01*
X143864379Y-97822293D01*
X143858496Y-97811816D01*
X143850856Y-97802068D01*
X144107279Y-97802068D01*
X144143101Y-97885608D01*
X144235673Y-97833411D01*
X144362655Y-97659470D01*
X144378508Y-97632199D01*
X144464293Y-97464442D01*
X144488087Y-97380842D01*
X144484341Y-97378735D01*
X144388101Y-97438230D01*
X144255126Y-97573552D01*
X144143086Y-97719950D01*
X144107279Y-97802068D01*
X143850856Y-97802068D01*
X143766479Y-97694404D01*
X143639145Y-97698895D01*
X143555332Y-97733542D01*
X143308379Y-97784868D01*
X143143999Y-97737539D01*
X142953316Y-97689012D01*
X142847665Y-97740882D01*
X142755693Y-97898988D01*
X142379520Y-97898988D01*
X142380536Y-97889584D01*
X142373115Y-97844401D01*
X142498613Y-97844401D01*
X142540946Y-97886735D01*
X142583279Y-97844401D01*
X142540946Y-97802068D01*
X142498613Y-97844401D01*
X142373115Y-97844401D01*
X142345416Y-97675752D01*
X142232369Y-97586515D01*
X142102156Y-97510260D01*
X142075279Y-97457696D01*
X142009997Y-97381779D01*
X141985291Y-97378735D01*
X141920960Y-97446452D01*
X141919677Y-97526901D01*
X141908588Y-97734705D01*
X141807216Y-97825597D01*
X141654896Y-97784261D01*
X141492025Y-97729580D01*
X141364717Y-97794512D01*
X141283235Y-97886524D01*
X140456987Y-97886524D01*
X140692608Y-97828953D01*
X141148666Y-97634090D01*
X141636125Y-97341866D01*
X141714871Y-97283323D01*
X142246501Y-97283323D01*
X142283464Y-97373102D01*
X142408230Y-97453392D01*
X142477458Y-97463401D01*
X142558884Y-97447994D01*
X142503828Y-97382900D01*
X142451428Y-97343324D01*
X142300260Y-97258416D01*
X142246501Y-97283323D01*
X141714871Y-97283323D01*
X142065685Y-97022514D01*
X142476254Y-97022514D01*
X142477738Y-97107027D01*
X142595771Y-97231459D01*
X142621444Y-97255287D01*
X142877407Y-97440111D01*
X143150403Y-97557206D01*
X143380927Y-97583326D01*
X143429946Y-97571100D01*
X143602399Y-97532179D01*
X143830658Y-97507580D01*
X144074022Y-97447850D01*
X144291882Y-97320856D01*
X144427375Y-97165115D01*
X144446467Y-97090446D01*
X144483381Y-96956473D01*
X144500508Y-96918149D01*
X144813431Y-96918149D01*
X144829352Y-96959295D01*
X144954186Y-97025597D01*
X145155984Y-97035191D01*
X145353580Y-96991942D01*
X145448035Y-96929829D01*
X145464579Y-96880560D01*
X145681364Y-96880560D01*
X145766638Y-97212606D01*
X145835679Y-97400524D01*
X145955241Y-97646729D01*
X146064729Y-97727132D01*
X146176864Y-97641346D01*
X146304366Y-97388982D01*
X146305528Y-97386181D01*
X146353147Y-97172267D01*
X146346551Y-96936185D01*
X146298370Y-96714723D01*
X146221234Y-96544665D01*
X146127772Y-96462798D01*
X146030615Y-96505906D01*
X146012279Y-96532068D01*
X145891625Y-96605818D01*
X145812848Y-96616735D01*
X145696782Y-96682439D01*
X145681364Y-96880560D01*
X145464579Y-96880560D01*
X145505257Y-96759423D01*
X145455970Y-96571834D01*
X145335059Y-96411123D01*
X145177408Y-96321352D01*
X145017902Y-96346581D01*
X144997952Y-96361347D01*
X144889223Y-96518048D01*
X144819760Y-96731866D01*
X144813431Y-96918149D01*
X144500508Y-96918149D01*
X144572215Y-96757694D01*
X144579054Y-96744455D01*
X144669652Y-96398299D01*
X144597553Y-96035233D01*
X144412932Y-95730300D01*
X144637177Y-95730300D01*
X144654131Y-95764435D01*
X144734864Y-95851968D01*
X144749715Y-95790238D01*
X144730115Y-95727149D01*
X144890580Y-95727149D01*
X144917660Y-95891020D01*
X144971322Y-96040179D01*
X145016615Y-96074287D01*
X145029407Y-95970225D01*
X145002327Y-95806354D01*
X144948665Y-95657195D01*
X144920535Y-95636012D01*
X145129963Y-95636012D01*
X145145530Y-95745826D01*
X145174432Y-95747137D01*
X145194643Y-95633820D01*
X145181116Y-95584860D01*
X145143521Y-95552789D01*
X145129963Y-95636012D01*
X144920535Y-95636012D01*
X144903371Y-95623087D01*
X144890580Y-95727149D01*
X144730115Y-95727149D01*
X144729162Y-95724083D01*
X144666829Y-95631877D01*
X144638675Y-95633783D01*
X144637177Y-95730300D01*
X144412932Y-95730300D01*
X144411653Y-95728188D01*
X144274975Y-95568036D01*
X144184640Y-95526668D01*
X144081863Y-95590119D01*
X144028999Y-95637288D01*
X143915322Y-95776520D01*
X143948282Y-95861123D01*
X144009548Y-95980896D01*
X143998253Y-96050092D01*
X144021763Y-96168899D01*
X144155249Y-96229584D01*
X144322120Y-96322610D01*
X144347914Y-96449677D01*
X144228190Y-96560410D01*
X144185823Y-96576345D01*
X144063358Y-96657814D01*
X144050700Y-96730217D01*
X144142722Y-96962887D01*
X144167992Y-97079451D01*
X144125082Y-97120025D01*
X144036668Y-97124735D01*
X143867926Y-97083567D01*
X143805274Y-97030891D01*
X143718871Y-97021313D01*
X143574389Y-97154311D01*
X143554190Y-97179057D01*
X143361104Y-97421068D01*
X143254935Y-97188235D01*
X143103844Y-96997352D01*
X142950689Y-96955401D01*
X142798279Y-96919895D01*
X142752613Y-96857612D01*
X142702043Y-96832319D01*
X142584188Y-96912246D01*
X142476254Y-97022514D01*
X142065685Y-97022514D01*
X142175222Y-96941080D01*
X142644129Y-96541567D01*
X143187536Y-96541567D01*
X143267617Y-96778727D01*
X143281779Y-96809767D01*
X143361994Y-96962533D01*
X143425276Y-96973830D01*
X143516640Y-96866774D01*
X143631465Y-96754529D01*
X143732860Y-96779995D01*
X143761935Y-96805029D01*
X143842837Y-96863855D01*
X143832811Y-96785790D01*
X143821946Y-96754170D01*
X143814882Y-96572753D01*
X143853603Y-96489345D01*
X143879782Y-96396383D01*
X143753504Y-96334256D01*
X143750690Y-96333516D01*
X143571306Y-96323251D01*
X143484589Y-96358891D01*
X143347928Y-96401149D01*
X143292629Y-96389393D01*
X143196068Y-96404264D01*
X143187536Y-96541567D01*
X142644129Y-96541567D01*
X142786191Y-96420529D01*
X143083334Y-96150350D01*
X143316181Y-95939401D01*
X143683946Y-95939401D01*
X143714924Y-96009091D01*
X143740390Y-95995846D01*
X143750523Y-95895366D01*
X143740390Y-95882957D01*
X143690056Y-95894579D01*
X143683946Y-95939401D01*
X143316181Y-95939401D01*
X143573672Y-95706126D01*
X143888552Y-95438604D01*
X144408171Y-95438604D01*
X144409336Y-95440662D01*
X144528879Y-95513223D01*
X144650031Y-95443545D01*
X144652700Y-95439350D01*
X144762206Y-95395547D01*
X144869363Y-95406891D01*
X145009300Y-95403313D01*
X145025718Y-95313857D01*
X144917279Y-95182104D01*
X144792464Y-95130100D01*
X144630530Y-95191187D01*
X144579339Y-95223331D01*
X144441562Y-95343800D01*
X144408171Y-95438604D01*
X143888552Y-95438604D01*
X143979682Y-95361180D01*
X144333618Y-95091979D01*
X144490753Y-94989928D01*
X145038613Y-94989928D01*
X145097509Y-95069258D01*
X145244619Y-95208832D01*
X145303865Y-95259512D01*
X145569118Y-95480955D01*
X145420359Y-95768624D01*
X145329405Y-95960527D01*
X145324624Y-96071438D01*
X145412285Y-96169660D01*
X145460819Y-96209514D01*
X145678534Y-96338291D01*
X145878830Y-96330962D01*
X146104638Y-96181843D01*
X146177582Y-96114580D01*
X146435613Y-95866425D01*
X146898564Y-95987580D01*
X147180787Y-96055069D01*
X147411409Y-96099052D01*
X147504115Y-96108735D01*
X147634040Y-96184504D01*
X147738995Y-96373452D01*
X147820364Y-96552132D01*
X147932457Y-96606023D01*
X148096527Y-96585118D01*
X148341440Y-96546647D01*
X148529588Y-96532068D01*
X148650488Y-96491100D01*
X148654127Y-96426235D01*
X148584712Y-96255236D01*
X148553545Y-96177973D01*
X148560766Y-96054866D01*
X148616145Y-95995577D01*
X149063428Y-95995577D01*
X149098929Y-96093844D01*
X149234771Y-96268949D01*
X149606498Y-96588719D01*
X150065651Y-96798067D01*
X150520779Y-96868875D01*
X150746634Y-96861421D01*
X150850465Y-96814340D01*
X150879428Y-96695244D01*
X150880613Y-96621731D01*
X150849291Y-96437669D01*
X150776747Y-96311473D01*
X150695112Y-96280836D01*
X150646098Y-96346611D01*
X150571434Y-96481681D01*
X150459926Y-96634491D01*
X150306596Y-96823846D01*
X150064479Y-96423005D01*
X149898145Y-96187029D01*
X149762361Y-96070345D01*
X149710354Y-96065146D01*
X149551049Y-96062944D01*
X149430709Y-96018411D01*
X149236329Y-95956386D01*
X149128003Y-95955214D01*
X149063428Y-95995577D01*
X148616145Y-95995577D01*
X148694134Y-95912081D01*
X148834845Y-95811462D01*
X149059307Y-95678155D01*
X149211388Y-95639389D01*
X149348760Y-95681261D01*
X149356953Y-95685583D01*
X149509927Y-95747150D01*
X149577835Y-95746401D01*
X149540761Y-95676132D01*
X149391910Y-95540423D01*
X149162968Y-95363791D01*
X148885619Y-95170756D01*
X148606272Y-94994577D01*
X148228324Y-94769420D01*
X147998219Y-94939544D01*
X147683745Y-95075354D01*
X147317129Y-95090223D01*
X146953566Y-94994175D01*
X146648252Y-94797237D01*
X146542266Y-94675099D01*
X146459121Y-94588822D01*
X146731946Y-94588822D01*
X146803218Y-94676338D01*
X146976255Y-94780149D01*
X147189885Y-94870441D01*
X147382937Y-94917402D01*
X147409279Y-94918931D01*
X147592312Y-94899293D01*
X147726779Y-94870037D01*
X147888651Y-94787676D01*
X147897638Y-94687884D01*
X147764395Y-94597141D01*
X147599779Y-94554411D01*
X147238712Y-94510557D01*
X146952652Y-94506240D01*
X146774656Y-94540147D01*
X146731946Y-94588822D01*
X146459121Y-94588822D01*
X146445512Y-94574700D01*
X146312670Y-94549371D01*
X146082224Y-94587965D01*
X146072937Y-94590044D01*
X145789303Y-94665769D01*
X145499370Y-94762023D01*
X145248341Y-94861330D01*
X145081418Y-94946214D01*
X145038613Y-94989928D01*
X144490753Y-94989928D01*
X144667733Y-94874989D01*
X145014281Y-94686678D01*
X145234043Y-94581160D01*
X145477945Y-94461541D01*
X145629564Y-94373654D01*
X145658925Y-94335071D01*
X145654620Y-94334620D01*
X145526210Y-94255006D01*
X145413721Y-94064882D01*
X145345493Y-93837750D01*
X145576621Y-93837750D01*
X145693701Y-94058379D01*
X145913938Y-94200083D01*
X146216035Y-94245804D01*
X146578696Y-94178483D01*
X146804483Y-94082923D01*
X147001652Y-93967011D01*
X147169219Y-93843560D01*
X147282176Y-93737337D01*
X147315514Y-93673109D01*
X147244225Y-93675644D01*
X147197613Y-93693585D01*
X146999865Y-93751787D01*
X146739771Y-93799221D01*
X146706551Y-93803400D01*
X146377992Y-93784982D01*
X146163571Y-93643518D01*
X146070001Y-93385278D01*
X146071056Y-93209809D01*
X146070795Y-92991469D01*
X146011887Y-92928809D01*
X145891866Y-93021965D01*
X145737113Y-93227949D01*
X145583993Y-93555254D01*
X145576621Y-93837750D01*
X145345493Y-93837750D01*
X145341027Y-93822883D01*
X145332005Y-93587644D01*
X145337684Y-93556266D01*
X145478724Y-93237513D01*
X145729607Y-92937080D01*
X146035424Y-92712414D01*
X146213183Y-92640299D01*
X146596888Y-92603421D01*
X146973943Y-92680251D01*
X147301078Y-92850989D01*
X147535024Y-93095836D01*
X147615832Y-93282167D01*
X147605364Y-93576947D01*
X147436109Y-93875136D01*
X147266692Y-94043651D01*
X147055390Y-94222233D01*
X147507501Y-94281392D01*
X147983557Y-94404930D01*
X148506979Y-94641494D01*
X149033390Y-94961782D01*
X149518414Y-95336495D01*
X149917675Y-95736329D01*
X150114539Y-96002776D01*
X150344620Y-96372435D01*
X150676116Y-95796085D01*
X150711635Y-95743667D01*
X151056116Y-95743667D01*
X151118854Y-95771903D01*
X151286066Y-95680966D01*
X151325113Y-95652208D01*
X151441845Y-95482457D01*
X151470234Y-95337401D01*
X151462384Y-95213964D01*
X151423085Y-95203635D01*
X151320707Y-95314149D01*
X151258988Y-95389068D01*
X151101584Y-95611106D01*
X151056116Y-95743667D01*
X150711635Y-95743667D01*
X151129459Y-95127046D01*
X151160539Y-95095539D01*
X151430946Y-95095539D01*
X151928314Y-94882470D01*
X152206302Y-94770931D01*
X152432209Y-94693802D01*
X152543963Y-94669401D01*
X152662891Y-94738718D01*
X152758685Y-94881068D01*
X152860334Y-95024690D01*
X152972591Y-95092661D01*
X153049735Y-95074660D01*
X153046047Y-94960368D01*
X153040011Y-94944568D01*
X152965939Y-94753282D01*
X152895670Y-94563568D01*
X152808912Y-94415401D01*
X153123471Y-94415401D01*
X153149395Y-94634901D01*
X153213722Y-94845533D01*
X153293955Y-94984686D01*
X153336414Y-95008068D01*
X153430254Y-94951908D01*
X153547613Y-94838735D01*
X153690429Y-94717348D01*
X153846853Y-94683716D01*
X154052783Y-94743089D01*
X154344114Y-94900718D01*
X154460428Y-94972260D01*
X154756320Y-95175248D01*
X154906040Y-95331947D01*
X154919227Y-95462379D01*
X154805519Y-95586566D01*
X154768541Y-95612321D01*
X154645298Y-95741194D01*
X154642204Y-95923896D01*
X154652119Y-95966890D01*
X154716326Y-96129320D01*
X154836161Y-96184606D01*
X154992983Y-96180324D01*
X155217132Y-96178136D01*
X155343567Y-96246355D01*
X155413876Y-96423009D01*
X155446058Y-96594633D01*
X155502066Y-96798882D01*
X155576333Y-96907609D01*
X155595160Y-96913068D01*
X155729973Y-96953312D01*
X155745225Y-96965792D01*
X155868055Y-96994444D01*
X156106848Y-96986541D01*
X156413603Y-96947841D01*
X156635439Y-96904562D01*
X158101879Y-96904562D01*
X158114291Y-96955401D01*
X158202319Y-96929471D01*
X158395318Y-96863748D01*
X158511134Y-96822741D01*
X158954563Y-96731103D01*
X159220279Y-96741626D01*
X159558946Y-96793170D01*
X159330963Y-96563560D01*
X159167201Y-96419986D01*
X159055197Y-96393713D01*
X158974114Y-96440899D01*
X158861401Y-96494753D01*
X158722194Y-96451797D01*
X158581740Y-96360215D01*
X158397107Y-96257141D01*
X158268226Y-96235983D01*
X158251116Y-96246491D01*
X158205026Y-96353182D01*
X158156594Y-96540885D01*
X158118114Y-96745909D01*
X158101879Y-96904562D01*
X156635439Y-96904562D01*
X156740321Y-96884100D01*
X156789972Y-96870735D01*
X157539762Y-96870735D01*
X157726511Y-96870735D01*
X157895069Y-96820825D01*
X157960923Y-96746528D01*
X157993433Y-96571910D01*
X157926809Y-96523877D01*
X157784825Y-96612536D01*
X157743342Y-96654033D01*
X157539762Y-96870735D01*
X156789972Y-96870735D01*
X156992775Y-96816145D01*
X157321858Y-96665206D01*
X157646894Y-96436673D01*
X157932343Y-96165457D01*
X158087001Y-95960312D01*
X158370117Y-95960312D01*
X158401645Y-96086440D01*
X158518284Y-96173173D01*
X158750206Y-96258942D01*
X158893617Y-96258757D01*
X158923946Y-96209242D01*
X158867947Y-96112605D01*
X158727955Y-95954467D01*
X158669946Y-95897068D01*
X158515902Y-95768787D01*
X158425705Y-95731005D01*
X158415946Y-95747303D01*
X158387293Y-95908695D01*
X158370117Y-95960312D01*
X158087001Y-95960312D01*
X158142669Y-95886471D01*
X158242332Y-95634626D01*
X158245872Y-95585134D01*
X158175765Y-95482530D01*
X157989455Y-95326262D01*
X157721604Y-95139571D01*
X157406873Y-94945697D01*
X157079921Y-94767879D01*
X156896661Y-94680504D01*
X156520376Y-94512473D01*
X156428868Y-94696020D01*
X156260553Y-94874012D01*
X155997003Y-94916222D01*
X155826916Y-94886953D01*
X155682056Y-94816011D01*
X155626889Y-94665647D01*
X155621946Y-94548936D01*
X155621946Y-94530581D01*
X155801843Y-94530581D01*
X155844334Y-94658685D01*
X155974589Y-94736859D01*
X156059436Y-94738839D01*
X156220540Y-94676605D01*
X156276626Y-94611633D01*
X156242209Y-94497314D01*
X156109256Y-94411359D01*
X155948412Y-94389211D01*
X155880213Y-94412764D01*
X155801843Y-94530581D01*
X155621946Y-94530581D01*
X155621946Y-94262363D01*
X154754113Y-94204597D01*
X154339159Y-94182350D01*
X153942794Y-94170388D01*
X153624152Y-94170100D01*
X153505279Y-94175283D01*
X153269264Y-94203112D01*
X153157432Y-94258756D01*
X153124637Y-94370609D01*
X153123471Y-94415401D01*
X152808912Y-94415401D01*
X152797700Y-94396252D01*
X152689290Y-94330735D01*
X152504461Y-94379000D01*
X152241372Y-94504339D01*
X151953606Y-94677562D01*
X151694747Y-94869482D01*
X151684946Y-94877825D01*
X151430946Y-95095539D01*
X151160539Y-95095539D01*
X151635724Y-94613822D01*
X152208183Y-94247603D01*
X152860110Y-94019577D01*
X153490961Y-93927525D01*
X153808133Y-93902065D01*
X153988427Y-93872476D01*
X154064079Y-93826048D01*
X154067326Y-93750072D01*
X154054545Y-93705327D01*
X153969521Y-93357597D01*
X153971999Y-93274439D01*
X154182613Y-93274439D01*
X154258659Y-93533343D01*
X154462198Y-93740991D01*
X154756329Y-93886732D01*
X155104152Y-93959915D01*
X155468766Y-93949889D01*
X155813270Y-93846001D01*
X155931789Y-93779335D01*
X156107074Y-93614793D01*
X156224963Y-93415040D01*
X156252767Y-93241334D01*
X156238877Y-93203835D01*
X156165862Y-93203619D01*
X156100373Y-93269268D01*
X155911334Y-93401105D01*
X155631620Y-93457829D01*
X155325159Y-93433404D01*
X155122683Y-93361586D01*
X154864212Y-93157641D01*
X154752975Y-92901593D01*
X154784878Y-92656236D01*
X154822939Y-92522483D01*
X154766682Y-92514882D01*
X154695970Y-92549867D01*
X154477696Y-92723056D01*
X154293599Y-92963213D01*
X154190727Y-93203935D01*
X154182613Y-93274439D01*
X153971999Y-93274439D01*
X153977430Y-93092159D01*
X154080999Y-92847999D01*
X154093767Y-92827127D01*
X154397671Y-92484280D01*
X154778940Y-92280605D01*
X155208160Y-92223854D01*
X155655915Y-92321778D01*
X155786649Y-92381039D01*
X156155146Y-92633238D01*
X156385364Y-92930596D01*
X156470638Y-93250649D01*
X156404303Y-93570935D01*
X156217399Y-93832974D01*
X156075348Y-94002055D01*
X156050095Y-94100615D01*
X156069232Y-94113333D01*
X156851693Y-94388349D01*
X157588078Y-94764324D01*
X158306266Y-95259023D01*
X159034132Y-95890208D01*
X159358062Y-96209052D01*
X159755345Y-96603972D01*
X160073819Y-96896201D01*
X160345274Y-97111274D01*
X160601497Y-97274727D01*
X160830523Y-97391901D01*
X161346706Y-97599338D01*
X161778630Y-97689247D01*
X162162051Y-97663561D01*
X162532725Y-97524210D01*
X162599277Y-97488071D01*
X163110008Y-97488071D01*
X163127822Y-97644879D01*
X163243931Y-97849014D01*
X163418466Y-98049902D01*
X163611559Y-98196972D01*
X163697356Y-98233111D01*
X164037583Y-98288000D01*
X164387000Y-98280739D01*
X164684384Y-98216953D01*
X164845134Y-98127667D01*
X164975071Y-97960530D01*
X165019946Y-97826344D01*
X164999669Y-97750539D01*
X164917984Y-97788772D01*
X164820420Y-97875329D01*
X164505245Y-98066815D01*
X164150899Y-98116059D01*
X163797943Y-98030204D01*
X163486937Y-97816393D01*
X163326509Y-97612211D01*
X163214890Y-97449772D01*
X163148465Y-97423900D01*
X163110008Y-97488071D01*
X162599277Y-97488071D01*
X162600356Y-97487485D01*
X162892533Y-97265839D01*
G37*
G36*
X157396268Y-95161872D02*
G01*
X157399946Y-95219735D01*
X157355637Y-95332427D01*
X157317936Y-95346735D01*
X157271352Y-95284673D01*
X157284661Y-95219735D01*
X157344757Y-95108333D01*
X157366671Y-95092735D01*
X157396268Y-95161872D01*
G37*
G36*
X146396829Y-91952114D02*
G01*
X146458829Y-92043879D01*
X146411444Y-92116208D01*
X146332601Y-92129401D01*
X146152567Y-92171982D01*
X146087068Y-92215479D01*
X145978985Y-92261976D01*
X145946114Y-92246680D01*
X145924336Y-92129394D01*
X146007145Y-91995756D01*
X146146582Y-91902919D01*
X146244209Y-91891430D01*
X146396829Y-91952114D01*
G37*
G36*
X124162399Y-57972617D02*
G01*
X124279742Y-58172528D01*
X124258028Y-58352396D01*
X124126342Y-58472117D01*
X123913770Y-58491588D01*
X123808446Y-58460661D01*
X123717076Y-58347384D01*
X123712621Y-58167798D01*
X123787095Y-57995832D01*
X123866066Y-57927215D01*
X124036594Y-57890272D01*
X124162399Y-57972617D01*
G37*
G36*
X151952068Y-97110235D02*
G01*
X152039062Y-96998168D01*
X151993219Y-96959528D01*
X151867401Y-96955401D01*
X151687511Y-96922616D01*
X151656587Y-96842519D01*
X151771630Y-96742498D01*
X151896613Y-96688714D01*
X152084341Y-96614544D01*
X152138639Y-96537780D01*
X152086468Y-96401547D01*
X152058102Y-96348079D01*
X152009327Y-96158333D01*
X152078930Y-96060678D01*
X152227981Y-96084542D01*
X152319404Y-96150578D01*
X152438842Y-96244856D01*
X152533790Y-96244686D01*
X152666532Y-96139445D01*
X152728204Y-96080844D01*
X152922226Y-95911078D01*
X153030088Y-95872273D01*
X153075187Y-95966271D01*
X153081946Y-96108735D01*
X153114208Y-96302309D01*
X153220368Y-96362711D01*
X153223446Y-96362735D01*
X153394152Y-96416723D01*
X153521093Y-96504046D01*
X153620813Y-96610319D01*
X153612957Y-96700412D01*
X153492668Y-96841825D01*
X153372683Y-96986763D01*
X153366495Y-97086315D01*
X153449021Y-97194014D01*
X153582324Y-97383912D01*
X153566436Y-97493770D01*
X153401568Y-97523251D01*
X153253322Y-97506080D01*
X153018839Y-97483645D01*
X152864090Y-97536914D01*
X152710646Y-97688759D01*
X152504592Y-97928310D01*
X152398679Y-97695856D01*
X152265403Y-97515799D01*
X152059381Y-97463431D01*
X152052356Y-97463401D01*
X151862649Y-97424535D01*
X151823866Y-97310889D01*
X151899211Y-97188634D01*
X152154551Y-97188634D01*
X152197955Y-97278433D01*
X152267246Y-97294068D01*
X152415149Y-97353815D01*
X152490813Y-97422916D01*
X152582347Y-97500088D01*
X152667572Y-97447206D01*
X152722397Y-97373801D01*
X152868438Y-97245596D01*
X153068031Y-97251302D01*
X153220145Y-97282965D01*
X153226434Y-97242888D01*
X153135178Y-97136777D01*
X153033250Y-97007363D01*
X153054574Y-96928122D01*
X153158643Y-96856062D01*
X153311553Y-96731330D01*
X153301052Y-96647016D01*
X153148917Y-96601456D01*
X152973721Y-96498210D01*
X152910793Y-96362735D01*
X152859698Y-96151068D01*
X152738789Y-96341568D01*
X152615182Y-96484208D01*
X152520305Y-96532068D01*
X152409422Y-96603427D01*
X152325815Y-96765504D01*
X152308838Y-96927850D01*
X152262982Y-97060191D01*
X152237525Y-97081013D01*
X152154551Y-97188634D01*
X151899211Y-97188634D01*
X151937264Y-97126890D01*
X151952068Y-97110235D01*
G37*
G36*
X180324397Y-124274646D02*
G01*
X180338842Y-124295057D01*
X180380393Y-124416160D01*
X180350528Y-124569357D01*
X180236705Y-124789344D01*
X180063856Y-125055828D01*
X179811607Y-125427922D01*
X180056943Y-125372756D01*
X180433518Y-125291243D01*
X180672415Y-125249942D01*
X180800055Y-125247302D01*
X180842862Y-125281772D01*
X180836557Y-125326979D01*
X180706592Y-125475999D01*
X180439626Y-125603120D01*
X180067790Y-125694686D01*
X179923027Y-125715310D01*
X179672509Y-125740739D01*
X179547148Y-125726318D01*
X179503967Y-125652315D01*
X179499828Y-125521028D01*
X179554313Y-125274003D01*
X179667279Y-125064735D01*
X179803300Y-124866341D01*
X179812709Y-124769762D01*
X179693011Y-124761617D01*
X179613907Y-124778737D01*
X179450606Y-124794622D01*
X179417392Y-124738518D01*
X179501808Y-124629847D01*
X179691401Y-124488027D01*
X179864887Y-124387401D01*
X180106516Y-124269272D01*
X180246119Y-124234330D01*
X180324397Y-124274646D01*
G37*
G36*
X137304037Y-97564488D02*
G01*
X137499506Y-97478051D01*
X137572474Y-97479494D01*
X137719306Y-97515291D01*
X137784217Y-97611453D01*
X137799557Y-97819954D01*
X137799613Y-97844401D01*
X137788692Y-98062987D01*
X137729743Y-98165123D01*
X137583486Y-98203465D01*
X137527351Y-98209382D01*
X137330023Y-98206269D01*
X137234469Y-98122150D01*
X137202652Y-98026768D01*
X137198790Y-97866433D01*
X137349224Y-97866433D01*
X137365561Y-98015089D01*
X137496612Y-98056067D01*
X137497391Y-98056068D01*
X137632555Y-98010843D01*
X137672546Y-97849078D01*
X137672613Y-97838193D01*
X137624109Y-97681649D01*
X137516002Y-97643839D01*
X137404395Y-97719864D01*
X137349224Y-97866433D01*
X137198790Y-97866433D01*
X137196238Y-97760486D01*
X137304037Y-97564488D01*
G37*
G36*
X148084966Y-99334739D02*
G01*
X148171279Y-99326068D01*
X148348149Y-99378763D01*
X148395934Y-99508712D01*
X148337534Y-99626110D01*
X148176001Y-99738746D01*
X148030345Y-99706941D01*
X147968396Y-99614761D01*
X147962507Y-99523623D01*
X148114835Y-99523623D01*
X148126457Y-99573958D01*
X148171279Y-99580068D01*
X148240969Y-99549090D01*
X148227724Y-99523623D01*
X148127244Y-99513490D01*
X148114835Y-99523623D01*
X147962507Y-99523623D01*
X147956423Y-99429468D01*
X148084966Y-99334739D01*
G37*
G36*
X159914160Y-71481505D02*
G01*
X159948954Y-71261716D01*
X160013972Y-71068059D01*
X160118621Y-70852806D01*
X160185986Y-70727254D01*
X160538047Y-70203173D01*
X160991401Y-69719851D01*
X161521213Y-69288888D01*
X162102646Y-68921883D01*
X162710867Y-68630435D01*
X163321038Y-68426144D01*
X163908324Y-68320608D01*
X164447890Y-68325428D01*
X164914900Y-68452201D01*
X164984364Y-68486226D01*
X165287404Y-68632486D01*
X165619190Y-68773705D01*
X165687859Y-68800093D01*
X166264085Y-69089276D01*
X166799827Y-69496451D01*
X167252631Y-69983003D01*
X167580043Y-70510318D01*
X167588710Y-70529038D01*
X167703631Y-70905732D01*
X167768755Y-71386182D01*
X167784117Y-71913024D01*
X167749753Y-72428896D01*
X167665699Y-72876432D01*
X167587101Y-73097793D01*
X167227063Y-73684665D01*
X166730536Y-74209900D01*
X166123928Y-74658092D01*
X165433649Y-75013837D01*
X164686111Y-75261727D01*
X163907722Y-75386357D01*
X163644141Y-75397871D01*
X163254156Y-75411358D01*
X163015662Y-75441065D01*
X162911358Y-75489694D01*
X162903308Y-75513568D01*
X162984154Y-75587182D01*
X163221183Y-75618434D01*
X163289120Y-75619401D01*
X163737437Y-75641890D01*
X164105281Y-75723449D01*
X164438526Y-75885220D01*
X164783044Y-76148344D01*
X165110290Y-76458728D01*
X165390996Y-76761697D01*
X165707268Y-77138554D01*
X166041875Y-77564760D01*
X166377585Y-78015777D01*
X166697167Y-78467066D01*
X166983388Y-78894087D01*
X167219018Y-79272302D01*
X167386824Y-79577173D01*
X167469574Y-79784160D01*
X167475279Y-79826587D01*
X167432350Y-79936183D01*
X167321907Y-79921444D01*
X167171472Y-79798189D01*
X167008564Y-79582237D01*
X166986361Y-79545563D01*
X166751262Y-79167482D01*
X166450583Y-78714838D01*
X166112059Y-78226500D01*
X165763427Y-77741335D01*
X165432423Y-77298211D01*
X165146782Y-76935997D01*
X165006893Y-76771634D01*
X164604917Y-76378036D01*
X164211609Y-76125270D01*
X163785097Y-75992553D01*
X163368946Y-75958631D01*
X163023276Y-75946026D01*
X162810921Y-75901173D01*
X162696424Y-75805606D01*
X162644331Y-75640859D01*
X162635752Y-75576793D01*
X162563687Y-75385152D01*
X162434131Y-75288881D01*
X162297250Y-75303172D01*
X162203214Y-75443216D01*
X162202575Y-75445625D01*
X162142775Y-75556089D01*
X162007894Y-75607508D01*
X161772927Y-75619401D01*
X161442054Y-75658404D01*
X161197960Y-75789626D01*
X161174323Y-75809901D01*
X161046086Y-75981409D01*
X160886252Y-76281041D01*
X160708728Y-76673818D01*
X160527421Y-77124759D01*
X160356238Y-77598883D01*
X160209087Y-78061211D01*
X160099874Y-78476762D01*
X160083096Y-78554640D01*
X159999883Y-78932559D01*
X159930316Y-79171178D01*
X159863071Y-79298680D01*
X159786823Y-79343247D01*
X159765616Y-79344735D01*
X159709554Y-79268648D01*
X159688690Y-79066624D01*
X159701441Y-78778014D01*
X159746224Y-78442173D01*
X159814701Y-78123986D01*
X159936643Y-77711398D01*
X160095885Y-77251871D01*
X160276832Y-76782928D01*
X160463892Y-76342089D01*
X160641471Y-75966877D01*
X160793975Y-75694814D01*
X160863346Y-75600676D01*
X161083060Y-75415662D01*
X161360119Y-75322109D01*
X161487859Y-75303733D01*
X161721236Y-75263724D01*
X161865099Y-75212664D01*
X161887279Y-75186483D01*
X161817880Y-75111933D01*
X161638696Y-74994899D01*
X161461054Y-74898269D01*
X160902749Y-74525118D01*
X160425643Y-74024241D01*
X160133337Y-73569126D01*
X160027917Y-73355159D01*
X159959545Y-73162911D01*
X159920315Y-72946136D01*
X159902319Y-72658590D01*
X159897653Y-72254027D01*
X159897613Y-72190401D01*
X159898891Y-71983717D01*
X160213242Y-71983717D01*
X160240165Y-72669666D01*
X160420032Y-73288022D01*
X160747523Y-73831414D01*
X161217317Y-74292468D01*
X161824094Y-74663812D01*
X162282371Y-74851161D01*
X162757973Y-74962991D01*
X163325959Y-75017538D01*
X163918840Y-75013317D01*
X164469124Y-74948842D01*
X164670191Y-74903734D01*
X165382283Y-74647058D01*
X166030427Y-74282402D01*
X166585773Y-73831386D01*
X167019469Y-73315626D01*
X167196367Y-73010829D01*
X167319375Y-72734328D01*
X167391156Y-72483956D01*
X167424572Y-72194275D01*
X167432491Y-71809401D01*
X167389051Y-71218164D01*
X167249728Y-70707004D01*
X166999816Y-70255009D01*
X166624603Y-69841267D01*
X166109382Y-69444868D01*
X165518408Y-69088191D01*
X165069425Y-68854091D01*
X164708745Y-68709119D01*
X164387171Y-68643569D01*
X164055507Y-68647736D01*
X163664557Y-68711913D01*
X163638646Y-68717353D01*
X162779440Y-68982725D01*
X161986686Y-69395301D01*
X161286273Y-69941143D01*
X161187189Y-70037231D01*
X160763203Y-70509609D01*
X160474058Y-70959152D01*
X160298428Y-71428485D01*
X160214986Y-71960232D01*
X160213242Y-71983717D01*
X159898891Y-71983717D01*
X159900181Y-71775157D01*
X159914160Y-71481505D01*
G37*
G36*
X183392138Y-116987625D02*
G01*
X183401079Y-116996001D01*
X183448276Y-117138364D01*
X183380469Y-117283394D01*
X183234624Y-117359067D01*
X183214221Y-117360068D01*
X183079645Y-117296209D01*
X183053946Y-117188077D01*
X183113612Y-117027507D01*
X183248432Y-116948467D01*
X183392138Y-116987625D01*
G37*
G36*
X155464499Y-95562966D02*
G01*
X155537279Y-95600735D01*
X155621566Y-95666713D01*
X155558453Y-95682669D01*
X155537279Y-95682808D01*
X155356060Y-95638503D01*
X155283279Y-95600735D01*
X155198993Y-95534756D01*
X155262106Y-95518800D01*
X155283279Y-95518661D01*
X155464499Y-95562966D01*
G37*
G36*
X158707235Y-98173208D02*
G01*
X158756762Y-98226109D01*
X158813349Y-98375934D01*
X158811444Y-98431776D01*
X158719344Y-98533890D01*
X158600757Y-98502896D01*
X158550602Y-98426488D01*
X158539360Y-98270410D01*
X158606464Y-98171507D01*
X158707235Y-98173208D01*
G37*
G36*
X140803947Y-77552511D02*
G01*
X140923925Y-77745414D01*
X141051634Y-78061416D01*
X141177901Y-78478413D01*
X141276290Y-78891280D01*
X141356324Y-79341090D01*
X141372156Y-79644208D01*
X141323326Y-79810819D01*
X141232883Y-79852735D01*
X141153686Y-79780263D01*
X141091916Y-79619901D01*
X141046900Y-79437140D01*
X140972058Y-79140358D01*
X140880020Y-78779463D01*
X140829481Y-78582735D01*
X140720702Y-78156289D01*
X140651621Y-77865689D01*
X140618904Y-77683005D01*
X140619220Y-77580308D01*
X140649235Y-77529668D01*
X140700875Y-77504815D01*
X140803947Y-77552511D01*
G37*
G36*
X158286144Y-97990311D02*
G01*
X158417979Y-97691995D01*
X158427065Y-97680163D01*
X158600233Y-97533461D01*
X158933085Y-97533461D01*
X158956334Y-97674067D01*
X159029600Y-97932195D01*
X159054241Y-98013735D01*
X159149408Y-98334631D01*
X159239264Y-98649107D01*
X159268255Y-98754568D01*
X159343762Y-98957108D01*
X159425138Y-99066057D01*
X159444268Y-99072068D01*
X159501034Y-99011537D01*
X159491270Y-98958815D01*
X159453368Y-98827280D01*
X159390929Y-98577461D01*
X159315603Y-98256496D01*
X159292481Y-98154482D01*
X159201270Y-97803243D01*
X159126231Y-97599347D01*
X159347279Y-97599347D01*
X159366867Y-97704607D01*
X159416773Y-97920247D01*
X159483712Y-98193025D01*
X159554399Y-98469697D01*
X159615549Y-98697022D01*
X159648969Y-98808426D01*
X159721874Y-98878441D01*
X159823010Y-98824398D01*
X159925146Y-98682228D01*
X160001048Y-98487863D01*
X160024613Y-98312786D01*
X159973521Y-98025649D01*
X159795822Y-97783955D01*
X159787146Y-97775575D01*
X159592992Y-97620223D01*
X159435502Y-97547370D01*
X159352201Y-97572052D01*
X159347279Y-97599347D01*
X159126231Y-97599347D01*
X159113524Y-97564818D01*
X159038974Y-97464883D01*
X159030549Y-97463401D01*
X158958330Y-97475024D01*
X158933085Y-97533461D01*
X158600233Y-97533461D01*
X158718639Y-97433151D01*
X159070537Y-97323786D01*
X159442996Y-97353124D01*
X159796254Y-97522223D01*
X159934276Y-97640091D01*
X160173552Y-97969052D01*
X160245172Y-98313623D01*
X160150611Y-98681118D01*
X160146051Y-98690829D01*
X159916041Y-98993270D01*
X159588829Y-99181306D01*
X159202823Y-99241941D01*
X158796429Y-99162180D01*
X158776314Y-99154294D01*
X158525350Y-98969856D01*
X158351932Y-98680324D01*
X158283872Y-98401204D01*
X158439295Y-98401204D01*
X158558187Y-98703524D01*
X158787086Y-98932912D01*
X158840948Y-98963318D01*
X159012240Y-99041919D01*
X159102519Y-99070820D01*
X159107303Y-98996610D01*
X159073095Y-98799105D01*
X159007073Y-98517923D01*
X158991506Y-98458235D01*
X158887680Y-98067360D01*
X158815564Y-97817823D01*
X158761661Y-97687772D01*
X158712478Y-97655356D01*
X158654520Y-97698725D01*
X158578989Y-97790281D01*
X158442274Y-98079080D01*
X158439295Y-98401204D01*
X158283872Y-98401204D01*
X158268163Y-98336781D01*
X158286144Y-97990311D01*
G37*
G36*
X134932510Y-68795069D02*
G01*
X135175153Y-68591386D01*
X135474473Y-68509391D01*
X135481871Y-68509284D01*
X135696915Y-68577702D01*
X135839058Y-68758790D01*
X135902979Y-69009955D01*
X135883355Y-69288603D01*
X135774862Y-69552140D01*
X135632400Y-69713901D01*
X135402617Y-69830293D01*
X135142803Y-69860934D01*
X134915766Y-69806997D01*
X134796925Y-69698301D01*
X134718167Y-69392321D01*
X134721464Y-69372907D01*
X135047946Y-69372907D01*
X135104770Y-69496203D01*
X135240521Y-69517721D01*
X135403117Y-69442968D01*
X135513581Y-69323664D01*
X135592241Y-69118521D01*
X135571203Y-68942276D01*
X135460670Y-68849747D01*
X135424688Y-68846068D01*
X135286521Y-68916702D01*
X135149416Y-69085029D01*
X135060112Y-69285687D01*
X135047946Y-69372907D01*
X134721464Y-69372907D01*
X134771772Y-69076646D01*
X134932510Y-68795069D01*
G37*
G36*
X175946710Y-122859652D02*
G01*
X175972394Y-122727651D01*
X176026292Y-122661026D01*
X176068813Y-122640070D01*
X176265301Y-122632437D01*
X176355621Y-122667673D01*
X176467441Y-122791118D01*
X176612789Y-123019164D01*
X176763563Y-123298696D01*
X176891662Y-123576594D01*
X176968985Y-123799741D01*
X176977415Y-123843021D01*
X176970603Y-124008553D01*
X176899668Y-124038077D01*
X176788147Y-123940462D01*
X176659575Y-123724577D01*
X176658811Y-123722967D01*
X176549992Y-123507982D01*
X176476513Y-123425578D01*
X176407088Y-123452661D01*
X176361341Y-123503386D01*
X176274702Y-123729835D01*
X176267229Y-124061987D01*
X176278978Y-124330585D01*
X176258323Y-124449149D01*
X176195435Y-124435462D01*
X176110997Y-124344728D01*
X176058812Y-124206069D01*
X176009995Y-123944642D01*
X175972359Y-123606954D01*
X175961989Y-123457537D01*
X175945964Y-123117401D01*
X176195946Y-123117401D01*
X176213020Y-123251975D01*
X176276862Y-123238450D01*
X176297546Y-123219001D01*
X176355551Y-123103788D01*
X176297546Y-123015801D01*
X176221722Y-122974125D01*
X176196564Y-123076650D01*
X176195946Y-123117401D01*
X175945964Y-123117401D01*
X175944742Y-123091468D01*
X175946710Y-122859652D01*
G37*
X150154648Y-87564648D02*
X150154648Y-81664648D01*
X154054648Y-81664648D02*
X152979648Y-81664648D01*
X154054648Y-87564648D02*
X154054648Y-81664648D01*
X157317000Y-121279000D02*
X158787000Y-121279000D01*
X158787000Y-121279000D02*
X158787000Y-118994000D01*
X157317000Y-118994000D02*
X157317000Y-121279000D01*
X151460000Y-130940000D02*
X151460000Y-130320000D01*
X151460000Y-149760000D02*
X151460000Y-149340000D01*
X169700000Y-130320000D02*
X168700000Y-130320000D01*
X169700000Y-149760000D02*
X169700000Y-149340000D01*
X169700000Y-130940000D02*
X169700000Y-130320000D01*
X151460000Y-130320000D02*
X152460000Y-130320000D01*
X169700000Y-149340000D02*
X170080000Y-149340000D01*
X169700000Y-149760000D02*
X151460000Y-149760000D01*
X143740000Y-140290000D02*
X143740000Y-141340000D01*
X142590000Y-140290000D02*
X143740000Y-140290000D01*
X143740000Y-148510000D02*
X143740000Y-147460000D01*
X142590000Y-148510000D02*
X143740000Y-148510000D01*
X140620000Y-147340000D02*
X140620000Y-141460000D01*
X143740000Y-147460000D02*
X144730000Y-147460000D01*
X157580000Y-61290000D02*
X157580000Y-62400000D01*
X154400000Y-66910000D02*
X153575000Y-66910000D01*
X156555000Y-62400000D02*
X156555000Y-62940000D01*
X144465000Y-62940000D02*
X144465000Y-62400000D01*
X147445000Y-66910000D02*
X146620000Y-66910000D01*
X153575000Y-66910000D02*
X153575000Y-68710000D01*
X143440000Y-62400000D02*
X143440000Y-61290000D01*
X143440000Y-61290000D02*
X157580000Y-61290000D01*
X157580000Y-62400000D02*
X156555000Y-62400000D01*
X144465000Y-62400000D02*
X143440000Y-62400000D01*
X167589648Y-87564648D02*
X167589648Y-81664648D01*
X163689648Y-87564648D02*
X163689648Y-81664648D01*
X167589648Y-81664648D02*
X166514648Y-81664648D01*
X177090000Y-135500000D02*
X177090000Y-139260000D01*
X183910000Y-133250000D02*
X183910000Y-139260000D01*
X177090000Y-139260000D02*
X178350000Y-139260000D01*
X183910000Y-139260000D02*
X182650000Y-139260000D01*
X147214648Y-87564648D02*
X147214648Y-81664648D01*
X143314648Y-87564648D02*
X143314648Y-81664648D01*
X147214648Y-81664648D02*
X146139648Y-81664648D01*
X116140000Y-148085000D02*
X116140000Y-135915000D01*
X116990000Y-148085000D02*
X116140000Y-148085000D01*
X120510000Y-135915000D02*
X121360000Y-135915000D01*
X116140000Y-135915000D02*
X116990000Y-135915000D01*
X121360000Y-145760000D02*
X123750000Y-145760000D01*
X121360000Y-148085000D02*
X121360000Y-145760000D01*
X121360000Y-135915000D02*
X121360000Y-138240000D01*
X120510000Y-148085000D02*
X121360000Y-148085000D01*
X144774648Y-79774068D02*
X144774648Y-80055228D01*
X143754648Y-79774068D02*
X143754648Y-80055228D01*
X160387500Y-123588758D02*
X160387500Y-123114242D01*
X161432500Y-123588758D02*
X161432500Y-123114242D01*
X173735000Y-147288748D02*
X173735000Y-147811252D01*
X172265000Y-147288748D02*
X172265000Y-147811252D01*
X152570000Y-115210000D02*
X152570000Y-119990000D01*
X152570000Y-119990000D02*
X151770000Y-120790000D01*
X149430000Y-115210000D02*
X152570000Y-115210000D01*
X151770000Y-120790000D02*
X149430000Y-120790000D01*
X149430000Y-120790000D02*
X149430000Y-115210000D01*
X136618000Y-132081580D02*
X136618000Y-131800420D01*
X137638000Y-132081580D02*
X137638000Y-131800420D01*
X119160000Y-132295563D02*
X119160000Y-129510000D01*
X119160000Y-123704437D02*
X118095563Y-122640000D01*
X119160000Y-132295563D02*
X118095563Y-133360000D01*
X120025000Y-131385000D02*
X120025000Y-130135000D01*
X118095563Y-122640000D02*
X108440000Y-122640000D01*
X108440000Y-133360000D02*
X108440000Y-129510000D01*
X120650000Y-130760000D02*
X119400000Y-130760000D01*
X119160000Y-123704437D02*
X119160000Y-126490000D01*
X118095563Y-133360000D02*
X108440000Y-133360000D01*
X108440000Y-122640000D02*
X108440000Y-126490000D01*
X151514648Y-79774068D02*
X151514648Y-80055228D01*
X150494648Y-79774068D02*
X150494648Y-80055228D01*
X127756000Y-148958000D02*
X136436000Y-148958000D01*
X126036000Y-145388000D02*
X126036000Y-141138000D01*
X127056000Y-141138000D02*
X127056000Y-142738000D01*
X137136000Y-142738000D02*
X135856000Y-142738000D01*
X128336000Y-142738000D02*
X128336000Y-139848000D01*
X126036000Y-141138000D02*
X127056000Y-141138000D01*
X127056000Y-142738000D02*
X128336000Y-142738000D01*
X138156000Y-145388000D02*
X138156000Y-141138000D01*
X138156000Y-141138000D02*
X137136000Y-141138000D01*
X137136000Y-141138000D02*
X137136000Y-142738000D01*
X129238748Y-124235000D02*
X129761252Y-124235000D01*
X129238748Y-122765000D02*
X129761252Y-122765000D01*
X167432500Y-123528758D02*
X167432500Y-123054242D01*
X166387500Y-123528758D02*
X166387500Y-123054242D01*
X151610000Y-122433748D02*
X151610000Y-123856252D01*
X149790000Y-122433748D02*
X149790000Y-123856252D01*
X175945000Y-72940000D02*
X175945000Y-72400000D01*
X175945000Y-72400000D02*
X174920000Y-72400000D01*
X185055000Y-76910000D02*
X185055000Y-78710000D01*
X174920000Y-71290000D02*
X189060000Y-71290000D01*
X185880000Y-76910000D02*
X185055000Y-76910000D01*
X188035000Y-72400000D02*
X188035000Y-72940000D01*
X178925000Y-76910000D02*
X178100000Y-76910000D01*
X174920000Y-72400000D02*
X174920000Y-71290000D01*
X189060000Y-72400000D02*
X188035000Y-72400000D01*
X189060000Y-71290000D02*
X189060000Y-72400000D01*
X125200000Y-71270000D02*
X125200000Y-72380000D01*
X122020000Y-76890000D02*
X121195000Y-76890000D01*
X112085000Y-72380000D02*
X111060000Y-72380000D01*
X125200000Y-72380000D02*
X124175000Y-72380000D01*
X112085000Y-72920000D02*
X112085000Y-72380000D01*
X124175000Y-72380000D02*
X124175000Y-72920000D01*
X121195000Y-76890000D02*
X121195000Y-78690000D01*
X111060000Y-71270000D02*
X125200000Y-71270000D01*
X115065000Y-76890000D02*
X114240000Y-76890000D01*
X111060000Y-72380000D02*
X111060000Y-71270000D01*
X190372500Y-108462742D02*
X190372500Y-108937258D01*
X189327500Y-108462742D02*
X189327500Y-108937258D01*
X138265000Y-131738748D02*
X138265000Y-132261252D01*
X139735000Y-131738748D02*
X139735000Y-132261252D01*
X152965000Y-122238748D02*
X152965000Y-122761252D01*
X154435000Y-122238748D02*
X154435000Y-122761252D01*
X180273420Y-103043000D02*
X180554580Y-103043000D01*
X180273420Y-102023000D02*
X180554580Y-102023000D01*
X184305000Y-105705000D02*
X184305000Y-107990000D01*
X185775000Y-105705000D02*
X184305000Y-105705000D01*
X185775000Y-107990000D02*
X185775000Y-105705000D01*
X178412258Y-144822500D02*
X177937742Y-144822500D01*
X178412258Y-143777500D02*
X177937742Y-143777500D01*
X166175000Y-118901000D02*
X166175000Y-121186000D01*
X166175000Y-121186000D02*
X167645000Y-121186000D01*
X167645000Y-121186000D02*
X167645000Y-118901000D01*
X164250000Y-79559420D02*
X164250000Y-79840580D01*
X165270000Y-79559420D02*
X165270000Y-79840580D01*
X138099648Y-80055228D02*
X138099648Y-79774068D01*
X137079648Y-80055228D02*
X137079648Y-79774068D01*
X125620500Y-133541000D02*
X124970500Y-133541000D01*
X125620500Y-133541000D02*
X127295500Y-133541000D01*
X125620500Y-130421000D02*
X126270500Y-130421000D01*
X125620500Y-130421000D02*
X124970500Y-130421000D01*
X157439500Y-123613758D02*
X157439500Y-123139242D01*
X158484500Y-123613758D02*
X158484500Y-123139242D01*
X126560000Y-123000000D02*
X126560000Y-124950000D01*
X121440000Y-123000000D02*
X121440000Y-124950000D01*
X121440000Y-123000000D02*
X121440000Y-121050000D01*
X126560000Y-123000000D02*
X126560000Y-119550000D01*
X136689648Y-87564648D02*
X136689648Y-81664648D01*
X140589648Y-81664648D02*
X139514648Y-81664648D01*
X140589648Y-87564648D02*
X140589648Y-81664648D01*
X175265000Y-147288748D02*
X175265000Y-147811252D01*
X176735000Y-147288748D02*
X176735000Y-147811252D01*
M02*
