G04 #@! TF.GenerationSoftware,KiCad,Pcbnew,(6.0.5)*
G04 #@! TF.CreationDate,2022-06-24T16:52:39-05:00*
G04 #@! TF.ProjectId,robo_car,726f626f-5f63-4617-922e-6b696361645f,1.0P*
G04 #@! TF.SameCoordinates,Original*
G04 #@! TF.FileFunction,Paste,Top*
G04 #@! TF.FilePolarity,Positive*
%FSLAX46Y46*%
G04 Gerber Fmt 4.6, Leading zero omitted, Abs format (unit mm)*
G04 Created by KiCad (PCBNEW (6.0.5)) date 2022-06-24 16:52:39*
%MOMM*%
%LPD*%
G01*
G04 APERTURE LIST*
G04 Aperture macros list*
%AMRoundRect*
0 Rectangle with rounded corners*
0 $1 Rounding radius*
0 $2 $3 $4 $5 $6 $7 $8 $9 X,Y pos of 4 corners*
0 Add a 4 corners polygon primitive as box body*
4,1,4,$2,$3,$4,$5,$6,$7,$8,$9,$2,$3,0*
0 Add four circle primitives for the rounded corners*
1,1,$1+$1,$2,$3*
1,1,$1+$1,$4,$5*
1,1,$1+$1,$6,$7*
1,1,$1+$1,$8,$9*
0 Add four rect primitives between the rounded corners*
20,1,$1+$1,$2,$3,$4,$5,0*
20,1,$1+$1,$4,$5,$6,$7,0*
20,1,$1+$1,$6,$7,$8,$9,0*
20,1,$1+$1,$8,$9,$2,$3,0*%
G04 Aperture macros list end*
%ADD10RoundRect,0.200000X0.275000X-0.200000X0.275000X0.200000X-0.275000X0.200000X-0.275000X-0.200000X0*%
%ADD11RoundRect,0.225000X-0.250000X0.225000X-0.250000X-0.225000X0.250000X-0.225000X0.250000X0.225000X0*%
%ADD12RoundRect,0.250000X-0.250000X-0.475000X0.250000X-0.475000X0.250000X0.475000X-0.250000X0.475000X0*%
%ADD13RoundRect,0.218750X0.256250X-0.218750X0.256250X0.218750X-0.256250X0.218750X-0.256250X-0.218750X0*%
%ADD14RoundRect,0.218750X-0.256250X0.218750X-0.256250X-0.218750X0.256250X-0.218750X0.256250X0.218750X0*%
%ADD15R,0.850000X1.600000*%
%ADD16RoundRect,0.225000X0.225000X0.250000X-0.225000X0.250000X-0.225000X-0.250000X0.225000X-0.250000X0*%
%ADD17RoundRect,0.250000X1.950000X1.000000X-1.950000X1.000000X-1.950000X-1.000000X1.950000X-1.000000X0*%
%ADD18RoundRect,0.090000X0.685000X-0.210000X0.685000X0.210000X-0.685000X0.210000X-0.685000X-0.210000X0*%
%ADD19R,1.200000X1.500000*%
%ADD20R,2.500000X1.800000*%
%ADD21RoundRect,0.200000X-0.275000X0.200000X-0.275000X-0.200000X0.275000X-0.200000X0.275000X0.200000X0*%
%ADD22RoundRect,0.130000X-2.120000X0.520000X-2.120000X-0.520000X2.120000X-0.520000X2.120000X0.520000X0*%
%ADD23RoundRect,0.180000X-1.770000X0.720000X-1.770000X-0.720000X1.770000X-0.720000X1.770000X0.720000X0*%
%ADD24RoundRect,0.130000X2.120000X-0.520000X2.120000X0.520000X-2.120000X0.520000X-2.120000X-0.520000X0*%
%ADD25RoundRect,0.180000X1.770000X-0.720000X1.770000X0.720000X-1.770000X0.720000X-1.770000X-0.720000X0*%
%ADD26R,2.000000X0.900000*%
%ADD27R,0.900000X2.000000*%
%ADD28RoundRect,0.130000X0.520000X0.520000X-0.520000X0.520000X-0.520000X-0.520000X0.520000X-0.520000X0*%
%ADD29RoundRect,0.150000X0.625000X-0.150000X0.625000X0.150000X-0.625000X0.150000X-0.625000X-0.150000X0*%
%ADD30RoundRect,0.250000X0.650000X-0.350000X0.650000X0.350000X-0.650000X0.350000X-0.650000X-0.350000X0*%
%ADD31R,0.610000X2.000000*%
%ADD32R,2.680000X3.600000*%
%ADD33R,1.500000X2.000000*%
%ADD34R,3.800000X2.000000*%
%ADD35RoundRect,0.250000X2.500000X-0.250000X2.500000X0.250000X-2.500000X0.250000X-2.500000X-0.250000X0*%
%ADD36RoundRect,0.250000X1.250000X-0.550000X1.250000X0.550000X-1.250000X0.550000X-1.250000X-0.550000X0*%
%ADD37RoundRect,0.250000X-0.475000X0.250000X-0.475000X-0.250000X0.475000X-0.250000X0.475000X0.250000X0*%
%ADD38R,1.180000X0.580000*%
%ADD39RoundRect,0.225000X0.250000X-0.225000X0.250000X0.225000X-0.250000X0.225000X-0.250000X-0.225000X0*%
%ADD40R,1.500000X1.200000*%
%ADD41RoundRect,0.250000X-0.250000X-1.500000X0.250000X-1.500000X0.250000X1.500000X-0.250000X1.500000X0*%
%ADD42RoundRect,0.250001X-0.499999X-1.449999X0.499999X-1.449999X0.499999X1.449999X-0.499999X1.449999X0*%
%ADD43RoundRect,0.250000X-0.650000X0.325000X-0.650000X-0.325000X0.650000X-0.325000X0.650000X0.325000X0*%
%ADD44RoundRect,0.205000X-1.845000X1.845000X-1.845000X-1.845000X1.845000X-1.845000X1.845000X1.845000X0*%
%ADD45RoundRect,0.225000X-0.225000X-0.250000X0.225000X-0.250000X0.225000X0.250000X-0.225000X0.250000X0*%
%ADD46RoundRect,0.200000X0.200000X0.275000X-0.200000X0.275000X-0.200000X-0.275000X0.200000X-0.275000X0*%
%ADD47RoundRect,0.150000X0.587500X0.150000X-0.587500X0.150000X-0.587500X-0.150000X0.587500X-0.150000X0*%
%ADD48RoundRect,0.150000X-0.150000X0.825000X-0.150000X-0.825000X0.150000X-0.825000X0.150000X0.825000X0*%
G04 APERTURE END LIST*
D10*
X115000000Y-121000000D03*
X115000000Y-119350000D03*
D11*
X157364648Y-79089648D03*
X157364648Y-80639648D03*
D12*
X128597500Y-120895000D03*
X130497500Y-120895000D03*
D13*
X163910000Y-120488500D03*
X163910000Y-118913500D03*
D12*
X122050000Y-97000000D03*
X123950000Y-97000000D03*
D10*
X163910000Y-124201500D03*
X163910000Y-122551500D03*
D14*
X118000000Y-119425000D03*
X118000000Y-121000000D03*
D12*
X184100000Y-128000000D03*
X186000000Y-128000000D03*
D15*
X157889648Y-86364648D03*
X159639648Y-86364648D03*
X159639648Y-82864648D03*
X157889648Y-82864648D03*
D16*
X185625000Y-130150000D03*
X184075000Y-130150000D03*
D15*
X179389000Y-109873000D03*
X181139000Y-109873000D03*
X181139000Y-106373000D03*
X179389000Y-106373000D03*
D17*
X119000000Y-94000000D03*
X110600000Y-94000000D03*
D18*
X135258000Y-133936000D03*
X135258000Y-132666000D03*
X135258000Y-131396000D03*
X135258000Y-130126000D03*
X129858000Y-130126000D03*
X129858000Y-131396000D03*
X129858000Y-132666000D03*
X129858000Y-133936000D03*
D19*
X188000000Y-107100000D03*
X188000000Y-99400000D03*
D13*
X160910000Y-120488500D03*
X160910000Y-118913500D03*
D20*
X122000000Y-116000000D03*
X118000000Y-116000000D03*
D21*
X185040000Y-102402500D03*
X185040000Y-104052500D03*
D22*
X141250000Y-106950000D03*
X141250000Y-104450000D03*
D23*
X137750000Y-101250000D03*
X137750000Y-110150000D03*
D15*
X151229648Y-86364648D03*
X152979648Y-86364648D03*
X152979648Y-82864648D03*
X151229648Y-82864648D03*
D24*
X183700000Y-90100000D03*
X183700000Y-92600000D03*
D25*
X187200000Y-86900000D03*
X187200000Y-95800000D03*
D13*
X158052000Y-120581500D03*
X158052000Y-119006500D03*
D26*
X169080000Y-148295000D03*
X169080000Y-147025000D03*
X169080000Y-145755000D03*
X169080000Y-144485000D03*
X169080000Y-143215000D03*
X169080000Y-141945000D03*
X169080000Y-140675000D03*
X169080000Y-139405000D03*
X169080000Y-138135000D03*
X169080000Y-136865000D03*
X169080000Y-135595000D03*
X169080000Y-134325000D03*
X169080000Y-133055000D03*
X169080000Y-131785000D03*
D27*
X166295000Y-130785000D03*
X165025000Y-130785000D03*
X163755000Y-130785000D03*
X162485000Y-130785000D03*
X161215000Y-130785000D03*
X159945000Y-130785000D03*
X158675000Y-130785000D03*
X157405000Y-130785000D03*
X156135000Y-130785000D03*
X154865000Y-130785000D03*
D26*
X152080000Y-131785000D03*
X152080000Y-133055000D03*
X152080000Y-134325000D03*
X152080000Y-135595000D03*
X152080000Y-136865000D03*
X152080000Y-138135000D03*
X152080000Y-139405000D03*
X152080000Y-140675000D03*
X152080000Y-141945000D03*
X152080000Y-143215000D03*
X152080000Y-144485000D03*
X152080000Y-145755000D03*
X152080000Y-147025000D03*
X152080000Y-148295000D03*
D28*
X159760000Y-140790000D03*
X163420000Y-140790000D03*
X159750000Y-138960000D03*
X163410000Y-142640000D03*
X161540000Y-140790000D03*
X163410000Y-138960000D03*
X159750000Y-142640000D03*
X161530000Y-138960000D03*
X161530000Y-142640000D03*
D29*
X143955000Y-146900000D03*
X143955000Y-145900000D03*
X143955000Y-144900000D03*
X143955000Y-143900000D03*
X143955000Y-142900000D03*
X143955000Y-141900000D03*
D30*
X141430000Y-140600000D03*
X141430000Y-148200000D03*
D31*
X153010000Y-67800000D03*
X152010000Y-67800000D03*
X151010000Y-67800000D03*
X150010000Y-67800000D03*
X149010000Y-67800000D03*
X148010000Y-67800000D03*
D32*
X145020000Y-65000000D03*
X156000000Y-65000000D03*
D15*
X164764648Y-86364648D03*
X166514648Y-86364648D03*
X166514648Y-82864648D03*
X164764648Y-82864648D03*
D33*
X182800000Y-134200000D03*
D34*
X180500000Y-140500000D03*
D33*
X180500000Y-134200000D03*
X178200000Y-134200000D03*
D15*
X144389648Y-86364648D03*
X146139648Y-86364648D03*
X146139648Y-82864648D03*
X144389648Y-82864648D03*
D35*
X121000000Y-145000000D03*
X121000000Y-143000000D03*
X121000000Y-141000000D03*
X121000000Y-139000000D03*
D36*
X118750000Y-136600000D03*
X118750000Y-147400000D03*
D11*
X144264648Y-79139648D03*
X144264648Y-80689648D03*
D10*
X160910000Y-124176500D03*
X160910000Y-122526500D03*
D37*
X173000000Y-146600000D03*
X173000000Y-148500000D03*
D38*
X153660000Y-120000000D03*
X153660000Y-119000000D03*
X153660000Y-118000000D03*
X153660000Y-117000000D03*
X153660000Y-116000000D03*
X148340000Y-116000000D03*
X148340000Y-117000000D03*
X148340000Y-118000000D03*
X148340000Y-119000000D03*
X148340000Y-120000000D03*
D39*
X137128000Y-132716000D03*
X137128000Y-131166000D03*
D17*
X118000000Y-128000000D03*
X109600000Y-128000000D03*
D11*
X151004648Y-79139648D03*
X151004648Y-80689648D03*
D40*
X178268000Y-147574000D03*
X185968000Y-147574000D03*
D41*
X129096000Y-141598000D03*
X131096000Y-141598000D03*
X133096000Y-141598000D03*
X135096000Y-141598000D03*
D42*
X126746000Y-147348000D03*
X137446000Y-147348000D03*
D12*
X128550000Y-123500000D03*
X130450000Y-123500000D03*
D10*
X166910000Y-124116500D03*
X166910000Y-122466500D03*
D43*
X150700000Y-121670000D03*
X150700000Y-124620000D03*
D44*
X122000000Y-101500000D03*
X122000000Y-111000000D03*
D31*
X184490000Y-77800000D03*
X183490000Y-77800000D03*
X182490000Y-77800000D03*
X181490000Y-77800000D03*
X180490000Y-77800000D03*
X179490000Y-77800000D03*
D32*
X176500000Y-75000000D03*
X187480000Y-75000000D03*
D31*
X120630000Y-77780000D03*
X119630000Y-77780000D03*
X118630000Y-77780000D03*
X117630000Y-77780000D03*
X116630000Y-77780000D03*
X115630000Y-77780000D03*
D32*
X123620000Y-74980000D03*
X112640000Y-74980000D03*
D21*
X189850000Y-107875000D03*
X189850000Y-109525000D03*
D37*
X139000000Y-131050000D03*
X139000000Y-132950000D03*
X153700000Y-121550000D03*
X153700000Y-123450000D03*
D45*
X179639000Y-102533000D03*
X181189000Y-102533000D03*
D14*
X185040000Y-106402500D03*
X185040000Y-107977500D03*
D24*
X161550000Y-105100000D03*
X161550000Y-107600000D03*
D25*
X165050000Y-101900000D03*
X165050000Y-110800000D03*
D46*
X179000000Y-144300000D03*
X177350000Y-144300000D03*
D13*
X166910000Y-120488500D03*
X166910000Y-118913500D03*
D11*
X164760000Y-78925000D03*
X164760000Y-80475000D03*
D39*
X137589648Y-80689648D03*
X137589648Y-79139648D03*
D47*
X126558000Y-132931000D03*
X126558000Y-131031000D03*
X124683000Y-131981000D03*
D10*
X157962000Y-124201500D03*
X157962000Y-122551500D03*
D48*
X125905000Y-120525000D03*
X124635000Y-120525000D03*
X123365000Y-120525000D03*
X122095000Y-120525000D03*
X122095000Y-125475000D03*
X123365000Y-125475000D03*
X124635000Y-125475000D03*
X125905000Y-125475000D03*
D15*
X137764648Y-86364648D03*
X139514648Y-86364648D03*
X139514648Y-82864648D03*
X137764648Y-82864648D03*
D37*
X176000000Y-146600000D03*
X176000000Y-148500000D03*
M02*
