M48
; DRILL file {KiCad (6.0.5)} date Fri Jun 24 16:52:34 2022
; FORMAT={-:-/ absolute / inch / decimal}
; #@! TF.CreationDate,2022-06-24T16:52:34-05:00
; #@! TF.GenerationSoftware,Kicad,Pcbnew,(6.0.5)
; #@! TF.FileFunction,NonPlated,1,2,NPTH
FMAT,2
INCH
; #@! TA.AperFunction,NonPlated,NPTH,ComponentDrill
T1C0.1063
; #@! TA.AperFunction,NonPlated,NPTH,ComponentDrill
T2C0.1260
%
G90
G05
T1
X4.3307Y-4.685
X4.3307Y-5.3937
X7.4803Y-4.685
X7.4803Y-5.3937
T2
X4.1339Y-2.7559
X4.1339Y-3.1496
X4.1339Y-3.5433
X4.1339Y-3.937
X4.3307Y-5.7087
X5.1181Y-2.5591
X5.1181Y-3.0315
X5.1181Y-3.5433
X5.1181Y-4.5276
X5.315Y-2.1654
X5.7087Y-2.1654
X5.9055Y-2.9528
X6.1024Y-2.1654
X6.4961Y-2.1654
X6.6929Y-2.5591
X6.6929Y-3.0315
X6.6929Y-3.5433
X6.6929Y-4.5276
X7.4803Y-5.7087
X7.6772Y-2.7559
X7.6772Y-3.1496
X7.6772Y-3.5433
X7.6772Y-3.937
T0
M30
