M48
; DRILL file {KiCad (6.0.5)} date Fri Jun 24 16:35:55 2022
; FORMAT={-:-/ absolute / inch / decimal}
; #@! TF.CreationDate,2022-06-24T16:35:55-05:00
; #@! TF.GenerationSoftware,Kicad,Pcbnew,(6.0.5)
; #@! TF.FileFunction,Plated,1,2,PTH
FMAT,2
INCH
; #@! TA.AperFunction,Plated,PTH,ViaDrill
T1C0.0157
%
G90
G05
T1
X4.1315Y-5.1917
X4.1376Y-4.5848
X4.143Y-3.5628
X4.1489Y-3.9982
X4.1543Y-5.0815
X4.1591Y-3.0016
X4.161Y-3.1634
X4.1669Y-2.8898
X4.178Y-2.0586
X4.185Y-3.2819
X4.187Y-2.589
X4.187Y-2.6874
X4.187Y-2.7858
X4.2161Y-4.7634
X4.2386Y-4.9894
X4.2417Y-4.9319
X4.2453Y-2.3339
X4.2469Y-5.1236
X4.2579Y-3.3567
X4.2681Y-4.7598
X4.2702Y-4.1147
X4.2713Y-3.6887
X4.2749Y-3.8734
X4.2854Y-2.589
X4.2854Y-2.6874
X4.2854Y-2.7858
X4.3209Y-3.0299
X4.3583Y-3.1992
X4.3583Y-4.4717
X4.3657Y-5.1898
X4.3689Y-1.8776
X4.3713Y-4.8508
X4.3839Y-3.0811
X4.3839Y-3.278
X4.3843Y-4.6976
X4.3854Y-5.137
X4.3945Y-5.2185
X4.3973Y-3.9332
X4.4028Y-2.3339
X4.4039Y-2.8339
X4.4064Y-3.5529
X4.4072Y-3.9887
X4.4441Y-4.7346
X4.448Y-5.1484
X4.4631Y-3.5293
X4.4823Y-3.0811
X4.4823Y-3.1795
X4.4823Y-3.278
X4.5051Y-5.0169
X4.5142Y-5.1496
X4.5312Y-3.5986
X4.5347Y-3.8659
X4.5677Y-5.0843
X4.572Y-4.7346
X4.5807Y-3.0811
X4.5807Y-3.1795
X4.5807Y-3.278
X4.5996Y-2.3339
X4.6Y-4.6799
X4.6154Y-4.6138
X4.6205Y-4.4768
X4.6276Y-2.8898
X4.6319Y-5.135
X4.6319Y-5.1791
X4.6331Y-5.2319
X4.637Y-3.0181
X4.639Y-4.5283
X4.6701Y-3.1016
X4.6709Y-3.6033
X4.6791Y-2.589
X4.6791Y-3.1795
X4.6824Y-3.9387
X4.7008Y-3.2878
X4.7138Y-2.8437
X4.7161Y-2.7795
X4.7256Y-4.7008
X4.7276Y-4.5148
X4.7315Y-1.85
X4.7571Y-2.3339
X4.7579Y-3.2012
X4.7732Y-4.7433
X4.7815Y-2.7169
X4.7815Y-3.3528
X4.8177Y-5.1606
X4.8476Y-4.6148
X4.8496Y-2.9878
X4.8516Y-4.4933
X4.8594Y-3.0413
X4.874Y-2.8429
X4.8898Y-3.1972
X4.8917Y-5.2173
X4.8933Y-2.1882
X4.9009Y-3.6069
X4.9009Y-3.8671
X4.9146Y-4.8122
X4.9157Y-5.1587
X4.9539Y-2.3339
X4.9543Y-2.8429
X4.9724Y-2.713
X4.9744Y-2.9827
X4.9744Y-3.0811
X4.9744Y-3.1795
X4.9744Y-3.278
X4.9876Y-4.7448
X5.0134Y-2.7437
X5.0358Y-2.9008
X5.0382Y-4.4724
X5.0387Y-3.9399
X5.0559Y-5.0752
X5.0614Y-1.8559
X5.0623Y-3.6045
X5.0676Y-4.9248
X5.0728Y-2.9827
X5.0728Y-3.0811
X5.0728Y-3.1795
X5.0728Y-3.278
X5.0756Y-4.6945
X5.1071Y-2.9402
X5.1094Y-5.1224
X5.1114Y-2.3339
X5.115Y-4.7031
X5.1287Y-2.6157
X5.1539Y-4.8756
X5.1602Y-5.1988
X5.1661Y-5.1524
X5.1713Y-2.9827
X5.1713Y-3.0811
X5.1713Y-3.1795
X5.1713Y-3.2752
X5.1776Y-4.5148
X5.1858Y-4.9437
X5.2028Y-2.7268
X5.2126Y-5.2268
X5.222Y-4.9909
X5.2228Y-5.0398
X5.2232Y-4.7937
X5.2252Y-5.1567
X5.2362Y-3.276
X5.2556Y-3.8671
X5.2602Y-4.4909
X5.267Y-3.6069
X5.2697Y-2.9827
X5.3012Y-3.3528
X5.3083Y-2.3339
X5.313Y-2.5929
X5.326Y-5.0374
X5.335Y-2.187
X5.3661Y-3.0398
X5.3681Y-3.1835
X5.3787Y-4.7209
X5.3933Y-4.5752
X5.3984Y-4.6413
X5.4063Y-4.7524
X5.4232Y-5.0417
X5.4265Y-3.6076
X5.4272Y-4.9882
X5.4296Y-3.9411
X5.4331Y-2.7287
X5.435Y-3.1362
X5.4622Y-4.6252
X5.4654Y-3.0772
X5.4657Y-1.8614
X5.4657Y-2.3339
X5.4665Y-2.589
X5.4665Y-2.6874
X5.4665Y-4.8594
X5.4717Y-4.7209
X5.4933Y-4.813
X5.5047Y-2.7567
X5.5213Y-4.5063
X5.5264Y-5.0433
X5.5398Y-4.8472
X5.565Y-2.8843
X5.565Y-3.278
X5.5661Y-3.2047
X5.5858Y-2.965
X5.5894Y-3.3291
X5.602Y-3.8691
X5.613Y-4.7441
X5.6161Y-5.05
X5.6181Y-3.0772
X5.6339Y-2.2602
X5.6343Y-4.8118
X5.6366Y-5.0134
X5.6457Y-3.6202
X5.6583Y-5.2102
X5.6634Y-2.8843
X5.6634Y-2.9827
X5.6634Y-3.1795
X5.6634Y-3.278
X5.6748Y-4.8697
X5.7288Y-3.6281
X5.7406Y-1.9374
X5.7413Y-2.3732
X5.7421Y-4.7717
X5.7429Y-5.2075
X5.7476Y-5.1548
X5.7492Y-4.7264
X5.7504Y-1.9929
X5.752Y-4.8272
X5.7555Y-2.8972
X5.7618Y-2.9827
X5.7618Y-3.1795
X5.7697Y-3.2878
X5.795Y-3.9569
X5.7976Y-4.6437
X5.802Y-4.485
X5.8076Y-3.5521
X5.8248Y-3.2031
X5.8307Y-3.3547
X5.8346Y-4.6602
X5.8441Y-4.8606
X5.8484Y-4.9091
X5.8602Y-2.589
X5.8602Y-2.6874
X5.8728Y-2.0528
X5.8744Y-4.887
X5.8764Y-2.2374
X5.8776Y-1.8114
X5.878Y-5.0717
X5.8791Y-4.6457
X5.8803Y-5.1154
X5.8878Y-3.2012
X5.9099Y-4.049
X5.9111Y-3.5352
X5.9193Y-2.7795
X5.9213Y-4.9878
X5.937Y-3.0575
X5.9429Y-3.1224
X5.9587Y-2.589
X5.9587Y-2.6874
X5.9587Y-2.8843
X5.9626Y-5.0441
X5.9772Y-4.9555
X5.978Y-3.8718
X5.9828Y-3.7194
X5.9866Y-3.3252
X5.9937Y-5.1484
X5.9988Y-1.928
X6.0047Y-2.3634
X6.0063Y-5.1976
X6.0146Y-3.6171
X6.0154Y-3.9628
T0
M30
