%TF.GenerationSoftware,KiCad,Pcbnew,(6.0.5)*%
%TF.CreationDate,2022-06-24T16:36:08-05:00*%
%TF.ProjectId,Big Kahuna Board,42696720-4b61-4687-956e-6120426f6172,rev?*%
%TF.SameCoordinates,Original*%
%TF.FileFunction,Paste,Top*%
%TF.FilePolarity,Positive*%
%FSLAX46Y46*%
G04 Gerber Fmt 4.6, Leading zero omitted, Abs format (unit mm)*
G04 Created by KiCad (PCBNEW (6.0.5)) date 2022-06-24 16:36:08*
%MOMM*%
%LPD*%
G01*
G04 APERTURE LIST*
G04 Aperture macros list*
%AMRoundRect*
0 Rectangle with rounded corners*
0 $1 Rounding radius*
0 $2 $3 $4 $5 $6 $7 $8 $9 X,Y pos of 4 corners*
0 Add a 4 corners polygon primitive as box body*
4,1,4,$2,$3,$4,$5,$6,$7,$8,$9,$2,$3,0*
0 Add four circle primitives for the rounded corners*
1,1,$1+$1,$2,$3*
1,1,$1+$1,$4,$5*
1,1,$1+$1,$6,$7*
1,1,$1+$1,$8,$9*
0 Add four rect primitives between the rounded corners*
20,1,$1+$1,$2,$3,$4,$5,0*
20,1,$1+$1,$4,$5,$6,$7,0*
20,1,$1+$1,$6,$7,$8,$9,0*
20,1,$1+$1,$8,$9,$2,$3,0*%
G04 Aperture macros list end*
%ADD10RoundRect,0.200000X0.275000X-0.200000X0.275000X0.200000X-0.275000X0.200000X-0.275000X-0.200000X0*%
%ADD11R,1.200000X1.500000*%
%ADD12R,2.000000X0.610000*%
%ADD13R,3.600000X2.680000*%
%ADD14RoundRect,0.200000X-0.275000X0.200000X-0.275000X-0.200000X0.275000X-0.200000X0.275000X0.200000X0*%
%ADD15RoundRect,0.200000X-0.200000X-0.275000X0.200000X-0.275000X0.200000X0.275000X-0.200000X0.275000X0*%
%ADD16RoundRect,0.197500X-0.197500X-0.632500X0.197500X-0.632500X0.197500X0.632500X-0.197500X0.632500X0*%
%ADD17R,0.610000X2.000000*%
%ADD18R,2.680000X3.600000*%
%ADD19RoundRect,0.250000X-1.250000X0.550000X-1.250000X-0.550000X1.250000X-0.550000X1.250000X0.550000X0*%
%ADD20RoundRect,0.250000X-2.500000X0.250000X-2.500000X-0.250000X2.500000X-0.250000X2.500000X0.250000X0*%
%ADD21R,1.800000X2.500000*%
%ADD22RoundRect,0.250000X1.750000X1.000000X-1.750000X1.000000X-1.750000X-1.000000X1.750000X-1.000000X0*%
%ADD23RoundRect,0.130000X2.120000X-0.520000X2.120000X0.520000X-2.120000X0.520000X-2.120000X-0.520000X0*%
%ADD24RoundRect,0.180000X1.770000X-0.720000X1.770000X0.720000X-1.770000X0.720000X-1.770000X-0.720000X0*%
%ADD25RoundRect,0.130000X-2.120000X0.520000X-2.120000X-0.520000X2.120000X-0.520000X2.120000X0.520000X0*%
%ADD26RoundRect,0.180000X-1.770000X0.720000X-1.770000X-0.720000X1.770000X-0.720000X1.770000X0.720000X0*%
%ADD27R,2.500000X1.800000*%
%ADD28RoundRect,0.218750X-0.218750X-0.256250X0.218750X-0.256250X0.218750X0.256250X-0.218750X0.256250X0*%
%ADD29RoundRect,0.218750X0.218750X0.256250X-0.218750X0.256250X-0.218750X-0.256250X0.218750X-0.256250X0*%
%ADD30R,3.150000X1.000000*%
%ADD31RoundRect,0.150000X0.587500X0.150000X-0.587500X0.150000X-0.587500X-0.150000X0.587500X-0.150000X0*%
%ADD32RoundRect,0.150000X-0.587500X-0.150000X0.587500X-0.150000X0.587500X0.150000X-0.587500X0.150000X0*%
G04 APERTURE END LIST*
D10*
%TO.C,R4*%
X112830000Y-51280000D03*
X112830000Y-49630000D03*
%TD*%
%TO.C,R11*%
X130830000Y-51280000D03*
X130830000Y-49630000D03*
%TD*%
%TO.C,R14*%
X139830000Y-51280000D03*
X139830000Y-49630000D03*
%TD*%
D11*
%TO.C,SW4*%
X136830000Y-51580000D03*
X136830000Y-59280000D03*
%TD*%
%TO.C,SW3*%
X127830000Y-51430000D03*
X127830000Y-59130000D03*
%TD*%
D12*
%TO.C,J9*%
X146420000Y-57140000D03*
X146420000Y-56140000D03*
X146420000Y-55140000D03*
X146420000Y-54140000D03*
X146420000Y-53140000D03*
X146420000Y-52140000D03*
D13*
X149220000Y-60130000D03*
X149220000Y-49150000D03*
%TD*%
D11*
%TO.C,SW1*%
X109830000Y-51430000D03*
X109830000Y-59130000D03*
%TD*%
%TO.C,SW2*%
X118830000Y-51430000D03*
X118830000Y-59130000D03*
%TD*%
D10*
%TO.C,R7*%
X121830000Y-51280000D03*
X121830000Y-49630000D03*
%TD*%
D14*
%TO.C,R12*%
X107950000Y-75535000D03*
X107950000Y-77185000D03*
%TD*%
D15*
%TO.C,R3*%
X138020000Y-76730000D03*
X139670000Y-76730000D03*
%TD*%
D16*
%TO.C,U3*%
X121283333Y-79260000D03*
X121283333Y-83260000D03*
X123083333Y-83260000D03*
X123083333Y-79260000D03*
%TD*%
D15*
%TO.C,R8*%
X148100000Y-74560000D03*
X149750000Y-74560000D03*
%TD*%
%TO.C,R13*%
X107925000Y-73710000D03*
X109575000Y-73710000D03*
%TD*%
%TO.C,R9*%
X119410000Y-76730000D03*
X121060000Y-76730000D03*
%TD*%
D16*
%TO.C,U4*%
X107950000Y-79260000D03*
X107950000Y-83260000D03*
X109750000Y-83260000D03*
X109750000Y-79260000D03*
%TD*%
D17*
%TO.C,J9*%
X131922000Y-71746000D03*
X130922000Y-71746000D03*
X129922000Y-71746000D03*
X128922000Y-71746000D03*
X127922000Y-71746000D03*
X126922000Y-71746000D03*
D18*
X134912000Y-68946000D03*
X123932000Y-68946000D03*
%TD*%
D15*
%TO.C,R10*%
X119430000Y-74560000D03*
X121080000Y-74560000D03*
%TD*%
%TO.C,R5*%
X138020000Y-74670000D03*
X139670000Y-74670000D03*
%TD*%
%TO.C,R6*%
X148105000Y-76380000D03*
X149755000Y-76380000D03*
%TD*%
D16*
%TO.C,U2*%
X147950000Y-79260000D03*
X147950000Y-83260000D03*
X149750000Y-83260000D03*
X149750000Y-79260000D03*
%TD*%
%TO.C,U1*%
X134616666Y-79260000D03*
X134616666Y-83260000D03*
X136416666Y-83260000D03*
X136416666Y-79260000D03*
%TD*%
D19*
%TO.C,J7*%
X131172000Y-100644000D03*
X131172000Y-91844000D03*
D20*
X128922000Y-98244000D03*
X128922000Y-96244000D03*
X128922000Y-94244000D03*
%TD*%
D19*
%TO.C,J8*%
X121672000Y-91844000D03*
X121672000Y-100644000D03*
D20*
X119422000Y-98244000D03*
X119422000Y-96244000D03*
X119422000Y-94244000D03*
%TD*%
D19*
%TO.C,J5*%
X140672000Y-91844000D03*
X140672000Y-100644000D03*
D20*
X138422000Y-98244000D03*
X138422000Y-96244000D03*
X138422000Y-94244000D03*
%TD*%
D13*
%TO.C,J9*%
X108532000Y-101374000D03*
X108532000Y-90394000D03*
D12*
X111332000Y-98384000D03*
X111332000Y-97384000D03*
X111332000Y-96384000D03*
X111332000Y-95384000D03*
X111332000Y-94384000D03*
X111332000Y-93384000D03*
%TD*%
D19*
%TO.C,J2*%
X150172000Y-91844000D03*
X150172000Y-100644000D03*
D20*
X147922000Y-98244000D03*
X147922000Y-96244000D03*
X147922000Y-94244000D03*
%TD*%
D21*
%TO.C,D2*%
X107126000Y-118486000D03*
X107126000Y-114486000D03*
%TD*%
D15*
%TO.C,R2*%
X148528000Y-116454000D03*
X150178000Y-116454000D03*
%TD*%
D10*
%TO.C,R3*%
X119064000Y-132519000D03*
X119064000Y-130869000D03*
%TD*%
D22*
%TO.C,C1*%
X126160000Y-117290000D03*
X120060000Y-117290000D03*
%TD*%
D23*
%TO.C,J6*%
X133460000Y-116450000D03*
X133460000Y-118950000D03*
D24*
X136960000Y-122150000D03*
X136960000Y-113250000D03*
%TD*%
D25*
%TO.C,J1*%
X111379742Y-128680000D03*
X111379742Y-126180000D03*
D26*
X107879742Y-131880000D03*
X107879742Y-122980000D03*
%TD*%
D15*
%TO.C,R4*%
X148719000Y-114168000D03*
X150369000Y-114168000D03*
%TD*%
D27*
%TO.C,D4*%
X122366000Y-123566000D03*
X118366000Y-123566000D03*
%TD*%
D28*
%TO.C,D1*%
X112917000Y-132456000D03*
X114492000Y-132456000D03*
%TD*%
D29*
%TO.C,D3*%
X122417000Y-132456000D03*
X120842000Y-132456000D03*
%TD*%
D10*
%TO.C,R1*%
X116270000Y-132519000D03*
X116270000Y-130869000D03*
%TD*%
D12*
%TO.C,J9*%
X146460000Y-129130000D03*
X146460000Y-128130000D03*
X146460000Y-127130000D03*
X146460000Y-126130000D03*
X146460000Y-125130000D03*
X146460000Y-124130000D03*
D13*
X149260000Y-132120000D03*
X149260000Y-121140000D03*
%TD*%
D30*
%TO.C,J4*%
X140365000Y-131860000D03*
X135315000Y-131860000D03*
X140365000Y-129320000D03*
X135315000Y-129320000D03*
X140365000Y-126780000D03*
X135315000Y-126780000D03*
%TD*%
D23*
%TO.C,J2*%
X124340000Y-126400000D03*
X124340000Y-128900000D03*
D24*
X127840000Y-123200000D03*
X127840000Y-132100000D03*
%TD*%
D31*
%TO.C,Q1*%
X114413500Y-122484000D03*
X114413500Y-120584000D03*
X112538500Y-121534000D03*
%TD*%
D32*
%TO.C,Q2*%
X118048000Y-127000000D03*
X118048000Y-128900000D03*
X119923000Y-127950000D03*
%TD*%
M02*
