M48
; DRILL file {KiCad (6.0.5)} date Fri Jun 24 16:52:34 2022
; FORMAT={-:-/ absolute / inch / decimal}
; #@! TF.CreationDate,2022-06-24T16:52:34-05:00
; #@! TF.GenerationSoftware,Kicad,Pcbnew,(6.0.5)
; #@! TF.FileFunction,Plated,1,2,PTH
FMAT,2
INCH
; #@! TA.AperFunction,Plated,PTH,ComponentDrill
T1C0.0079
; #@! TA.AperFunction,Plated,PTH,ViaDrill
T2C0.0157
%
G90
G05
T1
X6.285Y-5.5799
X6.2854Y-5.5067
X6.324Y-5.4697
X6.324Y-5.6146
X6.3244Y-5.5417
X6.3591Y-5.5799
X6.3594Y-5.5067
X6.3961Y-5.4701
X6.3961Y-5.615
X6.3965Y-5.5421
X6.435Y-5.5807
X6.4354Y-5.5075
T2
X4.1339Y-2.5591
X4.1339Y-2.9528
X4.1339Y-3.3465
X4.1339Y-3.7402
X4.1339Y-4.1339
X4.21Y-3.7
X4.21Y-5.14
X4.22Y-4.93
X4.23Y-3.79
X4.29Y-3.59
X4.31Y-2.95
X4.32Y-4.93
X4.32Y-5.15
X4.3307Y-2.3622
X4.3307Y-2.5591
X4.3307Y-3.1496
X4.3307Y-3.3465
X4.3307Y-3.937
X4.3307Y-4.1339
X4.3307Y-4.3307
X4.3307Y-4.5276
X4.36Y-3.58
X4.36Y-3.81
X4.41Y-4.94
X4.41Y-5.14
X4.43Y-2.82
X4.43Y-3.07
X4.46Y-4.77
X4.46Y-5.03
X4.46Y-5.11
X4.48Y-3.8
X4.49Y-3.07
X4.49Y-3.59
X4.51Y-3.71
X4.52Y-4.87
X4.5276Y-2.1654
X4.5276Y-2.3622
X4.5276Y-2.5591
X4.5276Y-3.937
X4.5276Y-4.1339
X4.5276Y-4.3307
X4.5276Y-4.5276
X4.5276Y-5.7087
X4.54Y-2.93
X4.5433Y-5.5276
X4.5472Y-5.1102
X4.55Y-2.98
X4.55Y-4.58
X4.5591Y-5.5591
X4.563Y-5.1417
X4.57Y-3.28
X4.57Y-5.8
X4.5787Y-5.5276
X4.5827Y-5.1102
X4.59Y-2.82
X4.5984Y-5.1417
X4.5984Y-5.5591
X4.6Y-4.76
X4.6142Y-5.5276
X4.6181Y-5.1102
X4.6378Y-5.1417
X4.64Y-4.47
X4.65Y-3.56
X4.65Y-4.65
X4.6535Y-5.1102
X4.67Y-5.87
X4.6732Y-5.1417
X4.68Y-2.89
X4.68Y-5.29
X4.71Y-2.74
X4.7106Y-5.1142
X4.7244Y-2.1654
X4.7244Y-2.3622
X4.7244Y-2.5591
X4.74Y-2.96
X4.74Y-4.9
X4.75Y-2.82
X4.76Y-3.5
X4.77Y-2.74
X4.77Y-4.19
X4.78Y-5.34
X4.79Y-5.4
X4.79Y-5.8
X4.8Y-3.3
X4.81Y-4.23
X4.81Y-4.85
X4.83Y-5.2
X4.84Y-3.43
X4.84Y-5.09
X4.8583Y-4.6732
X4.86Y-3.08
X4.86Y-4.85
X4.87Y-5.41
X4.88Y-2.82
X4.88Y-3.74
X4.89Y-4.15
X4.91Y-3.66
X4.91Y-4.85
X4.91Y-5.13
X4.91Y-5.25
X4.92Y-5.8
X4.9213Y-2.1654
X4.9213Y-2.3622
X4.9213Y-2.5591
X4.9213Y-3.3465
X4.93Y-5.42
X4.93Y-5.49
X4.94Y-3.82
X4.94Y-5.08
X4.95Y-3.52
X4.95Y-5.57
X4.96Y-4.83
X4.97Y-4.19
X4.9724Y-4.6732
X4.98Y-2.95
X4.98Y-3.74
X4.98Y-3.83
X4.99Y-3.93
X5.0Y-4.87
X5.0Y-5.52
X5.02Y-4.95
X5.03Y-4.37
X5.04Y-2.82
X5.04Y-3.84
X5.05Y-2.74
X5.05Y-3.79
X5.07Y-3.93
X5.07Y-5.8
X5.08Y-5.04
X5.1Y-3.85
X5.1181Y-2.1654
X5.1181Y-2.3622
X5.1181Y-3.248
X5.1181Y-3.3465
X5.13Y-3.89
X5.13Y-4.94
X5.1357Y-5.3331
X5.15Y-3.73
X5.16Y-3.94
X5.1693Y-5.7008
X5.1898Y-5.3343
X5.2Y-4.8
X5.2047Y-5.7008
X5.21Y-5.26
X5.2126Y-2.7776
X5.22Y-4.85
X5.22Y-5.12
X5.22Y-5.19
X5.23Y-2.68
X5.23Y-3.8
X5.23Y-4.75
X5.24Y-5.47
X5.2402Y-5.6654
X5.2402Y-5.7008
X5.25Y-5.22
X5.29Y-4.69
X5.3Y-2.43
X5.3Y-5.44
X5.315Y-2.3622
X5.32Y-2.86
X5.32Y-3.0
X5.32Y-5.02
X5.32Y-5.81
X5.33Y-3.31
X5.33Y-4.84
X5.34Y-3.8
X5.34Y-4.59
X5.35Y-3.42
X5.3504Y-2.7776
X5.36Y-2.67
X5.36Y-3.89
X5.37Y-4.98
X5.38Y-2.5
X5.38Y-4.77
X5.38Y-5.08
X5.38Y-5.45
X5.39Y-2.87
X5.39Y-2.99
X5.39Y-3.79
X5.39Y-5.61
X5.4Y-4.67
X5.41Y-4.06
X5.41Y-5.05
X5.41Y-5.11
X5.41Y-5.3
X5.41Y-5.56
X5.42Y-3.91
X5.42Y-4.24
X5.42Y-4.42
X5.42Y-5.69
X5.43Y-3.05
X5.44Y-4.98
X5.46Y-3.86
X5.47Y-5.3
X5.48Y-4.49
X5.48Y-4.74
X5.48Y-5.05
X5.48Y-5.54
X5.48Y-5.85
X5.49Y-3.47
X5.49Y-4.87
X5.49Y-5.47
X5.49Y-5.73
X5.498Y-5.3831
X5.5Y-5.1
X5.5Y-5.8
X5.5118Y-2.1654
X5.5118Y-2.5591
X5.53Y-4.98
X5.53Y-5.05
X5.5362Y-5.3012
X5.54Y-4.55
X5.55Y-2.31
X5.55Y-2.41
X5.5543Y-5.2213
X5.56Y-3.14
X5.56Y-3.73
X5.56Y-3.82
X5.56Y-3.98
X5.56Y-4.33
X5.56Y-4.83
X5.57Y-3.22
X5.57Y-3.31
X5.57Y-3.41
X5.57Y-4.89
X5.57Y-5.12
X5.57Y-5.37
X5.57Y-5.42
X5.57Y-5.46
X5.57Y-5.59
X5.57Y-5.75
X5.59Y-2.56
X5.59Y-4.61
X5.59Y-5.05
X5.59Y-5.3
X5.6Y-4.98
X5.6Y-5.2
X5.6Y-5.68
X5.61Y-5.24
X5.6102Y-3.6417
X5.62Y-4.88
X5.63Y-5.12
X5.6398Y-4.9311
X5.64Y-5.05
X5.64Y-5.2
X5.64Y-5.37
X5.64Y-5.41
X5.64Y-5.46
X5.65Y-5.3
X5.67Y-4.98
X5.67Y-5.53
X5.67Y-5.85
X5.6787Y-5.1358
X5.68Y-3.05
X5.68Y-4.7
X5.68Y-5.09
X5.68Y-5.23
X5.69Y-4.95
X5.69Y-5.05
X5.69Y-5.18
X5.69Y-5.28
X5.7Y-5.37
X5.7Y-5.42
X5.7Y-5.46
X5.71Y-2.42
X5.71Y-2.68
X5.71Y-2.85
X5.72Y-4.47
X5.72Y-4.54
X5.72Y-4.61
X5.7299Y-5.0819
X5.73Y-5.0146
X5.73Y-5.63
X5.74Y-5.83
X5.74Y-5.87
X5.75Y-3.47
X5.75Y-5.31
X5.75Y-5.36
X5.75Y-5.41
X5.75Y-5.46
X5.75Y-5.51
X5.75Y-5.56
X5.77Y-2.68
X5.78Y-4.64
X5.78Y-5.69
X5.78Y-5.85
X5.7835Y-4.7894
X5.79Y-3.06
X5.8071Y-4.0354
X5.82Y-2.47
X5.82Y-5.87
X5.83Y-2.55
X5.83Y-3.14
X5.83Y-3.21
X5.83Y-3.4
X5.83Y-4.84
X5.83Y-5.74
X5.85Y-5.8
X5.86Y-3.31
X5.87Y-4.84
X5.87Y-5.76
X5.8819Y-5.8465
X5.8929Y-5.02
X5.9Y-5.64
X5.9Y-5.8
X5.9055Y-2.1654
X5.9055Y-3.6417
X5.91Y-4.55
X5.91Y-5.69
X5.9177Y-5.0827
X5.92Y-4.68
X5.92Y-5.23
X5.94Y-2.38
X5.94Y-5.14
X5.95Y-3.73
X5.95Y-3.83
X5.99Y-4.63
X6.0039Y-4.0354
X6.02Y-3.48
X6.02Y-4.93
X6.03Y-2.56
X6.06Y-5.64
X6.06Y-5.68
X6.06Y-5.72
X6.06Y-5.76
X6.07Y-5.8
X6.08Y-2.68
X6.08Y-3.13
X6.08Y-3.22
X6.08Y-5.57
X6.0866Y-5.8465
X6.09Y-3.41
X6.1024Y-2.3622
X6.11Y-4.73
X6.12Y-4.94
X6.13Y-3.3
X6.13Y-4.85
X6.14Y-4.47
X6.15Y-2.41
X6.16Y-2.7
X6.16Y-3.23
X6.16Y-4.73
X6.17Y-4.98
X6.18Y-5.26
X6.18Y-5.36
X6.18Y-5.52
X6.18Y-5.64
X6.19Y-3.05
X6.2Y-4.21
X6.2Y-4.3
X6.2Y-4.43
X6.2Y-5.06
X6.21Y-4.14
X6.21Y-5.79
X6.23Y-2.8
X6.25Y-3.73
X6.25Y-4.53
X6.26Y-3.83
X6.26Y-4.19
X6.26Y-5.26
X6.26Y-5.36
X6.27Y-2.56
X6.27Y-4.49
X6.27Y-5.69
X6.28Y-4.74
X6.28Y-4.84
X6.28Y-5.75
X6.29Y-3.48
X6.2992Y-2.1654
X6.2992Y-2.3622
X6.2992Y-3.6417
X6.3Y-3.14
X6.3Y-4.08
X6.32Y-4.3
X6.35Y-5.07
X6.35Y-5.22
X6.3531Y-4.9488
X6.36Y-3.41
X6.36Y-4.01
X6.36Y-4.53
X6.37Y-4.36
X6.37Y-5.39
X6.37Y-5.68
X6.38Y-3.13
X6.38Y-4.78
X6.39Y-2.73
X6.39Y-2.81
X6.4Y-3.22
X6.4Y-3.41
X6.4193Y-5.7913
X6.42Y-3.33
X6.45Y-5.05
X6.45Y-5.39
X6.46Y-4.52
X6.47Y-4.18
X6.47Y-5.75
X6.49Y-3.04
X6.4929Y-5.2276
X6.4961Y-2.3622
X6.4961Y-2.5591
X6.4961Y-3.6417
X6.5Y-3.93
X6.5Y-4.1
X6.5Y-4.29
X6.5Y-4.45
X6.5Y-5.64
X6.51Y-4.87
X6.51Y-5.47
X6.51Y-5.56
X6.51Y-5.83
X6.52Y-4.75
X6.5327Y-4.9606
X6.55Y-3.74
X6.55Y-3.82
X6.56Y-3.12
X6.56Y-3.48
X6.56Y-4.59
X6.565Y-5.7913
X6.57Y-5.69
X6.57Y-5.87
X6.58Y-5.28
X6.58Y-5.32
X6.58Y-5.38
X6.58Y-5.46
X6.58Y-5.56
X6.58Y-5.61
X6.59Y-4.95
X6.6Y-3.33
X6.611Y-5.0925
X6.62Y-4.37
X6.63Y-4.01
X6.64Y-2.81
X6.64Y-3.4
X6.65Y-2.73
X6.65Y-3.21
X6.67Y-4.68
X6.6929Y-2.1654
X6.6929Y-2.3622
X6.7Y-4.84
X6.7Y-5.11
X6.7012Y-4.91
X6.73Y-3.74
X6.73Y-5.15
X6.74Y-2.89
X6.74Y-3.82
X6.74Y-5.85
X6.761Y-5.0677
X6.7626Y-4.92
X6.77Y-3.2
X6.78Y-2.81
X6.78Y-4.78
X6.8Y-3.13
X6.8Y-3.38
X6.8Y-5.14
X6.81Y-4.35
X6.81Y-4.42
X6.81Y-5.07
X6.8185Y-5.2398
X6.83Y-4.93
X6.8461Y-3.224
X6.8469Y-3.1071
X6.85Y-2.89
X6.86Y-3.92
X6.86Y-4.07
X6.87Y-5.82
X6.87Y-5.88
X6.88Y-3.38
X6.88Y-3.828
X6.88Y-4.88
X6.88Y-4.95
X6.8898Y-2.1654
X6.8898Y-2.3622
X6.8898Y-2.5591
X6.8898Y-2.7559
X6.89Y-4.2606
X6.8913Y-4.1701
X6.91Y-4.87
X6.92Y-5.0
X6.92Y-5.09
X6.92Y-5.16
X6.94Y-3.13
X6.95Y-2.81
X6.95Y-3.07
X6.9508Y-5.7283
X6.97Y-3.29
X6.9894Y-3.0945
X7.01Y-5.86
X7.0138Y-5.7283
X7.0216Y-3.82
X7.05Y-5.2031
X7.06Y-3.92
X7.07Y-2.97
X7.07Y-4.26
X7.07Y-4.53
X7.08Y-4.42
X7.0866Y-2.1654
X7.0866Y-2.3622
X7.0866Y-2.5591
X7.0866Y-2.7559
X7.09Y-4.62
X7.1Y-3.68
X7.1Y-5.67
X7.1059Y-3.2988
X7.12Y-4.99
X7.12Y-5.1
X7.1201Y-3.9787
X7.13Y-2.93
X7.13Y-4.7
X7.1343Y-4.1142
X7.15Y-3.74
X7.15Y-5.38
X7.15Y-5.44
X7.15Y-5.63
X7.18Y-4.43
X7.18Y-5.08
X7.19Y-5.19
X7.19Y-5.37
X7.2Y-3.48
X7.2Y-3.83
X7.2Y-3.9
X7.2Y-4.95
X7.21Y-3.76
X7.21Y-4.83
X7.22Y-2.93
X7.22Y-5.53
X7.24Y-4.47
X7.24Y-5.81
X7.2457Y-4.5874
X7.25Y-3.42
X7.26Y-3.77
X7.2669Y-3.9701
X7.27Y-2.93
X7.28Y-5.19
X7.2835Y-2.1654
X7.2835Y-2.3622
X7.2835Y-2.5591
X7.2835Y-2.7559
X7.2835Y-5.5118
X7.29Y-3.49
X7.29Y-4.66
X7.29Y-4.83
X7.29Y-5.29
X7.2984Y-3.2811
X7.3Y-4.95
X7.31Y-4.52
X7.32Y-5.74
X7.32Y-5.87
X7.33Y-3.92
X7.34Y-3.13
X7.37Y-3.5
X7.37Y-3.84
X7.37Y-5.12
X7.38Y-3.59
X7.38Y-3.63
X7.38Y-3.67
X7.38Y-4.58
X7.39Y-2.82
X7.39Y-5.18
X7.39Y-5.82
X7.4Y-3.07
X7.4Y-5.03
X7.41Y-3.99
X7.41Y-4.43
X7.42Y-3.51
X7.46Y-4.04
X7.46Y-4.15
X7.47Y-3.34
X7.47Y-3.52
X7.47Y-3.61
X7.47Y-3.68
X7.47Y-3.93
X7.48Y-3.42
X7.48Y-3.83
X7.48Y-4.48
X7.4803Y-2.3622
X7.4803Y-2.5591
X7.4803Y-2.7559
X7.4803Y-4.9213
X7.4803Y-5.1181
X7.51Y-2.95
X7.54Y-4.37
X7.55Y-3.34
X7.55Y-3.62
X7.58Y-3.29
X7.58Y-3.75
X7.58Y-3.82
X7.58Y-4.1
X7.58Y-4.18
X7.58Y-4.28
X7.59Y-3.42
X7.6772Y-2.5591
X7.6772Y-2.9528
X7.6772Y-3.3465
X7.6772Y-3.7402
X7.6772Y-4.1339
T0
M30
