M48
; DRILL file {KiCad (6.0.5)} date Fri Jun 24 16:35:55 2022
; FORMAT={-:-/ absolute / inch / decimal}
; #@! TF.CreationDate,2022-06-24T16:35:55-05:00
; #@! TF.GenerationSoftware,Kicad,Pcbnew,(6.0.5)
; #@! TF.FileFunction,NonPlated,1,2,NPTH
FMAT,2
INCH
; #@! TA.AperFunction,NonPlated,NPTH,ComponentDrill
T1C0.0197
; #@! TA.AperFunction,NonPlated,NPTH,ComponentDrill
T2C0.1260
%
G90
G05
T1
X4.2803Y-4.3827
X4.2811Y-2.4933
X4.2827Y-3.4374
X4.3299Y-4.3827
X4.3307Y-2.4933
X4.3323Y-3.4374
X4.3693Y-4.3827
X4.3701Y-2.4933
X4.3717Y-3.4374
X4.4087Y-4.3827
X4.4094Y-2.4933
X4.411Y-3.4374
X4.448Y-4.3827
X4.4488Y-2.4933
X4.4504Y-3.4374
X4.989Y-4.3827
X4.9898Y-2.4933
X4.9913Y-3.4374
X5.0386Y-4.3827
X5.0394Y-2.4933
X5.0409Y-3.4374
X5.078Y-4.3827
X5.0787Y-2.4933
X5.0803Y-3.4374
X5.1173Y-4.3827
X5.1181Y-2.4933
X5.1197Y-3.4374
X5.1567Y-4.3827
X5.1575Y-2.4933
X5.1591Y-3.4374
X5.6976Y-4.3827
X5.6984Y-2.4933
X5.7Y-3.4374
X5.7472Y-4.3827
X5.748Y-2.4933
X5.7496Y-3.4374
X5.7866Y-4.3827
X5.7874Y-2.4933
X5.789Y-3.4374
X5.826Y-4.3827
X5.8268Y-2.4933
X5.8283Y-3.4374
X5.8654Y-4.3827
X5.8661Y-2.4933
X5.8677Y-3.4374
T2
X4.4815Y-1.7433
X4.4823Y-2.6874
X4.4831Y-4.5776
X4.4851Y-4.1828
X5.6626Y-1.7433
X5.6634Y-2.6874
X5.6642Y-4.5776
X5.6662Y-4.1828
T0
M30
