%TF.GenerationSoftware,KiCad,Pcbnew,(6.0.5)*%
%TF.CreationDate,2022-06-24T16:36:08-05:00*%
%TF.ProjectId,Big Kahuna Board,42696720-4b61-4687-956e-6120426f6172,rev?*%
%TF.SameCoordinates,Original*%
%TF.FileFunction,Copper,L2,Bot*%
%TF.FilePolarity,Positive*%
%FSLAX46Y46*%
G04 Gerber Fmt 4.6, Leading zero omitted, Abs format (unit mm)*
G04 Created by KiCad (PCBNEW (6.0.5)) date 2022-06-24 16:36:08*
%MOMM*%
%LPD*%
G01*
G04 APERTURE LIST*
%TA.AperFunction,ViaPad*%
%ADD10C,0.800000*%
%TD*%
%TA.AperFunction,Conductor*%
%ADD11C,0.250000*%
%TD*%
%TA.AperFunction,Conductor*%
%ADD12C,0.200000*%
%TD*%
G04 APERTURE END LIST*
D10*
%TO.N,GND*%
X110970000Y-47690000D03*
X143100000Y-57410000D03*
X149170000Y-52140000D03*
X111830000Y-59280000D03*
X125830000Y-59280000D03*
X152520000Y-60030000D03*
X124290000Y-55580000D03*
X120180000Y-46990000D03*
X135510000Y-55550000D03*
X128560000Y-47140000D03*
X146060000Y-50620000D03*
X138830000Y-59280000D03*
X149290000Y-46010000D03*
X145830000Y-60280000D03*
X138830000Y-47280000D03*
X145810000Y-49210000D03*
X107830000Y-59280000D03*
X120830000Y-59280000D03*
X116830000Y-59280000D03*
X149260000Y-56830000D03*
X106120800Y-52287200D03*
X129830000Y-59280000D03*
X152370000Y-48970000D03*
X134830000Y-59280000D03*
X116350000Y-80760000D03*
X136350000Y-80860000D03*
X125840000Y-72210000D03*
X106350000Y-65760000D03*
X120850000Y-81310000D03*
X126300000Y-68910000D03*
X138050000Y-79660000D03*
X113850000Y-80760000D03*
X127340000Y-69690000D03*
X106300000Y-83360000D03*
X148850000Y-65760000D03*
X151350000Y-73260000D03*
X134950000Y-65860000D03*
X123430000Y-77250000D03*
X128850000Y-78260000D03*
X126350000Y-78260000D03*
X108850000Y-68260000D03*
X117780000Y-76660000D03*
X119790000Y-70600000D03*
X113850000Y-78260000D03*
X146550000Y-83510000D03*
X132150000Y-69260000D03*
X110700000Y-81260000D03*
X105640000Y-76240000D03*
X118850000Y-65760000D03*
X141350000Y-73260000D03*
X146350000Y-75760000D03*
X150350000Y-70600000D03*
X130270000Y-66440000D03*
X138850000Y-65760000D03*
X111860000Y-71980000D03*
X116350000Y-83260000D03*
X124200000Y-81210000D03*
X149550000Y-81310000D03*
X121450000Y-85160000D03*
X108850000Y-65760000D03*
X111350000Y-78260000D03*
X141880000Y-75310000D03*
X126350000Y-83260000D03*
X139820000Y-70020000D03*
X131350000Y-78260000D03*
X134650000Y-85160000D03*
X131350000Y-75760000D03*
X126350000Y-75760000D03*
X147950000Y-81360000D03*
X113850000Y-83260000D03*
X138850000Y-68260000D03*
X116350000Y-78260000D03*
X109750000Y-76960000D03*
X143850000Y-75760000D03*
X126350000Y-80760000D03*
X118620000Y-78780000D03*
X152060000Y-84460000D03*
X141380000Y-81400000D03*
X150950000Y-79310000D03*
X105840000Y-73400000D03*
X133000000Y-83210000D03*
X143850000Y-73260000D03*
X121450000Y-69010000D03*
X146350000Y-80760000D03*
X133850000Y-75760000D03*
X146190000Y-73590000D03*
X106350000Y-68260000D03*
X118850000Y-80760000D03*
X131350000Y-80760000D03*
X119730000Y-72230000D03*
X141350000Y-83260000D03*
X108150000Y-85260000D03*
X123800000Y-72210000D03*
X143850000Y-80760000D03*
X128850000Y-75760000D03*
X150800000Y-77660000D03*
X143850000Y-83260000D03*
X136300000Y-77210000D03*
X105690000Y-80350000D03*
X131350000Y-83190000D03*
X111350000Y-83260000D03*
X119400000Y-83510000D03*
X108850000Y-70760000D03*
X128850000Y-83260000D03*
X128850000Y-80760000D03*
X138000000Y-69310000D03*
X151350000Y-68260000D03*
X148100000Y-85210000D03*
X117540000Y-73400000D03*
X148850000Y-68260000D03*
X106350000Y-70760000D03*
X141970000Y-84560000D03*
X123180000Y-75890000D03*
X151350000Y-65760000D03*
%TO.N,+3V3*%
X129720000Y-74680000D03*
X142700000Y-78160000D03*
X138820000Y-78160000D03*
X127910000Y-73680000D03*
%TO.N,GND*%
X137912000Y-100104000D03*
X108582000Y-98384000D03*
X147192000Y-100504000D03*
X150142000Y-89794000D03*
X152772000Y-91874000D03*
X151842000Y-98344000D03*
X105232000Y-90494000D03*
X115092000Y-91404000D03*
X151962000Y-94474000D03*
X118932000Y-100044000D03*
X124482000Y-98224000D03*
X113362000Y-89644000D03*
X111692000Y-99904000D03*
X108462000Y-104514000D03*
X142292000Y-98274000D03*
X111922000Y-90244000D03*
X137832000Y-91634000D03*
X133492000Y-98224000D03*
X152792000Y-100654000D03*
X147512000Y-90224000D03*
X111942000Y-101314000D03*
X145512000Y-92154000D03*
X118642000Y-91524000D03*
X133782000Y-91614000D03*
X143402000Y-91954000D03*
X127982000Y-100074000D03*
X108492000Y-93694000D03*
X124482000Y-91614000D03*
X115182000Y-98194000D03*
X128582000Y-91554000D03*
X105382000Y-101554000D03*
X150112000Y-102844000D03*
X133610000Y-114070000D03*
X137320000Y-120710000D03*
X122370000Y-131080000D03*
X132720000Y-130980000D03*
X145988000Y-130932000D03*
X112980000Y-130770000D03*
X127970000Y-113600000D03*
X149210000Y-124130000D03*
X135280000Y-127950000D03*
X116020000Y-129140000D03*
X131510000Y-114676000D03*
X148550000Y-124690000D03*
X111390000Y-130480000D03*
X129780000Y-130110000D03*
X110890000Y-131820000D03*
X111620000Y-132550000D03*
X148440000Y-123460000D03*
X152560000Y-132020000D03*
X144140000Y-123690000D03*
X117650000Y-131550000D03*
X146030000Y-120050000D03*
X120030000Y-119400000D03*
X128716000Y-125090000D03*
X149360000Y-129930000D03*
X137120000Y-117890000D03*
X132660000Y-128010000D03*
X116130000Y-120260000D03*
X116840000Y-118870000D03*
X107870000Y-130140000D03*
X124830000Y-122230000D03*
X151820000Y-125870000D03*
X123230000Y-114130000D03*
X146100000Y-122610000D03*
X132670000Y-121760000D03*
X143720000Y-132340000D03*
X117650000Y-130430000D03*
X105094000Y-116454000D03*
X152240000Y-130770000D03*
X150400000Y-126690000D03*
X110700000Y-113580000D03*
X108410000Y-120900000D03*
X149330000Y-118000000D03*
X145870000Y-132270000D03*
X138980000Y-119910000D03*
X147260000Y-117950000D03*
X107740000Y-125270000D03*
X129920000Y-119460000D03*
X130910000Y-123840000D03*
X148200000Y-118370000D03*
X117230000Y-117190000D03*
X112880000Y-120260000D03*
X136990000Y-116210000D03*
X143170000Y-127340000D03*
X132640000Y-126770000D03*
X117830000Y-115020000D03*
X132400000Y-132760000D03*
X147370000Y-113920000D03*
X140370000Y-128100000D03*
X140240000Y-114460000D03*
X142650000Y-128270000D03*
X145850000Y-121200000D03*
X143110000Y-122220000D03*
X124860000Y-131030000D03*
X107090000Y-120990000D03*
X117360000Y-113710000D03*
X140710000Y-123120000D03*
X136620000Y-119910000D03*
X107660000Y-126730000D03*
X137850000Y-126700000D03*
X123128000Y-117216000D03*
X120080000Y-114676000D03*
X149300000Y-128820000D03*
X142570000Y-120500000D03*
X137750000Y-128060000D03*
X131220000Y-130870000D03*
X151450000Y-128120000D03*
X105520000Y-129070000D03*
X111030000Y-123210000D03*
X117680000Y-132890000D03*
X139530000Y-122250000D03*
X104940000Y-131870000D03*
X111360000Y-119320000D03*
X138740000Y-117480000D03*
X124250000Y-132520000D03*
X131070000Y-132050000D03*
X138850000Y-123430000D03*
X128920000Y-119240000D03*
%TO.N,/Thing 1*%
X121240000Y-120480000D03*
X114660000Y-130800000D03*
X126684000Y-120518000D03*
X114430000Y-127430000D03*
%TO.N,/Thing 2*%
X131720000Y-125570000D03*
X128420000Y-128910000D03*
%TD*%
D11*
%TO.N,+3V3*%
X127910000Y-73680000D02*
X127910000Y-73780000D01*
X142700000Y-78160000D02*
X138820000Y-78160000D01*
X127910000Y-73780000D02*
X128810000Y-74680000D01*
X128810000Y-74680000D02*
X129720000Y-74680000D01*
D12*
%TO.N,/Thing 1*%
X114430000Y-127430000D02*
X114410000Y-127450000D01*
X126656000Y-120490000D02*
X121250000Y-120490000D01*
X114410000Y-130550000D02*
X114660000Y-130800000D01*
X121250000Y-120490000D02*
X121240000Y-120480000D01*
X126684000Y-120518000D02*
X126656000Y-120490000D01*
X114410000Y-127450000D02*
X114410000Y-130550000D01*
%TO.N,/Thing 2*%
X131720000Y-125570000D02*
X131720000Y-125640000D01*
X128450000Y-128910000D02*
X128420000Y-128910000D01*
X131720000Y-125640000D02*
X128450000Y-128910000D01*
%TD*%
%TA.AperFunction,Conductor*%
%TO.N,GND*%
G36*
X152110107Y-40789500D02*
G01*
X152124908Y-40791805D01*
X152124911Y-40791805D01*
X152133780Y-40793186D01*
X152142681Y-40792022D01*
X152142688Y-40792022D01*
X152147816Y-40791351D01*
X152174039Y-40790675D01*
X152315062Y-40801774D01*
X152334590Y-40804867D01*
X152380701Y-40815937D01*
X152495657Y-40843536D01*
X152514447Y-40849641D01*
X152667487Y-40913032D01*
X152685100Y-40922007D01*
X152826325Y-41008549D01*
X152842321Y-41020171D01*
X152968274Y-41127745D01*
X152982255Y-41141726D01*
X153089829Y-41267679D01*
X153101451Y-41283675D01*
X153187993Y-41424900D01*
X153196968Y-41442513D01*
X153260359Y-41595553D01*
X153266466Y-41614348D01*
X153305133Y-41775409D01*
X153308226Y-41794937D01*
X153318774Y-41928962D01*
X153318133Y-41945831D01*
X153318305Y-41945833D01*
X153318195Y-41954809D01*
X153316814Y-41963680D01*
X153317978Y-41972582D01*
X153317978Y-41972585D01*
X153320936Y-41995201D01*
X153322000Y-42011539D01*
X153322000Y-60540722D01*
X153320500Y-60560106D01*
X153316814Y-60583780D01*
X153317978Y-60592681D01*
X153317978Y-60592688D01*
X153318649Y-60597816D01*
X153319325Y-60624039D01*
X153308226Y-60765062D01*
X153305133Y-60784590D01*
X153266466Y-60945652D01*
X153260359Y-60964447D01*
X153196969Y-61117485D01*
X153187993Y-61135100D01*
X153101451Y-61276325D01*
X153089829Y-61292321D01*
X152982255Y-61418274D01*
X152968274Y-61432255D01*
X152842321Y-61539829D01*
X152826325Y-61551451D01*
X152685100Y-61637993D01*
X152667487Y-61646968D01*
X152514447Y-61710359D01*
X152495657Y-61716464D01*
X152334591Y-61755133D01*
X152315063Y-61758226D01*
X152181038Y-61768774D01*
X152164169Y-61768133D01*
X152164167Y-61768305D01*
X152155191Y-61768195D01*
X152146320Y-61766814D01*
X152137418Y-61767978D01*
X152137415Y-61767978D01*
X152114799Y-61770936D01*
X152098461Y-61772000D01*
X105569278Y-61772000D01*
X105549893Y-61770500D01*
X105535092Y-61768195D01*
X105535089Y-61768195D01*
X105526220Y-61766814D01*
X105517319Y-61767978D01*
X105517312Y-61767978D01*
X105512184Y-61768649D01*
X105485961Y-61769325D01*
X105344938Y-61758226D01*
X105325410Y-61755133D01*
X105279299Y-61744063D01*
X105164343Y-61716464D01*
X105145553Y-61710359D01*
X104992513Y-61646968D01*
X104974900Y-61637993D01*
X104833675Y-61551451D01*
X104817679Y-61539829D01*
X104691726Y-61432255D01*
X104677745Y-61418274D01*
X104570171Y-61292321D01*
X104558549Y-61276325D01*
X104472007Y-61135100D01*
X104463031Y-61117485D01*
X104399641Y-60964447D01*
X104393534Y-60945652D01*
X104354867Y-60784591D01*
X104351774Y-60765062D01*
X104341507Y-60634601D01*
X104342489Y-60612292D01*
X104341829Y-60612233D01*
X104342263Y-60607391D01*
X104343071Y-60602589D01*
X104343149Y-60596208D01*
X104343165Y-60594909D01*
X104343165Y-60594905D01*
X104343224Y-60590050D01*
X104339273Y-60562462D01*
X104338000Y-60544599D01*
X104338000Y-44412703D01*
X111720743Y-44412703D01*
X111758268Y-44697734D01*
X111834129Y-44975036D01*
X111946923Y-45239476D01*
X112094561Y-45486161D01*
X112274313Y-45710528D01*
X112482851Y-45908423D01*
X112716317Y-46076186D01*
X112720112Y-46078195D01*
X112720113Y-46078196D01*
X112741869Y-46089715D01*
X112970392Y-46210712D01*
X113240373Y-46309511D01*
X113521264Y-46370755D01*
X113549841Y-46373004D01*
X113744282Y-46388307D01*
X113744291Y-46388307D01*
X113746739Y-46388500D01*
X113902271Y-46388500D01*
X113904407Y-46388354D01*
X113904418Y-46388354D01*
X114112548Y-46374165D01*
X114112554Y-46374164D01*
X114116825Y-46373873D01*
X114121020Y-46373004D01*
X114121022Y-46373004D01*
X114257584Y-46344723D01*
X114398342Y-46315574D01*
X114669343Y-46219607D01*
X114924812Y-46087750D01*
X114928313Y-46085289D01*
X114928317Y-46085287D01*
X115042417Y-46005096D01*
X115160023Y-45922441D01*
X115370622Y-45726740D01*
X115552713Y-45504268D01*
X115702927Y-45259142D01*
X115818483Y-44995898D01*
X115897244Y-44719406D01*
X115937751Y-44434784D01*
X115937845Y-44416951D01*
X115937867Y-44412703D01*
X141720743Y-44412703D01*
X141758268Y-44697734D01*
X141834129Y-44975036D01*
X141946923Y-45239476D01*
X142094561Y-45486161D01*
X142274313Y-45710528D01*
X142482851Y-45908423D01*
X142716317Y-46076186D01*
X142720112Y-46078195D01*
X142720113Y-46078196D01*
X142741869Y-46089715D01*
X142970392Y-46210712D01*
X143240373Y-46309511D01*
X143521264Y-46370755D01*
X143549841Y-46373004D01*
X143744282Y-46388307D01*
X143744291Y-46388307D01*
X143746739Y-46388500D01*
X143902271Y-46388500D01*
X143904407Y-46388354D01*
X143904418Y-46388354D01*
X144112548Y-46374165D01*
X144112554Y-46374164D01*
X144116825Y-46373873D01*
X144121020Y-46373004D01*
X144121022Y-46373004D01*
X144257584Y-46344723D01*
X144398342Y-46315574D01*
X144669343Y-46219607D01*
X144924812Y-46087750D01*
X144928313Y-46085289D01*
X144928317Y-46085287D01*
X145042418Y-46005095D01*
X145160023Y-45922441D01*
X145370622Y-45726740D01*
X145552713Y-45504268D01*
X145702927Y-45259142D01*
X145818483Y-44995898D01*
X145897244Y-44719406D01*
X145937751Y-44434784D01*
X145937845Y-44416951D01*
X145939235Y-44151583D01*
X145939235Y-44151576D01*
X145939257Y-44147297D01*
X145901732Y-43862266D01*
X145825871Y-43584964D01*
X145713077Y-43320524D01*
X145565439Y-43073839D01*
X145385687Y-42849472D01*
X145177149Y-42651577D01*
X144943683Y-42483814D01*
X144921843Y-42472250D01*
X144898654Y-42459972D01*
X144689608Y-42349288D01*
X144419627Y-42250489D01*
X144138736Y-42189245D01*
X144107685Y-42186801D01*
X143915718Y-42171693D01*
X143915709Y-42171693D01*
X143913261Y-42171500D01*
X143757729Y-42171500D01*
X143755593Y-42171646D01*
X143755582Y-42171646D01*
X143547452Y-42185835D01*
X143547446Y-42185836D01*
X143543175Y-42186127D01*
X143538980Y-42186996D01*
X143538978Y-42186996D01*
X143402416Y-42215277D01*
X143261658Y-42244426D01*
X142990657Y-42340393D01*
X142735188Y-42472250D01*
X142731687Y-42474711D01*
X142731683Y-42474713D01*
X142721594Y-42481804D01*
X142499977Y-42637559D01*
X142289378Y-42833260D01*
X142107287Y-43055732D01*
X141957073Y-43300858D01*
X141841517Y-43564102D01*
X141762756Y-43840594D01*
X141722249Y-44125216D01*
X141722227Y-44129505D01*
X141722226Y-44129512D01*
X141720765Y-44408417D01*
X141720743Y-44412703D01*
X115937867Y-44412703D01*
X115939235Y-44151583D01*
X115939235Y-44151576D01*
X115939257Y-44147297D01*
X115901732Y-43862266D01*
X115825871Y-43584964D01*
X115713077Y-43320524D01*
X115565439Y-43073839D01*
X115385687Y-42849472D01*
X115177149Y-42651577D01*
X114943683Y-42483814D01*
X114921843Y-42472250D01*
X114898654Y-42459972D01*
X114689608Y-42349288D01*
X114419627Y-42250489D01*
X114138736Y-42189245D01*
X114107685Y-42186801D01*
X113915718Y-42171693D01*
X113915709Y-42171693D01*
X113913261Y-42171500D01*
X113757729Y-42171500D01*
X113755593Y-42171646D01*
X113755582Y-42171646D01*
X113547452Y-42185835D01*
X113547446Y-42185836D01*
X113543175Y-42186127D01*
X113538980Y-42186996D01*
X113538978Y-42186996D01*
X113402416Y-42215277D01*
X113261658Y-42244426D01*
X112990657Y-42340393D01*
X112735188Y-42472250D01*
X112731687Y-42474711D01*
X112731683Y-42474713D01*
X112721594Y-42481804D01*
X112499977Y-42637559D01*
X112289378Y-42833260D01*
X112107287Y-43055732D01*
X111957073Y-43300858D01*
X111841517Y-43564102D01*
X111762756Y-43840594D01*
X111722249Y-44125216D01*
X111722227Y-44129505D01*
X111722226Y-44129512D01*
X111720765Y-44408417D01*
X111720743Y-44412703D01*
X104338000Y-44412703D01*
X104338000Y-42023157D01*
X104339746Y-42002253D01*
X104342264Y-41987285D01*
X104343071Y-41982489D01*
X104343224Y-41969950D01*
X104342535Y-41965138D01*
X104342534Y-41965124D01*
X104341833Y-41960230D01*
X104340949Y-41932488D01*
X104351774Y-41794938D01*
X104354867Y-41775409D01*
X104393534Y-41614348D01*
X104399641Y-41595553D01*
X104463032Y-41442513D01*
X104472007Y-41424900D01*
X104558549Y-41283675D01*
X104570171Y-41267679D01*
X104677745Y-41141726D01*
X104691726Y-41127745D01*
X104817679Y-41020171D01*
X104833675Y-41008549D01*
X104974900Y-40922007D01*
X104992513Y-40913032D01*
X105145553Y-40849641D01*
X105164343Y-40843536D01*
X105325410Y-40804867D01*
X105344937Y-40801774D01*
X105478962Y-40791226D01*
X105495831Y-40791867D01*
X105495833Y-40791695D01*
X105504809Y-40791805D01*
X105513680Y-40793186D01*
X105522582Y-40792022D01*
X105522585Y-40792022D01*
X105545201Y-40789064D01*
X105561539Y-40788000D01*
X152090722Y-40788000D01*
X152110107Y-40789500D01*
G37*
%TD.AperFunction*%
%TD*%
%TA.AperFunction,Conductor*%
%TO.N,GND*%
G36*
X152130065Y-64770001D02*
G01*
X152137623Y-64771178D01*
X152153759Y-64773691D01*
X152167827Y-64771852D01*
X152194047Y-64771178D01*
X152225966Y-64773691D01*
X152334969Y-64782273D01*
X152354495Y-64785366D01*
X152515481Y-64824018D01*
X152534285Y-64830128D01*
X152687240Y-64893487D01*
X152704856Y-64902463D01*
X152846022Y-64988972D01*
X152862016Y-65000593D01*
X152987906Y-65108113D01*
X153001887Y-65122094D01*
X153109407Y-65247984D01*
X153121028Y-65263978D01*
X153207537Y-65405144D01*
X153216513Y-65422760D01*
X153279872Y-65575715D01*
X153285982Y-65594519D01*
X153324634Y-65755505D01*
X153327727Y-65775031D01*
X153338271Y-65908954D01*
X153337630Y-65925841D01*
X153337799Y-65925843D01*
X153337690Y-65934820D01*
X153336309Y-65943689D01*
X153337473Y-65952589D01*
X153337473Y-65952591D01*
X153340436Y-65975243D01*
X153341500Y-65991584D01*
X153341500Y-84520676D01*
X153339999Y-84540065D01*
X153336309Y-84563759D01*
X153337473Y-84572662D01*
X153338148Y-84577825D01*
X153338822Y-84604048D01*
X153327727Y-84744969D01*
X153324634Y-84764495D01*
X153285982Y-84925481D01*
X153279872Y-84944285D01*
X153216513Y-85097240D01*
X153207537Y-85114856D01*
X153121028Y-85256022D01*
X153109407Y-85272016D01*
X153001887Y-85397906D01*
X152987906Y-85411887D01*
X152862016Y-85519407D01*
X152846022Y-85531028D01*
X152704856Y-85617537D01*
X152687240Y-85626513D01*
X152534285Y-85689872D01*
X152515481Y-85695982D01*
X152354495Y-85734634D01*
X152334969Y-85737727D01*
X152286444Y-85741548D01*
X152201046Y-85748271D01*
X152184159Y-85747630D01*
X152184157Y-85747799D01*
X152175180Y-85747690D01*
X152166311Y-85746309D01*
X152157411Y-85747473D01*
X152157409Y-85747473D01*
X152134757Y-85750436D01*
X152118416Y-85751500D01*
X105589324Y-85751500D01*
X105569935Y-85749999D01*
X105555115Y-85747691D01*
X105546241Y-85746309D01*
X105532173Y-85748148D01*
X105505953Y-85748822D01*
X105465189Y-85745613D01*
X105365031Y-85737727D01*
X105345505Y-85734634D01*
X105184519Y-85695982D01*
X105165715Y-85689872D01*
X105012760Y-85626513D01*
X104995144Y-85617537D01*
X104853978Y-85531028D01*
X104837984Y-85519407D01*
X104712094Y-85411887D01*
X104698113Y-85397906D01*
X104590593Y-85272016D01*
X104578972Y-85256022D01*
X104492463Y-85114856D01*
X104483487Y-85097240D01*
X104420128Y-84944285D01*
X104414018Y-84925481D01*
X104375366Y-84764495D01*
X104372273Y-84744969D01*
X104368452Y-84696444D01*
X104361729Y-84611046D01*
X104362370Y-84594159D01*
X104362201Y-84594157D01*
X104362310Y-84585180D01*
X104363691Y-84576311D01*
X104362050Y-84563759D01*
X104359564Y-84544757D01*
X104358500Y-84528416D01*
X104358500Y-78160000D01*
X137906496Y-78160000D01*
X137926458Y-78349928D01*
X137985473Y-78531556D01*
X138080960Y-78696944D01*
X138208747Y-78838866D01*
X138363248Y-78951118D01*
X138369276Y-78953802D01*
X138369278Y-78953803D01*
X138531681Y-79026109D01*
X138537712Y-79028794D01*
X138631112Y-79048647D01*
X138718056Y-79067128D01*
X138718061Y-79067128D01*
X138724513Y-79068500D01*
X138915487Y-79068500D01*
X138921939Y-79067128D01*
X138921944Y-79067128D01*
X139008888Y-79048647D01*
X139102288Y-79028794D01*
X139108319Y-79026109D01*
X139270722Y-78953803D01*
X139270724Y-78953802D01*
X139276752Y-78951118D01*
X139431253Y-78838866D01*
X139435668Y-78833963D01*
X139440580Y-78829540D01*
X139441705Y-78830789D01*
X139495014Y-78797949D01*
X139528200Y-78793500D01*
X141991800Y-78793500D01*
X142059921Y-78813502D01*
X142079147Y-78829843D01*
X142079420Y-78829540D01*
X142084332Y-78833963D01*
X142088747Y-78838866D01*
X142243248Y-78951118D01*
X142249276Y-78953802D01*
X142249278Y-78953803D01*
X142411681Y-79026109D01*
X142417712Y-79028794D01*
X142511112Y-79048647D01*
X142598056Y-79067128D01*
X142598061Y-79067128D01*
X142604513Y-79068500D01*
X142795487Y-79068500D01*
X142801939Y-79067128D01*
X142801944Y-79067128D01*
X142888888Y-79048647D01*
X142982288Y-79028794D01*
X142988319Y-79026109D01*
X143150722Y-78953803D01*
X143150724Y-78953802D01*
X143156752Y-78951118D01*
X143311253Y-78838866D01*
X143439040Y-78696944D01*
X143534527Y-78531556D01*
X143593542Y-78349928D01*
X143613504Y-78160000D01*
X143593542Y-77970072D01*
X143534527Y-77788444D01*
X143439040Y-77623056D01*
X143311253Y-77481134D01*
X143156752Y-77368882D01*
X143150724Y-77366198D01*
X143150722Y-77366197D01*
X142988319Y-77293891D01*
X142988318Y-77293891D01*
X142982288Y-77291206D01*
X142888887Y-77271353D01*
X142801944Y-77252872D01*
X142801939Y-77252872D01*
X142795487Y-77251500D01*
X142604513Y-77251500D01*
X142598061Y-77252872D01*
X142598056Y-77252872D01*
X142511113Y-77271353D01*
X142417712Y-77291206D01*
X142411682Y-77293891D01*
X142411681Y-77293891D01*
X142249278Y-77366197D01*
X142249276Y-77366198D01*
X142243248Y-77368882D01*
X142088747Y-77481134D01*
X142084332Y-77486037D01*
X142079420Y-77490460D01*
X142078295Y-77489211D01*
X142024986Y-77522051D01*
X141991800Y-77526500D01*
X139528200Y-77526500D01*
X139460079Y-77506498D01*
X139440853Y-77490157D01*
X139440580Y-77490460D01*
X139435668Y-77486037D01*
X139431253Y-77481134D01*
X139276752Y-77368882D01*
X139270724Y-77366198D01*
X139270722Y-77366197D01*
X139108319Y-77293891D01*
X139108318Y-77293891D01*
X139102288Y-77291206D01*
X139008887Y-77271353D01*
X138921944Y-77252872D01*
X138921939Y-77252872D01*
X138915487Y-77251500D01*
X138724513Y-77251500D01*
X138718061Y-77252872D01*
X138718056Y-77252872D01*
X138631113Y-77271353D01*
X138537712Y-77291206D01*
X138531682Y-77293891D01*
X138531681Y-77293891D01*
X138369278Y-77366197D01*
X138369276Y-77366198D01*
X138363248Y-77368882D01*
X138208747Y-77481134D01*
X138080960Y-77623056D01*
X137985473Y-77788444D01*
X137926458Y-77970072D01*
X137906496Y-78160000D01*
X104358500Y-78160000D01*
X104358500Y-73680000D01*
X126996496Y-73680000D01*
X126997186Y-73686565D01*
X127007681Y-73786415D01*
X127016458Y-73869928D01*
X127075473Y-74051556D01*
X127170960Y-74216944D01*
X127298747Y-74358866D01*
X127453248Y-74471118D01*
X127459276Y-74473802D01*
X127459278Y-74473803D01*
X127510560Y-74496635D01*
X127627712Y-74548794D01*
X127788273Y-74582922D01*
X127851170Y-74617074D01*
X128306343Y-75072247D01*
X128313887Y-75080537D01*
X128318000Y-75087018D01*
X128323777Y-75092443D01*
X128367667Y-75133658D01*
X128370509Y-75136413D01*
X128390230Y-75156134D01*
X128393425Y-75158612D01*
X128402447Y-75166318D01*
X128434679Y-75196586D01*
X128441628Y-75200406D01*
X128452432Y-75206346D01*
X128468956Y-75217199D01*
X128484959Y-75229613D01*
X128525543Y-75247176D01*
X128536173Y-75252383D01*
X128574940Y-75273695D01*
X128582617Y-75275666D01*
X128582622Y-75275668D01*
X128594558Y-75278732D01*
X128613266Y-75285137D01*
X128631855Y-75293181D01*
X128639683Y-75294421D01*
X128639690Y-75294423D01*
X128675524Y-75300099D01*
X128687144Y-75302505D01*
X128722289Y-75311528D01*
X128729970Y-75313500D01*
X128750224Y-75313500D01*
X128769934Y-75315051D01*
X128789943Y-75318220D01*
X128797835Y-75317474D01*
X128833961Y-75314059D01*
X128845819Y-75313500D01*
X129011800Y-75313500D01*
X129079921Y-75333502D01*
X129099147Y-75349843D01*
X129099420Y-75349540D01*
X129104332Y-75353963D01*
X129108747Y-75358866D01*
X129263248Y-75471118D01*
X129269276Y-75473802D01*
X129269278Y-75473803D01*
X129431681Y-75546109D01*
X129437712Y-75548794D01*
X129531113Y-75568647D01*
X129618056Y-75587128D01*
X129618061Y-75587128D01*
X129624513Y-75588500D01*
X129815487Y-75588500D01*
X129821939Y-75587128D01*
X129821944Y-75587128D01*
X129908887Y-75568647D01*
X130002288Y-75548794D01*
X130008319Y-75546109D01*
X130170722Y-75473803D01*
X130170724Y-75473802D01*
X130176752Y-75471118D01*
X130331253Y-75358866D01*
X130367851Y-75318220D01*
X130454621Y-75221852D01*
X130454622Y-75221851D01*
X130459040Y-75216944D01*
X130534053Y-75087018D01*
X130551223Y-75057279D01*
X130551224Y-75057278D01*
X130554527Y-75051556D01*
X130613542Y-74869928D01*
X130633504Y-74680000D01*
X130613542Y-74490072D01*
X130554527Y-74308444D01*
X130459040Y-74143056D01*
X130331253Y-74001134D01*
X130176752Y-73888882D01*
X130170724Y-73886198D01*
X130170722Y-73886197D01*
X130008319Y-73813891D01*
X130008318Y-73813891D01*
X130002288Y-73811206D01*
X129908888Y-73791353D01*
X129821944Y-73772872D01*
X129821939Y-73772872D01*
X129815487Y-73771500D01*
X129624513Y-73771500D01*
X129618061Y-73772872D01*
X129618056Y-73772872D01*
X129531112Y-73791353D01*
X129437712Y-73811206D01*
X129431682Y-73813891D01*
X129431681Y-73813891D01*
X129269278Y-73886197D01*
X129269276Y-73886198D01*
X129263248Y-73888882D01*
X129148481Y-73972265D01*
X129081617Y-73996122D01*
X129012465Y-73980042D01*
X128985328Y-73959423D01*
X128854817Y-73828912D01*
X128820791Y-73766600D01*
X128818602Y-73726649D01*
X128822814Y-73686568D01*
X128822814Y-73686565D01*
X128823504Y-73680000D01*
X128803542Y-73490072D01*
X128744527Y-73308444D01*
X128649040Y-73143056D01*
X128521253Y-73001134D01*
X128366752Y-72888882D01*
X128360724Y-72886198D01*
X128360722Y-72886197D01*
X128198319Y-72813891D01*
X128198318Y-72813891D01*
X128192288Y-72811206D01*
X128098888Y-72791353D01*
X128011944Y-72772872D01*
X128011939Y-72772872D01*
X128005487Y-72771500D01*
X127814513Y-72771500D01*
X127808061Y-72772872D01*
X127808056Y-72772872D01*
X127721112Y-72791353D01*
X127627712Y-72811206D01*
X127621682Y-72813891D01*
X127621681Y-72813891D01*
X127459278Y-72886197D01*
X127459276Y-72886198D01*
X127453248Y-72888882D01*
X127298747Y-73001134D01*
X127170960Y-73143056D01*
X127075473Y-73308444D01*
X127016458Y-73490072D01*
X126996496Y-73680000D01*
X104358500Y-73680000D01*
X104358500Y-68392703D01*
X111740743Y-68392703D01*
X111778268Y-68677734D01*
X111854129Y-68955036D01*
X111966923Y-69219476D01*
X112114561Y-69466161D01*
X112294313Y-69690528D01*
X112502851Y-69888423D01*
X112736317Y-70056186D01*
X112740112Y-70058195D01*
X112740113Y-70058196D01*
X112761869Y-70069715D01*
X112990392Y-70190712D01*
X113260373Y-70289511D01*
X113541264Y-70350755D01*
X113569841Y-70353004D01*
X113764282Y-70368307D01*
X113764291Y-70368307D01*
X113766739Y-70368500D01*
X113922271Y-70368500D01*
X113924407Y-70368354D01*
X113924418Y-70368354D01*
X114132548Y-70354165D01*
X114132554Y-70354164D01*
X114136825Y-70353873D01*
X114141020Y-70353004D01*
X114141022Y-70353004D01*
X114277584Y-70324723D01*
X114418342Y-70295574D01*
X114689343Y-70199607D01*
X114944812Y-70067750D01*
X114948313Y-70065289D01*
X114948317Y-70065287D01*
X115062417Y-69985096D01*
X115180023Y-69902441D01*
X115390622Y-69706740D01*
X115572713Y-69484268D01*
X115722927Y-69239142D01*
X115838483Y-68975898D01*
X115917244Y-68699406D01*
X115957751Y-68414784D01*
X115957845Y-68396951D01*
X115957867Y-68392703D01*
X141740743Y-68392703D01*
X141778268Y-68677734D01*
X141854129Y-68955036D01*
X141966923Y-69219476D01*
X142114561Y-69466161D01*
X142294313Y-69690528D01*
X142502851Y-69888423D01*
X142736317Y-70056186D01*
X142740112Y-70058195D01*
X142740113Y-70058196D01*
X142761869Y-70069715D01*
X142990392Y-70190712D01*
X143260373Y-70289511D01*
X143541264Y-70350755D01*
X143569841Y-70353004D01*
X143764282Y-70368307D01*
X143764291Y-70368307D01*
X143766739Y-70368500D01*
X143922271Y-70368500D01*
X143924407Y-70368354D01*
X143924418Y-70368354D01*
X144132548Y-70354165D01*
X144132554Y-70354164D01*
X144136825Y-70353873D01*
X144141020Y-70353004D01*
X144141022Y-70353004D01*
X144277584Y-70324723D01*
X144418342Y-70295574D01*
X144689343Y-70199607D01*
X144944812Y-70067750D01*
X144948313Y-70065289D01*
X144948317Y-70065287D01*
X145062418Y-69985095D01*
X145180023Y-69902441D01*
X145390622Y-69706740D01*
X145572713Y-69484268D01*
X145722927Y-69239142D01*
X145838483Y-68975898D01*
X145917244Y-68699406D01*
X145957751Y-68414784D01*
X145957845Y-68396951D01*
X145959235Y-68131583D01*
X145959235Y-68131576D01*
X145959257Y-68127297D01*
X145921732Y-67842266D01*
X145845871Y-67564964D01*
X145733077Y-67300524D01*
X145585439Y-67053839D01*
X145405687Y-66829472D01*
X145197149Y-66631577D01*
X144963683Y-66463814D01*
X144941843Y-66452250D01*
X144918654Y-66439972D01*
X144709608Y-66329288D01*
X144439627Y-66230489D01*
X144158736Y-66169245D01*
X144127685Y-66166801D01*
X143935718Y-66151693D01*
X143935709Y-66151693D01*
X143933261Y-66151500D01*
X143777729Y-66151500D01*
X143775593Y-66151646D01*
X143775582Y-66151646D01*
X143567452Y-66165835D01*
X143567446Y-66165836D01*
X143563175Y-66166127D01*
X143558980Y-66166996D01*
X143558978Y-66166996D01*
X143422416Y-66195277D01*
X143281658Y-66224426D01*
X143010657Y-66320393D01*
X142755188Y-66452250D01*
X142751687Y-66454711D01*
X142751683Y-66454713D01*
X142741594Y-66461804D01*
X142519977Y-66617559D01*
X142309378Y-66813260D01*
X142127287Y-67035732D01*
X141977073Y-67280858D01*
X141861517Y-67544102D01*
X141782756Y-67820594D01*
X141742249Y-68105216D01*
X141742227Y-68109505D01*
X141742226Y-68109512D01*
X141740765Y-68388417D01*
X141740743Y-68392703D01*
X115957867Y-68392703D01*
X115959235Y-68131583D01*
X115959235Y-68131576D01*
X115959257Y-68127297D01*
X115921732Y-67842266D01*
X115845871Y-67564964D01*
X115733077Y-67300524D01*
X115585439Y-67053839D01*
X115405687Y-66829472D01*
X115197149Y-66631577D01*
X114963683Y-66463814D01*
X114941843Y-66452250D01*
X114918654Y-66439972D01*
X114709608Y-66329288D01*
X114439627Y-66230489D01*
X114158736Y-66169245D01*
X114127685Y-66166801D01*
X113935718Y-66151693D01*
X113935709Y-66151693D01*
X113933261Y-66151500D01*
X113777729Y-66151500D01*
X113775593Y-66151646D01*
X113775582Y-66151646D01*
X113567452Y-66165835D01*
X113567446Y-66165836D01*
X113563175Y-66166127D01*
X113558980Y-66166996D01*
X113558978Y-66166996D01*
X113422416Y-66195277D01*
X113281658Y-66224426D01*
X113010657Y-66320393D01*
X112755188Y-66452250D01*
X112751687Y-66454711D01*
X112751683Y-66454713D01*
X112741594Y-66461804D01*
X112519977Y-66617559D01*
X112309378Y-66813260D01*
X112127287Y-67035732D01*
X111977073Y-67280858D01*
X111861517Y-67544102D01*
X111782756Y-67820594D01*
X111742249Y-68105216D01*
X111742227Y-68109505D01*
X111742226Y-68109512D01*
X111740765Y-68388417D01*
X111740743Y-68392703D01*
X104358500Y-68392703D01*
X104358500Y-65999324D01*
X104360001Y-65979935D01*
X104362309Y-65965115D01*
X104363691Y-65956241D01*
X104361852Y-65942173D01*
X104361178Y-65915952D01*
X104372273Y-65775031D01*
X104375366Y-65755505D01*
X104414018Y-65594519D01*
X104420128Y-65575715D01*
X104483487Y-65422760D01*
X104492463Y-65405144D01*
X104578972Y-65263978D01*
X104590593Y-65247984D01*
X104698113Y-65122094D01*
X104712094Y-65108113D01*
X104837984Y-65000593D01*
X104853978Y-64988972D01*
X104995144Y-64902463D01*
X105012760Y-64893487D01*
X105165715Y-64830128D01*
X105184519Y-64824018D01*
X105345505Y-64785366D01*
X105365031Y-64782273D01*
X105413556Y-64778452D01*
X105498954Y-64771729D01*
X105515841Y-64772370D01*
X105515843Y-64772201D01*
X105524820Y-64772310D01*
X105533689Y-64773691D01*
X105542589Y-64772527D01*
X105542591Y-64772527D01*
X105565243Y-64769564D01*
X105581584Y-64768500D01*
X152110676Y-64768500D01*
X152130065Y-64770001D01*
G37*
%TD.AperFunction*%
%TD*%
%TA.AperFunction,Conductor*%
%TO.N,GND*%
G36*
X152202065Y-88754001D02*
G01*
X152209623Y-88755178D01*
X152225759Y-88757691D01*
X152239827Y-88755852D01*
X152266047Y-88755178D01*
X152297966Y-88757691D01*
X152406969Y-88766273D01*
X152426495Y-88769366D01*
X152587481Y-88808018D01*
X152606285Y-88814128D01*
X152759240Y-88877487D01*
X152776856Y-88886463D01*
X152918022Y-88972972D01*
X152934016Y-88984593D01*
X153059906Y-89092113D01*
X153073887Y-89106094D01*
X153181407Y-89231984D01*
X153193028Y-89247978D01*
X153279537Y-89389144D01*
X153288513Y-89406760D01*
X153351872Y-89559715D01*
X153357982Y-89578519D01*
X153396634Y-89739505D01*
X153399727Y-89759031D01*
X153410271Y-89892954D01*
X153409630Y-89909841D01*
X153409799Y-89909843D01*
X153409690Y-89918820D01*
X153408309Y-89927689D01*
X153409473Y-89936589D01*
X153409473Y-89936591D01*
X153412436Y-89959243D01*
X153413500Y-89975584D01*
X153413500Y-108504676D01*
X153411999Y-108524065D01*
X153408309Y-108547759D01*
X153409473Y-108556662D01*
X153410148Y-108561825D01*
X153410822Y-108588048D01*
X153399727Y-108728969D01*
X153396634Y-108748495D01*
X153357982Y-108909481D01*
X153351872Y-108928285D01*
X153288513Y-109081240D01*
X153279537Y-109098856D01*
X153193028Y-109240022D01*
X153181407Y-109256016D01*
X153073887Y-109381906D01*
X153059906Y-109395887D01*
X152934016Y-109503407D01*
X152918022Y-109515028D01*
X152776856Y-109601537D01*
X152759240Y-109610513D01*
X152606285Y-109673872D01*
X152587481Y-109679982D01*
X152426495Y-109718634D01*
X152406969Y-109721727D01*
X152358444Y-109725548D01*
X152273046Y-109732271D01*
X152256159Y-109731630D01*
X152256157Y-109731799D01*
X152247180Y-109731690D01*
X152238311Y-109730309D01*
X152229411Y-109731473D01*
X152229409Y-109731473D01*
X152206757Y-109734436D01*
X152190416Y-109735500D01*
X105661324Y-109735500D01*
X105641935Y-109733999D01*
X105627115Y-109731691D01*
X105618241Y-109730309D01*
X105604173Y-109732148D01*
X105577953Y-109732822D01*
X105537189Y-109729613D01*
X105437031Y-109721727D01*
X105417505Y-109718634D01*
X105256519Y-109679982D01*
X105237715Y-109673872D01*
X105084760Y-109610513D01*
X105067144Y-109601537D01*
X104925978Y-109515028D01*
X104909984Y-109503407D01*
X104784094Y-109395887D01*
X104770113Y-109381906D01*
X104662593Y-109256016D01*
X104650972Y-109240022D01*
X104564463Y-109098856D01*
X104555487Y-109081240D01*
X104492128Y-108928285D01*
X104486018Y-108909481D01*
X104447366Y-108748495D01*
X104444273Y-108728969D01*
X104440452Y-108680444D01*
X104433729Y-108595046D01*
X104434370Y-108578159D01*
X104434201Y-108578157D01*
X104434310Y-108569180D01*
X104435691Y-108560311D01*
X104434050Y-108547759D01*
X104431564Y-108528757D01*
X104430500Y-108512416D01*
X104430500Y-106376703D01*
X111812743Y-106376703D01*
X111850268Y-106661734D01*
X111926129Y-106939036D01*
X112038923Y-107203476D01*
X112186561Y-107450161D01*
X112366313Y-107674528D01*
X112574851Y-107872423D01*
X112808317Y-108040186D01*
X112812112Y-108042195D01*
X112812113Y-108042196D01*
X112833869Y-108053715D01*
X113062392Y-108174712D01*
X113332373Y-108273511D01*
X113613264Y-108334755D01*
X113641841Y-108337004D01*
X113836282Y-108352307D01*
X113836291Y-108352307D01*
X113838739Y-108352500D01*
X113994271Y-108352500D01*
X113996407Y-108352354D01*
X113996418Y-108352354D01*
X114204548Y-108338165D01*
X114204554Y-108338164D01*
X114208825Y-108337873D01*
X114213020Y-108337004D01*
X114213022Y-108337004D01*
X114349583Y-108308724D01*
X114490342Y-108279574D01*
X114761343Y-108183607D01*
X115016812Y-108051750D01*
X115020313Y-108049289D01*
X115020317Y-108049287D01*
X115134417Y-107969096D01*
X115252023Y-107886441D01*
X115462622Y-107690740D01*
X115644713Y-107468268D01*
X115794927Y-107223142D01*
X115910483Y-106959898D01*
X115989244Y-106683406D01*
X116029751Y-106398784D01*
X116029845Y-106380951D01*
X116029867Y-106376703D01*
X141812743Y-106376703D01*
X141850268Y-106661734D01*
X141926129Y-106939036D01*
X142038923Y-107203476D01*
X142186561Y-107450161D01*
X142366313Y-107674528D01*
X142574851Y-107872423D01*
X142808317Y-108040186D01*
X142812112Y-108042195D01*
X142812113Y-108042196D01*
X142833869Y-108053715D01*
X143062392Y-108174712D01*
X143332373Y-108273511D01*
X143613264Y-108334755D01*
X143641841Y-108337004D01*
X143836282Y-108352307D01*
X143836291Y-108352307D01*
X143838739Y-108352500D01*
X143994271Y-108352500D01*
X143996407Y-108352354D01*
X143996418Y-108352354D01*
X144204548Y-108338165D01*
X144204554Y-108338164D01*
X144208825Y-108337873D01*
X144213020Y-108337004D01*
X144213022Y-108337004D01*
X144349583Y-108308724D01*
X144490342Y-108279574D01*
X144761343Y-108183607D01*
X145016812Y-108051750D01*
X145020313Y-108049289D01*
X145020317Y-108049287D01*
X145134417Y-107969096D01*
X145252023Y-107886441D01*
X145462622Y-107690740D01*
X145644713Y-107468268D01*
X145794927Y-107223142D01*
X145910483Y-106959898D01*
X145989244Y-106683406D01*
X146029751Y-106398784D01*
X146029845Y-106380951D01*
X146031235Y-106115583D01*
X146031235Y-106115576D01*
X146031257Y-106111297D01*
X145993732Y-105826266D01*
X145917871Y-105548964D01*
X145805077Y-105284524D01*
X145657439Y-105037839D01*
X145477687Y-104813472D01*
X145269149Y-104615577D01*
X145035683Y-104447814D01*
X145013843Y-104436250D01*
X144990654Y-104423972D01*
X144781608Y-104313288D01*
X144511627Y-104214489D01*
X144230736Y-104153245D01*
X144199685Y-104150801D01*
X144007718Y-104135693D01*
X144007709Y-104135693D01*
X144005261Y-104135500D01*
X143849729Y-104135500D01*
X143847593Y-104135646D01*
X143847582Y-104135646D01*
X143639452Y-104149835D01*
X143639446Y-104149836D01*
X143635175Y-104150127D01*
X143630980Y-104150996D01*
X143630978Y-104150996D01*
X143494416Y-104179277D01*
X143353658Y-104208426D01*
X143082657Y-104304393D01*
X142827188Y-104436250D01*
X142823687Y-104438711D01*
X142823683Y-104438713D01*
X142813594Y-104445804D01*
X142591977Y-104601559D01*
X142381378Y-104797260D01*
X142199287Y-105019732D01*
X142049073Y-105264858D01*
X141933517Y-105528102D01*
X141854756Y-105804594D01*
X141814249Y-106089216D01*
X141814227Y-106093505D01*
X141814226Y-106093512D01*
X141812765Y-106372417D01*
X141812743Y-106376703D01*
X116029867Y-106376703D01*
X116031235Y-106115583D01*
X116031235Y-106115576D01*
X116031257Y-106111297D01*
X115993732Y-105826266D01*
X115917871Y-105548964D01*
X115805077Y-105284524D01*
X115657439Y-105037839D01*
X115477687Y-104813472D01*
X115269149Y-104615577D01*
X115035683Y-104447814D01*
X115013843Y-104436250D01*
X114990654Y-104423972D01*
X114781608Y-104313288D01*
X114511627Y-104214489D01*
X114230736Y-104153245D01*
X114199685Y-104150801D01*
X114007718Y-104135693D01*
X114007709Y-104135693D01*
X114005261Y-104135500D01*
X113849729Y-104135500D01*
X113847593Y-104135646D01*
X113847582Y-104135646D01*
X113639452Y-104149835D01*
X113639446Y-104149836D01*
X113635175Y-104150127D01*
X113630980Y-104150996D01*
X113630978Y-104150996D01*
X113494416Y-104179277D01*
X113353658Y-104208426D01*
X113082657Y-104304393D01*
X112827188Y-104436250D01*
X112823687Y-104438711D01*
X112823683Y-104438713D01*
X112813594Y-104445804D01*
X112591977Y-104601559D01*
X112381378Y-104797260D01*
X112199287Y-105019732D01*
X112049073Y-105264858D01*
X111933517Y-105528102D01*
X111854756Y-105804594D01*
X111814249Y-106089216D01*
X111814227Y-106093505D01*
X111814226Y-106093512D01*
X111812765Y-106372417D01*
X111812743Y-106376703D01*
X104430500Y-106376703D01*
X104430500Y-89983324D01*
X104432001Y-89963935D01*
X104434309Y-89949115D01*
X104435691Y-89940241D01*
X104433852Y-89926173D01*
X104433178Y-89899952D01*
X104444273Y-89759031D01*
X104447366Y-89739505D01*
X104486018Y-89578519D01*
X104492128Y-89559715D01*
X104555487Y-89406760D01*
X104564463Y-89389144D01*
X104650972Y-89247978D01*
X104662593Y-89231984D01*
X104770113Y-89106094D01*
X104784094Y-89092113D01*
X104909984Y-88984593D01*
X104925978Y-88972972D01*
X105067144Y-88886463D01*
X105084760Y-88877487D01*
X105237715Y-88814128D01*
X105256519Y-88808018D01*
X105417505Y-88769366D01*
X105437031Y-88766273D01*
X105485556Y-88762452D01*
X105570954Y-88755729D01*
X105587841Y-88756370D01*
X105587843Y-88756201D01*
X105596820Y-88756310D01*
X105605689Y-88757691D01*
X105614589Y-88756527D01*
X105614591Y-88756527D01*
X105637243Y-88753564D01*
X105653584Y-88752500D01*
X152182676Y-88752500D01*
X152202065Y-88754001D01*
G37*
%TD.AperFunction*%
%TD*%
%TA.AperFunction,Conductor*%
%TO.N,GND*%
G36*
X152150065Y-112780001D02*
G01*
X152157623Y-112781178D01*
X152173759Y-112783691D01*
X152187827Y-112781852D01*
X152214047Y-112781178D01*
X152245966Y-112783691D01*
X152354969Y-112792273D01*
X152374495Y-112795366D01*
X152535481Y-112834018D01*
X152554285Y-112840128D01*
X152707240Y-112903487D01*
X152724856Y-112912463D01*
X152866022Y-112998972D01*
X152882016Y-113010593D01*
X153007906Y-113118113D01*
X153021887Y-113132094D01*
X153129407Y-113257984D01*
X153141028Y-113273978D01*
X153227537Y-113415144D01*
X153236513Y-113432760D01*
X153299872Y-113585715D01*
X153305982Y-113604519D01*
X153344634Y-113765505D01*
X153347727Y-113785031D01*
X153358271Y-113918954D01*
X153357630Y-113935841D01*
X153357799Y-113935843D01*
X153357690Y-113944820D01*
X153356309Y-113953689D01*
X153357473Y-113962589D01*
X153357473Y-113962591D01*
X153360436Y-113985243D01*
X153361500Y-114001584D01*
X153361500Y-132530676D01*
X153359999Y-132550065D01*
X153356309Y-132573759D01*
X153357473Y-132582662D01*
X153358148Y-132587825D01*
X153358822Y-132614048D01*
X153347727Y-132754969D01*
X153344634Y-132774495D01*
X153305982Y-132935481D01*
X153299872Y-132954285D01*
X153236513Y-133107240D01*
X153227537Y-133124856D01*
X153141028Y-133266022D01*
X153129407Y-133282016D01*
X153021887Y-133407906D01*
X153007906Y-133421887D01*
X152882016Y-133529407D01*
X152866022Y-133541028D01*
X152724856Y-133627537D01*
X152707240Y-133636513D01*
X152554285Y-133699872D01*
X152535481Y-133705982D01*
X152374495Y-133744634D01*
X152354969Y-133747727D01*
X152306444Y-133751548D01*
X152221046Y-133758271D01*
X152204159Y-133757630D01*
X152204157Y-133757799D01*
X152195180Y-133757690D01*
X152186311Y-133756309D01*
X152177411Y-133757473D01*
X152177409Y-133757473D01*
X152154757Y-133760436D01*
X152138416Y-133761500D01*
X105609324Y-133761500D01*
X105589935Y-133759999D01*
X105575115Y-133757691D01*
X105566241Y-133756309D01*
X105552173Y-133758148D01*
X105525953Y-133758822D01*
X105485189Y-133755613D01*
X105385031Y-133747727D01*
X105365505Y-133744634D01*
X105204519Y-133705982D01*
X105185715Y-133699872D01*
X105032760Y-133636513D01*
X105015144Y-133627537D01*
X104873978Y-133541028D01*
X104857984Y-133529407D01*
X104732094Y-133421887D01*
X104718113Y-133407906D01*
X104610593Y-133282016D01*
X104598972Y-133266022D01*
X104512463Y-133124856D01*
X104503487Y-133107240D01*
X104440128Y-132954285D01*
X104434018Y-132935481D01*
X104395366Y-132774495D01*
X104392273Y-132754969D01*
X104388452Y-132706444D01*
X104381729Y-132621046D01*
X104382370Y-132604159D01*
X104382201Y-132604157D01*
X104382310Y-132595180D01*
X104383691Y-132586311D01*
X104382050Y-132573759D01*
X104379564Y-132554757D01*
X104378500Y-132538416D01*
X104378500Y-127430000D01*
X113516496Y-127430000D01*
X113536458Y-127619928D01*
X113595473Y-127801556D01*
X113690960Y-127966944D01*
X113769137Y-128053769D01*
X113799853Y-128117774D01*
X113801500Y-128138077D01*
X113801500Y-130482268D01*
X113795333Y-130521205D01*
X113766458Y-130610072D01*
X113746496Y-130800000D01*
X113766458Y-130989928D01*
X113825473Y-131171556D01*
X113920960Y-131336944D01*
X114048747Y-131478866D01*
X114203248Y-131591118D01*
X114209276Y-131593802D01*
X114209278Y-131593803D01*
X114371681Y-131666109D01*
X114377712Y-131668794D01*
X114471113Y-131688647D01*
X114558056Y-131707128D01*
X114558061Y-131707128D01*
X114564513Y-131708500D01*
X114755487Y-131708500D01*
X114761939Y-131707128D01*
X114761944Y-131707128D01*
X114848887Y-131688647D01*
X114942288Y-131668794D01*
X114948319Y-131666109D01*
X115110722Y-131593803D01*
X115110724Y-131593802D01*
X115116752Y-131591118D01*
X115271253Y-131478866D01*
X115399040Y-131336944D01*
X115494527Y-131171556D01*
X115553542Y-130989928D01*
X115573504Y-130800000D01*
X115553542Y-130610072D01*
X115494527Y-130428444D01*
X115399040Y-130263056D01*
X115271253Y-130121134D01*
X115116752Y-130008882D01*
X115110715Y-130006194D01*
X115093251Y-129998418D01*
X115039155Y-129952438D01*
X115018500Y-129883312D01*
X115018500Y-128910000D01*
X127506496Y-128910000D01*
X127526458Y-129099928D01*
X127585473Y-129281556D01*
X127680960Y-129446944D01*
X127808747Y-129588866D01*
X127963248Y-129701118D01*
X127969276Y-129703802D01*
X127969278Y-129703803D01*
X128131681Y-129776109D01*
X128137712Y-129778794D01*
X128231112Y-129798647D01*
X128318056Y-129817128D01*
X128318061Y-129817128D01*
X128324513Y-129818500D01*
X128515487Y-129818500D01*
X128521939Y-129817128D01*
X128521944Y-129817128D01*
X128608887Y-129798647D01*
X128702288Y-129778794D01*
X128708319Y-129776109D01*
X128870722Y-129703803D01*
X128870724Y-129703802D01*
X128876752Y-129701118D01*
X129031253Y-129588866D01*
X129159040Y-129446944D01*
X129254527Y-129281556D01*
X129313542Y-129099928D01*
X129331536Y-128928722D01*
X129358549Y-128863066D01*
X129367751Y-128852798D01*
X131705144Y-126515405D01*
X131767456Y-126481379D01*
X131794239Y-126478500D01*
X131815487Y-126478500D01*
X131821939Y-126477128D01*
X131821944Y-126477128D01*
X131908888Y-126458647D01*
X132002288Y-126438794D01*
X132008319Y-126436109D01*
X132170722Y-126363803D01*
X132170724Y-126363802D01*
X132176752Y-126361118D01*
X132331253Y-126248866D01*
X132459040Y-126106944D01*
X132554527Y-125941556D01*
X132613542Y-125759928D01*
X132633504Y-125570000D01*
X132613542Y-125380072D01*
X132554527Y-125198444D01*
X132459040Y-125033056D01*
X132331253Y-124891134D01*
X132176752Y-124778882D01*
X132170724Y-124776198D01*
X132170722Y-124776197D01*
X132008319Y-124703891D01*
X132008318Y-124703891D01*
X132002288Y-124701206D01*
X131908887Y-124681353D01*
X131821944Y-124662872D01*
X131821939Y-124662872D01*
X131815487Y-124661500D01*
X131624513Y-124661500D01*
X131618061Y-124662872D01*
X131618056Y-124662872D01*
X131531113Y-124681353D01*
X131437712Y-124701206D01*
X131431682Y-124703891D01*
X131431681Y-124703891D01*
X131269278Y-124776197D01*
X131269276Y-124776198D01*
X131263248Y-124778882D01*
X131108747Y-124891134D01*
X130980960Y-125033056D01*
X130885473Y-125198444D01*
X130826458Y-125380072D01*
X130806496Y-125570000D01*
X130807186Y-125576565D01*
X130811908Y-125621492D01*
X130799136Y-125691331D01*
X130775693Y-125723758D01*
X128534856Y-127964595D01*
X128472544Y-127998621D01*
X128445761Y-128001500D01*
X128324513Y-128001500D01*
X128318061Y-128002872D01*
X128318056Y-128002872D01*
X128231112Y-128021353D01*
X128137712Y-128041206D01*
X128131682Y-128043891D01*
X128131681Y-128043891D01*
X127969278Y-128116197D01*
X127969276Y-128116198D01*
X127963248Y-128118882D01*
X127808747Y-128231134D01*
X127680960Y-128373056D01*
X127585473Y-128538444D01*
X127526458Y-128720072D01*
X127506496Y-128910000D01*
X115018500Y-128910000D01*
X115018500Y-128182502D01*
X115038502Y-128114381D01*
X115050864Y-128098192D01*
X115164621Y-127971852D01*
X115164625Y-127971847D01*
X115169040Y-127966944D01*
X115264527Y-127801556D01*
X115323542Y-127619928D01*
X115343504Y-127430000D01*
X115323542Y-127240072D01*
X115264527Y-127058444D01*
X115169040Y-126893056D01*
X115041253Y-126751134D01*
X114886752Y-126638882D01*
X114880724Y-126636198D01*
X114880722Y-126636197D01*
X114718319Y-126563891D01*
X114718318Y-126563891D01*
X114712288Y-126561206D01*
X114618888Y-126541353D01*
X114531944Y-126522872D01*
X114531939Y-126522872D01*
X114525487Y-126521500D01*
X114334513Y-126521500D01*
X114328061Y-126522872D01*
X114328056Y-126522872D01*
X114241112Y-126541353D01*
X114147712Y-126561206D01*
X114141682Y-126563891D01*
X114141681Y-126563891D01*
X113979278Y-126636197D01*
X113979276Y-126636198D01*
X113973248Y-126638882D01*
X113818747Y-126751134D01*
X113690960Y-126893056D01*
X113595473Y-127058444D01*
X113536458Y-127240072D01*
X113516496Y-127430000D01*
X104378500Y-127430000D01*
X104378500Y-120480000D01*
X120326496Y-120480000D01*
X120346458Y-120669928D01*
X120405473Y-120851556D01*
X120408776Y-120857278D01*
X120408777Y-120857279D01*
X120442686Y-120916010D01*
X120500960Y-121016944D01*
X120628747Y-121158866D01*
X120783248Y-121271118D01*
X120789276Y-121273802D01*
X120789278Y-121273803D01*
X120874628Y-121311803D01*
X120957712Y-121348794D01*
X121051113Y-121368647D01*
X121138056Y-121387128D01*
X121138061Y-121387128D01*
X121144513Y-121388500D01*
X121335487Y-121388500D01*
X121341939Y-121387128D01*
X121341944Y-121387128D01*
X121428887Y-121368647D01*
X121522288Y-121348794D01*
X121605372Y-121311803D01*
X121690722Y-121273803D01*
X121690724Y-121273802D01*
X121696752Y-121271118D01*
X121851253Y-121158866D01*
X121868070Y-121140189D01*
X121928516Y-121102950D01*
X121961706Y-121098500D01*
X125928080Y-121098500D01*
X125996201Y-121118502D01*
X126021715Y-121140189D01*
X126072747Y-121196866D01*
X126227248Y-121309118D01*
X126233276Y-121311802D01*
X126233278Y-121311803D01*
X126395681Y-121384109D01*
X126401712Y-121386794D01*
X126495113Y-121406647D01*
X126582056Y-121425128D01*
X126582061Y-121425128D01*
X126588513Y-121426500D01*
X126779487Y-121426500D01*
X126785939Y-121425128D01*
X126785944Y-121425128D01*
X126872887Y-121406647D01*
X126966288Y-121386794D01*
X126972319Y-121384109D01*
X127134722Y-121311803D01*
X127134724Y-121311802D01*
X127140752Y-121309118D01*
X127295253Y-121196866D01*
X127423040Y-121054944D01*
X127518527Y-120889556D01*
X127577542Y-120707928D01*
X127597504Y-120518000D01*
X127577542Y-120328072D01*
X127518527Y-120146444D01*
X127493284Y-120102721D01*
X127426341Y-119986774D01*
X127423040Y-119981056D01*
X127333400Y-119881500D01*
X127299675Y-119844045D01*
X127299674Y-119844044D01*
X127295253Y-119839134D01*
X127140752Y-119726882D01*
X127134724Y-119724198D01*
X127134722Y-119724197D01*
X126972319Y-119651891D01*
X126972318Y-119651891D01*
X126966288Y-119649206D01*
X126872888Y-119629353D01*
X126785944Y-119610872D01*
X126785939Y-119610872D01*
X126779487Y-119609500D01*
X126588513Y-119609500D01*
X126582061Y-119610872D01*
X126582056Y-119610872D01*
X126495112Y-119629353D01*
X126401712Y-119649206D01*
X126395682Y-119651891D01*
X126395681Y-119651891D01*
X126233278Y-119724197D01*
X126233276Y-119724198D01*
X126227248Y-119726882D01*
X126221907Y-119730762D01*
X126221906Y-119730763D01*
X126130394Y-119797251D01*
X126072747Y-119839134D01*
X126068328Y-119844041D01*
X126063420Y-119848461D01*
X126061524Y-119846356D01*
X126011659Y-119877059D01*
X125978501Y-119881500D01*
X121979714Y-119881500D01*
X121911593Y-119861498D01*
X121886078Y-119839811D01*
X121855668Y-119806037D01*
X121855666Y-119806036D01*
X121851253Y-119801134D01*
X121696752Y-119688882D01*
X121690724Y-119686198D01*
X121690722Y-119686197D01*
X121528319Y-119613891D01*
X121528318Y-119613891D01*
X121522288Y-119611206D01*
X121428887Y-119591353D01*
X121341944Y-119572872D01*
X121341939Y-119572872D01*
X121335487Y-119571500D01*
X121144513Y-119571500D01*
X121138061Y-119572872D01*
X121138056Y-119572872D01*
X121051113Y-119591353D01*
X120957712Y-119611206D01*
X120951682Y-119613891D01*
X120951681Y-119613891D01*
X120789278Y-119686197D01*
X120789276Y-119686198D01*
X120783248Y-119688882D01*
X120628747Y-119801134D01*
X120624326Y-119806044D01*
X120624325Y-119806045D01*
X120586134Y-119848461D01*
X120500960Y-119943056D01*
X120405473Y-120108444D01*
X120346458Y-120290072D01*
X120326496Y-120480000D01*
X104378500Y-120480000D01*
X104378500Y-116402703D01*
X111760743Y-116402703D01*
X111798268Y-116687734D01*
X111874129Y-116965036D01*
X111986923Y-117229476D01*
X112134561Y-117476161D01*
X112314313Y-117700528D01*
X112522851Y-117898423D01*
X112756317Y-118066186D01*
X112760112Y-118068195D01*
X112760113Y-118068196D01*
X112781869Y-118079715D01*
X113010392Y-118200712D01*
X113280373Y-118299511D01*
X113561264Y-118360755D01*
X113589841Y-118363004D01*
X113784282Y-118378307D01*
X113784291Y-118378307D01*
X113786739Y-118378500D01*
X113942271Y-118378500D01*
X113944407Y-118378354D01*
X113944418Y-118378354D01*
X114152548Y-118364165D01*
X114152554Y-118364164D01*
X114156825Y-118363873D01*
X114161020Y-118363004D01*
X114161022Y-118363004D01*
X114297584Y-118334723D01*
X114438342Y-118305574D01*
X114709343Y-118209607D01*
X114964812Y-118077750D01*
X114968313Y-118075289D01*
X114968317Y-118075287D01*
X115082417Y-117995096D01*
X115200023Y-117912441D01*
X115410622Y-117716740D01*
X115592713Y-117494268D01*
X115742927Y-117249142D01*
X115858483Y-116985898D01*
X115937244Y-116709406D01*
X115977751Y-116424784D01*
X115977845Y-116406951D01*
X115977867Y-116402703D01*
X141760743Y-116402703D01*
X141798268Y-116687734D01*
X141874129Y-116965036D01*
X141986923Y-117229476D01*
X142134561Y-117476161D01*
X142314313Y-117700528D01*
X142522851Y-117898423D01*
X142756317Y-118066186D01*
X142760112Y-118068195D01*
X142760113Y-118068196D01*
X142781869Y-118079715D01*
X143010392Y-118200712D01*
X143280373Y-118299511D01*
X143561264Y-118360755D01*
X143589841Y-118363004D01*
X143784282Y-118378307D01*
X143784291Y-118378307D01*
X143786739Y-118378500D01*
X143942271Y-118378500D01*
X143944407Y-118378354D01*
X143944418Y-118378354D01*
X144152548Y-118364165D01*
X144152554Y-118364164D01*
X144156825Y-118363873D01*
X144161020Y-118363004D01*
X144161022Y-118363004D01*
X144297584Y-118334723D01*
X144438342Y-118305574D01*
X144709343Y-118209607D01*
X144964812Y-118077750D01*
X144968313Y-118075289D01*
X144968317Y-118075287D01*
X145082418Y-117995095D01*
X145200023Y-117912441D01*
X145410622Y-117716740D01*
X145592713Y-117494268D01*
X145742927Y-117249142D01*
X145858483Y-116985898D01*
X145937244Y-116709406D01*
X145977751Y-116424784D01*
X145977845Y-116406951D01*
X145979235Y-116141583D01*
X145979235Y-116141576D01*
X145979257Y-116137297D01*
X145941732Y-115852266D01*
X145865871Y-115574964D01*
X145753077Y-115310524D01*
X145605439Y-115063839D01*
X145425687Y-114839472D01*
X145217149Y-114641577D01*
X144983683Y-114473814D01*
X144961843Y-114462250D01*
X144938654Y-114449972D01*
X144729608Y-114339288D01*
X144459627Y-114240489D01*
X144178736Y-114179245D01*
X144147685Y-114176801D01*
X143955718Y-114161693D01*
X143955709Y-114161693D01*
X143953261Y-114161500D01*
X143797729Y-114161500D01*
X143795593Y-114161646D01*
X143795582Y-114161646D01*
X143587452Y-114175835D01*
X143587446Y-114175836D01*
X143583175Y-114176127D01*
X143578980Y-114176996D01*
X143578978Y-114176996D01*
X143442416Y-114205277D01*
X143301658Y-114234426D01*
X143030657Y-114330393D01*
X142775188Y-114462250D01*
X142771687Y-114464711D01*
X142771683Y-114464713D01*
X142761594Y-114471804D01*
X142539977Y-114627559D01*
X142329378Y-114823260D01*
X142147287Y-115045732D01*
X141997073Y-115290858D01*
X141881517Y-115554102D01*
X141802756Y-115830594D01*
X141762249Y-116115216D01*
X141762227Y-116119505D01*
X141762226Y-116119512D01*
X141760765Y-116398417D01*
X141760743Y-116402703D01*
X115977867Y-116402703D01*
X115979235Y-116141583D01*
X115979235Y-116141576D01*
X115979257Y-116137297D01*
X115941732Y-115852266D01*
X115865871Y-115574964D01*
X115753077Y-115310524D01*
X115605439Y-115063839D01*
X115425687Y-114839472D01*
X115217149Y-114641577D01*
X114983683Y-114473814D01*
X114961843Y-114462250D01*
X114938654Y-114449972D01*
X114729608Y-114339288D01*
X114459627Y-114240489D01*
X114178736Y-114179245D01*
X114147685Y-114176801D01*
X113955718Y-114161693D01*
X113955709Y-114161693D01*
X113953261Y-114161500D01*
X113797729Y-114161500D01*
X113795593Y-114161646D01*
X113795582Y-114161646D01*
X113587452Y-114175835D01*
X113587446Y-114175836D01*
X113583175Y-114176127D01*
X113578980Y-114176996D01*
X113578978Y-114176996D01*
X113442416Y-114205277D01*
X113301658Y-114234426D01*
X113030657Y-114330393D01*
X112775188Y-114462250D01*
X112771687Y-114464711D01*
X112771683Y-114464713D01*
X112761594Y-114471804D01*
X112539977Y-114627559D01*
X112329378Y-114823260D01*
X112147287Y-115045732D01*
X111997073Y-115290858D01*
X111881517Y-115554102D01*
X111802756Y-115830594D01*
X111762249Y-116115216D01*
X111762227Y-116119505D01*
X111762226Y-116119512D01*
X111760765Y-116398417D01*
X111760743Y-116402703D01*
X104378500Y-116402703D01*
X104378500Y-114009324D01*
X104380001Y-113989935D01*
X104382309Y-113975115D01*
X104383691Y-113966241D01*
X104381852Y-113952173D01*
X104381178Y-113925952D01*
X104392273Y-113785031D01*
X104395366Y-113765505D01*
X104434018Y-113604519D01*
X104440128Y-113585715D01*
X104503487Y-113432760D01*
X104512463Y-113415144D01*
X104598972Y-113273978D01*
X104610593Y-113257984D01*
X104718113Y-113132094D01*
X104732094Y-113118113D01*
X104857984Y-113010593D01*
X104873978Y-112998972D01*
X105015144Y-112912463D01*
X105032760Y-112903487D01*
X105185715Y-112840128D01*
X105204519Y-112834018D01*
X105365505Y-112795366D01*
X105385031Y-112792273D01*
X105433556Y-112788452D01*
X105518954Y-112781729D01*
X105535841Y-112782370D01*
X105535843Y-112782201D01*
X105544820Y-112782310D01*
X105553689Y-112783691D01*
X105562589Y-112782527D01*
X105562591Y-112782527D01*
X105585243Y-112779564D01*
X105601584Y-112778500D01*
X152130676Y-112778500D01*
X152150065Y-112780001D01*
G37*
%TD.AperFunction*%
%TD*%
M02*
